<?xml version="1.0" encoding="utf-8"?>
<!-- Generator: Adobe Illustrator 17.0.0, SVG Export Plug-In . SVG Version: 6.00 Build 0)  -->
<!DOCTYPE svg PUBLIC "-//W3C//DTD SVG 1.1//EN" "http://www.w3.org/Graphics/SVG/1.1/DTD/svg11.dtd">
<svg version="1.1" xmlns="http://www.w3.org/2000/svg" xmlns:xlink="http://www.w3.org/1999/xlink" x="0px" y="0px" width="155px"
	 height="155px" viewBox="0 0 155 155" enable-background="new 0 0 155 155" xml:space="preserve">
<g id="Layer_4">
	<polygon fill="#FFFFFF" points="0,129.125 155,129.125 155,9.313 153.243,6.381 152.25,4.875 150.325,3.048 148.765,1.567 146,0 
		10.188,0 7.125,1 3.667,4.481 1.938,6.438 0,9.313 	"/>
</g>
<g id="Layer_1" display="none">
	<polygon display="inline" fill="#8DC63F" points="43.084,15.023 116.557,15.023 119.175,21.305 121.269,29.333 122.141,35.092 
		122.542,39.458 122.542,45.583 122.542,52.458 122.542,57.333 120.083,66.667 116.583,74.542 113.958,78.417 109.167,82.875 
		104.125,86.917 98.125,89.125 94.667,88.958 90.583,88 85.042,85.708 85.042,108.417 83.542,109.625 80.042,109.625 
		79.208,108.292 76.5,98.833 74.458,100.333 69.375,102.375 62.333,102.792 55.083,101.625 48.417,97.792 40.083,89.458 
		32.25,73.583 30.292,62.833 31.208,48.667 34.25,36.417 38.833,22.542 	"/>
</g>
<g id="Layer_2">
	<polygon fill="#651C26" points="0,129.125 155,129.125 155,145.688 153.063,148.563 150.688,151.25 147.875,154 144.813,155 9,155 
		6.438,153.625 2.75,150.125 0.938,147.375 0,145.688 	"/>
</g>
<g id="Layer_3">
	<text transform="matrix(1 0 0 1 12.104 146.4059)" fill="#FFFFFF" font-family="'ArialMT'" font-size="18">sagitată</text>
	<path fill="#90C740" d="M49.5,104.25"/>
	<path fill="#8DC63F" d="M119.333,104.667"/>
	<path fill="none" d="M105,65.5"/>
	<polygon fill="#8DC63F" points="60.083,17.917 97.833,17.917 99,31.75 99.75,43.25 100.083,49.083 106.583,59.333 112.833,73.25 
		116.583,81.333 120.083,92.75 121.5,98.25 122.333,108.917 121.25,110.917 117.5,109.75 99.667,100.667 92.417,95.333 
		80.167,85.583 79.667,89.25 79.583,105.5 78.083,108.667 76.083,108.75 75.083,107.75 75,92.917 75.167,85.333 71.25,88.417 
		64.25,93.25 58.417,96.917 50,101 39.167,104.667 33,106.417 25.583,107 25,105.5 27.583,98.167 34.25,84.333 43.333,67.833 
		49.083,58.667 54.25,51.917 55,47.083 56.5,31.25 	"/>
</g>
</svg>
