<?xml version="1.0" encoding="utf-8"?>
<!-- Generator: Adobe Illustrator 17.0.0, SVG Export Plug-In . SVG Version: 6.00 Build 0)  -->
<!DOCTYPE svg PUBLIC "-//W3C//DTD SVG 1.1//EN" "http://www.w3.org/Graphics/SVG/1.1/DTD/svg11.dtd">
<svg version="1.1" xmlns="http://www.w3.org/2000/svg" xmlns:xlink="http://www.w3.org/1999/xlink" x="0px" y="0px" width="155px"
	 height="155px" viewBox="0 0 155 155" enable-background="new 0 0 155 155" xml:space="preserve">
<g id="Layer_4">
	<polygon fill="#FFFFFF" points="0,129.125 155,129.125 155,9.313 153.243,6.381 152.25,4.875 150.325,3.048 148.765,1.567 146,0 
		10.188,0 7.125,1 3.667,4.481 1.938,6.438 0,9.313 	"/>
</g>
<g id="Layer_1" display="none">
	<polygon display="inline" fill="#8DC63F" points="43.084,15.023 116.557,15.023 119.175,21.305 121.269,29.333 122.141,35.092 
		122.542,39.458 122.542,45.583 122.542,52.458 122.542,57.333 120.083,66.667 116.583,74.542 113.958,78.417 109.167,82.875 
		104.125,86.917 98.125,89.125 94.667,88.958 90.583,88 85.042,85.708 85.042,108.417 83.542,109.625 80.042,109.625 
		79.208,108.292 76.5,98.833 74.458,100.333 69.375,102.375 62.333,102.792 55.083,101.625 48.417,97.792 40.083,89.458 
		32.25,73.583 30.292,62.833 31.208,48.667 34.25,36.417 38.833,22.542 	"/>
</g>
<g id="Layer_2">
	<polygon fill="#651C26" points="0,129.125 155,129.125 155,145.688 153.063,148.563 150.688,151.25 147.875,154 144.813,155 9,155 
		6.438,153.625 2.75,150.125 0.938,147.375 0,145.688 	"/>
</g>
<g id="Layer_3">
	<text transform="matrix(1 0 0 1 12.1665 146.333)" fill="#FFFFFF" font-family="'ArialMT'" font-size="18">hastată</text>
	<path fill="#90C740" d="M49.5,104.25"/>
	<path fill="#8DC63F" d="M119.333,104.667"/>
	<polygon fill="#8DC63F" points="55.917,29.25 105.833,29.25 104.083,35.083 102.75,40.167 101.167,46.333 100,50.917 99.25,52.75 
		99.25,54.417 100.75,56.417 104.417,59 110.5,60 116.25,61.417 120.917,63.333 127.667,66.583 132.333,70.833 134.583,73.5 
		137.083,76.833 137.917,78.583 138.583,80.917 137.917,83.083 134.917,85.25 130.917,86.583 126.5,88 124,89 115.917,89.75 
		109.5,89.417 103.333,86.917 96.583,84.667 92.75,83.583 89.75,83.667 85.417,84.583 82.167,86.75 80.5,88.333 80.667,107.583 
		79.167,108.5 78.167,108.833 76.333,108.833 75.25,107.333 75,85.583 73.5,84.25 71.5,83.083 70,82.333 68.333,81.917 
		66.417,81.917 64.667,82.583 59.917,84.25 54.417,85.667 47.667,86.583 37.833,85.917 28.5,83 25.5,80.5 23.917,79.5 23.917,77.5 
		27.75,70.5 36.417,63.75 44.833,58.667 52.083,55.667 56.833,52.333 58.167,48.167 57.25,42.917 56.167,37.75 55,32.75 	"/>
</g>
</svg>
