<?xml version="1.0" encoding="utf-8"?>
<!-- Generator: Adobe Illustrator 17.0.0, SVG Export Plug-In . SVG Version: 6.00 Build 0)  -->
<!DOCTYPE svg PUBLIC "-//W3C//DTD SVG 1.1//EN" "http://www.w3.org/Graphics/SVG/1.1/DTD/svg11.dtd">
<svg version="1.1" xmlns="http://www.w3.org/2000/svg" xmlns:xlink="http://www.w3.org/1999/xlink" x="0px" y="0px" width="155px"
	 height="155px" viewBox="0 0 155 155" enable-background="new 0 0 155 155" xml:space="preserve">
<g id="Layer_4">
	<polygon fill="#FFFFFF" points="0,129.125 155,129.125 155,9.313 153.243,6.381 152.25,4.875 150.325,3.048 148.765,1.567 146,0 
		10.188,0 7.125,1 3.667,4.481 1.938,6.438 0,9.313 	"/>
</g>
<g id="Layer_1" display="none">
	<polygon display="inline" fill="#8DC63F" points="43.084,15.023 116.557,15.023 119.175,21.305 121.269,29.333 122.141,35.092 
		122.542,39.458 122.542,45.583 122.542,52.458 122.542,57.333 120.083,66.667 116.583,74.542 113.958,78.417 109.167,82.875 
		104.125,86.917 98.125,89.125 94.667,88.958 90.583,88 85.042,85.708 85.042,108.417 83.542,109.625 80.042,109.625 
		79.208,108.292 76.5,98.833 74.458,100.333 69.375,102.375 62.333,102.792 55.083,101.625 48.417,97.792 40.083,89.458 
		32.25,73.583 30.292,62.833 31.208,48.667 34.25,36.417 38.833,22.542 	"/>
</g>
<g id="Layer_2">
	<polygon fill="#651C26" points="0,129.125 155,129.125 155,145.688 153.063,148.563 150.688,151.25 147.875,154 144.813,155 9,155 
		6.438,153.625 2.75,150.125 0.938,147.375 0,145.688 	"/>
</g>
<g id="Layer_3">
	<text transform="matrix(1 0 0 1 12.104 146.4059)" fill="#FFFFFF" font-family="'ArialMT'" font-size="18">scoarţă</text>
	<path fill="#90C740" d="M49.5,104.25"/>
	<path fill="#8DC63F" d="M119.333,104.667"/>
	<path fill="none" d="M105,65.5"/>
	<polygon fill="#FFFFFF" points="72.333,64.083 73.917,62.917 76.583,62.167 79.333,62.75 82.417,64.083 83.333,66.667 82.75,69.75 
		80.75,71.583 76.417,72 73.083,70.083 71.583,67.083 	"/>
	<g>
		<path fill="#9FCC47" d="M75.61,29.348c-0.262,8.742-1.293,17.404-5.516,24.995c-7.355,13.221-9.617,27.47-9.927,42.225
			c-0.164,7.819,0.08,15.647,0.037,23.47c-0.007,1.317,0.748,3.53-1.403,3.625c-2.714,0.12-1.7-2.32-1.721-3.754
			c-0.177-12.135,0.307-24.279-0.801-36.401c-0.657-7.181-3.927-13.35-7.305-19.424c-8.57-15.407-12.926-31.919-13.623-49.464
			c-0.018-0.447,0.226-0.904,1.147-1.611c1.08,23.411,9.909,44.015,22.163,63.217C61.782,59.886,73.867,46.543,75.61,29.348z"/>
		<path fill="#9FCC47" d="M74.087,119.566c0.616,1.292,0.501,2.505-0.955,4.466c0-6.219,0-11.641,0-17.062
			c1.691-2.356,0.563-5,0.769-7.508c0.076-2.164,0.151-4.327,0.227-6.491c1.623-2.012,0.6-4.336,0.771-6.52
			c0.073-1.492,0.145-2.984,0.218-4.476c1.113-0.898,0.849-2.117,0.771-3.294c0.817-7.887,5.855-13.896,9.195-20.66
			c0.777,0.478,0.906,1.254,0.953,2.069c-0.407,4.047-4.386,6.781-4.076,11.092c-1.484,1.387-3.272,2.631-2.563,5.307
			c2.476-1.242,3.259-3.269,3.561-5.598c4.151-7.38,4.15-7.38,10.625-2.212c0.125,0.1,0.278,0.167,0.417,0.249
			c0.003,1.463,0.648,2.506,2.013,3.078c3.082,5.412,5.513,10.963,3.315,18.703c-1.642-6.682-3.545-12.122-7.197-16.756
			c-4.03-5.113-4.297-5.127-7.135,0.77c-5.135,10.671-4.802,22.294-5.869,33.67c-0.233,2.482-0.234,4.986-0.341,7.48
			c-0.522-0.309-1.044-0.619-1.567-0.928c0.007-5.269,0.027-10.538,0.005-15.806c-0.002-0.555,0.384-1.485-0.576-1.545
			c-0.906-0.056-0.485,0.973-0.803,1.441c-1.334,1.34-0.685,3-0.734,4.548c-0.077,2.481-0.154,4.963-0.231,7.444
			C73.106,113.733,74.337,116.718,74.087,119.566z M78.991,82.992c-3.65,2.76-0.125,7.167-2.67,10.182
			c4.136-2.64,2.146-6.697,2.685-10.169c1.407-1.536,1.301-3.024,0.099-4.768C77.113,80.072,79.297,81.497,78.991,82.992z"/>
		<path fill="#9FCC47" d="M103.853,120.72c0.417-1.898,0.835-3.796,1.252-5.693c0.852,0.322,1.049,2.039,2.188,1.409
			c1.136-0.629,0.551-1.697-0.212-2.357c-0.804-0.696-1.086-1.558-1.225-2.53c0.092-1.501,0.184-3.002,0.276-4.503
			c0.493-0.033,0.987-0.065,1.48-0.098c0.045,1.862-1.089,3.739,0.706,7.026c1.929-13.255,2.817-25.106,0.103-37.031
			c-1.677-9.632-5.269-18.849-5.955-28.711c-0.811-11.667-0.543-23.304-0.32-35.079c2.06,0.357,1.849,1.521,1.825,2.437
			c-0.493,19.251,3.3,38.028,6.245,56.899c2.538,16.265,2.225,32.448-1.39,48.536c-0.198,0.411-0.396,0.823-0.598,1.23
			C106.753,121.783,104.867,122.498,103.853,120.72z"/>
		<path fill="#9FCC47" d="M70.786,31.994c-1.739,9.555-4.961,18.545-10.152,26.794c-1.235,1.962-2.297,3.144-4.34,0.608
			c-10.837-13.448-16.12-28.722-15.699-46.703c2.883,1.791,2.208,4.206,2.417,6.271c1.154,11.438,4.201,22.051,12.271,30.815
			c2.754,2.991,4.595,2.911,6.237-0.518c1.545-3.226,5.64-5.635,3.519-10.143c0.733-2.761-2.193-2.882-3.177-4.405
			c0.739-1.571,1.479-3.143,2.218-4.714C66.431,30.276,68.108,32.816,70.786,31.994z"/>
		<path fill="#9FCC47" d="M82.36,123.508c-0.299-3.996-0.777-7.987-0.86-11.987c-0.208-9.97-0.213-19.946,3.057-29.56
			c0.732-2.152,1.284-5.379,3.493-5.464c2.088-0.081,3.1,3.05,4.18,5.054c4.297,7.967,4.656,16.564,3.417,25.223
			c-0.724,5.062-2.321,9.997-3.482,14.999c-0.229,0.988-0.252,2.069-1.647,1.995c-1.375-0.073-1.363-1.179-1.492-2.162
			c-0.657-5.015,0.97-9.441,3.268-13.796c4.081-7.73,2.555-15.044-1.959-22.092c-1.507-2.352-2.499-2.143-3.656,0.242
			c-3.468,7.145-4.524,14.552-2.359,22.247c1.487,5.286-1.046,10.138-0.552,15.289C83.299,123.5,82.829,123.504,82.36,123.508z"/>
		<path fill="#9BCB45" d="M127.343,71.107c0.109,0.636,0.219,1.273,0.328,1.909c-0.066,0.132-0.214,0.29-0.182,0.391
			c0.086,0.269,0.249,0.512,0.382,0.766c-0.127,7.293,4.17,13.566,4.665,20.77c0.655,9.534,1.512,19.036,0.222,29.014
			c-2.264-1.47-1.616-3.29-1.393-4.717c1.511-9.66-0.529-18.831-3.68-27.842c-1.755-5.019-3.405-10.041-3.852-15.377
			c0.072-1.059,0.144-2.117,0.216-3.176c-0.002-0.904-0.004-1.808-0.005-2.712c-0.652-6.176,0.957-12.128,1.793-18.157
			c0.141-0.854,0.282-1.708,0.423-2.563c0.213-0.817,0.427-1.633,0.641-2.45c0.437-1.198,0.875-2.397,1.815-4.973
			c0.92,6.636-1.27,11.668-0.876,16.801c-0.066,0.399-0.133,0.798-0.199,1.197c-0.119,0.973-0.239,1.945-0.358,2.918
			C126.851,65.645,126.786,68.379,127.343,71.107z"/>
		<path fill="#A1CD4A" d="M76.441,50.335c0.371,4.315-0.851,8.441-2.775,11.911c-6.841,12.336-6.655,25.885-7.496,39.247
			c-0.406,6.461,0.014,12.973,0.011,19.462c0,1.058,0.442,2.692-1.271,2.686c-1.544-0.006-1.474-1.593-1.477-2.698
			c-0.037-14.959-0.669-29.961,1.626-44.81C66.528,66.628,72.908,59.122,76.441,50.335z"/>
		<path fill="#A1CD4A" d="M37.13,65.971c-0.445-1.198-0.89-2.396-1.334-3.594c0.747-0.823,1.493-1.646,2.24-2.469
			c3.179-0.145,3.623,2.703,4.557,4.588c5.329,10.75,6.85,22.499,8.335,34.195c0.838,6.599,1.406,13.267,0.967,19.938
			c-0.116,1.759,1.166,4.883-1.575,4.919c-2.636,0.035-1.569-2.991-1.653-4.803c-0.638-13.621-0.682-27.309-3.865-40.671
			c-0.957-4.019-2.479-7.914-3.914-11.803c-0.389-1.056-0.596-3.544-2.814-1.413C37.759,65.229,37.444,65.6,37.13,65.971z"/>
		<path fill="#A1CD4A" d="M25.987,66.785c3.248,0.53,4.801,3.774,8.198,5.472c-0.776-5.066-3.401-8.087-6.553-10.806
			c-1.089-0.94-2.736-1.497-2.614-3.353c0.053-0.806,0.018-1.867,0.493-2.333c0.637-0.625,1.487,0.072,2.186,0.524
			c5.365,3.471,11.303,17.447,10.076,23.749c-1.332,1.054-2.881,2.119,0.142,2.965c-0.057,1.021-0.114,2.042-0.171,3.063
			c-1.073,1.324-1.071,2.626,0.083,3.903c0.233,4.394,0.467,8.788,0.701,13.182c-0.861,4.235-0.83,8.472-0.014,12.709
			c-0.151,1.963-0.3,3.926-0.453,5.889c-0.1,1.288-0.52,2.39-2.082,1.978c-1.324-0.349-0.963-1.482-0.759-2.441
			c0.307-1.442,0.624-2.881,0.937-4.322c1.457-2.88,0.978-5.84,0.366-8.805c0.027-4.121,0.053-8.243,0.08-12.364
			c0.566-1.34,0.747-2.635-0.446-3.768c-0.929-8.781-2.765-17.164-10.12-23.133C26.019,68.191,26.003,67.488,25.987,66.785z
			 M36.315,78.078c-0.253-0.14-0.507-0.281-0.76-0.421c-0.023,0.271-0.079,0.546-0.049,0.811c0.01,0.083,0.336,0.229,0.373,0.194
			C36.053,78.498,36.176,78.28,36.315,78.078z"/>
		<path fill="#A1CD4A" d="M124.045,70.135c0.002,0.904,0.004,1.808,0.005,2.712c-3.324-0.379-1.64,1.864-1.678,3.205
			c0.368,11.523,3.716,22.595,5.125,33.956c0.469,3.784,0.428,7.632,0.578,11.453c0.048,1.21-0.066,2.36-1.76,2.389
			c-1.439,0.024-2.209-0.561-2.156-2.036c0.712-19.975-5.456-39.57-3.264-59.644c0.399-3.656,0.726-7.34,1.976-10.749
			c0.975-2.66,1.25-0.373,1.558,0.529c-1.461,5.219-1.628,10.622-2.176,15.964C122.156,68.855,121.185,71.259,124.045,70.135z"/>
		<path fill="#A1CD4A" d="M106.171,82.95c-0.945-7.013-3.355-13.487-7.207-19.417c-2.314-3.562-3.758-7.476-3.918-11.674
			c-0.45-11.801-0.71-23.609-0.948-35.417c-0.023-1.117-0.882-3.114,1.037-3.258c2.509-0.188,1.459,2.05,1.551,3.32
			c0.818,11.278-0.326,22.61,1.126,33.89c0.736,5.714,2.543,10.946,5.13,16.007c1.734,3.391,3.559,6.758,4.24,10.576
			c0.172,1.98,0.343,3.96,0.515,5.94C107.188,82.927,106.68,82.938,106.171,82.95z"/>
		<path fill="#9FCC47" d="M25.676,73.784c3.238,2.204,4.653,5.295,5.438,8.65c2.527,10.797,2.028,21.771,1.628,32.724
			c-0.041,1.135-0.327,2.368-0.867,3.355c-1.148,2.099-1.08,6.55-4.605,5.067c-3.712-1.562,0.224-4.083,0.946-5.895
			c4.542-11.395,2.478-22.46-0.94-33.595C26.308,80.934,23.87,77.929,25.676,73.784z"/>
		<path fill="#A1CD4A" d="M96.013,72.006c-1.365-0.572-2.009-1.616-2.013-3.078c1.196-0.852,0.504-1.664-0.058-2.472
			c-2.293-3.294-4.273-6.758-5.46-10.751c-1.9,1.121-1,3.377-2.447,4.385c-0.047-0.814-0.176-1.591-0.953-2.069
			c3.028-6.717,3.147-13.86,3.078-21.031c0.305,0,0.61,0.007,0.915,0.019c0.899,4.282,0.492,8.63,0.662,12.949
			c-0.085,0.119-0.267,0.274-0.238,0.35c0.096,0.254,0.267,0.479,0.409,0.716c1.846,6.943,4.59,13.319,9.326,18.973
			c6.116,7.3,5.043,16.516,5.311,25.239c0.074,2.412-0.512,4.843-1.076,7.249c-0.86-7.059,0.437-14.277-1.602-21.151
			C100.821,77.808,101.022,73.173,96.013,72.006z"/>
		<path fill="#A5CF4E" d="M73.237,76.574c-1.538,14.545-1.747,29.157-2.239,43.756c-0.04,1.179,0.672,2.982-1.21,3.265
			c-1.204,0.181-1.415-1.225-1.422-2.192c-0.111-15.568-1.437-31.238,3.704-46.387C72.458,75.535,72.848,76.055,73.237,76.574z"/>
		<path fill="#9DCB3F" d="M116.856,77.036c0,5.477,0,10.953,0,16.43c-3.498-26.696-2.806-53.475-2.797-80.239
			c0.593-0.016,1.185-0.031,1.778-0.047c0.231,17.6,0.462,35.2,0.694,52.8C115.733,69.692,115.575,73.385,116.856,77.036z"/>
		<path fill="#9BCB45" d="M128.799,62.932c0.198-7.731,2.318-14.98,5.446-22.269c1.171,5.17,1.238,8.946-0.414,13.545
			c-3.169,8.823-3.604,17.523,0.467,26.161c1.196,2.538,0.587,5.076,0.655,8.608c-4.147-5.982-5.895-11.692-6.116-17.921
			C128.825,68.348,128.812,65.64,128.799,62.932z"/>
		<path fill="#A8D052" d="M37.13,65.971c0.314-0.371,0.629-0.741,0.943-1.112c4.706,7.925,5.264,16.98,6.66,25.727
			c1.49,9.336,2.19,18.803,2.144,28.283c-0.008,1.653,0.962,4.606-1.291,4.624c-2.377,0.019-1.316-2.869-1.305-4.525
			C44.395,100.962,42.711,83.205,37.13,65.971z"/>
		<path fill="#A8D052" d="M38.035,59.908c-0.747,0.823-1.493,1.646-2.24,2.469c-2.212-3.684-4.217-7.553-8.835-8.867
			c-1.758-0.5-2.045-1.929-2.008-3.553c0.055-2.46,0.014-4.922,0.609-7.646c2.083,4.435,3.959,8.944,7.842,11.927
			C35.454,55.813,37.681,57.034,38.035,59.908z"/>
		<path fill="#A8D052" d="M73.237,76.574c-0.389-0.519-0.779-1.039-1.168-1.558c1.064-6.707,5.972-11.755,7.802-18.147
			c1.503-5.247,2.955-10.492,3.376-16.199C86.015,45.219,84.139,51.795,73.237,76.574z"/>
		<path fill="#A5CF4E" d="M53.328,38.184c0.809-1.917-0.947-2.724-1.715-3.945c-0.84-1.789-1.678-3.594-2.515-5.398
			c-2.143-2.714-3.459-5.536-3.861-9.215c-0.233-2.133,1.163-2.611,1.569-4.148c1.935,8.548,5.115,16.392,10.259,23.355
			c-0.239,0.377-0.477,0.755-0.716,1.132c-1.16-0.336-1.396-2.238-3.022-1.784L53.328,38.184z"/>
		<path fill="#F2F7E4" d="M107.697,82.916c-0.172-1.98-0.343-3.96-0.515-5.94c0.413-0.012,0.825-0.023,1.239-0.035
			c2.715,11.926,1.826,23.776-0.102,37.031c-1.795-3.287-0.661-5.164-0.707-7.025C108.309,98.94,108.073,90.928,107.697,82.916z"/>
		<path fill="#AFD35C" d="M25.19,112.913c0-7.543,0-15.087,0-22.63C28.886,97.736,28.674,105.258,25.19,112.913z"/>
		<path fill="#BBD86B" d="M84.279,13.712c0,8.847,0,17.695,0,26.542c-0.253,0.011-0.506,0.022-0.759,0.032
			c0-8.846,0-17.692,0-26.538C83.773,13.736,84.026,13.724,84.279,13.712z"/>
		<path fill="#A5CF4E" d="M131.592,13.361c1.366,7.749-0.295,15.352-1.752,22.952c0-7.682,0-15.363,0-23.045
			C130.424,13.299,131.008,13.33,131.592,13.361z"/>
		<path fill="#AFD35C" d="M67.797,22.111c-0.986-0.884-0.146-2.059-0.486-3.047c2.702-0.734,0.352-4.109,2.643-5.058
			c0.116,1.531,0.436,2.954,1.87,0.771c0.497-0.756,0.342-2.106,1.688-1.538c0.393,0.166,0.524,1.471,0.418,2.203
			c-0.325,2.244-0.823,4.463-1.255,6.692c-0.591-0.041-1.18-0.081-1.77-0.122C69.869,22.045,68.833,22.078,67.797,22.111z"/>
		<path fill="#9DCB3F" d="M99.496,97.591c2.09,9.367-1.986,16.742-3.407,24.529c-0.14,0.767-0.743,1.2-1.417,0.816
			c-0.909-0.517-0.49-1.371-0.295-2.19c1.438-6.058,2.837-12.125,4.222-18.195C98.885,101.297,99.062,100.017,99.496,97.591z"/>
		<path fill="#9BCB45" d="M56.35,39.966c0.239-0.377,0.477-0.755,0.716-1.132c3.317,0.626,2.804-3.206,4.797-4.121
			c0.984,1.523,3.91,1.644,3.177,4.405c-1.186,2.146-2.233,4.396-4.39,5.808c-0.312-0.403-0.625-0.806-0.937-1.21
			c0.086-0.568,0.173-1.136,0.259-1.704c2.402-0.185,2.075-1.953,2.015-3.738c-0.836,2.536-3.019,2.685-4.987,3.196
			c-1.48-0.43-1.731,0.341-1.523,1.559c-0.565-0.574-1.15-1.045-1.965-0.406c0,0-0.235-0.263-0.232-0.263
			c0.24-0.286,0.477-0.571,0.713-0.856C55.436,41.999,56.747,42.293,56.35,39.966z"/>
		<path fill="#BBD86B" d="M107.697,82.916c0.376,8.012,0.612,16.024-0.086,24.031c-0.493,0.032-0.986,0.065-1.479,0.097
			c0.74-8.031,1.444-16.061,0.039-24.095C106.68,82.938,107.188,82.927,107.697,82.916z"/>
		<path fill="#F2F7E4" d="M124.045,70.135c-2.86,1.124-1.889-1.28-1.792-2.22c0.548-5.342,0.715-10.745,2.176-15.964
			c0.47,0.009,0.939,0.018,1.409,0.027C125.002,58.007,123.393,63.959,124.045,70.135z"/>
		<path fill="#A1CD4A" d="M115.644,110.265c0.865,3.95,0.428,7.501,0.34,11.033c-0.028,1.137-0.05,2.613-1.706,2.437
			c-2.139-0.227-1.337-1.902-1.087-3.069C113.908,117.331,114.748,114.022,115.644,110.265z"/>
		<path fill="#AFD35C" d="M40.345,92.524c1.129,4.223,2.468,8.335,0.764,13.576C39.401,101.029,40.087,96.703,40.345,92.524z"/>
		<path fill="#9DCB3F" d="M89.075,37.01c-0.305-0.012-0.61-0.019-0.915-0.019c0-7.882,0-15.765,0-23.648
			c0.305-0.001,0.61-0.001,0.915-0.002C89.075,21.231,89.075,29.12,89.075,37.01z"/>
		<path fill="#9DCB3F" d="M126.249,21.919c-0.023-2.921-0.637-5.867,0.548-10.073c2.361,3.955,0.77,7.165,1.076,10.107
			C127.331,21.942,126.79,21.931,126.249,21.919z"/>
		<path fill="#9FCC47" d="M70.905,22.011c0.59,0.04,1.179,0.081,1.77,0.122c-0.593,2.957-1.187,5.913-1.781,8.869
			c-2.067-0.125-2.849-1.422-3.002-3.292c-0.04-0.248,0.006-0.479,0.138-0.692C71.854,26.995,70.941,24.252,70.905,22.011z"/>
		<path fill="#A5CF4E" d="M29.174,13.41c0,3.597,0.017,7.194-0.023,10.791c-0.005,0.428-0.32,0.852-0.95,2.418
			c-0.269-5.181-0.479-9.206-0.688-13.232C28.067,13.394,28.62,13.402,29.174,13.41z"/>
		<path fill="#C2DB79" d="M77.219,114.945c0.522,0.309,1.044,0.619,1.567,0.928c0,2.451,0,4.902,0,8.258
			C76.487,120.739,77.139,117.794,77.219,114.945z"/>
		<path fill="#E5EFC6" d="M128.799,62.932c0.013,2.708,0.026,5.416,0.039,8.124c-0.498,0.017-0.996,0.034-1.495,0.051
			c-0.557-2.729-0.491-5.462-0.06-8.198C127.788,62.917,128.293,62.924,128.799,62.932z"/>
		<path fill="#BBD86B" d="M126.249,21.919c0.541,0.011,1.082,0.022,1.624,0.034c0.376,3.151-0.364,6.153-1.624,9.163
			C126.249,28.05,126.249,24.985,126.249,21.919z"/>
		<path fill="#9BCB45" d="M67.892,27.71c0.153,1.87,0.935,3.167,3.002,3.292c-0.036,0.331-0.072,0.662-0.107,0.992
			c-2.678,0.822-4.355-1.718-6.706-1.996C64.548,27.898,66.324,27.977,67.892,27.71z"/>
		<path fill="#C2DB79" d="M69.795,13.128c0.129-0.002,0.377,0.155,0.37,0.215c-0.026,0.226-0.134,0.443-0.211,0.663
			c-2.29,0.95,0.06,4.324-2.643,5.058"/>
		<path fill="#A5CF4E" d="M38.512,115.859c-0.817-4.237-0.848-8.473,0.014-12.709C39.122,107.387,39.146,111.623,38.512,115.859z"/>
		<path fill="#C2DB79" d="M116.856,77.036c-1.281-3.651-1.123-7.344-0.326-11.056C117.275,69.647,117.099,73.34,116.856,77.036z"/>
		<path fill="#9BCB45" d="M60.649,44.925c-2.602,4.161-4.201,1.464-5.854-0.857c0.655-0.004,1.31-0.008,1.966-0.012
			c0.725-0.091,1.449-0.183,2.174-0.274c0.262,0.012,0.521-0.01,0.778-0.066C60.024,44.119,60.337,44.522,60.649,44.925z"/>
		<path fill="#F2F7E4" d="M126.902,46.966c-0.214,0.816-0.428,1.632-0.641,2.45c0.42-2.291-4.559,0.472-2.75-2.826
			C124.492,44.799,125.88,45.729,126.902,46.966z"/>
		<path fill="#A1CD4A" d="M103.853,120.72c1.014,1.779,2.9,1.063,4.374,1.531c-1.595,0.774-3.141,2.462-4.99,0.954
			C102.597,122.682,102.975,121.4,103.853,120.72z"/>
		<path fill="#A5CF4E" d="M36.522,108.159c0.611,2.966,1.091,5.926-0.366,8.805C36.057,114.02,35.789,111.069,36.522,108.159z"/>
		<path fill="#A1CD4A" d="M105.856,111.548c0.139,0.973,0.421,1.834,1.225,2.53c0.763,0.66,1.348,1.728,0.212,2.357
			c-1.14,0.631-1.336-1.087-2.188-1.409C104.976,113.785,104.963,112.568,105.856,111.548z"/>
		<path fill="#A1CD4A" d="M74.087,119.566c0.25-2.848-0.981-5.833,0.794-8.539C74.87,113.897,75.481,116.825,74.087,119.566z"/>
		<path fill="#A1CD4A" d="M73.901,99.462c-0.207,2.508,0.921,5.152-0.769,7.508C73.094,104.437,72.669,101.865,73.901,99.462z"/>
		<path fill="#F2F7E4" d="M122.372,76.052c0.038-1.341-1.645-3.584,1.678-3.205c-0.072,1.058-0.144,2.117-0.216,3.175
			C123.347,76.032,122.859,76.042,122.372,76.052z"/>
		<path fill="#A1CD4A" d="M74.899,86.452c-0.171,2.183,0.852,4.508-0.771,6.52C74.075,90.761,73.677,88.511,74.899,86.452z"/>
		<path fill="#F2F7E4" d="M53.321,38.187c-0.104,0.88-0.202,1.755-0.299,2.63c-0.308,0.105-0.624,0.172-0.948,0.203"/>
		<path fill="#A5CF4E" d="M37.913,83.002c-3.023-0.846-1.474-1.91-0.142-2.965C37.819,81.026,37.866,82.014,37.913,83.002z"/>
		<path fill="#A5CF4E" d="M37.825,89.968c-1.154-1.277-1.155-2.579-0.083-3.903C37.77,87.366,37.798,88.667,37.825,89.968z"/>
		<path fill="#A5CF4E" d="M36.156,92.027c1.193,1.132,1.011,2.427,0.446,3.768C36.453,94.539,36.304,93.283,36.156,92.027z"/>
		<path fill="#9FCC47" d="M56.76,44.056c-0.655,0.004-1.31,0.008-1.966,0.012c-0.426-0.486-0.853-0.972-1.281-1.452
			c0.813-0.633,1.399-0.162,1.964,0.412C55.905,43.371,56.332,43.713,56.76,44.056z"/>
		<path fill="#A1CD4A" d="M75.112,103.583c0.049-1.548-0.6-3.208,0.734-4.548C75.902,100.6,76.241,102.21,75.112,103.583z"/>
		<path fill="#A1CD4A" d="M75.887,78.682c0.078,1.176,0.343,2.396-0.771,3.294C74.948,80.778,75.037,79.641,75.887,78.682z"/>
		<path fill="#A5CF4E" d="M25.987,66.785c0.016,0.703,0.033,1.406,0.049,2.109C25.197,68.21,24.374,67.526,25.987,66.785z"/>
		<path fill="#9FCC47" d="M52.074,41.019c0.324-0.031,0.64-0.098,0.948-0.203c0.323,0.229,0.647,0.457,0.97,0.686
			c-0.237,0.285-0.473,0.57-0.713,0.856C52.672,42.095,51.985,41.906,52.074,41.019z"/>
		<path fill="#A1CD4A" d="M108.234,122.258c0.198-0.411,0.396-0.823,0.594-1.234C108.63,121.435,108.432,121.846,108.234,122.258z"
			/>
		<path fill="#C2DB79" d="M89.908,51.025c-0.142-0.236-0.313-0.462-0.409-0.716c-0.029-0.076,0.153-0.231,0.238-0.35
			C89.794,50.314,89.851,50.669,89.908,51.025z"/>
		<path fill="#E5EFC6" d="M127.641,59.991c0.066-0.399,0.133-0.798,0.199-1.197C127.774,59.193,127.707,59.592,127.641,59.991z"/>
		<path fill="#E5EFC6" d="M127.871,74.173c-0.133-0.254-0.296-0.497-0.382-0.766c-0.032-0.101,0.115-0.259,0.182-0.391
			c0.104,0.252,0.233,0.496,0.3,0.757C128.001,73.89,127.908,74.039,127.871,74.173z"/>
		<path fill="#E5DADA" d="M57.02,134.923"/>
		<path fill="#E5DADA" d="M52.615,138.222"/>
		<path fill="#E5DADA" d="M59.787,139.931"/>
		<path fill="#F2F7E4" d="M86.035,60.09c1.447-1.008,0.547-3.264,2.447-4.385c1.187,3.993,3.167,7.457,5.46,10.751
			c0.562,0.808,1.254,1.62,0.058,2.472c-0.14-0.082-0.292-0.149-0.417-0.249c-6.475-5.168-6.475-5.168-10.625,2.212
			c-0.333,0.097-0.666,0.194-0.998,0.291C81.65,66.871,85.628,64.137,86.035,60.09z"/>
		<path fill="#A1CD4A" d="M79.007,83.005c-0.54,3.472,1.451,7.529-2.686,10.169c2.544-3.014-0.981-7.422,2.67-10.182L79.007,83.005z
			"/>
		<path fill="#A1CD4A" d="M81.959,71.182c0.333-0.097,0.666-0.194,0.998-0.291c-0.302,2.329-1.085,4.355-3.561,5.598
			C78.687,73.813,80.475,72.569,81.959,71.182z"/>
		<path fill="#A1CD4A" d="M78.991,82.992c0.306-1.495-1.878-2.92,0.114-4.756c1.202,1.744,1.309,3.232-0.099,4.768
			C79.007,83.005,78.991,82.992,78.991,82.992z"/>
		<path fill="#A5CF4E" d="M36.316,78.08c-0.14,0.2-0.263,0.418-0.437,0.582c-0.037,0.035-0.364-0.11-0.373-0.194
			c-0.03-0.265,0.026-0.54,0.049-0.811C35.808,77.798,36.062,77.938,36.316,78.08z"/>
		<path fill="#9FCC47" d="M56.999,41.469c1.968-0.511,4.152-0.66,4.987-3.196c0.059,1.785,0.387,3.553-2.015,3.738
			c-0.656,0.037-1.312,0.075-1.968,0.112C57.669,41.905,57.334,41.687,56.999,41.469z"/>
		<path fill="#FBFDF7" d="M56.999,41.469c0.335,0.218,0.67,0.436,1.004,0.654c0.31,0.553,0.621,1.105,0.931,1.658
			c-0.725,0.091-1.449,0.183-2.174,0.274c-0.428-0.343-0.855-0.685-1.283-1.028C55.268,41.81,55.519,41.039,56.999,41.469z"/>
		<path fill="#F2F7E4" d="M58.934,43.781c-0.31-0.553-0.621-1.106-0.931-1.658c0.656-0.037,1.312-0.075,1.968-0.112
			c-0.086,0.568-0.172,1.136-0.259,1.704C59.455,43.771,59.196,43.793,58.934,43.781z"/>
	</g>
</g>
</svg>
