<?xml version="1.0" encoding="utf-8"?>
<!-- Generator: Adobe Illustrator 17.0.0, SVG Export Plug-In . SVG Version: 6.00 Build 0)  -->
<!DOCTYPE svg PUBLIC "-//W3C//DTD SVG 1.1//EN" "http://www.w3.org/Graphics/SVG/1.1/DTD/svg11.dtd">
<svg version="1.1" xmlns="http://www.w3.org/2000/svg" xmlns:xlink="http://www.w3.org/1999/xlink" x="0px" y="0px" width="155px"
	 height="155px" viewBox="0 0 155 155" enable-background="new 0 0 155 155" xml:space="preserve">
<g id="Layer_4">
	<polygon fill="#FFFFFF" points="0,129.125 155,129.125 155,9.313 153.243,6.381 152.25,4.875 150.325,3.048 148.765,1.567 146,0 
		10.188,0 7.125,1 3.667,4.481 1.938,6.438 0,9.313 	"/>
</g>
<g id="Layer_1" display="none">
	<polygon display="inline" fill="#8DC63F" points="43.084,15.023 116.557,15.023 119.175,21.305 121.269,29.333 122.141,35.092 
		122.542,39.458 122.542,45.583 122.542,52.458 122.542,57.333 120.083,66.667 116.583,74.542 113.958,78.417 109.167,82.875 
		104.125,86.917 98.125,89.125 94.667,88.958 90.583,88 85.042,85.708 85.042,108.417 83.542,109.625 80.042,109.625 
		79.208,108.292 76.5,98.833 74.458,100.333 69.375,102.375 62.333,102.792 55.083,101.625 48.417,97.792 40.083,89.458 
		32.25,73.583 30.292,62.833 31.208,48.667 34.25,36.417 38.833,22.542 	"/>
</g>
<g id="Layer_2">
	<polygon fill="#651C26" points="0,129.125 155,129.125 155,145.688 153.063,148.563 150.688,151.25 147.875,154 144.813,155 9,155 
		6.438,153.625 2.75,150.125 0.938,147.375 0,145.688 	"/>
</g>
<g id="Layer_3">
	<text transform="matrix(1 0 0 1 12.104 146.4059)" fill="#FFFFFF" font-family="'ArialMT'" font-size="18">fruct</text>
	<path fill="#90C740" d="M49.5,104.25"/>
	<path fill="#8DC63F" d="M119.333,104.667"/>
	<path fill="none" d="M105,65.5"/>
	<polygon fill="#FFFFFF" points="72.333,64.083 73.917,62.917 76.583,62.167 79.333,62.75 82.417,64.083 83.333,66.667 82.75,69.75 
		80.75,71.583 76.417,72 73.083,70.083 71.583,67.083 	"/>
	<g>
		<path fill="#8DC63F" d="M33.875,27.875l0.813-2.563l2.125-2.938l2.75-2.938l2.813-2l3.375-1.25h12.188l4,1.875l2.938,3.375
			l0.938,2.688l0.563,2.25l2.188,2.063L70.625,30l2.438,2.063v-2.125l-1.375-4.25c0,0-1.063-1.438-1.25-1.563
			s-0.75-1.813-0.75-1.813L70.5,21l1.563-0.375h1.625l1.188,2.438l1.5,4.563l1.125,4.438L78,35l1.813-1.25l1.063-2.375l0.5-5.5
			l2.438-2.375l1.875-0.813l6.375-0.375l4.313,1.25l3.438,2.688l1.75,2.063l-1.188,0.313l-3.313,0.063L95.125,30l-2.25,3.188
			L90.313,35l-3.375-0.313l-2.5-0.25l-2.5-0.375L80.5,35l-1.25,1.25l-0.375,2.313l0.063,5.313h3.938l5.5-1.188l5.125-1.375
			l5.375-0.688l6.25,0.375l4,0.938l4.938,3.75l3.563,4.875l2.375,5.25l2.625,6.354l0.438,16.146l-2.688,10.125l-4.063,9.25
			l-5.688,8.625l-3.313,4.375l-3.563,3.375l-4.813,2.563l-4.375,1.875l-3.25,0.438c-1.271-0.09-2.542-0.181-3.813-0.271
			c-1.688-0.514-3.375-1.028-5.063-1.542L78,116.25L73.25,117l-5.313,1.25l-4.5,0.688c-1.701-0.424-3.403-0.847-5.104-1.271
			c-1.34-0.535-2.681-1.069-4.021-1.604l-5.188-3.563l-5-6.063l-5.563-10.313l-3.25-6.688L32.75,80.25V64.125l1.625-5.75l3.25-6.75
			l2.188-3.5L42.25,45.5l4-3.688l3.938-1.938l3.938-0.5h6.813l3.875,1.875l3.5,1.75l4.438,1.125L76.125,44l-0.438-5.25l-2.063-4.188
			l-3.5-2.875l-4-3.188l-1.75,0.563l-1.938,2.063l-2.5,0.938l-3,1.25c0,0-3.188-0.063-3.375-0.125s-3.813-0.813-3.813-0.813
			l-4-1.563l-4-0.938l-3.063-0.313L36.5,29.75l-2.375,0.875l-1.75,0.063l0.5-1.25L33.875,27.875z"/>
		<path fill="#8DC63F" d="M33.875,27.875l0.802-2.566l0.002-0.003l2.113-2.946l0.002-0.003l2.738-2.948l0.003-0.003l0.004-0.003
			l2.804-2.011l0.006-0.004l0.007-0.003l3.37-1.263l0.011-0.004l0.013,0l12.187-0.048l0.026,0l0.024,0.011l4.007,1.859l0.025,0.012
			l0.019,0.022l2.951,3.363l0.019,0.022l0.01,0.028l0.948,2.684l0.002,0.006l0.002,0.008l0.571,2.248l-0.049-0.084l2.196,2.054
			l-0.015-0.013l1.155,0.868l0.578,0.434c0.186,0.138,0.396,0.296,0.576,0.453l2.214,1.858l-0.342,0.159l-0.008-2.125l0.01,0.066
			l-1.392-4.244l0.034,0.067L70.9,25.041l-0.306-0.384l-0.155-0.185c-0.046-0.053-0.117-0.13-0.133-0.142
			c-0.089-0.061-0.183-0.225-0.212-0.286l-0.112-0.239l-0.191-0.47l-0.341-0.944l-0.039-0.108l0.064-0.103l0.811-1.313l0.054-0.088
			l0.101-0.024l1.562-0.377l0.029-0.007l0.031,0l1.625-0.002l0.16,0l0.071,0.144l1.191,2.436l0.008,0.016l0.006,0.017l1.471,4.454
			c0.074,0.22,0.104,0.387,0.157,0.584l0.145,0.568l0.29,1.136l0.579,2.272l0.003,0.01l0.002,0.011l0.504,2.937l-0.43-0.182
			l1.811-1.252l-0.097,0.116l1.059-2.376l-0.024,0.09l0.492-5.5l0.01-0.107l0.077-0.076l2.434-2.378l0.039-0.038l0.05-0.022
			l1.874-0.815l0.048-0.021l0.053-0.003l6.374-0.384l0.052-0.003l0.051,0.015l4.314,1.244l0.058,0.017l0.048,0.038l3.441,2.683
			l0.025,0.02l0.021,0.025l1.753,2.06l0.332,0.39l-0.496,0.131l-1.187,0.314l-0.037,0.01l-0.039,0.001l-3.312,0.067l0.178-0.057
			l-1.936,1.315l0.085-0.083l-2.246,3.19l-0.033,0.047l-0.048,0.034l-2.56,1.816l-0.103,0.073l-0.126-0.012l-4.199-0.389
			l-1.049-0.103l-0.524-0.052c-0.209-0.02-0.357-0.05-0.539-0.074l-2.085-0.31l0.246-0.053l-1.436,0.939l0.057-0.046l-1.248,1.252
			l0.1-0.196l-0.372,2.313l0.005-0.062l0.07,5.312l-0.369-0.365l3.937-0.005l-0.079,0.008l5.342-1.161
			c0.187-0.035,0.431-0.112,0.643-0.166l0.66-0.178l1.319-0.356l2.639-0.712l0.025-0.007l0.027-0.003l5.374-0.695l0.036-0.005
			l0.038,0.002l6.25,0.366l0.034,0.002l0.034,0.008l4.001,0.932l0.085,0.02l0.07,0.053l4.942,3.743l0.048,0.037l0.037,0.05
			l3.569,4.87l0.026,0.035l0.019,0.041l1.306,2.877l0.653,1.438l0.327,0.719c0.111,0.235,0.218,0.509,0.315,0.74l2.421,5.837
			l0.031,0.075l0.002,0.083l0.46,16.145l0.002,0.067l-0.017,0.066l-2.674,10.128l-0.009,0.035l-0.015,0.035l-4.05,9.255
			l-0.017,0.038l-0.023,0.035l-4.355,6.602l-1.091,1.649l-0.294,0.437l-0.299,0.394l-0.598,0.787l-2.392,3.15l-0.025,0.032
			l-0.029,0.027l-3.567,3.37l-0.047,0.045l-0.056,0.03l-4.816,2.556l-0.018,0.01l-0.018,0.008l-4.377,1.869l-0.059,0.025
			l-0.062,0.008l-3.25,0.433l-0.047,0.006l-0.046-0.003l-3.812-0.276l-0.052-0.004l-0.048-0.015l-5.06-1.549l0.043,0.011
			l-4.436-0.881l0.153,0.003l-4.751,0.743l0.031-0.006l-5.314,1.243l-0.017,0.004l-0.016,0.002l-4.501,0.681l-0.084,0.013
			l-0.081-0.02l-5.102-1.278l-0.028-0.007l-0.025-0.01l-4.018-1.61l-0.043-0.017l-0.037-0.025l-5.182-3.57l-0.046-0.032
			l-0.035-0.043l-4.992-6.069l-0.024-0.03l-0.018-0.033l-4.535-8.434l-0.567-1.054c-0.188-0.36-0.38-0.684-0.564-1.073l-1.043-2.155
			l-2.087-4.309l-0.014-0.03l-0.009-0.031l-2.55-9.191l-0.013-0.046l0-0.047l0.022-16.125l0-0.045l0.012-0.043l1.633-5.748
			l0.008-0.027l0.012-0.024l3.259-6.745l0.008-0.016l0.009-0.014l2.192-3.497l0.015-0.025l0.019-0.021l2.441-2.621l0.008-0.009
			l0.008-0.008l4.005-3.682l0.031-0.029l0.037-0.018l3.94-1.932l0.043-0.021l0.046-0.006l3.938-0.495l0.018-0.002l0.017,0
			l6.812,0.009l0.061,0l0.055,0.027c2.466,1.186,4.931,2.397,7.373,3.637l-0.051-0.019l4.435,1.133l-0.07-0.007l3.375-0.112
			l-0.225,0.253l-0.417-5.252l0.021,0.076l-2.046-4.196l0.051,0.064l-3.715-3.071l-3.759-3.02l0.145,0.026l-1.752,0.555l0.063-0.04
			l-1.946,2.055l-0.022,0.023l-0.03,0.011c-0.922,0.346-1.858,0.677-2.768,1.036l-2.737,1.128l-0.023,0.009l-0.023-0.001
			l-1.819-0.052l-0.91-0.036l-0.457-0.027c-0.156-0.006-0.329-0.054-0.466-0.082l-3.554-0.772l-0.003-0.001l-0.006-0.002
			l-3.994-1.578l0.009,0.003l-3.996-0.953l0.006,0.001l-3.061-0.325l0.007,0l-2.188,0.179l0.008-0.002l-2.378,0.865l-0.003,0.001
			l-0.003,0l-1.75,0.056l-0.02,0.001l0.007-0.018l0.505-1.248l0.001-0.001L33.875,27.875z M33.875,27.875l-0.994,1.566l0.001-0.001
			l-0.495,1.252l-0.012-0.017l1.75-0.069l-0.006,0.001l2.371-0.884l0.004-0.001l0.004,0l2.187-0.196l0.004,0l0.004,0l3.064,0.3
			l0.003,0l0.003,0.001l4.004,0.921l0.005,0.001l0.005,0.002l4.006,1.546l-0.009-0.003l3.562,0.744
			c0.16,0.031,0.281,0.067,0.429,0.072l0.451,0.023l0.908,0.029l1.818,0.038l-0.046,0.009l2.728-1.149
			c0.923-0.373,1.845-0.707,2.768-1.062l-0.052,0.034l1.929-2.07l0.026-0.028l0.037-0.012l1.748-0.569l0.079-0.026l0.066,0.052
			l3.783,2.99l3.743,3.044l0.032,0.026l0.019,0.038l2.079,4.179l0.018,0.035l0.004,0.041l0.458,5.248l0.021,0.243l-0.246,0.01
			l-3.374,0.138l-0.035,0.001l-0.035-0.009l-4.439-1.117l-0.027-0.007l-0.025-0.012c-2.447-1.233-4.902-2.431-7.377-3.613
			l0.116,0.027l-6.812,0.009l0.035-0.002l-3.937,0.505l0.089-0.027l-3.935,1.943l0.068-0.046l-3.995,3.693l0.016-0.016l-2.434,2.628
			l0.034-0.045l-2.183,3.503l0.016-0.029l-3.241,6.754l0.019-0.051l-1.617,5.752l0.012-0.088l0.022,16.125l-0.013-0.093l2.575,9.184
			l-0.023-0.06l2.099,4.304l1.049,2.152c0.157,0.333,0.371,0.697,0.553,1.044l0.57,1.053l4.558,8.422l-0.042-0.062l5.008,6.055
			l-0.081-0.074l5.192,3.555l-0.079-0.042l4.023,1.599l-0.053-0.017l5.106,1.264l-0.164-0.008l4.499-0.694l-0.033,0.006l5.311-1.257
			l0.015-0.004l0.017-0.003l4.749-0.757l0.076-0.012l0.077,0.015l4.439,0.869l0.022,0.004l0.022,0.007l5.064,1.535l-0.1-0.018
			l3.813,0.266l-0.093,0.003l3.249-0.442l-0.12,0.033l4.372-1.881l-0.035,0.017l4.809-2.569l-0.104,0.075l3.558-3.38l-0.053,0.059
			l2.383-3.156l0.596-0.789l0.298-0.395l0.256-0.385l1.086-1.652l4.353-6.604l-0.04,0.073l4.075-9.244l-0.024,0.07l2.701-10.121
			l-0.015,0.132l-0.415-16.146l0.034,0.158l-2.405-5.843c-0.107-0.255-0.189-0.473-0.302-0.714l-0.325-0.72l-0.649-1.44l-1.298-2.88
			l0.044,0.076l-3.556-4.88l0.085,0.086l-4.932-3.757l0.155,0.073l-3.999-0.943l0.068,0.01l-6.249-0.384l0.074-0.002l-5.376,0.68
			l0.051-0.01l-2.641,0.705l-1.32,0.352l-0.66,0.176c-0.229,0.057-0.42,0.121-0.68,0.173l-5.345,1.146l-0.04,0.009l-0.04,0
			l-3.937-0.005l-0.365,0l-0.004-0.364l-0.055-5.312l0-0.032l0.005-0.03l0.378-2.312l0.019-0.115l0.082-0.081l1.252-1.248
			l0.027-0.027l0.031-0.02l1.439-0.935l0.113-0.074l0.133,0.02l2.084,0.315c0.166,0.023,0.364,0.06,0.504,0.072l0.524,0.053
			l1.048,0.106l4.193,0.4l-0.229,0.061l2.565-1.809l-0.081,0.081l2.254-3.184l0.035-0.05l0.05-0.034l1.939-1.31l0.081-0.055
			l0.097-0.002l3.312-0.058l-0.076,0.011L101.48,28l-0.164,0.522l-1.747-2.065l0.047,0.045l-3.434-2.692l0.106,0.054l-4.311-1.256
			l0.103,0.012l-6.375,0.366l0.101-0.024l-1.876,0.81l0.089-0.059l-2.441,2.372l0.087-0.182l-0.508,5.499l-0.004,0.048l-0.019,0.043
			l-1.066,2.373l-0.032,0.072l-0.064,0.044l-1.814,1.247l-0.358,0.246l-0.072-0.428l-0.496-2.938l0.004,0.021l-0.573-2.274
			l-0.287-1.137l-0.143-0.568c-0.049-0.181-0.093-0.399-0.146-0.549l-1.459-4.458l0.013,0.033l-1.184-2.439l0.23,0.144l-1.625-0.002
			l0.059-0.007l-1.563,0.373l0.155-0.112L69.9,22.444l0.025-0.21l0.326,0.927l0.179,0.451l0.097,0.212
			c0.05,0.083,0.027,0.074,0.068,0.119c0.112,0.094,0.145,0.146,0.21,0.216l0.162,0.197l0.31,0.395l0.599,0.798l0.023,0.03
			l0.012,0.037l1.358,4.255l0.011,0.033l0,0.033l-0.008,2.125l-0.002,0.449l-0.341-0.291l-2.199-1.876
			c-0.182-0.162-0.356-0.294-0.556-0.445l-0.574-0.439l-1.148-0.877l-0.009-0.007l-0.007-0.006l-2.179-2.071l-0.037-0.035
			l-0.012-0.049l-0.554-2.252l0.004,0.014l-0.927-2.691l0.029,0.05l-2.924-3.387l0.044,0.033l-3.992-1.891l0.05,0.011L45.75,16.257
			l0.024-0.004l-3.38,1.237l0.013-0.007l-2.82,1.989l0.006-0.005l-2.762,2.926l0.002-0.002l-2.137,2.929l0.001-0.003L33.875,27.875z
			"/>
	</g>
</g>
</svg>
