<?xml version="1.0" encoding="utf-8"?>
<!-- Generator: Adobe Illustrator 17.0.0, SVG Export Plug-In . SVG Version: 6.00 Build 0)  -->
<!DOCTYPE svg PUBLIC "-//W3C//DTD SVG 1.1//EN" "http://www.w3.org/Graphics/SVG/1.1/DTD/svg11.dtd">
<svg version="1.1" xmlns="http://www.w3.org/2000/svg" xmlns:xlink="http://www.w3.org/1999/xlink" x="0px" y="0px" width="155px"
	 height="155px" viewBox="0 0 155 155" enable-background="new 0 0 155 155" xml:space="preserve">
<g id="Layer_4">
	<polygon fill="#FFFFFF" points="0,129.125 155,129.125 155,9.313 153.243,6.381 152.25,4.875 150.325,3.048 148.765,1.567 146,0 
		10.188,0 7.125,1 3.667,4.481 1.938,6.438 0,9.313 	"/>
</g>
<g id="Layer_1" display="none">
	<polygon display="inline" fill="#8DC63F" points="43.084,15.023 116.557,15.023 119.175,21.305 121.269,29.333 122.141,35.092 
		122.542,39.458 122.542,45.583 122.542,52.458 122.542,57.333 120.083,66.667 116.583,74.542 113.958,78.417 109.167,82.875 
		104.125,86.917 98.125,89.125 94.667,88.958 90.583,88 85.042,85.708 85.042,108.417 83.542,109.625 80.042,109.625 
		79.208,108.292 76.5,98.833 74.458,100.333 69.375,102.375 62.333,102.792 55.083,101.625 48.417,97.792 40.083,89.458 
		32.25,73.583 30.292,62.833 31.208,48.667 34.25,36.417 38.833,22.542 	"/>
</g>
<g id="Layer_2">
	<polygon fill="#651C26" points="0,129.125 155,129.125 155,145.688 153.063,148.563 150.688,151.25 147.875,154 144.813,155 9,155 
		6.438,153.625 2.75,150.125 0.938,147.375 0,145.688 	"/>
</g>
<g id="Layer_5">
	<text transform="matrix(1 0 0 1 12.104 146.4059)" fill="#FFFFFF" font-family="'ArialMT'" font-size="18">imparipenată</text>
</g>
<g id="Layer_3">
	<path fill="#90C740" d="M49.5,104.25"/>
	<path fill="#8DC63F" d="M119.333,104.667"/>
	<path fill="none" d="M105,65.5"/>
	<polygon fill="#FFFFFF" points="72.333,64.083 73.917,62.917 76.583,62.167 79.333,62.75 82.417,64.083 83.333,66.667 82.75,69.75 
		80.75,71.583 76.417,72 73.083,70.083 71.583,67.083 	"/>
	<g>
		<path fill="#97CA43" d="M80.344,30.78c3.577-4.588,7.429-8.144,12.933-9.293c2.574-0.537,5.342-0.962,6.685,1.64
			c1.469,2.848-1.084,4.588-3.041,6.063c-3.5,2.639-7.496,3.352-11.832,2.678c-4.895-0.761-5.934,0.234-5.708,5.222
			c0.143,3.152,0.396,6.298,0.597,9.413c2.079,0.517,2.985-0.812,3.613-2.138c3.19-6.734,9.273-8.025,15.783-8.533
			c1.907-0.149,3.645,0.204,4.691,2.112c1.159,2.114,0.292,3.861-0.936,5.53c-3.698,5.027-10.06,7.16-16.476,5.559
			c-6.357-1.587-6.887-1.141-6.518,5.498c0.046,0.832,0.078,1.667,0.184,2.492c0.274,2.137,0.586,4.269,0.89,6.449
			c2.835,0.2,3.551-1.892,4.703-3.741c3.52-5.653,8.947-8.221,15.389-8.864c2.082-0.208,4.094,0.25,5.227,2.213
			c1.264,2.189,0.259,4.211-0.952,6.062c-3.237,4.949-11.293,7.914-17.253,6.411c-6.551-1.652-8.531,0.122-7.783,6.953
			c0.181,1.656,0.141,3.358,0.52,4.965c0.337,1.427-1.116,3.877,1.278,4.111c1.942,0.189,3.696-1.297,4.684-3.233
			c2.771-5.429,7.66-7.615,13.296-8.559c3.13-0.524,6.297-0.281,7.674,3.052c1.321,3.197-1.502,4.874-3.542,6.411
			c-4.66,3.511-9.682,5.449-15.814,3.973c-5.801-1.396-8.061,0.835-7.745,6.675c0.099,1.829-0.024,3.681,0.209,5.489
			c0.194,1.503-1.125,3.807,0.917,4.34c1.662,0.434,3.497-0.966,4.714-2.356c1.411-1.611,2.316-3.733,3.894-5.116
			c3.615-3.17,7.966-4.927,12.834-4.614c4.115,0.264,5.358,3.237,3.008,6.613c-3.779,5.428-10.935,7.905-17.407,6.024
			c-3.86-1.122-7.891,1.711-7.856,5.74c0.044,5.163,0.32,10.325,0.539,15.486c0.052,1.216,0.226,2.571-1.457,2.546
			c-1.978-0.029-1.069-1.69-1.101-2.64c-0.162-4.83-0.184-9.664-0.308-14.495c-0.132-5.161-4.776-7.827-9.244-5.343
			c-7.132,3.965-14.063,2.301-19.028-4.373c-2.062-2.771-1.18-4.551,1.429-6.057c5.625-3.246,14.099-1.381,17.951,3.962
			c0.58,0.805,0.905,1.862,1.623,2.487c1.647,1.432,3.756,2.861,5.81,2.218c2.191-0.686,0.893-3.167,1.042-4.841
			c0.161-1.813,0.003-3.664-0.116-5.492c-0.369-5.696-3.388-7.505-8.729-5.273c-7.107,2.971-14.093,1.194-18.556-4.72
			c-2.745-3.638-2.157-5.967,1.963-7.78c5.605-2.468,13.594-0.158,16.897,4.959c0.898,1.391,1.44,3.043,2.879,4.014
			c1.39,0.937,2.999,1.985,4.609,1.174c1.357-0.683,0.61-2.403,0.653-3.655c0.081-2.33,0.009-4.666-0.043-6.998
			c-0.109-4.944-3.992-7.475-8.701-5.691c-6.187,2.344-15.677-0.459-19.643-5.802c-2.531-3.41-1.182-6.91,3.028-7.851
			c6.58-1.472,12.633,0.922,16.572,6.558c0.948,1.357,1.683,2.956,2.893,4.013c1.322,1.154,3.147,2.691,4.796,2.067
			c1.752-0.663,0.759-2.947,0.873-4.518c0.12-1.657,0.03-3.332-0.02-4.997c-0.19-6.295-3.407-8.67-9.449-6.712
			c-6.387,2.069-11.816,0.492-16.524-3.961c-1.702-1.61-3.144-3.621-2.275-6.195c0.887-2.626,3.238-3.151,5.639-3.336
			c6.205-0.479,11.034,1.839,14.292,7.215c0.514,0.847,0.752,1.948,1.439,2.586c1.632,1.517,3.993,2.471,5.889,2.027
			c1.872-0.439,0.44-2.888,0.728-4.416c0.091-0.481-0.006-0.997-0.019-1.497c-0.267-9.892-0.454-9.99-10.386-8.934
			c-4.017,0.427-7.632-0.708-10.212-4.042c-1.888-2.44-1.129-4.347,1.519-5.592c3.779-1.776,9.476-0.063,12.014,3.592
			c0.564,0.812,0.856,1.855,1.528,2.543c1.289,1.318,3.127,2.721,4.715,1.388c1.35-1.133,0.511-3.159-0.643-4.481
			c-4.075-4.667-3.859-9.654-1.251-14.856c1.599-3.189,3.636-3.035,5.842-0.667c3.148,3.38,3.405,9.515,0.51,13.941
			C79.887,25.542,78.267,27.322,80.344,30.78z"/>
	</g>
</g>
</svg>
