<?xml version="1.0" encoding="utf-8"?>
<!-- Generator: Adobe Illustrator 17.0.0, SVG Export Plug-In . SVG Version: 6.00 Build 0)  -->
<!DOCTYPE svg PUBLIC "-//W3C//DTD SVG 1.1//EN" "http://www.w3.org/Graphics/SVG/1.1/DTD/svg11.dtd">
<svg version="1.1" xmlns="http://www.w3.org/2000/svg" xmlns:xlink="http://www.w3.org/1999/xlink" x="0px" y="0px" width="155px"
	 height="155px" viewBox="0 0 155 155" enable-background="new 0 0 155 155" xml:space="preserve">
<g id="Layer_4">
	<polygon fill="#FFFFFF" points="0,129.125 155,129.125 155,9.313 153.243,6.381 152.25,4.875 150.325,3.048 148.765,1.567 146,0 
		10.188,0 7.125,1 3.667,4.481 1.938,6.438 0,9.313 	"/>
</g>
<g id="Layer_1" display="none">
	<polygon display="inline" fill="#8DC63F" points="43.084,15.023 116.557,15.023 119.175,21.305 121.269,29.333 122.141,35.092 
		122.542,39.458 122.542,45.583 122.542,52.458 122.542,57.333 120.083,66.667 116.583,74.542 113.958,78.417 109.167,82.875 
		104.125,86.917 98.125,89.125 94.667,88.958 90.583,88 85.042,85.708 85.042,108.417 83.542,109.625 80.042,109.625 
		79.208,108.292 76.5,98.833 74.458,100.333 69.375,102.375 62.333,102.792 55.083,101.625 48.417,97.792 40.083,89.458 
		32.25,73.583 30.292,62.833 31.208,48.667 34.25,36.417 38.833,22.542 	"/>
</g>
<g id="Layer_2">
	<polygon fill="#651C26" points="0,129.125 155,129.125 155,145.688 153.063,148.563 150.688,151.25 147.875,154 144.813,155 9,155 
		6.438,153.625 2.75,150.125 0.938,147.375 0,145.688 	"/>
</g>
<g id="Layer_5">
	<text transform="matrix(1 0 0 1 12.104 146.4059)" fill="#FFFFFF" font-family="'ArialMT'" font-size="18">penat-fidat</text>
</g>
<g id="Layer_3">
	<path fill="#90C740" d="M49.5,104.25"/>
	<path fill="#8DC63F" d="M119.333,104.667"/>
	<path fill="none" d="M105,65.5"/>
	<polygon fill="#FFFFFF" points="72.333,64.083 73.917,62.917 76.583,62.167 79.333,62.75 82.417,64.083 83.333,66.667 82.75,69.75 
		80.75,71.583 76.417,72 73.083,70.083 71.583,67.083 	"/>
	<g>
		<path fill="#FFFFFE" d="M58.576,71.483c-3.118,1.239-1.521,3.66-1.114,5.466c1.156,5.132,5.142,8.295,9.099,11.517
			c-1.822,1.282-4.522-0.75-5.346,1.982c-0.707,2.344,0.477,4.23,1.913,5.898c1.953,2.268,3.767,4.763,6.093,6.583
			c6.413,5.02,9.398,11.43,8.998,19.516c-0.078,1.57-0.368,3.304,1.454,4.267c1.429-0.93,1.371-2.494,1.076-3.64
			c-2.775-10.814,3.082-17.904,10.302-24.463c0.612-0.556,1.133-1.22,1.642-1.877c1.325-1.708,2.809-3.367,2.136-5.817
			c-0.822-2.993-3.579-1.375-5.593-2.285c4.191-2.237,7.753-4.974,9.314-9.357c0.955-2.682,2.687-6.112-0.512-8.188
			c-2.349-1.525-1.756-2.63-0.863-4.313c0.934-1.759,2.002-3.475,2.696-5.328c0.844-2.254,2.626-4.364,1.562-7.05
			c-1.164-2.938-4.137-1.82-6.645-2.505c2.709-4.145,4.444-8.257,4.763-12.814c0.186-2.653,0.562-6.002-1.983-7.286
			c-2.799-1.412-3.919,2.116-5.704,3.601c-0.154,0.128-0.507,0.017-1.261,0.017c1.693-4.361,2.575-8.717,2.765-13.197
			c0.242-5.7-0.707-6.453-6.246-4.692c-0.434-1.955-0.7-3.948-1.33-5.819c-1.162-3.454-3.821-5.46-7.265-6.161
			c-2.955-0.601-5.053,1.237-6.77,3.368c-2.782,3.453-3.142,9.22-9.29,9.507c-0.518,0.024-1.132,1.556-1.413,2.475
			c-1.15,3.77-1.287,7.473,0.694,11.112c0.604,1.11,2.117,2.234,0.926,3.822c-2.017-0.484-2.529-3.891-4.888-2.842
			c-2.556,1.136-1.91,4.016-2.027,6.241c-0.206,3.92,1.556,7.425,2.733,11.048c0.358,1.101,1.602,2.643-0.902,2.859
			c-3.471,0.3-3.203,3.054-3.095,5.219c0.228,4.572,1.834,8.738,4.804,12.307C59.059,70.931,58.818,71.207,58.576,71.483z"/>
		<path fill="#92C840" d="M59.3,70.655c-2.97-3.568-4.576-7.735-4.804-12.307c-0.108-2.165-0.376-4.919,3.095-5.219
			c2.503-0.217,1.259-1.758,0.902-2.859c-1.177-3.623-2.939-7.128-2.733-11.048c0.117-2.225-0.529-5.104,2.027-6.241
			c2.359-1.049,2.871,2.358,4.888,2.842c1.191-1.589-0.322-2.713-0.926-3.822c-1.981-3.639-1.845-7.343-0.694-11.112
			c0.281-0.919,0.895-2.451,1.413-2.475c6.148-0.288,6.508-6.054,9.29-9.507c1.717-2.131,3.815-3.969,6.77-3.368
			c3.444,0.701,6.104,2.707,7.265,6.161c0.629,1.871,0.896,3.864,1.33,5.819c5.539-1.761,6.488-1.008,6.246,4.692
			c-0.19,4.48-1.072,8.836-2.765,13.197c0.754,0,1.107,0.111,1.261-0.017c1.785-1.485,2.905-5.013,5.704-3.601
			c2.545,1.284,2.169,4.633,1.983,7.286c-0.319,4.557-2.054,8.669-4.763,12.814c2.508,0.685,5.48-0.433,6.645,2.505
			c1.064,2.686-0.718,4.797-1.562,7.05c-0.694,1.853-1.762,3.568-2.696,5.328c-0.893,1.683-1.487,2.789,0.863,4.313
			c3.199,2.076,1.467,5.506,0.512,8.188c-1.56,4.383-5.122,7.12-9.314,9.357c2.014,0.91,4.771-0.708,5.593,2.285
			c0.673,2.45-0.811,4.109-2.136,5.817c-0.509,0.656-1.031,1.321-1.642,1.877c-7.22,6.56-13.077,13.65-10.302,24.463
			c0.294,1.147,0.353,2.71-1.076,3.64c-1.822-0.963-1.532-2.697-1.454-4.267c0.401-8.086-2.585-14.496-8.998-19.516
			c-2.325-1.82-4.14-4.314-6.093-6.583c-1.437-1.669-2.62-3.554-1.913-5.898c0.824-2.732,3.524-0.7,5.346-1.982
			c-3.957-3.222-7.943-6.385-9.099-11.517c-0.407-1.806-2.004-4.227,1.115-5.468c0.565,0.078,1.542,0.364,1.623,0.202
			C60.599,70.888,59.716,70.925,59.3,70.655z"/>
		<path fill="#FFFFFE" d="M59.3,70.655c0.416,0.269,1.298,0.232,0.9,1.027c-0.081,0.162-1.058-0.124-1.623-0.202
			C58.818,71.207,59.059,70.931,59.3,70.655z"/>
	</g>
</g>
</svg>
