<?xml version="1.0" encoding="utf-8"?>
<!-- Generator: Adobe Illustrator 17.0.0, SVG Export Plug-In . SVG Version: 6.00 Build 0)  -->
<!DOCTYPE svg PUBLIC "-//W3C//DTD SVG 1.1//EN" "http://www.w3.org/Graphics/SVG/1.1/DTD/svg11.dtd">
<svg version="1.1" xmlns="http://www.w3.org/2000/svg" xmlns:xlink="http://www.w3.org/1999/xlink" x="0px" y="0px" width="155px"
	 height="155px" viewBox="0 0 155 155" enable-background="new 0 0 155 155" xml:space="preserve">
<g id="Layer_4">
	<polygon fill="#FFFFFF" points="0,129.125 155,129.125 155,9.313 153.243,6.381 152.25,4.875 150.325,3.048 148.765,1.567 146,0 
		10.188,0 7.125,1 3.667,4.481 1.938,6.438 0,9.313 	"/>
</g>
<g id="Layer_1" display="none">
	<polygon display="inline" fill="#8DC63F" points="43.084,15.023 116.557,15.023 119.175,21.305 121.269,29.333 122.141,35.092 
		122.542,39.458 122.542,45.583 122.542,52.458 122.542,57.333 120.083,66.667 116.583,74.542 113.958,78.417 109.167,82.875 
		104.125,86.917 98.125,89.125 94.667,88.958 90.583,88 85.042,85.708 85.042,108.417 83.542,109.625 80.042,109.625 
		79.208,108.292 76.5,98.833 74.458,100.333 69.375,102.375 62.333,102.792 55.083,101.625 48.417,97.792 40.083,89.458 
		32.25,73.583 30.292,62.833 31.208,48.667 34.25,36.417 38.833,22.542 	"/>
</g>
<g id="Layer_2">
	<polygon fill="#651C26" points="0,129.125 155,129.125 155,145.688 153.063,148.563 150.688,151.25 147.875,154 144.813,155 9,155 
		6.438,153.625 2.75,150.125 0.938,147.375 0,145.688 	"/>
</g>
<g id="Layer_5">
	<text transform="matrix(1 0 0 1 12.104 146.4059)" fill="#FFFFFF" font-family="'ArialMT'" font-size="18">penat-sectat</text>
</g>
<g id="Layer_3">
	<path fill="#90C740" d="M49.5,104.25"/>
	<path fill="#8DC63F" d="M119.333,104.667"/>
	<path fill="none" d="M105,65.5"/>
	<polygon fill="#FFFFFF" points="72.333,64.083 73.917,62.917 76.583,62.167 79.333,62.75 82.417,64.083 83.333,66.667 82.75,69.75 
		80.75,71.583 76.417,72 73.083,70.083 71.583,67.083 	"/>
	<g>
		<path fill="#FFFFFE" d="M52.548,67.524c1.444,9.823,9.592,14.134,13.897,21.613c-2.709-0.721-4.758-1.32-6.835-1.79
			c-0.757-0.171-1.879-0.362-2.317,0.032c-0.864,0.777-0.266,1.897,0.318,2.648c2.654,3.414,5.163,6.981,8.141,10.094
			c6.819,7.129,11.277,15.191,11.298,25.306c0.001,0.424,0.316,0.847,0.514,1.345c1.459-2.533,1.915-2.602,1.482-5.5
			c-1.517-10.154,1.791-18.26,9.598-24.714c0.505-0.417,0.913-0.98,1.276-1.534c1.374-2.093,4.756-3.921,2.555-6.754
			c-1.957-2.518-3.512,1.148-5.43,1.51c-1.769,0.334-3.715,0.456-4.486-1.14c-0.707-1.463,1.401-1.902,2.316-2.703
			c4.495-3.934,9.523-7.358,12.237-12.961c0.722-1.491,1.828-3.438,0.408-4.608c-1.585-1.305-2.878,0.747-4.233,1.562
			c-1.577,0.949-3.263,3.551-5.039,1.436c-1.607-1.914,0.906-3.479,2.079-4.99c2.857-3.683,5.73-7.354,8.572-11.048
			c1.055-1.372,1.01-2.733-0.144-4.079c-0.753-0.879-1.357-0.972-2.501-0.42c-2.29,1.106-4.695,5.329-6.993,2.213
			c-1.969-2.671,2.524-4.392,4.019-6.612c2.829-4.201,5.843-8.301,3.482-14.435c-3.095,3.304-5.725,6.112-8.438,9.008
			c-2.22-3.015-0.542-4.941,0.712-6.83c1.868-2.813,3.386-5.786,3.772-9.139c0.215-1.87,1.054-4.54-1.196-5.393
			c-1.987-0.753-2.827,1.78-3.995,3.101c-0.149,0.169-0.601,0.069-1.269,0.122c-0.57-1.869-0.535-3.825-0.09-5.699
			c0.519-2.185,1.211-4.658-1.163-5.735c-2.161-0.981-2.114,2.519-4.172,3.094c0.063-4.175-0.446-9.652-4.861-9.516
			c-5.241,0.162-5.444,6.203-6.214,10.651c-1.842-1.11-0.923-4.93-3.45-4.27c-2.553,0.666-1.198,3.742-1.522,5.749
			c-0.635,3.927,1.108,7.685,1.313,12.252c-3.123-3.098-3.517-7.325-6.689-9.676c-3.735,8.335,1.406,14.461,3.987,21.671
			c-2.993-2.565-5.985-5.13-10.077-8.638c-0.409,9.636,7.279,14.069,9.304,20.906c-2.931,1.559-4.929-0.433-7.162-1.356
			c-1.25-0.517-2.73-1.062-3.741,0.058c-1.072,1.188,0.478,2.02,0.977,2.964c2.28,4.313,5.317,8.022,8.843,11.391
			c1.943,1.857,4.067,3.75,4.339,7.301C61.487,71.846,57.533,69.935,52.548,67.524z"/>
	</g>
	<g>
		<path fill="#94C941" d="M70.315,54.683c-4.746-3.687-9.179-7.652-12.402-12.84c-1.731-2.787-2.499-5.588-1.567-9.221
			c5.339,3.129,7.347,10.094,14.706,10.765c-4.066-6.848-12.315-10.976-11.557-21.225c4.327,3.558,5.367,8.391,10.021,9.309
			c0.391,0.005,0.781,0.014,1.17,0.023c-0.208-0.183-0.417-0.366-0.625-0.55c-1.521-3.106-3.114-6.179-4.542-9.327
			c-1.13-2.492-2.336-5.05-0.65-8.423c2.326,2.914,4.412,5.528,6.958,8.718c0.842-4.781,0.394-8.979,1.985-12.811
			c0.629-1.515,1.148-3.653,2.934-3.58c2.066,0.084,2.875,2.416,3.002,4.094c0.306,4.043,0.099,8.126,0.099,12.192
			c0.444,0.158,0.888,0.316,1.332,0.474c1.594-2.349,3.154-4.721,4.797-7.034c0.622-0.876,0.963-2.658,2.306-2.121
			c1.467,0.587,1.85,2.312,1.338,3.837c-1.319,3.93-2.851,7.776-5.309,11.175c-0.579,0.8-1.099,1.643-1.645,2.466
			c-0.455,0.354-0.909,0.707-1.364,1.06c0.743,0.652,1.46,0.386,2.171-0.062c4.48-2.254,6.11-7.826,11.287-9.889
			c0.404,7.967-4.979,12.6-9.693,18.529c5.281-1.086,7.686-5.161,12.058-7.033c-1.754,9.905-10.11,15.056-15.136,22.929
			c7.578-0.671,11.485-8.989,19.649-8.429c-6.321,7.946-12.365,15.14-20.947,20.217c3.503,1.03,3.529,1.081,5.764-0.039
			c3.267-1.637,6.492-3.358,9.736-5.04c1.02-0.529,2.171-1.462,3.21-0.625c1.421,1.144,0.118,2.445-0.344,3.575
			c-2.94,7.184-8.07,12.474-15.108,16.64c3.059,1.494,4.998-0.086,7.01-1.192c2.114-1.162,3.998-2.857,6.971-3.013
			c-0.599,6.801-5.339,10.521-9.771,14.319c1.789,1.382,3.882-1.076,4.665,0.228c1.166,1.941-0.153,4.183-1.192,6.073
			c-1.552,2.825-3.906,4.928-6.491,6.813c-4.314,3.146-6.368,7.207-4.634,12.567c0.944,2.92-0.556,4.656-2.386,6.403
			c-0.503-0.373-0.958-0.577-0.939-0.714c1.472-10.471-5.168-16.975-11.442-23.724c-2.263-2.435-5.616-4.465-4.579-9.01
			c1.231,0.509,2.284,0.945,3.337,1.378c0.396,0.074,1.042,0.332,1.143,0.193c0.365-0.5-0.093-0.724-0.531-0.865
			c-2.349-2.715-4.861-5.309-6.994-8.184c-1.661-2.24-2.729-4.86-2.04-7.935c2.507,0.22,3.519,2.909,5.794,3.36
			c0.146,0.462,0.394,0.852,0.898,0.496c0.092-0.065-0.217-0.695-0.341-1.064c-2.854-4.668-5.68-9.354-8.576-13.996
			c-1.055-1.691-2.08-3.311-0.923-5.695c5.136,2.934,8.212,9.052,16.048,9.225c-7.325-6.123-15.089-10.845-14.793-21.62
			c5.35,3.241,9.13,8.374,15.332,9.178c0.426,0.009,0.851,0.021,1.276,0.032C70.633,55.356,70.474,55.02,70.315,54.683z"/>
		<path fill="#FEFFFD" d="M83.475,31.605c-0.712,0.448-1.428,0.714-2.171,0.062c0.455-0.353,0.91-0.707,1.364-1.06
			C82.937,30.939,83.206,31.272,83.475,31.605z"/>
		<path fill="#FEFFFD" d="M70.061,30.945c0.208,0.183,0.417,0.366,0.625,0.55c-0.389-0.009-0.778-0.019-1.17-0.023
			C69.686,31.288,69.869,31.111,70.061,30.945z"/>
		<path fill="#FEFFFD" d="M70.315,54.683c0.159,0.336,0.318,0.673,0.477,1.009c-0.425-0.011-0.851-0.022-1.276-0.032
			C69.782,55.336,70.049,55.01,70.315,54.683z"/>
		<path fill="#FEFFFD" d="M62.427,78.569c0.124,0.369,0.433,1,0.341,1.064c-0.504,0.357-0.753-0.033-0.898-0.496
			C62.053,78.944,62.238,78.755,62.427,78.569z"/>
		<path fill="#FEFFFD" d="M65.111,91.896c0.438,0.141,0.896,0.364,0.531,0.865c-0.101,0.139-0.746-0.119-1.143-0.193
			C64.683,92.328,64.887,92.103,65.111,91.896z"/>
	</g>
</g>
</svg>
