<?xml version="1.0" encoding="utf-8"?>
<!-- Generator: Adobe Illustrator 17.0.0, SVG Export Plug-In . SVG Version: 6.00 Build 0)  -->
<!DOCTYPE svg PUBLIC "-//W3C//DTD SVG 1.1//EN" "http://www.w3.org/Graphics/SVG/1.1/DTD/svg11.dtd">
<svg version="1.1" xmlns="http://www.w3.org/2000/svg" xmlns:xlink="http://www.w3.org/1999/xlink" x="0px" y="0px" width="155px"
	 height="155px" viewBox="0 0 155 155" enable-background="new 0 0 155 155" xml:space="preserve">
<g id="Layer_4">
	<polygon fill="#FFFFFF" points="0,129.125 155,129.125 155,9.313 153.243,6.381 152.25,4.875 150.325,3.048 148.765,1.567 146,0 
		10.188,0 7.125,1 3.667,4.481 1.938,6.438 0,9.313 	"/>
</g>
<g id="Layer_1" display="none">
	<polygon display="inline" fill="#8DC63F" points="43.084,15.023 116.557,15.023 119.175,21.305 121.269,29.333 122.141,35.092 
		122.542,39.458 122.542,45.583 122.542,52.458 122.542,57.333 120.083,66.667 116.583,74.542 113.958,78.417 109.167,82.875 
		104.125,86.917 98.125,89.125 94.667,88.958 90.583,88 85.042,85.708 85.042,108.417 83.542,109.625 80.042,109.625 
		79.208,108.292 76.5,98.833 74.458,100.333 69.375,102.375 62.333,102.792 55.083,101.625 48.417,97.792 40.083,89.458 
		32.25,73.583 30.292,62.833 31.208,48.667 34.25,36.417 38.833,22.542 	"/>
</g>
<g id="Layer_2">
	<polygon fill="#651C26" points="0,129.125 155,129.125 155,145.688 153.063,148.563 150.688,151.25 147.875,154 144.813,155 9,155 
		6.438,153.625 2.75,150.125 0.938,147.375 0,145.688 	"/>
</g>
<g id="Layer_5">
	<text transform="matrix(1 0 0 1 12.104 146.4059)" fill="#FFFFFF" font-family="'ArialMT'" font-size="18">serată</text>
</g>
<g id="Layer_3">
	<path fill="#90C740" d="M49.5,104.25"/>
	<path fill="#8DC63F" d="M119.333,104.667"/>
	<path fill="none" d="M105,65.5"/>
	<polygon fill="#FFFFFF" points="72.333,64.083 73.917,62.917 76.583,62.167 79.333,62.75 82.417,64.083 83.333,66.667 82.75,69.75 
		80.75,71.583 76.417,72 73.083,70.083 71.583,67.083 	"/>
	<g>
		<path fill="#FEFFFD" d="M83.475,31.605c-0.712,0.448-1.428,0.714-2.171,0.062c0.455-0.353,0.91-0.707,1.364-1.06
			C82.937,30.939,83.206,31.272,83.475,31.605z"/>
		<path fill="#FEFFFD" d="M70.061,30.945c0.208,0.183,0.417,0.366,0.625,0.55c-0.389-0.009-0.778-0.019-1.17-0.023
			C69.686,31.288,69.869,31.111,70.061,30.945z"/>
		<path fill="#FEFFFD" d="M70.315,54.683c0.159,0.336,0.318,0.673,0.477,1.009c-0.425-0.011-0.851-0.022-1.276-0.032
			C69.782,55.336,70.049,55.01,70.315,54.683z"/>
		<path fill="#FEFFFD" d="M62.427,78.569c0.124,0.369,0.433,1,0.341,1.064c-0.504,0.357-0.753-0.033-0.898-0.496
			C62.053,78.944,62.238,78.755,62.427,78.569z"/>
		<path fill="#FEFFFD" d="M65.111,91.896c0.438,0.141,0.896,0.364,0.531,0.865c-0.101,0.139-0.746-0.119-1.143-0.193
			C64.683,92.328,64.887,92.103,65.111,91.896z"/>
	</g>
	<g>
		<path fill="#91C83F" d="M48.883,28.336c1.271-3.073,2.268-5.158,3.003-7.332c1.296-3.833,3.693-3.836,5.702-1.121
			c4.23,5.717,8.791,11.291,11.34,18.067c0.426,1.133,0.709,2.408,1.951,2.607c1.645,0.264,2.188-1.278,2.758-2.426
			c1.214-2.448,1.441-6.038,5.034-6.046c3.934-0.009,4.989,3.76,5.958,6.54c1.307,3.75,4.529,6.105,5.968,9.624
			c1.424,3.483,1.175,7.577,3.747,10.624c1.515-0.192,1.832-1.483,2.472-2.391c4.186-5.931,5.383-5.896,9.779-0.369
			c4.444,5.587,4.982,12.156,5.38,18.838c0.097,1.627-0.344,3.926,1.254,4.578c2.046,0.835,2.361-1.811,3.348-2.932
			c4.201-4.769,6.784-4.583,9.18,1.484c3.159,8.001,2.821,16.225,0.564,24.495c-0.466,1.708-2.39,4.185-0.454,5.414
			c1.726,1.095,3.35-1.452,4.977-2.44c0.979-0.595,1.719-1.568,2.64-2.276c1.359-1.044,2.115-3.667,4.242-2.736
			c2.52,1.103,4.177,3.455,4.234,6.318c0.103,5.179-1.109,10.23-1.923,15.317c-0.427,2.67-2.437,1.783-3.877,1.79
			c-13.326,0.064-26.652,0.038-39.977,0.038c-20.155,0-40.312-0.108-60.465,0.095c-3.819,0.038-4.66-1.065-4.645-4.74
			c0.141-35.146,0.07-70.294,0.129-105.441c0.003-1.611-1.085-4.07,1.63-4.541c2.283-0.396,3.288,1.221,4.273,3.269
			C39.867,18.385,44.959,22.421,48.883,28.336z"/>
	</g>
</g>
</svg>
