<?xml version="1.0" encoding="utf-8"?>
<!-- Generator: Adobe Illustrator 17.0.0, SVG Export Plug-In . SVG Version: 6.00 Build 0)  -->
<!DOCTYPE svg PUBLIC "-//W3C//DTD SVG 1.1//EN" "http://www.w3.org/Graphics/SVG/1.1/DTD/svg11.dtd">
<svg version="1.1" xmlns="http://www.w3.org/2000/svg" xmlns:xlink="http://www.w3.org/1999/xlink" x="0px" y="0px" width="155px"
	 height="155px" viewBox="0 0 155 155" enable-background="new 0 0 155 155" xml:space="preserve">
<g id="Layer_4">
	<polygon fill="#FFFFFF" points="0,129.125 155,129.125 155,9.313 153.243,6.381 152.25,4.875 150.325,3.048 148.765,1.567 146,0 
		10.188,0 7.125,1 3.667,4.481 1.938,6.438 0,9.313 	"/>
</g>
<g id="Layer_1" display="none">
	<polygon display="inline" fill="#8DC63F" points="43.084,15.023 116.557,15.023 119.175,21.305 121.269,29.333 122.141,35.092 
		122.542,39.458 122.542,45.583 122.542,52.458 122.542,57.333 120.083,66.667 116.583,74.542 113.958,78.417 109.167,82.875 
		104.125,86.917 98.125,89.125 94.667,88.958 90.583,88 85.042,85.708 85.042,108.417 83.542,109.625 80.042,109.625 
		79.208,108.292 76.5,98.833 74.458,100.333 69.375,102.375 62.333,102.792 55.083,101.625 48.417,97.792 40.083,89.458 
		32.25,73.583 30.292,62.833 31.208,48.667 34.25,36.417 38.833,22.542 	"/>
</g>
<g id="Layer_2">
	<polygon fill="#651C26" points="0,129.125 155,129.125 155,145.688 153.063,148.563 150.688,151.25 147.875,154 144.813,155 9,155 
		6.438,153.625 2.75,150.125 0.938,147.375 0,145.688 	"/>
</g>
<g id="Layer_5">
	<text transform="matrix(1 0 0 1 12.104 146.4059)" fill="#FFFFFF" font-family="'ArialMT'" font-size="18">curbată</text>
</g>
<g id="Layer_3">
	<g>
		<path fill="#8DC63F" d="M100.932,113.135c0,1.883,0.122,4.719-0.054,7.536c-0.082,1.324-0.803,2.803-2.465,2.55
			c-1.416-0.216-1.427-1.704-1.404-2.858c0.098-4.857-0.539-9.611-1.469-14.377c-0.798-4.088-2.876-6.912-6.466-8.932
			c-8.865-4.99-17.63-10.148-24.569-17.805c-1.005-1.109-2.467-2.102-2.874-3.41C58.584,66.02,50.654,59.33,45.77,50.701
			c-3.617-6.391-4.813-12.607-2.322-20.003c1.806-5.363,1.973-11.429,1.361-17.285c-0.17-1.622-0.156-3.588,2.244-1.953
			c13.73,9.353,28.76,16.88,40.471,29.074c7.025,7.315,11.112,15.817,13.141,25.821c1.758,8.666,2.249,16.85-0.23,25.474
			C98.529,98.458,101.633,105.357,100.932,113.135z"/>
	</g>
	<g>
		<path fill="#006838" d="M44.898,10.924c0,0,1.287,0.907,3.538,2.495c1.12,0.798,2.487,1.754,4.071,2.826
			c1.588,1.061,3.379,2.258,5.333,3.563c1.954,1.298,4.093,2.648,6.402,4.031c1.161,0.703,2.355,1.426,3.574,2.164
			c1.239,0.756,2.417,1.587,3.654,2.413c2.449,1.681,5.002,3.458,7.406,5.531c2.421,2.047,4.738,4.326,6.863,6.779
			c2.081,2.477,3.963,5.183,5.544,7.908c1.634,2.788,2.888,5.65,3.947,8.494c1.053,2.842,1.769,5.687,2.29,8.398
			c0.519,2.72,0.827,5.285,1.026,7.677c0.211,2.395,0.181,4.594,0.088,6.533c-0.091,1.939-0.265,3.619-0.439,4.995
			c-0.166,1.377-0.39,2.445-0.532,3.172c-0.152,0.725-0.232,1.112-0.232,1.112l-0.198-0.027c0,0,0.048-0.389,0.139-1.119
			c0.088-0.73,0.196-1.804,0.287-3.174c0.181-2.737,0.255-6.677-0.289-11.354c-0.555-4.669-1.642-10.094-3.777-15.579
			c-2.126-5.476-5.3-10.975-9.376-15.74c-2.036-2.38-4.254-4.605-6.596-6.616c-2.334-2.021-4.769-3.845-7.168-5.552
			c-2.395-1.718-4.755-3.301-7.024-4.77c-2.262-1.479-4.37-2.929-6.282-4.311c-3.826-2.763-6.913-5.2-9.05-6.934
			c-2.136-1.736-3.328-2.761-3.328-2.761L44.898,10.924z"/>
	</g>
	<g>
		<path fill="#006838" d="M47.433,15.669c0,0,0.023,0.383,0.067,1.101c0.036,0.718,0.125,1.771,0.166,3.11
			c0.053,1.339,0.117,2.966,0.19,4.831c0.067,1.878,0.191,3.942,0.151,6.293c-0.022,2.297-0.111,4.825-0.197,7.422
			c-0.041,1.31,0.004,2.458,0.237,3.776c0.22,1.182,0.569,2.418,1.108,3.64c1.048,2.468,2.618,4.914,4.221,7.384
			c1.625,2.471,3.413,4.895,5.242,7.336c1.797,2.456,3.615,4.874,5.488,7.182c1.875,2.306,3.74,4.559,5.642,6.66
			c1.915,2.095,3.755,4.111,5.585,5.983c1.817,1.864,3.592,3.581,5.261,5.131c1.685,1.539,3.23,2.951,4.6,4.201
			c1.387,1.235,2.616,2.295,3.642,3.151c2.049,1.726,3.22,2.712,3.22,2.712l-0.114,0.164c0,0-1.264-0.862-3.425-2.443
			c-2.158-1.584-5.204-3.903-8.694-6.887c-3.487-2.985-7.422-6.63-11.357-10.812c-3.947-4.17-7.818-8.932-11.454-13.853
			c-1.817-2.46-3.612-4.944-5.249-7.478c-1.632-2.533-3.159-5.098-4.242-7.777c-1.134-2.67-1.428-5.547-1.195-8.166
			c0.193-2.624,0.38-5.097,0.494-7.388c0.11-2.284,0.126-4.392,0.184-6.253c0.047-1.863,0.088-3.487,0.122-4.824
			c0.068-2.675,0.106-4.203,0.106-4.203L47.433,15.669z"/>
	</g>
	<g>
		<path fill="#006838" d="M50.591,20.624c0,0,0.157,0.259,0.452,0.744c0.288,0.487,0.748,1.185,1.278,2.096
			c1.061,1.823,2.702,4.353,4.633,7.385c0.492,0.75,1.005,1.531,1.536,2.34c0.535,0.807,1.089,1.641,1.658,2.499
			c1.149,1.703,2.408,3.463,3.697,5.294c1.291,1.831,2.708,3.667,4.089,5.581c1.413,1.898,2.848,3.826,4.283,5.754
			c1.42,1.942,2.839,3.885,4.237,5.797c1.416,1.899,2.752,3.815,4.071,5.67c1.32,1.855,2.531,3.736,3.576,5.602
			c1.051,1.865,1.861,3.724,2.514,5.443c0.666,1.706,1.165,3.336,1.549,4.769c0.393,1.437,0.682,2.701,0.9,3.743
			c0.229,1.039,0.328,1.874,0.415,2.436c0.076,0.564,0.117,0.865,0.117,0.865l-0.195,0.046c0,0-0.262-1.176-0.854-3.196
			c-0.595-2.018-1.547-4.88-3.031-8.17c-0.741-1.645-1.627-3.388-2.706-5.148c-1.082-1.759-2.352-3.533-3.698-5.345
			c-2.714-3.614-5.609-7.469-8.504-11.324c-2.855-3.885-5.699-7.782-8.223-11.537c-2.532-3.75-4.715-7.367-6.484-10.525
			c-1.772-3.155-3.138-5.845-4.066-7.741c-0.908-1.905-1.427-2.994-1.427-2.994L50.591,20.624z"/>
	</g>
	<g>
		<path fill="#006838" d="M49.433,24.842c0,0-0.017,0.554-0.048,1.591c-0.07,1.045-0.009,2.527,0.135,4.455
			c0.148,1.914,0.426,4.235,0.976,6.835c0.558,2.581,1.388,5.498,2.718,8.389c1.34,2.925,3.25,5.872,5.603,8.752
			c2.339,2.881,5.144,5.735,7.91,8.836c2.78,3.077,5.694,6.219,8.582,9.474c2.909,3.233,5.864,6.518,8.819,9.802
			c1.469,1.64,2.945,3.293,4.422,4.857l0.548,0.564c0.168,0.171,0.383,0.377,0.457,0.438c-0.009-0.006,0.059,0.049-0.026-0.015
			c-0.028-0.019-0.057-0.037-0.088-0.053c-0.157-0.063,0.223,0.076-0.378-0.146c-0.7-0.118-1.269-0.03-1.837,0.697l0.028-0.043
			l0.028-0.043c-0.02,0.02-0.11,0.143-0.149,0.226c-0.099,0.188-0.149,0.411-0.146,0.607c0.002,0.126-0.003,0.061-0.001,0.1
			c-0.001,0.027,0.021,0.078,0.004,0.03c-0.013-0.043-0.023-0.099-0.066-0.201c-0.028-0.084-0.066-0.18-0.116-0.289
			c-0.364-0.844-0.906-1.796-1.429-2.702c-2.178-3.659-4.507-7.26-6.793-10.696c-4.585-6.881-8.856-13.337-12.604-18.808
			c-1.881-2.73-3.554-5.272-5.039-7.523c-1.493-2.246-2.795-4.204-3.867-5.817c-1.082-1.606-1.89-2.898-2.46-3.765
			c-0.564-0.872-0.865-1.337-0.865-1.337l0.161-0.118c0,0,5.261,7.112,13.031,17.869c3.88,5.382,8.393,11.671,13.092,18.508
			c2.339,3.425,4.754,6.968,6.998,10.711c0.55,0.943,1.104,1.888,1.556,2.909c0.114,0.255,0.217,0.516,0.29,0.802
			c0.023,0.067,0.031,0.149,0.042,0.227c0.015,0.063,0.019,0.175-0.016,0.301c-0.014,0.067-0.034,0.099-0.053,0.123l-0.028,0.043
			c-0.071,0.094-0.156,0.087-0.248,0.076c-0.141-0.059-0.177-0.102-0.24-0.15c-0.442-0.374-0.81-0.771-1.2-1.167
			c-1.526-1.596-3.008-3.237-4.494-4.877c-5.906-6.588-11.746-13.232-17.236-19.448c-2.728-3.12-5.451-6.07-7.77-9.097
			c-2.325-3.016-4.216-6.121-5.516-9.189c-1.323-3.065-2.02-6.056-2.467-8.718c-0.438-2.667-0.613-5.02-0.675-6.957
			c-0.07-1.933-0.012-3.472,0.111-4.499c0.093-1.032,0.142-1.583,0.142-1.583L49.433,24.842z"/>
	</g>
	<g>
		<path fill="#006838" d="M55.249,22.776c0,0,0.18,0.202,0.517,0.579c0.331,0.382,0.847,0.922,1.444,1.65
			c1.195,1.456,2.985,3.478,4.985,6.009c1.011,1.249,2.1,2.642,3.218,4.075c1.143,1.454,2.354,2.965,3.568,4.566
			c1.215,1.599,2.521,3.212,3.776,4.907c1.273,1.691,2.566,3.409,3.859,5.126c1.26,1.755,2.504,3.548,3.669,5.349
			c1.173,1.781,2.217,3.639,3.209,5.412c0.999,1.778,1.867,3.55,2.66,5.239c0.801,1.685,1.491,3.31,2.09,4.822
			c0.621,1.502,1.105,2.915,1.526,4.165c0.413,1.254,0.767,2.347,1.041,3.253c0.296,0.897,0.449,1.631,0.586,2.118
			c0.128,0.49,0.196,0.752,0.196,0.752l-0.187,0.071c0,0-0.382-1.002-1.093-2.739c-0.709-1.737-1.76-4.205-3.155-7.103
			c-1.392-2.899-3.124-6.231-5.177-9.686c-2.044-3.462-4.425-7.029-6.979-10.474c-2.534-3.465-5.069-6.929-7.445-10.177
			c-2.359-3.261-4.526-6.332-6.352-8.984c-3.672-5.289-6.12-8.815-6.12-8.815L55.249,22.776z"/>
	</g>
	<g>
		<path fill="#006838" d="M62.065,28.091c0,0,0.19,0.121,0.545,0.348c0.35,0.235,0.889,0.554,1.518,1.024
			c1.261,0.937,3.116,2.238,5.144,4.035c1.023,0.888,2.11,1.878,3.203,2.982c1.122,1.127,2.218,2.239,3.352,3.556
			c1.114,1.289,2.271,2.606,3.333,4.041c1.082,1.418,2.133,2.896,3.154,4.395c0.989,1.52,1.931,3.072,2.82,4.625
			c0.895,1.541,1.664,3.159,2.376,4.684c0.731,1.554,1.323,3.078,1.869,4.54c0.554,1.455,0.996,2.86,1.377,4.162
			c0.4,1.295,0.678,2.509,0.914,3.585c0.236,1.075,0.423,2.014,0.567,2.789c0.157,0.771,0.216,1.393,0.275,1.811
			c0.055,0.419,0.084,0.642,0.084,0.642l-0.193,0.052c0,0-0.227-0.861-0.681-2.351c-0.454-1.489-1.133-3.609-2.091-6.101
			c-0.953-2.492-2.185-5.357-3.687-8.333c-1.499-2.98-3.317-6.043-5.295-8.999c-3.901-5.953-8.501-11.423-12.239-15.233
			c-1.862-1.913-3.487-3.434-4.642-4.479c-1.167-1.032-1.833-1.622-1.833-1.622L62.065,28.091z"/>
	</g>
</g>
</svg>
