<?xml version="1.0" encoding="utf-8"?>
<!-- Generator: Adobe Illustrator 17.0.0, SVG Export Plug-In . SVG Version: 6.00 Build 0)  -->
<!DOCTYPE svg PUBLIC "-//W3C//DTD SVG 1.1//EN" "http://www.w3.org/Graphics/SVG/1.1/DTD/svg11.dtd">
<svg version="1.1" xmlns="http://www.w3.org/2000/svg" xmlns:xlink="http://www.w3.org/1999/xlink" x="0px" y="0px" width="155px"
	 height="155px" viewBox="0 0 155 155" enable-background="new 0 0 155 155" xml:space="preserve">
<g id="Layer_4">
	<polygon fill="#FFFFFF" points="0,129.125 155,129.125 155,9.313 153.243,6.381 152.25,4.875 150.325,3.048 148.765,1.567 146,0 
		10.188,0 7.125,1 3.667,4.481 1.938,6.438 0,9.313 	"/>
</g>
<g id="Layer_1" display="none">
	<polygon display="inline" fill="#8DC63F" points="43.084,15.023 116.557,15.023 119.175,21.305 121.269,29.333 122.141,35.092 
		122.542,39.458 122.542,45.583 122.542,52.458 122.542,57.333 120.083,66.667 116.583,74.542 113.958,78.417 109.167,82.875 
		104.125,86.917 98.125,89.125 94.667,88.958 90.583,88 85.042,85.708 85.042,108.417 83.542,109.625 80.042,109.625 
		79.208,108.292 76.5,98.833 74.458,100.333 69.375,102.375 62.333,102.792 55.083,101.625 48.417,97.792 40.083,89.458 
		32.25,73.583 30.292,62.833 31.208,48.667 34.25,36.417 38.833,22.542 	"/>
</g>
<g id="Layer_2">
	<polygon fill="#651C26" points="0,129.125 155,129.125 155,145.688 153.063,148.563 150.688,151.25 147.875,154 144.813,155 9,155 
		6.438,153.625 2.75,150.125 0.938,147.375 0,145.688 	"/>
</g>
<g id="Layer_5">
	<text transform="matrix(1 0 0 1 12.104 146.4059)" fill="#FFFFFF" font-family="'ArialMT'" font-size="18">palmată</text>
</g>
<g id="Layer_3">
	<g>
		<path fill="#8EC540" stroke="#8DC63F" stroke-miterlimit="10" d="M69.23,80.815c-2.11-1.09-3.365,0.797-4.802,1.569
			c-13.981,7.509-28.524,12.668-44.732,11.787c-3.223-0.175-4.463-0.441-2.79-4.119c6.342-13.942,15.414-24.845,30.783-29.034
			c0-0.557,0.129-0.99-0.018-1.128c-9.931-9.333-13.32-21.507-15.183-34.422c-0.757-5.249-1.945-10.441-3.081-15.628
			c-0.63-2.877,0.325-3.336,2.809-2.318c15.34,6.286,30.487,12.829,39.154,28.452c0.552-0.294,1.155-0.405,1.322-0.735
			c7.578-15.001,22.47-21.159,35.573-29.479c2.754-1.749,2.55,0.398,2.748,2.052c1.269,10.617-1.163,20.768-3.87,30.888
			c-1.479,5.529-1.461,5.53,4.23,5.416c11.287-0.227,22.241,0.887,32.086,7.226c3.131,2.016,3.981,3.356,0.738,6.395
			c-9.233,8.653-19.927,14.477-32.197,17.069c-4.354,0.92-4.049,2.146-2.452,5.4c4.416,8.994,7.66,18.397,8.321,28.51
			c0.393,6.006-0.879,7.123-6.439,4.827c-9.2-3.799-17.007-9.721-23.79-16.966c-3.641-3.889-7.136-7.902-11.297-11.283
			c-2.069-1.68-3.783-1.943-5.488,0.314c0.775-6.934,2.159-7.975,7.834-4.649c10.13,5.938,21.354,10.551,27.829,21.324
			c0.43,0.715,1.443,0.632,2.135,0.253c-2.116-7.243-9.09-10.267-13.953-14.819c-2.737-2.562-7.085-5.781-11.493-6.305
			c-4.304-0.512-5.524-5.874-10.222-5.396c-1.41,0.144-0.568-1.652-0.2-2.367c3.908-7.586,6.652-15.961,14.099-21.191
			c0.129-0.091,0.309-0.111,0.468-0.155c0.018-0.005,0.053,0.049,0.08,0.076c-0.296-0.079-0.667-0.073-0.873-0.254
			c-0.619-0.546-0.303-1.185-0.098-1.826c1.721-5.384,6.078-9.299,7.993-14.628c2.023-5.63,7.402-9.624,8.127-16
			c-4.273,3.451-5.867,8.666-8.687,13.033c-1.054,1.633-3.541,1.497-3.711,3.945c-0.297,4.282-2.603,7.829-4.739,11.398
			c-3.152,5.266-6.884,10.157-9.52,15.773c-1.191,2.538-1.856,6.857-4.779,6.787c-2.256-0.054-2.843-4.425-4.307-6.796
			c-0.61-0.988-1.195-2.009-1.639-3.078c-1.393-3.353-4.373-6.499-0.693-10.395c0.956-1.012-0.285-2.588-1.547-3.498
			c-1.003,2.083,0.508,4.299-1.559,6.087c-5.313-5.531-7.817-13.222-13.849-18.037c3.175,5.803,6.841,11.227,10.337,16.758
			c1.29,2.041,3.276,3.755,3.236,6.567c-0.009,0.672-2.55,0.683-0.348,1.779C69.675,64.423,66.901,73.668,69.23,80.815z
			 M44.949,30.04c-0.041,0.81-0.294,1.7,0.772,2.228c0.183-0.995,0.138-1.771-0.724-2.261c-1.018-2.285-2.146-4.469-5.381-4.779
			C41.393,26.832,43.17,28.437,44.949,30.04z M125.952,55.745c-6.109-0.395-7.488-0.076-11.708,2.867 M119.502,58.426
			 M97.582,64.367c4.867-1.478,9.338-2.669,13.284-5.404 M57.487,73.664c-4.152-1.986-4.152-1.986-5.746,0
			C53.605,73.664,55.546,73.664,57.487,73.664z M107.37,106.111l0.138-0.44l0.131,0.445L107.37,106.111z"/>
		<path fill="#006838" stroke="#8DC63F" stroke-miterlimit="10" d="M69.23,80.815c-2.329-7.146,0.445-16.391-8.459-20.821
			c-2.202-1.095,0.338-1.107,0.348-1.779c0.04-2.812-1.946-4.526-3.236-6.567c-3.496-5.531-7.162-10.955-10.337-16.758
			c6.032,4.815,8.536,12.506,13.849,18.037c2.067-1.788,0.556-4.004,1.559-6.087c1.263,0.911,2.503,2.486,1.547,3.498
			c-3.68,3.896-0.7,7.042,0.693,10.395c0.444,1.069,1.029,2.09,1.639,3.078c1.465,2.371,2.051,6.742,4.307,6.796
			c2.923,0.07,3.588-4.249,4.779-6.787c2.636-5.615,6.368-10.507,9.52-15.773c2.136-3.569,4.442-7.116,4.739-11.398
			c0.17-2.448,2.657-2.312,3.711-3.945c2.819-4.368,4.413-9.582,8.687-13.033c-0.726,6.376-6.104,10.37-8.127,16
			c-1.914,5.328-6.271,9.243-7.993,14.628c-0.205,0.641-0.521,1.281,0.098,1.826c0.206,0.181,0.577,0.175,0.873,0.254
			c-0.027-0.027-0.062-0.081-0.08-0.076c-0.159,0.044-0.339,0.065-0.468,0.155c-7.448,5.23-10.191,13.605-14.099,21.191
			c-0.368,0.715-1.21,2.51,0.2,2.367c4.699-0.479,5.918,4.884,10.222,5.396c4.409,0.524,8.757,3.743,11.493,6.305
			c4.863,4.553,11.837,7.576,13.953,14.819c-0.692,0.378-1.705,0.462-2.135-0.253c-6.475-10.773-17.699-15.386-27.829-21.324
			c-5.675-3.326-7.058-2.286-7.834,4.649c-4.918,10.392-9.366,20.885-7.825,32.816c0.168,1.298,0.433,2.666-1.655,2.842
			c-2.278,0.191-2.386-1.174-2.351-2.797c0.196-9.102,2.92-17.594,6.298-25.92C66.874,88.718,68.599,84.951,69.23,80.815z"/>
		<path fill="#672028" stroke="#8DC63F" stroke-miterlimit="10" d="M57.487,73.664c-1.941,0-3.882,0-5.746,0"/>
		<line fill="#672028" stroke="#8DC63F" stroke-miterlimit="10" x1="44.996" y1="30.007" x2="44.947" y2="30.041"/>
		<path fill="#672028" stroke="#8DC63F" stroke-miterlimit="10" d="M39.615,25.228"/>
		<polygon fill="#672028" stroke="#8DC63F" stroke-miterlimit="10" points="107.37,106.111 107.64,106.117 107.508,105.672 		"/>
	</g>
	<g>
		<path fill="#006838" d="M34.906,80.372l2.259-1.607c0.753-0.536,1.523-1.043,2.284-1.566l0.036-0.02l3.395-1.926
			c1.134-0.637,2.258-1.295,3.401-1.915l0.163-0.089l0.262-0.01l11-0.41c1.833-0.058,3.667-0.161,5.5-0.181l5.5-0.105l0.488-0.009
			l0.46,0.305l2.533,1.68l-0.131-0.082l3.012,1.675l-1.831,0.068l4.682-3.169l2.343-1.582l1.18-0.777
			c0.476-0.319,0.822-0.515,1.24-0.779c3.214-1.969,6.392-3.995,9.636-5.916l0.293-0.173l0.26-0.048l5.27-0.977
			c1.754-0.339,3.52-0.621,5.283-0.916l-0.302,0.099l7.246-2.992l3.623-1.496c1.209-0.496,2.438-0.948,3.655-1.425l0.144-0.056
			l0.069-0.005l4.788-0.337c1.594-0.127,3.197-0.185,4.797-0.27l0.026,0.198l-9.497,1.269l0.034-0.01l-14.237,6.54l-0.015,0.007
			l-0.017,0.004l-10.496,2.174l0.056-0.023l-9.567,6.026c-0.804,0.494-1.574,1.017-2.36,1.545l-2.354,1.566l-4.708,3.13
			l-0.094,0.063l-0.098-0.056L71.12,76.09l-0.007-0.004l-0.006-0.004l-2.496-1.733l0.097,0.03l-22-0.044l0.055-0.013l-7.007,3.411
			l0.008-0.004l-4.756,2.816L34.906,80.372z"/>
	</g>
	<g>
		<path fill="#006838" d="M108.246,49.989c-0.234,0.574-0.545,1.084-0.818,1.626c-0.141,0.267-0.304,0.516-0.455,0.775
			c-0.15,0.26-0.317,0.506-0.48,0.755c-0.319,0.504-0.667,0.985-1.014,1.466c-0.336,0.49-0.723,0.939-1.081,1.411l0.185-0.395
			c-0.107,0.65-0.269,1.29-0.4,1.936c-0.072,0.321-0.163,0.639-0.244,0.959c-0.085,0.319-0.158,0.64-0.269,0.954l-0.615,1.894
			c-0.264,0.62-0.477,1.25-0.798,1.859l-0.098-0.019l1.453-7.771l0.005-0.024l0.016-0.019l4.537-5.47L108.246,49.989z"/>
	</g>
	<g>
		<path fill="#006838" d="M90.424,67.074c0.971-0.173,1.919-0.201,2.862-0.194c0.942,0.014,1.877,0.078,2.802,0.205l0.117,0.016
			l0.159,0.074c0.533,0.247,1.045,0.535,1.558,0.82c0.518,0.277,1.008,0.607,1.508,0.917c0.98,0.66,1.939,1.361,2.799,2.251
			l-0.046,0.089l-3.138-1.6c-1.044-0.538-2.097-1.057-3.133-1.61l0.029,0.01l-5.534-0.879L90.424,67.074z"/>
	</g>
	<polyline fill="none" stroke="#006838" stroke-miterlimit="10" points="74.207,77.632 85.457,82.958 100.957,92.708 
		115.207,108.958 	"/>
	<path fill="none" stroke="#006838" stroke-miterlimit="10" d="M108.207,106.208c-0.75-2-1.528-6.975-1.528-6.975"/>
	<g>
		<path fill="#006838" d="M103.463,86.007c-0.918,0.279-1.846,0.465-2.77,0.695c-0.926,0.203-1.854,0.398-2.785,0.556
			c-0.93,0.173-1.862,0.321-2.796,0.455c-0.932,0.151-1.869,0.255-2.805,0.373l0.79-0.882c0.025,1.015-0.006,2.03-0.015,3.045
			c-0.001,1.015-0.068,2.03-0.099,3.045l-0.137-0.44c0.62,1.034,1.221,2.08,1.833,3.12c0.316,0.513,0.571,1.067,0.86,1.599
			c0.285,0.534,0.562,1.073,0.814,1.63l-0.082,0.057l-4.127-5.921l-0.014-0.02l0-0.025l-0.017-6.09l0-0.086l0.086-0.009
			l11.253-1.201L103.463,86.007z"/>
	</g>
	<g>
		<path fill="#006838" d="M85.957,52.658c0.743-0.332,1.486-0.507,2.229-0.637c0.372-0.071,0.743-0.11,1.115-0.144
			c0.372-0.049,0.743-0.041,1.115-0.059l-0.48,0.141c0.343-0.251,0.724-0.444,1.085-0.669c0.374-0.204,0.752-0.401,1.143-0.577
			c0.391-0.178,0.793-0.336,1.208-0.476c0.422-0.129,0.842-0.26,1.308-0.321L94.734,50c-1.422,0.929-2.838,1.868-4.266,2.789
			l-0.024,0.016l-0.028,0l-4.459-0.047V52.658z"/>
	</g>
	<g>
		<path fill="#006838" d="M90.382,29.458c0,0,0.286,0.517,0.488,1.292c0.11,0.388,0.201,0.84,0.26,1.324
			c0.022,0.242,0.072,0.493,0.072,0.747c0.009,0.254,0.019,0.513,0.029,0.771c-0.018,0.517-0.031,1.034-0.103,1.518
			c-0.061,0.484-0.151,0.937-0.261,1.324c-0.202,0.775-0.486,1.292-0.486,1.292h-0.1c0,0-0.025-2.067-0.05-4.134
			c0.025-2.067,0.05-4.134,0.05-4.134H90.382z"/>
	</g>
	<g>
		<path fill="#006838" d="M92.209,39.408c0,0,0.352-0.286,0.879-0.488c0.264-0.11,0.571-0.201,0.901-0.26
			c0.165-0.022,0.335-0.072,0.508-0.072c0.173-0.009,0.349-0.019,0.525-0.029c0.352,0.018,0.703,0.031,1.033,0.103
			c0.33,0.061,0.637,0.151,0.901,0.261c0.527,0.202,0.879,0.486,0.879,0.486v0.1c0,0-1.406,0.025-2.812,0.05
			c-1.406-0.025-2.812-0.05-2.812-0.05V39.408z"/>
	</g>
	<g>
		<path fill="#006838" d="M97.883,18.458c0,0,0.286,0.417,0.488,1.043c0.11,0.313,0.201,0.678,0.26,1.069
			c0.022,0.195,0.072,0.397,0.072,0.603c0.009,0.205,0.019,0.414,0.029,0.622c-0.018,0.417-0.031,0.834-0.103,1.225
			c-0.061,0.391-0.151,0.756-0.261,1.069c-0.202,0.626-0.486,1.043-0.486,1.043h-0.1c0,0-0.025-1.668-0.05-3.336
			c0.025-1.668,0.05-3.336,0.05-3.336H97.883z"/>
	</g>
	<g>
		<path fill="#006838" d="M88,32.483c-0.195,0.53-0.409,1.048-0.637,1.559c-0.224,0.513-0.44,1.031-0.671,1.539
			c-0.469,1.013-0.961,2.013-1.469,3.003c-0.513,0.987-1.036,1.969-1.578,2.939c-0.556,0.962-1.085,1.94-1.672,2.884l0.122-0.449
			c-0.015,0.958-0.014,1.917-0.062,2.875c-0.028,0.958-0.075,1.917-0.16,2.875c-0.078,0.958-0.128,1.917-0.23,2.875
			c-0.128,0.958-0.209,1.917-0.386,2.875h-0.1l-0.046-11.5l0-0.026l0.013-0.023l6.79-11.477L88,32.483z"/>
	</g>
	<g>
		<path fill="#006838" d="M78.707,57.758c-0.375,0.226-0.75,0.373-1.125,0.488c-0.375,0.123-0.75,0.201-1.125,0.257
			c-0.375,0.062-0.75,0.087-1.125,0.096c-0.188,0.015-0.375,0.003-0.562-0.006c-0.187-0.011-0.375-0.009-0.562-0.032l-0.546-0.065
			l-0.163-0.315c-0.209-0.402-0.397-0.819-0.544-1.263c-0.143-0.447-0.26-0.91-0.288-1.433l0.083-0.055l1.531,2.229l-0.073-0.039
			c1.5-0.03,3,0.028,4.5,0.037V57.758z"/>
	</g>
	<g>
		<path fill="#006838" d="M55.007,27.708c0.307,0.792,0.471,1.583,0.607,2.375c0.056,0.396,0.122,0.792,0.147,1.187
			c0.037,0.396,0.072,0.792,0.074,1.187l0.001,0.238l-0.148,0.248c-0.27,0.453-0.564,0.891-0.876,1.316
			c-0.292,0.439-0.642,0.839-0.966,1.256c-0.7,0.801-1.427,1.583-2.347,2.237l-0.083-0.055l1.726-2.65
			c0.581-0.88,1.139-1.774,1.738-2.642l-0.015,0.051l0.043-4.75H55.007z"/>
	</g>
	<path fill="none" stroke="#006838" stroke-miterlimit="10" d="M47.75,32.5c-1.881-3.272-4.254-6.85-7.25-10.5
		c-1.341-1.633-2.683-3.131-4-4.5"/>
	<path fill="#006838" stroke="#8DC63F" stroke-miterlimit="10" d="M51,75.25c-1.333,1.5-2.667,3-4,4.5"/>
	<polyline fill="#8EC540" stroke="#8DC63F" stroke-miterlimit="10" points="114.688,58.963 118.907,56.583 125.952,56.188 	"/>
</g>
</svg>
