<?xml version="1.0" encoding="utf-8"?>
<!-- Generator: Adobe Illustrator 17.0.0, SVG Export Plug-In . SVG Version: 6.00 Build 0)  -->
<!DOCTYPE svg PUBLIC "-//W3C//DTD SVG 1.1//EN" "http://www.w3.org/Graphics/SVG/1.1/DTD/svg11.dtd">
<svg version="1.1" xmlns="http://www.w3.org/2000/svg" xmlns:xlink="http://www.w3.org/1999/xlink" x="0px" y="0px" width="155px"
	 height="155px" viewBox="0 0 155 155" enable-background="new 0 0 155 155" xml:space="preserve">
<g id="Layer_4">
	<polygon fill="#FFFFFF" points="0,129.125 155,129.125 155,9.313 153.243,6.381 152.25,4.875 150.325,3.048 148.765,1.567 146,0 
		10.188,0 7.125,1 3.667,4.481 1.938,6.438 0,9.313 	"/>
</g>
<g id="Layer_1" display="none">
	<polygon display="inline" fill="#8DC63F" points="43.084,15.023 116.557,15.023 119.175,21.305 121.269,29.333 122.141,35.092 
		122.542,39.458 122.542,45.583 122.542,52.458 122.542,57.333 120.083,66.667 116.583,74.542 113.958,78.417 109.167,82.875 
		104.125,86.917 98.125,89.125 94.667,88.958 90.583,88 85.042,85.708 85.042,108.417 83.542,109.625 80.042,109.625 
		79.208,108.292 76.5,98.833 74.458,100.333 69.375,102.375 62.333,102.792 55.083,101.625 48.417,97.792 40.083,89.458 
		32.25,73.583 30.292,62.833 31.208,48.667 34.25,36.417 38.833,22.542 	"/>
</g>
<g id="Layer_2">
	<polygon fill="#651C26" points="0,129.125 155,129.125 155,145.688 153.063,148.563 150.688,151.25 147.875,154 144.813,155 9,155 
		6.438,153.625 2.75,150.125 0.938,147.375 0,145.688 	"/>
</g>
<g id="Layer_5">
	<text transform="matrix(1 0 0 1 12.104 146.4059)" fill="#FFFFFF" font-family="'ArialMT'" font-size="18">dicotomică</text>
</g>
<g id="Layer_3">
	<g>
		<path fill="#8DC63F" d="M80.547,30.609c1.685-3.227,1.294-6.171,0.816-9.113c-0.329-2.023-0.572-4.125,1.337-5.484
			c1.967-1.4,3.932-0.225,5.59,0.756c1.836,1.086,3.542,2.491,5.049,4.01c2.43,2.449,4.965,4.437,8.663,4.221
			c1.386-0.081,2.85,0.202,3.487,1.51c2.122,4.36,5.745,5.135,10.234,5.603c5.009,0.522,8.875,4.091,10.933,8.558
			c1.61,3.494,3.658,6.236,6.628,8.499c2.394,1.824,4.462,3.986,6.265,6.414c3.349,4.509,2.319,7.97-3.052,9.766
			c-3.552,1.188-7.279,0.957-10.913,0.769c-15.222-0.784-28.836,3.599-41.39,12.048c-4.886,3.288-6.724,7.095-5.463,13.068
			c2.211,10.478,1.939,21.072-0.035,32.024c-2.534-1.383-1.82-3.359-1.587-4.911c1.688-11.243,0.638-22.25-2.561-33.102
			c-0.513-1.741-0.69-3.666-2.293-4.872c-6.917-5.205-13.803-10.453-20.818-15.524c-1.278-0.924-3.191-1.721-4.66-1.512
			c-10.143,1.445-17.437-5.808-26.189-8.534c-6.099-1.899-5.822-4.222-2.384-9.616c3.749-5.882,6.656-12.228,13.377-15.622
			c5.48-2.768,11.054-5.187,17.161-5.845c2.746-0.296,4.309-1.926,5.561-3.754c4.74-6.926,11.683-5.076,18.171-4.726
			c2.206,0.119,3.013,2.427,3.761,4.291C77.707,23.209,79.113,26.915,80.547,30.609z"/>
	</g>
	<path fill="none" stroke="#006838" stroke-miterlimit="10" d="M30.125,40.625c3.513,1.706,8.369,4.192,14,7.5
		c6.418,3.771,10.102,5.935,14.625,9.75C66.121,64.091,69.78,69.678,70.625,71c3.062,4.789,5.298,10.042,4.75,10.375
		c-0.665,0.404-4.285-7.13-12.625-14.625c-3.842-3.453-7.811-5.843-15.75-10.625c-8.022-4.832-12.024-6.449-14.625-7.375
		c-3.698-1.317-6.887-2.063-9.125-2.5"/>
	<path fill="none" stroke="#006838" stroke-miterlimit="10" d="M44.375,27.25c5,5.458,9.999,10.917,15,16.375
		c6.06,6.613,8.787,9.586,11.625,14.75c3.119,5.676,4.266,10.171,4.75,13.625c0.726,5.186,0.21,9.847-0.25,9.875
		c-0.541,0.033-0.016-6.387-3.375-13.625c-2.127-4.582-4.882-7.492-8.5-11.25c-2.776-2.883-5.856-5.63-13-10.875
		c-4.465-3.278-10.524-7.537-18-12.25"/>
	<path fill="none" stroke="#006838" stroke-miterlimit="10" d="M54.75,24.25c2.38,1.91,5.709,4.99,8.625,9.5
		c3.093,4.784,3.959,8.452,6.5,15.25c1.467,3.925,3.72,9.503,7,16.125"/>
	<path fill="none" stroke="#006838" stroke-miterlimit="10" d="M90,28.875c-0.445,4.804-1.025,10.813-1.75,17.75
		c-1.05,10.054-1.429,12.714-3,16.25C82.275,69.571,77.413,74.03,77.375,74c-0.025-0.019,1.89-1.99,3.5-4.875
		c2.4-4.301,2.933-8.502,3.125-14.875c0.16-5.307,0.089-12.265-0.75-20.5"/>
	<path fill="none" stroke="#006838" stroke-miterlimit="10" d="M102.25,27.125c-1.414,4.152-3.188,9.05-5.375,14.5
		C94.722,46.991,95.129,45.511,91,55.25c-3.601,8.494-4.449,10.887-7,14.375c-2.19,2.993-4.422,5.136-6,6.5"/>
	<path fill="none" stroke="#006838" stroke-miterlimit="10" d="M110.25,34c-5.387,7.387-9.622,13.447-12.5,17.625
		c-4.111,5.968-5.088,7.565-8,11.5C83.366,71.75,78.647,76.792,78.875,77c0.215,0.196,4.351-4.356,11-10.75
		c9.551-9.184,12.15-10.495,18-16.875c4.052-4.419,7.14-8.518,9.375-11.75"/>
	<path fill="none" stroke="#006838" stroke-miterlimit="10" d="M124.875,48.375C120.055,49.281,113.039,51.236,106,56
		c-5.367,3.633-4.943,4.97-12.125,10.875C82.642,76.11,77.038,76.592,75.5,82.625c-0.689,2.703,0.582,2.033,1.5,10.5
		c0.604,5.567,0.452,11.245,0.125,22.375c-0.088,2.996-0.184,5.44-0.25,7"/>
	<path fill="none" stroke="#006838" stroke-miterlimit="10" d="M129.625,57.625c-3.824,1.195-7.741,2.364-11.75,3.5
		c-7.326,2.075-14.46,3.898-21.375,5.5"/>
</g>
</svg>
