<?xml version="1.0" encoding="utf-8"?>
<!-- Generator: Adobe Illustrator 17.0.0, SVG Export Plug-In . SVG Version: 6.00 Build 0)  -->
<!DOCTYPE svg PUBLIC "-//W3C//DTD SVG 1.1//EN" "http://www.w3.org/Graphics/SVG/1.1/DTD/svg11.dtd">
<svg version="1.1" xmlns="http://www.w3.org/2000/svg" xmlns:xlink="http://www.w3.org/1999/xlink" x="0px" y="0px" width="155px"
	 height="155px" viewBox="0 0 155 155" enable-background="new 0 0 155 155" xml:space="preserve">
<g id="Layer_4">
	<polygon fill="#FFFFFF" points="0,129.125 155,129.125 155,9.313 153.243,6.381 152.25,4.875 150.325,3.048 148.765,1.567 146,0 
		10.188,0 7.125,1 3.667,4.481 1.938,6.438 0,9.313 	"/>
</g>
<g id="Layer_1" display="none">
	<polygon display="inline" fill="#8DC63F" points="43.084,15.023 116.557,15.023 119.175,21.305 121.269,29.333 122.141,35.092 
		122.542,39.458 122.542,45.583 122.542,52.458 122.542,57.333 120.083,66.667 116.583,74.542 113.958,78.417 109.167,82.875 
		104.125,86.917 98.125,89.125 94.667,88.958 90.583,88 85.042,85.708 85.042,108.417 83.542,109.625 80.042,109.625 
		79.208,108.292 76.5,98.833 74.458,100.333 69.375,102.375 62.333,102.792 55.083,101.625 48.417,97.792 40.083,89.458 
		32.25,73.583 30.292,62.833 31.208,48.667 34.25,36.417 38.833,22.542 	"/>
</g>
<g id="Layer_2">
	<polygon fill="#651C26" points="0,129.125 155,129.125 155,145.688 153.063,148.563 150.688,151.25 147.875,154 144.813,155 9,155 
		6.438,153.625 2.75,150.125 0.938,147.375 0,145.688 	"/>
</g>
<g id="Layer_5">
	<text transform="matrix(1 0 0 1 12.104 146.4059)" fill="#FFFFFF" font-family="'ArialMT'" font-size="18">penată</text>
</g>
<g id="Layer_3">
	<g>
		<path fill="#8BC540" stroke="#006838" stroke-miterlimit="10" d="M76.722,114.313c-7.536-4.599-16.378-6.513-22.88-13.443
			c-13.506-14.396-17.246-38.665-7.136-55.562c2.927-4.893,6.62-9.533,10.754-13.454c7.489-7.103,13.584-15.451,21.531-22.619
			c6.853,11.685,19.825,18.367,26.059,31.12c6.121,12.522,6.275,25.407,4.328,38.621c-2.078,14.104-12.265,22.226-22.754,30.033
			c-1.863,1.387-3.837,2.624-5.755,3.922c-1.318-1.34-1.039-3.105-1.184-4.717c-0.243-2.695,0.829-6.06,0.18-7.945
			c-3.237-9.403-1.188-19.135-2.716-28.617c-1.398-8.679,1.095-17.645-0.805-26.461c0.941,5.838-0.931,11.462-0.606,17.429
			c0.612,11.201-0.4,22.513,0.481,33.761c0.146,1.869-1.948,3.374-1.203,4.537C77.769,105.212,77.093,109.74,76.722,114.313z
			 M77.029,32.023c2.07-3.007,0.134-6.21,0.804-9.285c-2.541,2.968,0.288,6.218-0.839,9.258c-2.776,0.931-1.088,2.16,0.034,3.337
			C77.029,34.23,77.029,33.126,77.029,32.023z"/>
		<path fill="#006838" stroke="#006838" stroke-miterlimit="10" d="M75.739,62.622c-0.326-5.967,1.547-11.591,0.606-17.429
			c1.899,8.816-0.593,17.782,0.805,26.461c1.528,9.483-0.521,19.214,2.716,28.617c0.649,1.885-0.422,5.25-0.18,7.945
			c0.145,1.612-0.134,3.377,1.184,4.717c0.071,2.318,0.139,4.628,0.228,6.937c0.041,1.051,0.847,2.433-1.313,2.324
			c-1.365-0.069-2.156-0.46-2.289-1.957c-0.176-1.982-0.509-3.95-0.775-5.924c0.37-4.573,1.047-9.101-1.705-13.393
			c-0.745-1.163,1.349-2.668,1.203-4.537"/>
		<path fill="#662028" stroke="#006838" stroke-miterlimit="10" d="M76.995,31.997c1.127-3.041-1.702-6.291,0.838-9.259
			c-0.671,3.075,1.265,6.279-0.804,9.285L76.995,31.997z"/>
		<path fill="#662028" stroke="#006838" stroke-miterlimit="10" d="M77.029,32.023c0,1.103,0,2.207,0,3.31
			c-1.122-1.176-2.81-2.406-0.034-3.336L77.029,32.023z"/>
	</g>
	<g>
		<path fill="#006838" d="M58.885,44.168c0,0-0.282,0.675-0.602,1.887c-0.333,1.206-0.58,2.992-0.407,5.08
			c0.19,2.067,1.04,4.433,2.369,6.648c0.645,1.08,1.552,2.033,2.589,2.978c1.028,0.945,2.141,1.877,3.236,2.824
			c2.147,1.945,4.294,3.891,6.307,5.715c1.012,0.862,1.975,1.825,2.89,2.315c0.835,0.444,2.01,0.243,2.915-0.119
			c0.931-0.379,1.733-0.922,2.4-1.457c0.671-0.537,1.193-1.093,1.614-1.557c0.408-0.477,0.741-0.848,0.943-1.12
			c0.212-0.266,0.326-0.408,0.326-0.408l0.085,0.053c0,0-0.1,0.152-0.288,0.436c-0.181,0.289-0.469,0.697-0.853,1.204
			c-0.394,0.499-0.885,1.099-1.537,1.702c-0.648,0.602-1.444,1.237-2.448,1.688c-0.98,0.427-2.252,0.774-3.455,0.256
			c-1.147-0.556-2.117-1.467-3.159-2.336c-2.042-1.794-4.221-3.707-6.399-5.62c-1.085-0.961-2.18-1.912-3.219-2.895
			c-1.04-0.976-2.013-2.026-2.697-3.218c-1.373-2.364-2.089-4.877-2.212-7.059c-0.096-2.19,0.339-3.994,0.745-5.194
			c0.416-1.205,0.768-1.845,0.768-1.845L58.885,44.168z"/>
	</g>
	<g>
		<path fill="#006838" d="M72.217,58.788c0,0,0.316,0.473,0.984,1.169c0.646,0.696,1.769,1.582,3.249,1.905
			c0.189,0.025,0.371,0.06,0.573,0.075c0.17,0.009,0.366,0.003,0.557-0.023c0.386-0.045,0.793-0.164,1.201-0.324
			c0.819-0.323,1.638-0.833,2.473-1.389c0.365-0.235,0.825-0.625,1.242-0.936c0.414-0.336,0.77-0.678,1.16-1.029
			c0.744-0.753,1.48-1.539,2.113-2.412c1.358-1.67,2.441-3.577,3.22-5.45c0.385-0.956,0.709-1.823,0.929-2.753
			c0.226-0.895,0.377-1.779,0.469-2.592c0.173-1.632,0.222-3.025,0.161-3.999c-0.039-0.976-0.092-1.54-0.092-1.54l0.098-0.02
			c0,0,0.127,0.549,0.26,1.524c0.132,0.974,0.258,2.382,0.163,4.07c-0.109,1.678-0.382,3.663-1.181,5.626
			c-0.771,1.964-1.853,3.966-3.239,5.746c-0.678,0.903-1.469,1.711-2.265,2.483c-0.828,0.75-1.679,1.42-2.562,2.008
			c-0.882,0.579-1.793,1.067-2.719,1.37c-0.917,0.314-1.891,0.386-2.711,0.14c-1.665-0.467-2.703-1.559-3.311-2.311
			c-0.613-0.776-0.861-1.288-0.861-1.288L72.217,58.788z"/>
	</g>
	<g>
		<path fill="none" d="M96.84,49.146"/>
	</g>
	<g>
		<path fill="#006838" d="M76.989,50.693c0,0-0.344-0.037-0.928-0.196c-0.575-0.172-1.422-0.418-2.35-0.925
			c-0.466-0.248-0.959-0.547-1.444-0.917c-0.497-0.374-0.977-0.77-1.446-1.271c-0.459-0.488-0.922-1.016-1.302-1.611
			c-0.391-0.587-0.738-1.212-1.05-1.832c-0.296-0.63-0.564-1.243-0.82-1.908c-0.246-0.647-0.431-1.299-0.591-1.934
			c-0.325-1.27-0.42-2.493-0.493-3.523c-0.067-1.035,0.042-1.9,0.084-2.495c0.063-0.598,0.14-0.935,0.14-0.935l0.1-0.001
			c0,0,0.01,0.336,0.029,0.924c0.029,0.587,0.089,1.426,0.233,2.424c0.149,0.996,0.381,2.152,0.748,3.355
			c0.359,1.207,0.867,2.451,1.467,3.654c0.576,1.211,1.283,2.36,2.115,3.301c0.825,0.948,1.732,1.704,2.565,2.267
			c0.833,0.564,1.586,0.942,2.122,1.18c0.536,0.239,0.855,0.349,0.855,0.349L76.989,50.693z"/>
	</g>
	<g>
		<path fill="#006838" d="M50.718,63.458c0,0,0.084,0.139,0.24,0.401c0.152,0.266,0.384,0.653,0.622,1.176
			c0.468,1.039,1.127,2.585,1.389,4.581c0.123,1,0.203,2.072,0.105,3.261c-0.068,0.614-0.106,1.043-0.001,1.462
			c0.146,0.631,0.263,0.958,0.537,1.437c0.514,0.879,1.438,1.65,2.416,2.415c1.015,0.763,2.046,1.538,3.078,2.314
			c2.024,1.635,4.023,3.361,5.725,5.145c0.848,0.897,1.557,1.568,2.494,2.075c0.499,0.278,0.946,0.511,1.4,0.712
			c0.461,0.205,0.915,0.387,1.361,0.535c1.783,0.599,3.364,0.892,4.482,0.99c1.118,0.114,1.77,0.133,1.77,0.133l0.006,0.1
			c0,0-0.647,0.058-1.782,0.036c-1.131-0.028-2.765-0.151-4.64-0.69c-0.933-0.268-1.932-0.646-2.921-1.151
			c-0.498-0.258-0.999-0.543-1.465-0.908c-0.465-0.364-0.887-0.793-1.317-1.219c-1.702-1.725-3.689-3.382-5.727-4.972
			c-1.021-0.795-2.042-1.59-3.047-2.372c-0.982-0.802-1.973-1.631-2.586-2.713c-0.618-1.066-0.775-2.339-0.518-3.426
			c0.141-1.095,0.115-2.15,0.04-3.111c-0.174-1.928-0.653-3.486-1.049-4.539c-0.402-1.055-0.701-1.629-0.701-1.629L50.718,63.458z"
			/>
	</g>
	<g>
		<path fill="#006838" d="M77.017,79.93c0,0,0.614,0.078,1.671,0.09c1.054,0.024,2.566-0.128,4.225-0.687
			c0.83-0.278,1.662-0.688,2.439-1.294c0.787-0.602,1.548-1.361,2.343-2.148c0.785-0.795,1.56-1.674,2.363-2.573
			c0.797-0.896,1.593-1.809,2.348-2.739c1.576-1.807,2.912-3.761,3.875-5.769c0.473-1.009,0.931-1.99,1.296-2.948
			c0.366-0.96,0.662-1.891,0.897-2.761c0.459-1.743,0.783-3.231,0.92-4.288c0.146-1.061,0.23-1.667,0.23-1.667l0.1,0.001
			c0,0,0.005,0.613-0.062,1.683c-0.067,1.069-0.222,2.598-0.61,4.397c-0.387,1.795-1.011,3.865-1.984,5.95
			c-0.955,2.095-2.317,4.165-3.894,6.042c-0.787,0.94-1.611,1.846-2.428,2.732c-0.818,0.883-1.619,1.759-2.443,2.562
			c-0.821,0.803-1.658,1.543-2.532,2.141c-0.87,0.607-1.805,1.006-2.694,1.251c-1.782,0.509-3.35,0.481-4.414,0.385
			c-1.07-0.107-1.666-0.261-1.666-0.261L77.017,79.93z"/>
	</g>
	<g>
		<path fill="#006838" d="M103.222,71.322c0,0-0.012,0.145-0.033,0.417c-0.024,0.271-0.042,0.671-0.121,1.177
			c-0.067,0.509-0.165,1.12-0.301,1.822c-0.127,0.704-0.308,1.491-0.566,2.334c-0.52,1.679-1.192,3.651-2.269,5.597
			c-0.545,0.98-1.097,1.929-1.73,2.926c-0.632,0.983-1.34,1.963-2.147,2.865c-0.825,0.885-1.744,1.682-2.697,2.388
			c-0.937,0.69-1.961,1.322-2.953,1.823c-2.004,1.03-4.045,1.544-5.752,1.93c-1.701,0.393-3.195,0.503-4.204,0.574
			c-1.022,0.053-1.605,0.022-1.605,0.022l-0.009-0.1c0,0,0.576-0.044,1.576-0.188c1-0.143,2.418-0.411,4.087-0.88
			c1.669-0.453,3.593-1.103,5.499-2.124c1.905-1.014,3.777-2.41,5.32-4.118c1.567-1.691,2.764-3.684,3.86-5.547
			c1.077-1.876,1.882-3.736,2.464-5.365c0.581-1.631,0.94-3.032,1.164-4.015c0.225-0.984,0.32-1.556,0.32-1.556L103.222,71.322z"/>
	</g>
	<g>
		<path fill="#006838" d="M76.826,104.361c0,0-0.579-0.076-1.576-0.297c-0.988-0.242-2.425-0.557-4.072-1.174
			c-0.836-0.322-1.689-0.643-2.63-1.065c-0.934-0.405-1.895-0.859-2.851-1.415c-1.922-1.084-3.889-2.391-5.745-3.853
			c-0.905-0.759-1.778-1.556-2.604-2.381c-0.416-0.414-0.818-0.851-1.185-1.252c-0.374-0.417-0.763-0.851-1.11-1.275
			c-1.426-1.693-2.505-3.463-3.389-4.98c-0.885-1.522-1.425-2.892-1.824-3.828c-0.377-0.949-0.545-1.508-0.545-1.508l0.091-0.042
			c0,0,0.238,0.527,0.695,1.429c0.461,0.899,1.143,2.175,2.083,3.63c0.935,1.458,2.122,3.1,3.546,4.731
			c1.413,1.639,3.071,3.258,4.873,4.7c1.788,1.459,3.69,2.781,5.556,3.879c1.863,1.105,3.682,1.991,5.272,2.681
			c1.593,0.682,2.96,1.155,3.922,1.464c0.963,0.308,1.521,0.458,1.521,0.458L76.826,104.361z"/>
	</g>
	<g>
		<path fill="#006838" d="M78.664,103.263c0,0,0.268-0.121,0.725-0.311c0.464-0.173,1.103-0.485,1.861-0.824
			c0.755-0.351,1.617-0.773,2.514-1.261c0.225-0.126,0.454-0.255,0.686-0.385c0.222-0.132,0.447-0.265,0.674-0.4
			c0.459-0.271,0.916-0.563,1.359-0.873c0.909-0.589,1.764-1.253,2.553-1.894c0.784-0.661,1.523-1.265,2.104-1.864
			c0.578-0.593,1.111-1.066,1.438-1.437c0.344-0.359,0.552-0.563,0.552-0.563l0.085,0.052c0,0-0.556,0.991-1.615,2.321
			c-1.052,1.331-2.672,2.949-4.56,4.214c-1.886,1.265-3.984,2.176-5.609,2.664c-1.625,0.499-2.749,0.657-2.749,0.657L78.664,103.263
			z"/>
	</g>
	<g>
		<path fill="#006838" d="M77.818,88.101c0,0,0.369-0.493,1.021-1.027c0.322-0.275,0.713-0.562,1.149-0.836
			c0.221-0.129,0.438-0.288,0.68-0.404c0.232-0.124,0.467-0.25,0.702-0.376c0.496-0.228,0.989-0.46,1.478-0.624
			c0.484-0.174,0.951-0.307,1.366-0.391c0.821-0.185,1.436-0.175,1.436-0.175l0.045,0.089c0,0-1.939,0.997-3.878,1.995
			c-0.985,0.476-1.978,0.92-2.719,1.267c-0.742,0.343-1.237,0.572-1.237,0.572L77.818,88.101z"/>
	</g>
	<g>
		<path fill="#006838" d="M75.653,82.858c0,0-0.615,0.06-1.455-0.183c-0.422-0.113-0.897-0.301-1.37-0.57
			c-0.232-0.14-0.485-0.271-0.706-0.453c-0.227-0.174-0.453-0.357-0.67-0.551c-0.206-0.206-0.404-0.419-0.591-0.636
			c-0.196-0.212-0.336-0.454-0.498-0.682c-0.143-0.207-0.275-0.467-0.379-0.683c-0.114-0.221-0.196-0.446-0.265-0.653
			c-0.287-0.828-0.257-1.446-0.257-1.446l0.09-0.044c0,0,0.232,0.489,0.674,1.166c0.437,0.68,1.116,1.525,1.911,2.25
			c0.772,0.749,1.658,1.373,2.358,1.777c0.699,0.407,1.199,0.617,1.199,0.617L75.653,82.858z"/>
	</g>
	<g>
		<path fill="#006838" d="M77.004,53.929c0,0,0.4-0.287,0.906-0.591c0.253-0.161,0.534-0.329,0.821-0.5
			c0.282-0.183,0.585-0.342,0.863-0.539c0.15-0.08,0.291-0.175,0.432-0.269c0.132-0.11,0.283-0.168,0.426-0.282
			c0.285-0.193,0.551-0.373,0.779-0.527c0.477-0.336,0.896-0.596,0.896-0.596l0.091,0.042c0,0-0.151,0.383-0.492,0.896
			c-0.338,0.513-0.899,1.136-1.598,1.58c-0.703,0.437-1.5,0.685-2.104,0.788c-0.605,0.107-1.016,0.098-1.016,0.098L77.004,53.929z"
			/>
	</g>
	<g>
		<path fill="#006838" d="M76.66,45.264c0,0,0.265-0.148,0.719-0.387c0.461-0.225,1.088-0.608,1.827-1.042
			c0.362-0.227,0.754-0.474,1.168-0.734c0.403-0.278,0.827-0.57,1.267-0.873c0.447-0.301,0.87-0.64,1.307-0.963
			c0.43-0.331,0.841-0.69,1.226-1.073c0.397-0.369,0.765-0.767,1.097-1.184c0.133-0.18,0.357-0.455,0.491-0.642
			c0.15-0.198,0.294-0.411,0.432-0.629c0.546-0.865,1.026-1.724,1.322-2.519c0.303-0.789,0.574-1.469,0.703-1.963
			c0.151-0.496,0.237-0.779,0.237-0.779l0.1,0.006c0,0-0.013,0.293-0.07,0.804c-0.06,0.51-0.165,1.239-0.4,2.09
			c-0.229,0.851-0.591,1.823-1.127,2.79c-0.536,0.969-1.243,1.921-2.092,2.745c-0.85,0.821-1.825,1.495-2.763,2.065
			c-0.931,0.584-1.847,1.06-2.654,1.411c-0.806,0.355-1.501,0.593-1.991,0.747c-0.492,0.144-0.774,0.226-0.774,0.226L76.66,45.264z"
			/>
	</g>
	<g>
		<path fill="#006838" d="M77.646,38.688c0,0-0.814-0.136-1.858-0.748c-0.524-0.298-1.1-0.716-1.646-1.244
			c-0.558-0.518-1.059-1.166-1.499-1.85l-0.3-0.54l-0.262-0.526c-0.187-0.372-0.294-0.742-0.419-1.103
			c-0.223-0.726-0.343-1.427-0.371-2.03c-0.076-1.208,0.165-1.996,0.165-1.996l0.1-0.009c0,0,0.051,0.761,0.321,1.866
			c0.264,1.105,0.803,2.535,1.617,3.814c0.774,1.301,1.819,2.422,2.683,3.156c0.865,0.74,1.523,1.126,1.523,1.126L77.646,38.688z"/>
	</g>
	<g>
		<path fill="#006838" d="M78.166,34.263c0,0,0.171-0.091,0.469-0.251c0.293-0.156,0.696-0.387,1.149-0.667
			c0.226-0.142,0.461-0.307,0.706-0.473c0.244-0.17,0.48-0.373,0.732-0.562c0.246-0.199,0.472-0.433,0.713-0.653
			c0.232-0.222,0.469-0.48,0.657-0.722c0.268-0.304,0.429-0.517,0.612-0.79c0.176-0.274,0.371-0.536,0.518-0.817
			c0.314-0.55,0.568-1.1,0.775-1.595c0.199-0.496,0.356-0.932,0.46-1.247c0.106-0.321,0.166-0.504,0.166-0.504l0.1-0.004
			c0,0,0.07,0.758-0.135,1.87c-0.103,0.554-0.28,1.193-0.564,1.84c-0.28,0.644-0.679,1.305-1.157,1.88
			c-0.973,1.172-2.308,1.965-3.367,2.342c-1.06,0.393-1.819,0.453-1.819,0.453L78.166,34.263z"/>
	</g>
	<g>
		<path fill="#006838" d="M75.968,28.345c0,0-0.324,0.058-0.635,0c-0.163-0.023-0.324-0.074-0.467-0.154
			c-0.065-0.045-0.155-0.073-0.206-0.134l-0.178-0.168c-0.09-0.137-0.185-0.27-0.227-0.433c-0.051-0.156-0.073-0.323-0.067-0.487
			c-0.001-0.317,0.113-0.624,0.113-0.624l0.077-0.064c0,0,0.436,0.484,0.872,0.968c0.398,0.516,0.795,1.032,0.795,1.032
			L75.968,28.345z"/>
	</g>
	<g>
		<path fill="#006838" d="M77.807,27.442c0,0-0.003-0.38,0.145-0.781c0.068-0.207,0.171-0.421,0.307-0.622
			c0.074-0.094,0.131-0.213,0.223-0.295l0.261-0.27c0.199-0.153,0.396-0.31,0.619-0.413c0.216-0.111,0.44-0.189,0.654-0.232
			c0.415-0.099,0.792-0.054,0.792-0.054l0.066,0.075c0,0-0.733,0.685-1.467,1.371c-0.767,0.648-1.533,1.296-1.533,1.296
			L77.807,27.442z"/>
	</g>
	<g>
		<path fill="none" d="M53.006,56.146"/>
	</g>
	<path fill="none" stroke="#006838" stroke-miterlimit="10" d="M48.25,66.5"/>
	<path fill="none" stroke="#006838" stroke-miterlimit="10" d="M210.75-29.75"/>
	<g>
		<polygon fill="#006838" points="53.006,49.096 55.25,48.246 55.439,48.174 55.588,48.312 57.363,49.947 57.326,50.039 
			55.213,49.239 55.25,49.246 53.006,49.196 		"/>
	</g>
	<g>
		<path fill="#006838" d="M47.414,68.344c0.474,0.182,0.875,0.423,1.246,0.688c0.371,0.265,0.707,0.558,1.019,0.87
			c0.167,0.147,0.297,0.324,0.447,0.486c0.148,0.162,0.289,0.331,0.414,0.512c0.126,0.18,0.268,0.347,0.382,0.538
			c0.114,0.19,0.233,0.376,0.342,0.569l-0.129-0.126c0.459,0.522,0.891,1.079,1.192,1.808l-0.061,0.079l-1.64-1.225l-0.006-0.005
			l-0.007-0.008c-1.135-1.34-2.189-2.745-3.276-4.123L47.414,68.344z"/>
	</g>
	<g>
		<path fill="#006838" d="M93.908,42.788c0,0,0,0.377-0.147,0.77c-0.068,0.203-0.171,0.413-0.307,0.608
			c-0.073,0.091-0.131,0.207-0.222,0.286l-0.259,0.261c-0.198,0.146-0.393,0.297-0.614,0.392c-0.214,0.104-0.436,0.176-0.647,0.213
			c-0.411,0.087-0.782,0.032-0.782,0.032l-0.065-0.076c0,0,0.729-0.66,1.457-1.319c0.761-0.622,1.522-1.243,1.522-1.243
			L93.908,42.788z"/>
	</g>
	<g>
		<path fill="#006838" d="M95.549,56.137c0,0,0.365,0.407,0.689,1.058c0.171,0.324,0.334,0.709,0.471,1.128
			c0.061,0.211,0.151,0.424,0.192,0.649c0.051,0.224,0.102,0.451,0.153,0.679c0.066,0.462,0.137,0.922,0.145,1.365
			c0.019,0.441,0.003,0.858-0.042,1.221c-0.073,0.724-0.269,1.233-0.269,1.233l-0.098,0.018c0,0-0.359-1.829-0.719-3.658
			c-0.31-1.838-0.621-3.676-0.621-3.676L95.549,56.137z"/>
	</g>
	<g>
		<path fill="#006838" d="M91.625,71.262c0.323-0.17,0.646-0.284,0.969-0.389c0.323-0.094,0.646-0.189,0.969-0.242
			c0.323-0.07,0.646-0.114,0.969-0.145c0.323-0.048,0.646-0.047,0.969-0.062l-0.353,0.073c0.337-0.177,0.7-0.292,1.051-0.436
			c0.357-0.129,0.723-0.238,1.094-0.337c0.746-0.187,1.516-0.316,2.362-0.271l0.04,0.092c-1.385,0.617-2.765,1.248-4.155,1.855
			l-0.019,0.008l-0.02,0l-3.875-0.046V71.262z"/>
	</g>
	<g>
		<path fill="#006838" d="M99.723,75.13c0.3,0.902,0.387,1.782,0.429,2.656c-0.002,0.435,0.02,0.872-0.021,1.303
			c-0.029,0.432-0.057,0.864-0.129,1.292l-0.02,0.117l-0.007,0.023c-0.195,0.667-0.453,1.318-0.757,1.955
			c-0.312,0.635-0.658,1.262-1.146,1.849l-0.096-0.026l1.058-4.035l-0.003,0.015c0.078-0.862,0.195-1.72,0.291-2.58l0.302-2.579
			L99.723,75.13z"/>
	</g>
	<g>
		<path fill="#006838" d="M93.871,90.135c0,0,0.604-0.331,1.508-0.634c0.451-0.161,0.977-0.316,1.531-0.463
			c0.277-0.066,0.557-0.164,0.831-0.226c0.258-0.062,0.58-0.165,0.659-0.22c0.269-0.143,0.538-0.286,0.803-0.427
			c0.269-0.152,0.556-0.263,0.822-0.391c0.54-0.242,1.061-0.438,1.523-0.579c0.916-0.296,1.6-0.364,1.6-0.364l0.049,0.087
			c0,0-2.165,1.279-4.33,2.557c-0.612,0.268-1.236,0.33-1.82,0.431c-0.585,0.086-1.132,0.146-1.601,0.194
			c-0.94,0.08-1.567,0.134-1.567,0.134L93.871,90.135z"/>
	</g>
	<g>
		<path fill="#006838" d="M59.118,94.735c0-0.017-0.149-0.021-0.405-0.233c-0.234-0.193-0.514-0.537-0.724-0.981
			c-0.223-0.441-0.398-0.974-0.519-1.541c-0.051-0.283-0.129-0.574-0.151-0.869c-0.03-0.288-0.061-0.581-0.092-0.874
			c-0.015-0.31-0.03-0.56-0.058-0.842c-0.031-0.277-0.026-0.56-0.047-0.83c-0.026-0.544-0.031-1.063-0.009-1.515
			c0.027-0.9,0.17-1.54,0.17-1.54l0.097-0.023c0,0,0.129,0.578,0.323,1.446c0.178,0.87,0.412,2.034,0.519,3.221
			c0.068,1.183,0.144,2.363,0.352,3.219c0.099,0.428,0.238,0.768,0.37,0.983c0.128,0.206,0.246,0.309,0.246,0.309L59.118,94.735z"/>
	</g>
	<g>
		<path fill="#006838" d="M52.998,88.579c-0.006-0.012-0.126,0.077-0.453,0.034c-0.288-0.031-0.67-0.139-1.078-0.318
			c-0.414-0.17-0.859-0.41-1.299-0.664c-0.216-0.135-0.449-0.236-0.647-0.362c-0.096-0.049-0.199-0.107-0.274-0.132
			c-0.047-0.023-0.071-0.025-0.09-0.028l-0.21-0.062c-0.108-0.036-0.397-0.168-0.517-0.239c-0.142-0.079-0.279-0.16-0.403-0.241
			c-0.26-0.156-0.471-0.352-0.686-0.522c-0.42-0.355-0.771-0.722-1.048-1.064c-0.564-0.67-0.825-1.245-0.825-1.245l0.063-0.078
			c0,0,0.448,0.336,1.121,0.84c0.34,0.246,0.74,0.53,1.178,0.817c0.438,0.279,0.917,0.596,1.418,0.779
			c0.261,0.076,0.552,0.206,0.779,0.358c0.235,0.153,0.458,0.313,0.667,0.474c0.415,0.324,0.802,0.626,1.133,0.885
			c0.333,0.254,0.621,0.452,0.837,0.556c0.203,0.104,0.351,0.114,0.351,0.114L52.998,88.579z"/>
	</g>
	<g>
		<path fill="#006838" d="M61.076,82.821c-0.37-0.45-0.618-0.922-0.847-1.397c-0.213-0.478-0.38-0.963-0.519-1.454
			c-0.122-0.493-0.23-0.989-0.288-1.494c-0.064-0.504-0.091-1.013-0.074-1.531l-0.01-0.113c0.061-0.284,0.142-0.569,0.24-0.853
			c0.098-0.284,0.213-0.569,0.372-0.853h0.1l0.022,1.707l-0.001-0.012c0.194,0.996,0.417,1.986,0.58,2.987l0.524,2.997
			L61.076,82.821z"/>
	</g>
	<g>
		<path fill="#006838" d="M68.327,66.512c0,0-0.485-0.752-0.981-1.942c-0.257-0.593-0.519-1.295-0.756-2.06
			c-0.111-0.384-0.252-0.776-0.341-1.19c-0.098-0.414-0.199-0.824-0.282-1.284c-0.052-0.505-0.062-0.869-0.094-1.304
			c-0.033-0.416-0.022-0.83-0.035-1.228c-0.01-0.798,0.015-1.546,0.068-2.191c0.088-1.288,0.296-2.163,0.296-2.163L66.3,53.14
			c0,0,0.326,3.37,0.653,6.74c0.291,1.659,0.697,3.31,0.98,4.547c0.295,1.236,0.491,2.06,0.491,2.06L68.327,66.512z"/>
	</g>
	<g>
		<path fill="#006838" d="M59.146,57.521c0,0-0.489,0.02-1.097-0.14c-0.309-0.072-0.649-0.188-0.992-0.343
			c-0.167-0.084-0.355-0.149-0.518-0.256c-0.168-0.1-0.339-0.201-0.51-0.302c-0.321-0.234-0.645-0.463-0.916-0.728
			c-0.277-0.256-0.517-0.523-0.705-0.778c-0.386-0.496-0.56-0.952-0.56-0.952l0.055-0.083c0,0,1.338,0.854,2.677,1.708
			c1.311,0.896,2.622,1.792,2.622,1.792L59.146,57.521z"/>
	</g>
	<g>
		<path fill="#006838" d="M86.806,100.014c0.476-0.531,0.993-0.991,1.522-1.429c0.527-0.443,1.076-0.847,1.632-1.238
			c0.558-0.388,1.127-0.759,1.711-1.101c0.571-0.366,1.181-0.664,1.772-0.996l-0.095,0.064l1.092-0.725
			c0.372-0.232,0.751-0.453,1.13-0.676c0.775-0.423,1.562-0.83,2.423-1.14l0.061,0.079l-4.125,3.218l-0.004,0.003l-0.006,0.003
			c-2.336,1.373-4.71,2.68-7.064,4.023L86.806,100.014z"/>
	</g>
	<g>
		<path fill="#006838" d="M98.808,78.029c0,0-0.36-0.016-0.714-0.17c-0.184-0.072-0.369-0.177-0.535-0.311
			c-0.077-0.072-0.179-0.13-0.241-0.218l-0.211-0.252c-0.111-0.19-0.226-0.377-0.284-0.587c-0.068-0.203-0.104-0.412-0.108-0.61
			c-0.023-0.385,0.084-0.727,0.084-0.727l0.082-0.057c0,0,0.523,0.704,1.045,1.409c0.482,0.733,0.964,1.466,0.964,1.466
			L98.808,78.029z"/>
	</g>
	<g>
		<path fill="#006838" d="M77.901,37.266c0,0-0.174-0.355-0.53-0.912c-0.175-0.283-0.406-0.614-0.677-1.003
			c-0.264-0.399-0.609-0.817-0.814-1.517c-0.124-0.328-0.049-0.909,0.025-1.164c0.08-0.344,0.182-0.654,0.289-0.983
			c0.198-0.63,0.507-1.359,0.682-1.919c0.109-0.351,0.18-0.635,0.21-0.93c0.014-0.144,0.018-0.283,0.008-0.411
			c-0.005-0.063-0.008-0.126-0.019-0.184c-0.028-0.213-0.017-0.221-0.027-0.342l0.02-0.425l0.038-0.322l0.089-0.601l0.214-1.159
			c0.172-0.752,0.343-1.503,0.512-2.243c0.083-0.361,0.165-0.719,0.246-1.073c0.075-0.336,0.157-0.729,0.128-0.792
			c-0.028-0.567,0.019-0.908,0.068-1.257c0.052-0.349,0.104-0.691,0.154-1.024c0.111-0.657,0.215-1.279,0.312-1.853
			c0.19-1.145,0.459-2.085,0.6-2.748c0.163-0.66,0.28-1.035,0.28-1.035l0.099,0.011c0,0-0.156,1.532-0.39,3.829
			c-0.051,0.575-0.105,1.198-0.163,1.856c-0.045,0.652-0.118,1.37-0.097,2.056c0.078,0.389-0.029,0.753-0.081,1.12
			c-0.072,0.365-0.144,0.735-0.217,1.108c-0.156,0.741-0.315,1.495-0.474,2.248c-0.154,0.747-0.325,1.518-0.38,2.239
			c0.12,0.752-0.039,1.548-0.298,2.214c-0.251,0.691-0.573,1.303-0.813,1.92c-0.216,0.61-0.543,1.2-0.423,1.749
			c0.118,0.55,0.389,1.016,0.597,1.432c0.218,0.415,0.407,0.78,0.546,1.089c0.281,0.619,0.38,0.994,0.38,0.994L77.901,37.266z"/>
	</g>
	<g>
		<path fill="#006838" d="M76.723,19.412c0.171,0.433,0.294,0.871,0.424,1.308c0.137,0.436,0.258,0.874,0.356,1.315
			c0.051,0.239,0.11,0.397,0.154,0.702l0.09,0.669c0.068,0.446,0.106,0.893,0.148,1.339c0.101,0.893,0.125,1.788,0.176,2.683
			c0.011,0.896,0.042,1.791,0.004,2.689l-0.012,0.284l-0.1,0.156c-0.314,0.489-0.674,0.952-1.029,1.416l-0.531,0.698
			c-0.179,0.231-0.346,0.471-0.549,0.688l0.002-0.425c0.192,0.571,0.417,1.121,0.568,1.716l-0.086,0.05l-0.897-1.525l-0.018-0.031
			l0.018-0.031l1.757-3.011l-0.011,0.045c-0.081-1.79-0.146-3.581-0.19-5.372c-0.045-0.892-0.01-1.798-0.119-2.679l-0.252-2.676
			L76.723,19.412z"/>
	</g>
</g>
</svg>
