<?xml version="1.0" encoding="utf-8"?>
<!-- Generator: Adobe Illustrator 17.0.0, SVG Export Plug-In . SVG Version: 6.00 Build 0)  -->
<!DOCTYPE svg PUBLIC "-//W3C//DTD SVG 1.1//EN" "http://www.w3.org/Graphics/SVG/1.1/DTD/svg11.dtd">
<svg version="1.1" xmlns="http://www.w3.org/2000/svg" xmlns:xlink="http://www.w3.org/1999/xlink" x="0px" y="0px" width="155px"
	 height="155px" viewBox="0 0 155 155" enable-background="new 0 0 155 155" xml:space="preserve">
<g id="Layer_4">
	<polygon fill="#FFFFFF" points="0,129.125 155,129.125 155,9.313 153.243,6.381 152.25,4.875 150.325,3.048 148.765,1.567 146,0 
		10.188,0 7.125,1 3.667,4.481 1.938,6.438 0,9.313 	"/>
</g>
<g id="Layer_1" display="none">
	<polygon display="inline" fill="#8DC63F" points="43.084,15.023 116.557,15.023 119.175,21.305 121.269,29.333 122.141,35.092 
		122.542,39.458 122.542,45.583 122.542,52.458 122.542,57.333 120.083,66.667 116.583,74.542 113.958,78.417 109.167,82.875 
		104.125,86.917 98.125,89.125 94.667,88.958 90.583,88 85.042,85.708 85.042,108.417 83.542,109.625 80.042,109.625 
		79.208,108.292 76.5,98.833 74.458,100.333 69.375,102.375 62.333,102.792 55.083,101.625 48.417,97.792 40.083,89.458 
		32.25,73.583 30.292,62.833 31.208,48.667 34.25,36.417 38.833,22.542 	"/>
</g>
<g id="Layer_2">
	<polygon fill="#651C26" points="0,129.125 155,129.125 155,145.688 153.063,148.563 150.688,151.25 147.875,154 144.813,155 9,155 
		6.438,153.625 2.75,150.125 0.938,147.375 0,145.688 	"/>
</g>
<g id="Layer_5">
	<text transform="matrix(1 0 0 1 12.104 146.4059)" fill="#FFFFFF" font-family="'ArialMT'" font-size="18">persistentă</text>
</g>
<g id="Layer_3">
	<path fill="#90C740" d="M49.5,104.25"/>
	<path fill="#8DC63F" d="M119.333,104.667"/>
	<path fill="none" stroke="#8DC63F" stroke-miterlimit="10" d="M105,65.5"/>
	<polygon fill="#FFFFFF" points="72.333,64.083 73.917,62.917 76.583,62.167 79.333,62.75 82.417,64.083 83.333,66.667 82.75,69.75 
		80.75,71.583 76.417,72 73.083,70.083 71.583,67.083 	"/>
	<polygon fill="#8DC63F" points="79,94.333 81.303,93.833 83.333,92.801 83.333,96.167 81.167,97.333 79,99.333 79,117 76.5,118 
		73.5,115 71.583,113.833 71.583,37 74,33 76.333,30.606 79.021,29.958 	"/>
	<g>
		<g>
			<path fill="#FFFFFF" d="M107.812,32.078c0-6.831,0-13.662,0-20.497c13.752,0,27.505,0,41.257,0c0,6.886,0,13.768,0,20.65
				c-0.31-0.558-0.633-1.108-0.923-1.679c-0.119-0.234-0.255-0.308-0.486-0.306c-1.157,0.01-2.315,0.005-3.472,0.005
				c-0.396,0-0.793,0-1.237,0c0.672-1.283,1.322-2.514,1.958-3.756c0.071-0.138,0.115-0.359,0.066-0.494
				c-0.18-0.496-0.416-0.966-0.607-1.458c-0.112-0.288-0.258-0.415-0.559-0.399c-0.56,0.031-1.123,0.02-1.684,0.004
				c-0.27-0.008-0.472,0.015-0.582,0.357c-0.089,0.276-0.27,0.514-0.404,0.773c-0.817,1.575-1.639,3.147-2.441,4.732
				c-0.102,0.202-0.208,0.244-0.392,0.244c-2.097-0.005-4.194-0.003-6.291-0.004c-0.086,0-0.172-0.011-0.29-0.019
				c0.053-0.123,0.086-0.214,0.13-0.298c0.389-0.742,0.783-1.481,1.171-2.225c0.696-1.336,1.387-2.675,2.088-4.008
				c0.041-0.078,0.153-0.148,0.236-0.153c0.625-0.037,1.251-0.067,1.877-0.081c1.439-0.032,2.879-0.053,4.318-0.078
				c0.023,0,0.051,0.009,0.068-0.002c0.08-0.051,0.188-0.086,0.231-0.165c0.274-0.499,0.549-1,0.788-1.52
				c0.069-0.151,0.082-0.398,0.019-0.549c-0.276-0.655-0.584-1.294-0.898-1.927c-0.045-0.09-0.187-0.168-0.286-0.171
				c-0.584-0.016-1.169-0.008-1.753-0.008c-0.716,0-1.433,0-2.197,0c0.68-1.296,1.342-2.536,1.98-3.791
				c0.132-0.259,0.388-0.496,0.217-0.877c-0.279-0.624-0.528-1.264-0.803-1.891c-0.032-0.073-0.151-0.14-0.231-0.142
				c-0.619-0.012-1.238-0.028-1.856,0.003c-0.27,0.014-0.576-0.001-0.75,0.347c-0.468,0.936-0.949,1.864-1.428,2.793
				c-0.197,0.382-0.404,0.759-0.617,1.157c-0.07-0.07-0.112-0.097-0.134-0.137c-0.56-1.035-1.131-2.062-1.665-3.113
				c-0.126-0.248-0.255-0.31-0.478-0.297c-0.568,0.032-1.138,0.039-1.705,0.09c-0.131,0.012-0.298,0.128-0.369,0.252
				c-0.29,0.503-0.523,1.049-0.832,1.536c-0.184,0.29-0.077,0.485,0.04,0.707c0.876,1.666,1.742,3.339,2.647,4.985
				c0.198,0.36,0.122,0.597-0.035,0.896c-0.679,1.289-1.351,2.583-2.025,3.876c-0.42,0.807-0.84,1.614-1.265,2.431
				c-0.448-0.85-0.886-1.675-1.318-2.504c-0.624-1.196-1.245-2.392-1.859-3.594c-0.045-0.088-0.065-0.243-0.025-0.324
				c1-2.048,2.011-4.089,3.013-6.135c0.036-0.073,0.024-0.209-0.015-0.287c-0.264-0.534-0.536-1.064-0.82-1.586
				c-0.047-0.087-0.161-0.172-0.25-0.18c-0.711-0.064-1.424-0.113-2.137-0.152c-0.077-0.004-0.192,0.067-0.231,0.141
				c-0.439,0.825-0.866,1.657-1.299,2.486c-0.221,0.423-0.445,0.844-0.694,1.316c-0.152-0.294-0.273-0.53-0.397-0.766
				c-0.592-1.13-1.179-2.263-1.787-3.383c-0.069-0.128-0.254-0.231-0.396-0.249c-0.659-0.087-1.322-0.139-2.01-0.207
				c-0.382,0.764-0.779,1.543-1.157,2.333c-0.044,0.092-0.024,0.266,0.027,0.365c0.559,1.093,1.131,2.178,1.697,3.267
				c0.141,0.271,0.272,0.548,0.466,0.939c-1.257,0-2.41,0.006-3.563-0.005c-0.21-0.002-0.328,0.066-0.422,0.28
				c-0.28,0.639-0.582,1.266-0.888,1.925c0.306,0.585,0.642,1.176,0.927,1.796c0.112,0.243,0.241,0.273,0.446,0.273
				c1.788-0.006,3.575,0.006,5.363-0.013c0.309-0.003,0.455,0.128,0.596,0.405c0.562,1.105,1.148,2.195,1.72,3.295
				c0.502,0.967,0.997,1.938,1.513,2.943c-0.137,0-0.237,0-0.337,0c-1.902,0-3.805-0.007-5.707,0.008
				c-0.243,0.002-0.362-0.103-0.475-0.309c-1.089-1.984-2.183-3.965-3.277-5.949c-0.608,0-1.204-0.013-1.799,0.01
				c-0.128,0.005-0.298,0.103-0.371,0.218c-0.367,0.58-0.719,1.173-1.05,1.779c-0.065,0.119-0.063,0.344-0.005,0.472
				c0.201,0.444,0.441,0.867,0.666,1.297c0.425,0.814,0.85,1.627,1.291,2.473c-1.468,0-2.889,0.008-4.31-0.008
				c-0.233-0.003-0.366,0.09-0.492,0.284C108.508,31.049,108.158,31.561,107.812,32.078z"/>
			<path fill="#FFFFFF" d="M136.142,52.199c-9.443,0-18.887,0-28.33,0c0-6.554,0-13.109,0-19.663
				c0.353,0.63,0.715,1.255,1.053,1.895c0.117,0.221,0.239,0.326,0.48,0.32c0.699-0.018,1.398-0.006,2.097-0.006
				c0.684,0,1.369,0,2.115,0c-0.098,0.2-0.169,0.35-0.244,0.497c-0.503,1-1.01,1.998-1.505,3.004
				c-0.044,0.089-0.054,0.252-0.01,0.333c0.328,0.594,0.668,1.18,1.022,1.756c0.061,0.1,0.205,0.19,0.313,0.194
				c0.584,0.019,1.169,0.019,1.753,0c0.116-0.004,0.279-0.087,0.335-0.19c0.385-0.715,0.744-1.448,1.118-2.171
				c0.541-1.047,1.09-2.089,1.63-3.137c0.113-0.22,0.259-0.293,0.491-0.292c1.925,0.011,3.85,0.006,5.775,0.006
				c0.111,0,0.222,0,0.372,0c-0.051,0.133-0.078,0.226-0.121,0.309c-0.974,1.89-1.948,3.78-2.934,5.663
				c-0.055,0.104-0.217,0.192-0.331,0.196c-1.003,0.04-2.008,0.058-3.011,0.085c-0.901,0.024-1.802,0.046-2.702,0.083
				c-0.092,0.004-0.219,0.077-0.264,0.161c-0.321,0.599-0.635,1.204-0.925,1.822c-0.056,0.12-0.048,0.341,0.017,0.457
				c0.305,0.551,0.65,1.075,0.96,1.623c0.117,0.207,0.241,0.289,0.463,0.277c0.774-0.04,1.549-0.05,2.324-0.085
				c0.343-0.016,0.685-0.064,1.076-0.103c-0.059,0.145-0.082,0.215-0.114,0.278c-0.674,1.306-1.355,2.609-2.018,3.922
				c-0.069,0.137-0.108,0.373-0.049,0.498c0.297,0.627,0.631,1.233,0.954,1.845c0.102,0.193,0.231,0.296,0.461,0.277
				c0.59-0.048,1.182-0.073,1.773-0.076c0.198-0.001,0.317-0.077,0.405-0.248c0.469-0.906,0.936-1.814,1.404-2.722
				c0.303-0.587,0.605-1.174,0.928-1.8c0.158,0.301,0.285,0.549,0.416,0.794c0.535,1.008,1.068,2.017,1.612,3.018
				c0.047,0.087,0.163,0.165,0.255,0.179c0.447,0.066,0.897,0.111,1.346,0.158c0.313,0.033,0.573,0.016,0.736-0.392
				c0.204-0.509,0.458-1.004,0.754-1.454c0.256-0.39,0.163-0.695-0.024-1.043c-0.831-1.55-1.619-3.131-2.5-4.645
				c-0.359-0.618-0.35-1.053-0.012-1.665c0.941-1.702,1.816-3.45,2.73-5.205c1.137,2.185,2.263,4.349,3.381,6.498
				c-0.289,0.591-0.563,1.163-0.847,1.729c-0.671,1.338-1.349,2.672-2.016,4.013c-0.044,0.089-0.052,0.249-0.008,0.333
				c0.33,0.636,0.671,1.265,1.026,1.885c0.052,0.09,0.195,0.171,0.292,0.166c0.621-0.033,1.241-0.109,1.862-0.133
				c0.211-0.008,0.3-0.104,0.383-0.287c0.395-0.869,0.793-1.736,1.197-2.599c0.115-0.246,0.254-0.478,0.396-0.741
				C134.649,49.307,135.395,50.753,136.142,52.199z"/>
			<path d="M136.142,52.199c-0.746-1.446-1.493-2.891-2.262-4.381c-0.141,0.263-0.28,0.495-0.396,0.741
				c-0.404,0.863-0.802,1.73-1.197,2.599c-0.083,0.183-0.172,0.279-0.383,0.287c-0.621,0.024-1.241,0.1-1.862,0.133
				c-0.097,0.005-0.24-0.076-0.292-0.166c-0.355-0.62-0.696-1.249-1.026-1.885c-0.043-0.084-0.036-0.245,0.008-0.333
				c0.666-1.341,1.344-2.675,2.016-4.013c0.284-0.566,0.558-1.138,0.847-1.729c-1.118-2.149-2.244-4.313-3.381-6.498
				c-0.914,1.754-1.788,3.502-2.73,5.205c-0.338,0.612-0.348,1.047,0.012,1.665c0.881,1.515,1.669,3.095,2.5,4.645
				c0.187,0.349,0.28,0.653,0.024,1.043c-0.295,0.45-0.55,0.945-0.754,1.454c-0.163,0.408-0.423,0.425-0.736,0.392
				c-0.449-0.047-0.899-0.092-1.346-0.158c-0.092-0.014-0.207-0.092-0.255-0.179c-0.544-1.002-1.077-2.011-1.612-3.018
				c-0.13-0.245-0.258-0.493-0.416-0.794c-0.322,0.626-0.625,1.213-0.928,1.8c-0.468,0.907-0.935,1.815-1.404,2.722
				c-0.088,0.171-0.207,0.247-0.405,0.248c-0.591,0.002-1.184,0.027-1.773,0.076c-0.23,0.019-0.359-0.084-0.461-0.277
				c-0.323-0.612-0.656-1.218-0.954-1.845c-0.059-0.125-0.021-0.361,0.049-0.498c0.664-1.313,1.344-2.616,2.018-3.922
				c0.033-0.063,0.055-0.133,0.114-0.278c-0.392,0.038-0.733,0.087-1.076,0.103c-0.774,0.035-1.55,0.045-2.324,0.085
				c-0.222,0.011-0.346-0.071-0.463-0.277c-0.31-0.548-0.654-1.072-0.96-1.623c-0.064-0.116-0.073-0.337-0.017-0.457
				c0.29-0.618,0.604-1.222,0.925-1.822c0.045-0.084,0.172-0.157,0.264-0.161c0.9-0.037,1.801-0.059,2.702-0.083
				c1.004-0.027,2.008-0.045,3.011-0.085c0.115-0.005,0.277-0.092,0.331-0.196c0.986-1.882,1.96-3.773,2.934-5.663
				c0.043-0.083,0.07-0.176,0.121-0.309c-0.151,0-0.262,0-0.372,0c-1.925,0-3.85,0.005-5.775-0.006
				c-0.232-0.001-0.377,0.071-0.491,0.292c-0.539,1.048-1.088,2.09-1.63,3.137c-0.374,0.723-0.733,1.456-1.118,2.171
				c-0.056,0.103-0.219,0.186-0.335,0.19c-0.584,0.019-1.169,0.019-1.753,0c-0.108-0.003-0.252-0.094-0.313-0.194
				c-0.354-0.575-0.693-1.162-1.022-1.756c-0.045-0.081-0.034-0.244,0.01-0.333c0.495-1.005,1.002-2.003,1.505-3.004
				c0.074-0.148,0.146-0.298,0.244-0.497c-0.746,0-1.431,0-2.115,0c-0.699,0-1.398-0.011-2.097,0.006
				c-0.241,0.006-0.363-0.099-0.48-0.32c-0.338-0.64-0.701-1.264-1.053-1.895c0-0.152,0-0.305,0-0.457
				c0.346-0.516,0.697-1.029,1.035-1.551c0.126-0.194,0.258-0.287,0.492-0.284c1.421,0.016,2.841,0.008,4.31,0.008
				c-0.442-0.846-0.867-1.659-1.291-2.473c-0.225-0.431-0.465-0.853-0.666-1.297c-0.058-0.128-0.06-0.353,0.005-0.472
				c0.331-0.606,0.683-1.199,1.05-1.779c0.073-0.115,0.243-0.213,0.371-0.218c0.595-0.023,1.191-0.01,1.799-0.01
				c1.094,1.983,2.188,3.964,3.277,5.949c0.113,0.207,0.232,0.311,0.475,0.309c1.902-0.015,3.804-0.008,5.707-0.008
				c0.1,0,0.201,0,0.337,0c-0.516-1.005-1.011-1.976-1.513-2.943c-0.571-1.1-1.157-2.19-1.72-3.295
				c-0.141-0.277-0.288-0.408-0.596-0.405c-1.787,0.019-3.575,0.007-5.363,0.013c-0.206,0.001-0.335-0.03-0.446-0.273
				c-0.285-0.62-0.621-1.211-0.927-1.796c0.306-0.659,0.607-1.286,0.888-1.925c0.094-0.214,0.212-0.282,0.422-0.28
				c1.152,0.011,2.305,0.005,3.563,0.005c-0.194-0.392-0.325-0.668-0.466-0.939c-0.566-1.089-1.138-2.174-1.697-3.267
				c-0.05-0.099-0.071-0.272-0.027-0.365c0.379-0.79,0.775-1.57,1.157-2.333c0.689,0.068,1.351,0.12,2.01,0.207
				c0.142,0.019,0.326,0.122,0.396,0.249c0.608,1.119,1.194,2.253,1.787,3.383c0.123,0.235,0.245,0.472,0.397,0.766
				c0.249-0.472,0.474-0.893,0.694-1.316c0.432-0.829,0.859-1.662,1.299-2.486c0.039-0.074,0.154-0.145,0.231-0.141
				c0.713,0.039,1.425,0.088,2.137,0.152c0.089,0.008,0.203,0.094,0.25,0.18c0.284,0.522,0.555,1.052,0.82,1.586
				c0.038,0.077,0.05,0.214,0.015,0.287c-1.002,2.047-2.013,4.088-3.013,6.135c-0.04,0.081-0.02,0.236,0.025,0.324
				c0.614,1.202,1.236,2.398,1.859,3.594c0.432,0.829,0.871,1.654,1.318,2.504c0.425-0.817,0.844-1.624,1.265-2.431
				c0.674-1.293,1.345-2.587,2.025-3.876c0.158-0.299,0.233-0.536,0.035-0.896c-0.906-1.646-1.771-3.319-2.647-4.985
				c-0.117-0.222-0.224-0.417-0.04-0.707c0.309-0.487,0.541-1.033,0.832-1.536c0.072-0.124,0.238-0.241,0.369-0.252
				c0.567-0.051,1.136-0.057,1.705-0.09c0.223-0.013,0.352,0.05,0.478,0.297c0.533,1.051,1.105,2.078,1.665,3.113
				c0.022,0.04,0.064,0.066,0.134,0.137c0.213-0.398,0.42-0.775,0.617-1.157c0.479-0.929,0.96-1.857,1.428-2.793
				c0.174-0.348,0.48-0.333,0.75-0.347c0.618-0.031,1.237-0.015,1.856-0.003c0.08,0.001,0.198,0.068,0.231,0.142
				c0.275,0.626,0.523,1.267,0.803,1.891c0.171,0.381-0.086,0.618-0.217,0.877c-0.638,1.255-1.3,2.495-1.98,3.791
				c0.764,0,1.481,0,2.197,0c0.584,0,1.169-0.008,1.753,0.008c0.099,0.003,0.241,0.08,0.286,0.171
				c0.314,0.634,0.622,1.273,0.898,1.927c0.063,0.15,0.051,0.398-0.019,0.549c-0.239,0.52-0.514,1.021-0.788,1.52
				c-0.043,0.078-0.151,0.114-0.231,0.165c-0.017,0.011-0.045,0.002-0.068,0.002c-1.439,0.025-2.879,0.047-4.318,0.078
				c-0.626,0.014-1.252,0.044-1.877,0.081c-0.083,0.005-0.195,0.076-0.236,0.153c-0.701,1.333-1.392,2.672-2.088,4.008
				c-0.387,0.743-0.781,1.482-1.171,2.225c-0.044,0.084-0.076,0.174-0.13,0.298c0.118,0.008,0.204,0.019,0.29,0.019
				c2.097,0.001,4.194-0.001,6.291,0.004c0.184,0,0.29-0.041,0.392-0.244c0.803-1.584,1.624-3.156,2.441-4.732
				c0.134-0.259,0.315-0.497,0.404-0.773c0.11-0.343,0.312-0.365,0.582-0.357c0.561,0.016,1.124,0.027,1.684-0.004
				c0.301-0.017,0.447,0.11,0.559,0.399c0.191,0.491,0.427,0.962,0.607,1.458c0.049,0.135,0.005,0.356-0.066,0.494
				c-0.635,1.241-1.286,2.473-1.958,3.756c0.444,0,0.84,0,1.237,0c1.157,0,2.315,0.006,3.472-0.005
				c0.231-0.002,0.368,0.073,0.486,0.306c0.29,0.571,0.613,1.12,0.923,1.679c0,0.152,0,0.305,0,0.457
				c-0.042,0.039-0.099,0.069-0.125,0.118c-0.289,0.561-0.584,1.119-0.853,1.693c-0.096,0.205-0.214,0.25-0.403,0.249
				c-1.318-0.007-2.635-0.004-3.953-0.003c-0.12,0-0.24,0.011-0.382,0.018c0.038,0.105,0.053,0.179,0.087,0.239
				c0.544,0.943,1.095,1.881,1.63,2.83c0.084,0.149,0.178,0.387,0.128,0.518c-0.255,0.664-0.546,1.311-0.848,1.951
				c-0.053,0.111-0.214,0.22-0.329,0.225c-0.584,0.023-1.17-0.014-1.752,0.021c-0.277,0.017-0.415-0.116-0.538-0.342
				c-0.947-1.748-1.898-3.493-2.835-5.249c-0.101-0.189-0.209-0.215-0.376-0.215c-2.143,0.004-4.285,0.002-6.428,0.004
				c-0.093,0-0.186,0.017-0.289,0.027c0.375,0.734,0.724,1.43,1.082,2.118c0.645,1.239,1.307,2.467,1.937,3.715
				c0.14,0.277,0.274,0.401,0.571,0.399c1.89-0.015,3.781-0.011,5.671-0.001c0.124,0.001,0.305,0.063,0.362,0.164
				c0.346,0.611,0.656,1.246,0.994,1.862c0.124,0.226,0.109,0.395-0.029,0.608c-0.268,0.414-0.507,0.85-0.759,1.277
				c-0.108,0.184-0.229,0.284-0.46,0.281c-1.293-0.02-2.587-0.009-3.923-0.009c0.136,0.279,0.252,0.531,0.379,0.774
				c0.647,1.238,1.29,2.478,1.95,3.707c0.137,0.255,0.095,0.452-0.022,0.68c-0.318,0.615-0.628,1.234-0.942,1.852
				C137.792,52.199,136.967,52.199,136.142,52.199z M128.192,35.957c0.056,0.068,0.084,0.092,0.1,0.124
				c1.254,2.389,2.509,4.777,3.751,7.173c0.056,0.108,0.044,0.317-0.013,0.432c-0.894,1.812-1.803,3.616-2.7,5.427
				c-0.055,0.111-0.088,0.299-0.04,0.399c0.22,0.459,0.464,0.904,0.718,1.341c0.047,0.082,0.176,0.153,0.264,0.149
				c0.446-0.017,0.891-0.076,1.336-0.089c0.193-0.005,0.275-0.098,0.355-0.272c0.392-0.845,0.794-1.684,1.194-2.525
				c0.219-0.46,0.44-0.918,0.683-1.425c0.104,0.195,0.175,0.324,0.243,0.455c0.736,1.417,1.476,2.831,2.203,4.254
				c0.123,0.24,0.263,0.34,0.515,0.325c0.411-0.024,0.826,0.012,1.237-0.018c0.129-0.009,0.298-0.115,0.367-0.235
				c0.235-0.404,0.447-0.827,0.636-1.259c0.056-0.128,0.06-0.344-0.001-0.464c-0.75-1.467-1.516-2.922-2.277-4.382
				c-0.112-0.214-0.212-0.436-0.349-0.719c0.189,0,0.311,0,0.433,0c1.066,0.001,2.131,0.003,3.197,0.001
				c0.378-0.001,0.827,0.127,1.114-0.055c0.313-0.199,0.475-0.689,0.703-1.052c0.007-0.01,0.019-0.02,0.02-0.03
				c0.006-0.136,0.055-0.298,0.006-0.403c-0.204-0.439-0.449-0.854-0.657-1.291c-0.105-0.22-0.233-0.293-0.458-0.291
				c-1.891,0.013-3.782,0.006-5.672,0.02c-0.248,0.002-0.389-0.077-0.515-0.322c-1.159-2.26-2.33-4.512-3.496-6.768
				c-0.031-0.059-0.036-0.135-0.055-0.208c0.057-0.011,0.09-0.022,0.124-0.022c2.555-0.006,5.111-0.016,7.666-0.005
				c0.129,0.001,0.303,0.151,0.378,0.286c0.944,1.71,1.877,3.427,2.803,5.149c0.13,0.243,0.264,0.372,0.537,0.349
				c0.388-0.032,0.78,0.006,1.168-0.022c0.116-0.009,0.272-0.11,0.329-0.22c0.214-0.418,0.41-0.85,0.579-1.292
				c0.05-0.131,0.039-0.346-0.027-0.467c-0.504-0.922-1.03-1.83-1.548-2.742c-0.186-0.328-0.37-0.658-0.593-1.054
				c0.19,0,0.311,0,0.432,0c1.467,0.001,2.934-0.008,4.4,0.011c0.29,0.004,0.457-0.08,0.586-0.374
				c0.214-0.487,0.659-0.956,0.651-1.426c-0.007-0.474-0.456-0.933-0.692-1.411c-0.107-0.217-0.235-0.292-0.46-0.29
				c-1.593,0.012-3.186,0.006-4.779,0.006c-0.12,0-0.239,0-0.41,0c0.072-0.149,0.111-0.237,0.155-0.322
				c0.623-1.197,1.223-2.411,1.882-3.584c0.26-0.463,0.341-0.843,0.036-1.294c-0.108-0.159-0.188-0.352-0.244-0.542
				c-0.08-0.268-0.237-0.323-0.468-0.313c-0.412,0.019-0.825,0.025-1.237,0.01c-0.232-0.009-0.365,0.066-0.485,0.304
				c-0.911,1.803-1.845,3.592-2.756,5.394c-0.135,0.266-0.28,0.369-0.56,0.368c-2.395-0.013-4.79-0.007-7.185-0.008
				c-0.118,0-0.236-0.012-0.392-0.02c0.092-0.189,0.154-0.322,0.222-0.452c1.181-2.273,2.368-4.542,3.538-6.823
				c0.155-0.302,0.332-0.421,0.641-0.427c1.947-0.043,3.894-0.112,5.841-0.154c0.251-0.005,0.395-0.091,0.508-0.333
				c0.141-0.304,0.331-0.58,0.462-0.889c0.056-0.132,0.063-0.34,0.009-0.471c-0.187-0.447-0.427-0.868-0.615-1.315
				c-0.105-0.25-0.248-0.312-0.48-0.309c-1.306,0.017-2.612,0.02-3.918,0.026c-0.119,0.001-0.238-0.011-0.393-0.019
				c0.07-0.155,0.115-0.269,0.171-0.375c0.558-1.062,1.122-2.12,1.677-3.184c0.244-0.468,0.647-0.941,0.66-1.422
				c0.013-0.503-0.344-1.025-0.566-1.524c-0.049-0.11-0.211-0.223-0.322-0.224c-0.515-0.006-1.03,0.041-1.545,0.038
				c-0.222-0.001-0.344,0.074-0.454,0.293c-0.705,1.406-1.424,2.803-2.139,4.203c-0.053,0.103-0.113,0.201-0.186,0.33
				c-0.573-1.043-1.127-2.047-1.677-3.055c-0.572-1.049-0.57-1.036-1.675-0.987c-0.423,0.019-0.739,0.127-0.904,0.609
				c-0.096,0.281-0.248,0.544-0.405,0.792c-0.136,0.215-0.099,0.378,0.012,0.585c0.925,1.72,1.837,3.448,2.764,5.167
				c0.109,0.203,0.11,0.343,0.003,0.545c-1.103,2.09-2.196,4.187-3.293,6.281c-0.211,0.403-0.424,0.804-0.654,1.239
				c-0.095-0.173-0.169-0.3-0.237-0.431c-1.132-2.175-2.258-4.353-3.4-6.522c-0.121-0.23-0.123-0.393-0.011-0.621
				c0.808-1.632,1.605-3.271,2.401-4.91c0.199-0.41,0.537-0.835,0.527-1.244c-0.011-0.414-0.365-0.822-0.589-1.219
				c-0.055-0.097-0.185-0.189-0.287-0.198c-0.479-0.044-0.961-0.046-1.44-0.087c-0.211-0.018-0.33,0.058-0.434,0.262
				c-0.487,0.96-0.987,1.913-1.484,2.867c-0.224,0.429-0.452,0.855-0.702,1.328c-0.813-1.59-1.598-3.119-2.375-4.654
				c-0.113-0.224-0.25-0.326-0.486-0.334c-0.399-0.013-0.797-0.085-1.197-0.095c-0.114-0.003-0.28,0.086-0.338,0.19
				c-0.264,0.473-0.488,0.974-0.748,1.45c-0.119,0.217-0.098,0.38,0.013,0.589c0.631,1.19,1.249,2.389,1.871,3.585
				c0.151,0.29,0.296,0.584,0.508,1.006c-1.408,0-2.713,0.006-4.017-0.005c-0.224-0.002-0.356,0.068-0.452,0.298
				c-0.168,0.402-0.375,0.784-0.54,1.187c-0.047,0.115-0.047,0.295,0.002,0.408c0.178,0.411,0.373,0.814,0.589,1.201
				c0.063,0.113,0.217,0.231,0.329,0.231c1.845,0.006,3.69-0.001,5.534-0.024c0.229-0.003,0.349,0.067,0.46,0.283
				c0.964,1.871,1.939,3.735,2.91,5.601c0.289,0.555,0.577,1.111,0.879,1.692c-0.093,0.012-0.136,0.023-0.18,0.024
				c-2.338,0.002-4.675,0.008-7.013-0.007c-0.132-0.001-0.311-0.141-0.386-0.274c-0.9-1.604-1.839-3.186-2.652-4.844
				c-0.429-0.874-0.925-1.283-1.817-1.121c-0.227,0.041-0.372,0.1-0.488,0.32c-0.215,0.404-0.443,0.801-0.686,1.184
				c-0.132,0.209-0.12,0.363-0.001,0.579c0.369,0.671,0.712,1.359,1.066,2.04c0.357,0.688,0.715,1.377,1.105,2.128
				c-0.182,0-0.303,0-0.424,0c-1.467,0-2.934-0.006-4.4,0.009c-0.147,0.001-0.341,0.086-0.43,0.206
				c-0.282,0.382-0.533,0.793-0.775,1.208c-0.051,0.088-0.057,0.264-0.012,0.356c0.235,0.479,0.504,0.937,0.739,1.416
				c0.114,0.233,0.258,0.303,0.492,0.301c1.444-0.013,2.888-0.01,4.332-0.01c0.12,0,0.239,0.011,0.395,0.019
				c-0.048,0.107-0.075,0.173-0.107,0.236c-0.547,1.085-1.069,2.186-1.651,3.247c-0.269,0.491-0.263,0.834,0.008,1.347
				c0.377,0.714,0.798,1.115,1.565,0.947c0.143-0.031,0.303,0.028,0.444-0.006c0.117-0.028,0.264-0.104,0.319-0.21
				c0.927-1.75,1.847-3.505,2.753-5.269c0.119-0.231,0.242-0.315,0.48-0.314c2.315,0.011,4.63,0.008,6.944,0.011
				c0.095,0,0.19,0.016,0.299,0.027c-0.024,0.072-0.032,0.109-0.048,0.14c-1.178,2.292-2.355,4.585-3.543,6.87
				c-0.054,0.104-0.21,0.192-0.323,0.199c-0.571,0.034-1.144,0.041-1.717,0.053c-1.26,0.027-2.519,0.058-3.779,0.07
				c-0.285,0.003-0.459,0.099-0.583,0.394c-0.159,0.378-0.376,0.725-0.541,1.1c-0.046,0.106-0.039,0.291,0.016,0.392
				c0.224,0.412,0.465,0.815,0.725,1.2c0.073,0.108,0.235,0.205,0.354,0.202c0.812-0.02,1.624-0.077,2.436-0.103
				c0.517-0.017,1.035-0.003,1.58-0.003c-0.068,0.144-0.121,0.267-0.183,0.386c-0.731,1.405-1.457,2.814-2.202,4.21
				c-0.14,0.263-0.155,0.461,0.001,0.718c0.229,0.378,0.43,0.778,0.629,1.177c0.087,0.174,0.183,0.259,0.374,0.246
				c0.445-0.031,0.894-0.021,1.338-0.065c0.115-0.011,0.261-0.133,0.323-0.249c0.512-0.96,1.007-1.931,1.509-2.897
				c0.365-0.701,0.733-1.399,1.118-2.132c0.1,0.177,0.182,0.313,0.256,0.454c0.588,1.117,1.202,2.217,1.748,3.359
				c0.263,0.551,0.547,0.901,1.149,0.793c0.141-0.025,0.296,0.023,0.442,0.052c0.194,0.039,0.316-0.027,0.411-0.23
				c0.172-0.371,0.347-0.747,0.565-1.086c0.218-0.34,0.182-0.609-0.005-0.953c-0.943-1.738-1.859-3.493-2.796-5.235
				c-0.129-0.24-0.121-0.41,0.008-0.647c0.542-0.999,1.061-2.014,1.59-3.022C126.901,38.419,127.539,37.203,128.192,35.957z"/>
			<path fill="#FFFFFF" d="M138.617,52.199c0.313-0.618,0.624-1.237,0.942-1.852c0.118-0.227,0.159-0.425,0.022-0.68
				c-0.66-1.229-1.304-2.469-1.95-3.707c-0.127-0.244-0.243-0.495-0.379-0.774c1.336,0,2.63-0.01,3.923,0.009
				c0.231,0.004,0.352-0.097,0.46-0.281c0.252-0.427,0.491-0.863,0.759-1.277c0.138-0.213,0.153-0.382,0.029-0.608
				c-0.338-0.616-0.648-1.252-0.994-1.862c-0.057-0.101-0.238-0.164-0.362-0.164c-1.89-0.01-3.781-0.015-5.671,0.001
				c-0.297,0.002-0.431-0.122-0.571-0.399c-0.63-1.248-1.292-2.477-1.937-3.715c-0.359-0.689-0.708-1.384-1.082-2.118
				c0.104-0.01,0.196-0.027,0.289-0.027c2.143-0.001,4.285,0,6.428-0.004c0.167,0,0.275,0.026,0.376,0.215
				c0.936,1.755,1.888,3.5,2.835,5.249c0.122,0.226,0.261,0.359,0.538,0.342c0.583-0.035,1.169,0.001,1.752-0.021
				c0.115-0.004,0.276-0.113,0.329-0.225c0.302-0.64,0.594-1.287,0.848-1.951c0.05-0.131-0.044-0.369-0.128-0.518
				c-0.535-0.949-1.086-1.887-1.63-2.83c-0.034-0.06-0.049-0.133-0.087-0.239c0.142-0.007,0.262-0.018,0.382-0.018
				c1.318-0.001,2.635-0.004,3.953,0.003c0.189,0.001,0.307-0.044,0.403-0.249c0.269-0.573,0.564-1.131,0.853-1.693
				c0.025-0.05,0.082-0.079,0.125-0.118c0,6.504,0,13.007,0,19.511C145.585,52.199,142.101,52.199,138.617,52.199z"/>
			<path fill="#FFFFFF" d="M128.192,35.957c-0.654,1.246-1.292,2.463-1.929,3.679c-0.528,1.008-1.047,2.023-1.59,3.022
				c-0.129,0.238-0.137,0.408-0.008,0.647c0.937,1.741,1.853,3.497,2.796,5.235c0.187,0.344,0.224,0.613,0.005,0.953
				c-0.218,0.339-0.392,0.714-0.565,1.086c-0.094,0.203-0.217,0.269-0.411,0.23c-0.146-0.029-0.301-0.078-0.442-0.052
				c-0.601,0.108-0.885-0.242-1.149-0.793c-0.546-1.141-1.161-2.242-1.748-3.359c-0.074-0.141-0.156-0.277-0.256-0.454
				c-0.385,0.733-0.753,1.431-1.118,2.132c-0.503,0.966-0.997,1.938-1.509,2.897c-0.062,0.116-0.207,0.238-0.323,0.249
				c-0.444,0.044-0.892,0.034-1.338,0.065c-0.191,0.013-0.287-0.072-0.374-0.246c-0.199-0.399-0.4-0.799-0.629-1.177
				c-0.156-0.257-0.141-0.455-0.001-0.718c0.744-1.397,1.47-2.805,2.202-4.21c0.062-0.118,0.115-0.242,0.183-0.386
				c-0.544,0-1.062-0.014-1.58,0.003c-0.812,0.027-1.624,0.083-2.436,0.103c-0.119,0.003-0.281-0.094-0.354-0.202
				c-0.26-0.385-0.501-0.788-0.725-1.2c-0.055-0.101-0.062-0.286-0.016-0.392c0.165-0.375,0.382-0.723,0.541-1.1
				c0.124-0.295,0.299-0.391,0.583-0.394c1.26-0.012,2.519-0.043,3.779-0.07c0.572-0.012,1.145-0.019,1.717-0.053
				c0.113-0.007,0.27-0.095,0.323-0.199c1.188-2.285,2.365-4.578,3.543-6.87c0.016-0.031,0.024-0.068,0.048-0.14
				c-0.11-0.01-0.204-0.026-0.299-0.027c-2.315-0.003-4.63,0-6.944-0.011c-0.237-0.001-0.361,0.083-0.48,0.314
				c-0.906,1.763-1.826,3.518-2.753,5.269c-0.056,0.105-0.203,0.181-0.319,0.21c-0.142,0.034-0.301-0.025-0.444,0.006
				c-0.767,0.168-1.188-0.234-1.565-0.947c-0.271-0.513-0.277-0.856-0.008-1.347c0.582-1.061,1.105-2.162,1.651-3.247
				c0.032-0.063,0.059-0.13,0.107-0.236c-0.156-0.008-0.275-0.019-0.395-0.019c-1.444,0.001-2.888-0.003-4.332,0.01
				c-0.233,0.002-0.378-0.068-0.492-0.301c-0.235-0.479-0.504-0.937-0.739-1.416c-0.045-0.092-0.04-0.268,0.012-0.356
				c0.242-0.415,0.493-0.826,0.775-1.208c0.089-0.121,0.283-0.205,0.43-0.206c1.467-0.015,2.934-0.009,4.4-0.009
				c0.121,0,0.242,0,0.424,0c-0.39-0.751-0.748-1.439-1.105-2.128c-0.353-0.681-0.696-1.369-1.066-2.04
				c-0.119-0.215-0.132-0.37,0.001-0.579c0.243-0.384,0.471-0.78,0.686-1.184c0.117-0.22,0.261-0.278,0.488-0.32
				c0.892-0.162,1.388,0.246,1.817,1.121c0.813,1.657,1.752,3.24,2.652,4.844c0.074,0.133,0.254,0.273,0.386,0.274
				c2.338,0.015,4.675,0.01,7.013,0.007c0.044,0,0.087-0.011,0.18-0.024c-0.302-0.582-0.591-1.137-0.879-1.692
				c-0.971-1.866-1.946-3.73-2.91-5.601c-0.112-0.216-0.231-0.286-0.46-0.283c-1.845,0.023-3.69,0.03-5.534,0.024
				c-0.112,0-0.266-0.119-0.329-0.231c-0.216-0.387-0.411-0.79-0.589-1.201c-0.049-0.113-0.049-0.294-0.002-0.408
				c0.165-0.403,0.372-0.785,0.54-1.187c0.096-0.231,0.229-0.3,0.452-0.298c1.305,0.011,2.609,0.005,4.017,0.005
				c-0.213-0.422-0.358-0.715-0.508-1.006c-0.621-1.197-1.24-2.395-1.871-3.585c-0.111-0.21-0.132-0.372-0.013-0.589
				c0.26-0.476,0.484-0.977,0.748-1.45c0.058-0.104,0.224-0.193,0.338-0.19c0.399,0.011,0.797,0.082,1.197,0.095
				c0.237,0.008,0.373,0.109,0.486,0.334c0.776,1.535,1.562,3.064,2.375,4.654c0.25-0.473,0.478-0.899,0.702-1.328
				c0.497-0.954,0.997-1.907,1.484-2.867c0.104-0.204,0.223-0.28,0.434-0.262c0.479,0.041,0.961,0.043,1.44,0.087
				c0.102,0.009,0.232,0.101,0.287,0.198c0.224,0.397,0.579,0.805,0.589,1.219c0.01,0.409-0.328,0.834-0.527,1.244
				c-0.796,1.639-1.594,3.278-2.401,4.91c-0.113,0.228-0.11,0.39,0.011,0.621c1.142,2.169,2.268,4.347,3.4,6.522
				c0.068,0.131,0.142,0.258,0.237,0.431c0.23-0.435,0.443-0.836,0.654-1.239c1.097-2.094,2.19-4.191,3.293-6.281
				c0.107-0.202,0.106-0.342-0.003-0.545c-0.927-1.718-1.839-3.447-2.764-5.167c-0.112-0.207-0.148-0.37-0.012-0.585
				c0.157-0.248,0.309-0.511,0.405-0.792c0.165-0.482,0.481-0.59,0.904-0.609c1.105-0.049,1.102-0.062,1.675,0.987
				c0.55,1.008,1.104,2.012,1.677,3.055c0.073-0.129,0.133-0.227,0.186-0.33c0.715-1.399,1.434-2.797,2.139-4.203
				c0.11-0.219,0.231-0.294,0.454-0.293c0.515,0.003,1.03-0.044,1.545-0.038c0.111,0.001,0.273,0.114,0.322,0.224
				c0.222,0.499,0.579,1.021,0.566,1.524c-0.013,0.481-0.416,0.954-0.66,1.422c-0.555,1.064-1.118,2.123-1.677,3.184
				c-0.056,0.106-0.101,0.22-0.171,0.375c0.155,0.008,0.274,0.02,0.393,0.019c1.306-0.006,2.612-0.009,3.918-0.026
				c0.232-0.003,0.375,0.059,0.48,0.309c0.188,0.447,0.428,0.867,0.615,1.315c0.055,0.13,0.047,0.338-0.009,0.471
				c-0.13,0.308-0.321,0.585-0.462,0.889c-0.112,0.242-0.256,0.327-0.508,0.333c-1.947,0.042-3.894,0.111-5.841,0.154
				c-0.309,0.007-0.486,0.125-0.641,0.427c-1.17,2.28-2.357,4.55-3.538,6.823c-0.067,0.13-0.129,0.263-0.222,0.452
				c0.156,0.008,0.274,0.02,0.392,0.02c2.395,0.001,4.79-0.005,7.185,0.008c0.28,0.002,0.425-0.102,0.56-0.368
				c0.912-1.802,1.845-3.591,2.756-5.394c0.12-0.237,0.253-0.312,0.485-0.304c0.412,0.015,0.825,0.009,1.237-0.01
				c0.23-0.011,0.388,0.045,0.468,0.313c0.057,0.191,0.136,0.383,0.244,0.542c0.305,0.451,0.224,0.831-0.036,1.294
				c-0.658,1.173-1.259,2.386-1.882,3.584c-0.044,0.085-0.083,0.173-0.155,0.322c0.17,0,0.29,0,0.41,0
				c1.593,0,3.186,0.006,4.779-0.006c0.225-0.002,0.353,0.073,0.46,0.29c0.236,0.477,0.685,0.937,0.692,1.411
				c0.007,0.47-0.438,0.939-0.651,1.426c-0.129,0.294-0.296,0.378-0.586,0.374c-1.467-0.019-2.934-0.01-4.4-0.011
				c-0.121,0-0.242,0-0.432,0c0.223,0.396,0.407,0.726,0.593,1.054c0.518,0.913,1.043,1.82,1.548,2.742
				c0.066,0.121,0.077,0.336,0.027,0.467c-0.169,0.442-0.365,0.874-0.579,1.292c-0.056,0.11-0.213,0.212-0.329,0.22
				c-0.388,0.028-0.78-0.01-1.168,0.022c-0.274,0.023-0.407-0.106-0.537-0.349c-0.925-1.722-1.859-3.439-2.803-5.149
				c-0.074-0.135-0.249-0.285-0.378-0.286c-2.555-0.011-5.111-0.002-7.666,0.005c-0.034,0-0.067,0.012-0.124,0.022
				c0.019,0.074,0.024,0.149,0.055,0.208c1.166,2.256,2.337,4.508,3.496,6.768c0.125,0.245,0.267,0.323,0.515,0.322
				c1.891-0.014,3.782-0.007,5.672-0.02c0.225-0.002,0.353,0.071,0.458,0.291c0.208,0.437,0.453,0.852,0.657,1.291
				c0.049,0.105,0,0.267-0.006,0.403c0,0.01-0.013,0.02-0.02,0.03c-0.228,0.363-0.39,0.853-0.703,1.052
				c-0.287,0.182-0.736,0.054-1.114,0.055c-1.066,0.002-2.131,0-3.197-0.001c-0.122,0-0.244,0-0.433,0
				c0.137,0.283,0.237,0.504,0.349,0.719c0.76,1.46,1.527,2.915,2.277,4.382c0.061,0.12,0.057,0.337,0.001,0.464
				c-0.189,0.433-0.402,0.855-0.636,1.259c-0.069,0.12-0.238,0.226-0.367,0.235c-0.411,0.03-0.825-0.007-1.237,0.018
				c-0.252,0.015-0.392-0.085-0.515-0.325c-0.727-1.423-1.467-2.837-2.203-4.254c-0.068-0.131-0.139-0.26-0.243-0.455
				c-0.243,0.507-0.464,0.965-0.683,1.425c-0.4,0.84-0.802,1.679-1.194,2.525c-0.08,0.174-0.162,0.266-0.355,0.272
				c-0.446,0.013-0.89,0.071-1.336,0.089c-0.089,0.003-0.217-0.068-0.264-0.149c-0.253-0.437-0.498-0.882-0.718-1.341
				c-0.047-0.099-0.015-0.287,0.04-0.399c0.897-1.811,1.806-3.614,2.7-5.427c0.057-0.115,0.069-0.324,0.013-0.432
				c-1.243-2.396-2.498-4.784-3.751-7.173C128.276,36.049,128.248,36.025,128.192,35.957z"/>
		</g>
	</g>
	<g>
		<path fill="#8DC63F" d="M20.25,39.75l-7.49-6.242l-7.456-6.281L4.54,26.583l0.998,0.12l10.774,1.299
			c1.808,0.218,3.587,0.495,5.381,0.744l5.371,0.766l0.028,0.004l0.03,0.008l10.384,2.883l0.05,0.014l0.05,0.026
			c4.348,2.306,8.662,4.676,12.99,7.017l0.068,0.037l0.051,0.055l7.225,7.773l0.08,0.086l0.025,0.109l2.417,10.52l-0.092-0.164
			c0.258,0.324,0.536,0.629,0.779,0.969c0.242,0.34,0.499,0.666,0.721,1.026c-0.36-0.223-0.684-0.481-1.024-0.724
			c-0.339-0.244-0.643-0.522-0.966-0.781l-0.064-0.051l-0.028-0.113l-2.583-10.48l0.105,0.195l-7.275-7.726l0.119,0.092
			c-4.338-2.325-8.69-4.622-13.009-6.983l0.099,0.04l-10.365-2.95l0.057,0.012l-10.727-1.6L5.461,27.297l0.234-0.523l7.294,6.469
			L20.25,39.75z"/>
	</g>
	<polyline fill="none" stroke="#8DC63F" stroke-miterlimit="10" points="25.75,32.057 30.375,37.25 33.09,42.101 	"/>
	<polyline fill="none" stroke="#8DC63F" stroke-miterlimit="10" points="37,35.75 46.125,43.313 49.625,52.122 	"/>
	<polyline fill="none" stroke="#8DC63F" stroke-miterlimit="10" points="27.875,43.313 33.09,48.125 40.808,46.779 	"/>
	<polyline fill="none" stroke="#8DC63F" stroke-miterlimit="10" points="37.688,53.75 47.25,58.646 55.858,56.681 	"/>
	<polyline fill="none" stroke="#8DC63F" stroke-miterlimit="10" points="24.375,43.438 39.25,58.646 49.625,61.5 61.25,60.625 
		49.625,52.122 14.125,30.606 	"/>
	<line fill="none" stroke="#8DC63F" stroke-miterlimit="10" x1="136.75" y1="67.083" x2="115.375" y2="76.5"/>
	<g>
		<path fill="#8DC63F" d="M92.625,83.25l1.689-5.519l0.005-0.018l0.016-0.013l8.919-7.35l0.02-0.016l0.027-0.012l11.959-5.098
			l0.046-0.019l0.054-0.003l17.869-1.049l0.022-0.001l0.026,0.002l14.877,0.899l0.874,0.053l-0.779,0.827
			c-0.009,0.009-0.015,0.012-0.028,0.017l-0.093,0.055l-0.197,0.126l-0.406,0.281l-0.813,0.597l-1.613,1.233l-3.199,2.52
			l-6.345,5.115l-0.019,0.016l-0.02,0.013l-7.298,4.823l-1.829,1.199c-0.315,0.202-0.587,0.396-0.938,0.603l-0.944,0.557
			c-1.26,0.739-2.525,1.469-3.8,2.185c-1.279,0.713-2.554,1.421-3.896,2.061c-0.343,0.158-0.67,0.313-1.077,0.441
			c-0.498,0.116-0.755,0.126-1.116,0.208l-2.127,0.457c-2.839,0.638-5.677,1.313-8.509,1.994l-0.053,0.013l-0.052,0L89.75,90.401
			l-1.373-0.004l1.156-0.734l7.361-4.675l7.322-4.731l0.03-0.02l0.03-0.011l11.034-3.907l-0.049,0.026l13.99-10.095l-13.76,10.405
			l-0.021,0.016l-0.028,0.01l-10.966,4.093l0.06-0.03l-7.266,4.826l-7.301,4.768l-0.217-0.738l14.125-0.043l-0.105,0.013
			c2.835-0.694,5.668-1.381,8.517-2.033l2.147-0.47c0.351-0.08,0.823-0.136,1.033-0.193c0.288-0.09,0.624-0.245,0.942-0.394
			c1.288-0.621,2.562-1.334,3.826-2.045c1.265-0.716,2.522-1.449,3.774-2.191l0.937-0.559c0.277-0.163,0.601-0.391,0.898-0.584
			l1.824-1.206l7.316-4.796l-0.039,0.028l6.375-5.095l3.218-2.514l1.631-1.236l0.833-0.606l0.433-0.297l0.234-0.147l0.127-0.074
			c0.064-0.031,0.136-0.062,0.205-0.088l0.095,0.88l-14.872-0.976l0.047,0l-17.881,0.826l0.099-0.023l-12.041,4.902l0.047-0.028
			l-9.08,7.15l0.021-0.03L92.625,83.25z"/>
	</g>
	<path fill="none" stroke="#8DC63F" stroke-miterlimit="10" d="M113.75,67.083c0,0-6.125,7-6.625,6.896
		c-0.5-0.104-5.856,8.556-5.856,8.556"/>
	<polyline fill="none" stroke="#8DC63F" stroke-miterlimit="10" points="96.02,85.962 105,87 114.375,85.962 	"/>
	<polyline fill="none" stroke="#8DC63F" stroke-miterlimit="10" points="111.477,78.022 118.352,81.522 125.477,79.09 	"/>
	<polygon fill="#8DC63F" stroke="#8DC63F" stroke-miterlimit="10" points="62.328,60.083 72.5,65.5 72.5,66.708 61.542,61.208 	"/>
	<path fill="#8DC63F" d="M72.167,68.5c-0.333-0.5-5.745-4.842-5.745-4.842l0.599-0.741l6.479,4.167L72.167,68.5z"/>
	<polygon fill="#8DC63F" points="83.333,96.167 89.75,91.167 88.167,90 83.333,92.801 	"/>
</g>
</svg>
