<?xml version="1.0" encoding="utf-8"?>
<!-- Generator: Adobe Illustrator 17.0.0, SVG Export Plug-In . SVG Version: 6.00 Build 0)  -->
<!DOCTYPE svg PUBLIC "-//W3C//DTD SVG 1.1//EN" "http://www.w3.org/Graphics/SVG/1.1/DTD/svg11.dtd">
<svg version="1.1" xmlns="http://www.w3.org/2000/svg" xmlns:xlink="http://www.w3.org/1999/xlink" x="0px" y="0px" width="155px"
	 height="155px" viewBox="0 0 155 155" enable-background="new 0 0 155 155" xml:space="preserve">
<g id="Layer_4">
	<polygon fill="#FFFFFF" points="0,129.125 155,129.125 155,9.313 153.243,6.381 152.25,4.875 150.325,3.048 148.765,1.567 146,0 
		10.188,0 7.125,1 3.667,4.481 1.938,6.438 0,9.313 	"/>
</g>
<g id="Layer_1" display="none">
	<polygon display="inline" fill="#8DC63F" points="43.084,15.023 116.557,15.023 119.175,21.305 121.269,29.333 122.141,35.092 
		122.542,39.458 122.542,45.583 122.542,52.458 122.542,57.333 120.083,66.667 116.583,74.542 113.958,78.417 109.167,82.875 
		104.125,86.917 98.125,89.125 94.667,88.958 90.583,88 85.042,85.708 85.042,108.417 83.542,109.625 80.042,109.625 
		79.208,108.292 76.5,98.833 74.458,100.333 69.375,102.375 62.333,102.792 55.083,101.625 48.417,97.792 40.083,89.458 
		32.25,73.583 30.292,62.833 31.208,48.667 34.25,36.417 38.833,22.542 	"/>
</g>
<g id="Layer_2">
	<polygon fill="#651C26" points="0,129.125 155,129.125 155,145.688 153.063,148.563 150.688,151.25 147.875,154 144.813,155 9,155 
		6.438,153.625 2.75,150.125 0.938,147.375 0,145.688 	"/>
</g>
<g id="Layer_5">
	<text transform="matrix(1 0 0 1 12.104 146.4059)" fill="#FFFFFF" font-family="'ArialMT'" font-size="18">lung-pețiolate</text>
</g>
<g id="Layer_3">
	<polygon fill="#8DC63F" stroke="#8DC63F" stroke-miterlimit="10" points="79.5,21 79.5,106.667 78.333,107.833 74,104.333 
		73.333,103.333 74.833,27.5 76.417,22.667 	"/>
	<g>
		<path fill="#8DC63F" d="M77.455,87.244l1.8-1.213l1.83-1.154l3.66-2.306l0.464-0.276l0.007-0.004
			c0.053-0.03-0.065,0.035-0.05,0.027l0.014-0.01l0.028-0.019l0.056-0.038l0.111-0.077l0.222-0.153l0.889-0.612l1.778-1.225
			c1.19-0.808,2.395-1.592,3.592-2.389l1.8-1.187l0.455-0.289l0.227-0.145l0.322-0.18l0.944-0.519l3.777-2.076l3.814-2.004
			c1.275-0.662,2.536-1.349,3.822-1.989l0.089-0.044l0.055-0.022l3.84-1.519c1.281-0.503,2.555-1.025,3.849-1.496l3.869-1.447
			c1.285-0.493,2.59-0.938,3.888-1.399l0.487-0.172c0.268-0.095,0.358-0.114,0.546-0.174l0.988-0.304
			c0.657-0.207,1.318-0.401,1.982-0.589c1.327-0.377,2.647-0.773,3.98-1.135l4.011-1.047c1.332-0.363,2.679-0.684,4.034-0.984
			l0.068,0.188l-7.762,2.818l-3.881,1.409l-1.941,0.705c-0.649,0.244-1.293,0.45-1.927,0.724l-15.282,6.266l0.016-0.007
			l-7.676,3.916l-3.839,1.956c-0.649,0.329-1.274,0.636-1.885,1.02l-1.853,1.098l-3.707,2.196l-1.853,1.098
			c-0.618,0.349-1.228,0.767-1.878,1.07l-7.687,3.893L77.455,87.244z"/>
	</g>
	<g>
		<path fill="#8DC63F" d="M75.266,62.074l-1.613-1.164c-0.537-0.389-1.052-0.801-1.58-1.201l-3.147-2.415l0.047,0.04
			c-1.696-1.108-3.332-2.291-5.001-3.432l-4.919-3.535l0.124,0.088l-5.46-3.281c-0.915-0.539-1.805-1.118-2.707-1.677l-2.699-1.69
			l-1.285-0.801l-1.379-0.795l-2.741-1.621c-1.823-1.087-3.664-2.143-5.463-3.273l-2.712-1.671
			c-0.914-0.572-1.787-1.075-2.725-1.722c-1.754-1.201-3.532-2.361-5.266-3.594c-1.744-1.216-3.483-2.441-5.186-3.723l-2.571-1.898
			c-0.865-0.62-1.69-1.304-2.535-1.956l0.105-0.17l10.873,6.632l5.436,3.316c0.896,0.554,1.833,1.066,2.748,1.601l2.759,1.589
			l5.519,3.178l2.759,1.589c0.92,0.515,1.842,1.076,2.725,1.661l10.713,6.887l0.007,0.005l0.006,0.005l9.479,7.527l0.004,0.003
			l0.003,0.003l5.818,5.35L75.266,62.074z"/>
	</g>
	<g>
		<path fill="#8DC63F" d="M56.311,51.902l2.154-0.681L58.388,51.3l1.949-6.682l0.015,0.132l-3.894-6.586
			c-1.297-2.196-2.656-4.357-3.98-6.537l0.277,0.253l-16.606-6.725l0.183,0.066l-3.83-0.9c-1.276-0.304-2.556-0.591-3.828-0.91
			l-7.63-1.914l0.229,0.046l-7.508-0.941c-2.505-0.296-4.998-0.681-7.497-1.024l1.4-3.059c1.396,1.271,2.818,2.513,4.193,3.807
			l4.152,3.854c1.393,1.275,2.742,2.598,4.112,3.899l2.048,1.958c0.697,0.661,1.343,1.297,2.043,1.937l2.077,1.927l0.304,0.285
			l0.245,0.256l0.49,0.512l0.98,1.023l3.919,4.094l3.919,4.094c1.31,1.361,2.604,2.738,3.927,4.086l-0.093-0.065
			c3.141,1.555,6.251,3.174,9.416,4.676l-0.087-0.013L56.311,51.902z M56.355,52.098l-7.006,1.011l-0.033,0.005l-0.03-0.014
			l-9.506-4.486l-0.019-0.009l-0.015-0.015l-8.141-7.875l-4.07-3.938c-0.681-0.647-1.351-1.333-2.041-1.949l-2.148-1.845
			c-1.433-1.236-2.833-2.498-4.251-3.746l-4.241-3.754l-8.481-7.507l-0.472-0.418l0.625,0.084l14.999,2.006l0.013,0.002l0.012,0.003
			l15.16,4.189l0.012,0.003l0.011,0.005l16.322,7.357l0.041,0.019l0.022,0.039l7.48,13.344l0.024,0.042l-0.014,0.046l-2.01,6.664
			l-0.016,0.053l-0.053,0.016L56.355,52.098z"/>
	</g>
	<g>
		<path fill="#8DC63F" d="M38.235,26.593c0.786,0.294,1.512,0.653,2.215,1.036c0.361,0.182,0.693,0.395,1.033,0.598
			c0.339,0.205,0.684,0.405,1.001,0.633l0.972,0.664c0.327,0.218,0.622,0.471,0.935,0.705l0.926,0.715l0.879,0.765l0.033,0.029
			l0.075,0.08c0.409,0.439,0.85,0.849,1.227,1.317l1.169,1.369c0.378,0.467,0.73,0.957,1.096,1.435
			c0.375,0.469,0.69,0.994,1.033,1.492l0.332,0.483l0.003,0.233c0.005,0.404-0.016,0.812-0.047,1.221
			c-0.032,0.409-0.038,0.815-0.098,1.228c-0.091,0.822-0.206,1.647-0.422,2.487L50.4,43.11l-0.71-4.757l0.036,0.077l-2.442-2.644
			c-0.813-0.882-1.633-1.758-2.423-2.661l0.011,0.011l-6.774-6.398L38.235,26.593z"/>
	</g>
	<g>
		<path fill="#8DC63F" d="M26.732,23.758c0.408,0.048,0.79,0.125,1.152,0.226c0.357,0.106,0.714,0.212,1.04,0.355
			c0.342,0.124,0.662,0.274,0.969,0.438c0.316,0.153,0.625,0.316,0.915,0.5c1.167,0.728,2.213,1.596,3.125,2.619l0.346,0.387
			l0.033,0.084c0.14,0.355,0.266,0.718,0.365,1.096c0.088,0.384,0.217,0.745,0.27,1.147c0.07,0.393,0.133,0.79,0.155,1.21
			c0.036,0.411,0.028,0.847-0.014,1.301l-0.176,0.095c-0.774-1.305-1.5-2.636-2.238-3.961l0.041,0.05
			c-1.044-0.87-2.066-1.766-3.08-2.67c-1.019-0.899-2.04-1.795-3.034-2.724L26.732,23.758z"/>
	</g>
	<g>
		<path fill="#8DC63F" d="M30.874,35.325c0.197-0.032,0.405-0.088,0.593-0.101c0.19-0.016,0.387-0.049,0.569-0.046
			c0.374-0.018,0.738-0.015,1.089,0.018c0.362,0.008,0.698,0.075,1.04,0.127c0.346,0.045,0.675,0.126,1.004,0.209
			c1.305,0.356,2.523,0.906,3.656,1.649l-0.93-0.116c0.327-0.003,0.658,0.017,0.993,0.055c0.332,0.024,0.666,0.061,1.007,0.136
			c0.336,0.051,0.68,0.146,1.025,0.246c0.346,0.104,0.697,0.241,1.054,0.416l0.034,0.197c-1.266,0.269-2.538,0.496-3.811,0.725
			l-0.05,0.009l-0.051-0.022c-1.232-0.52-2.456-1.058-3.667-1.623c-1.216-0.555-2.435-1.104-3.635-1.697L30.874,35.325z"/>
	</g>
	<g>
		<path fill="#8DC63F" d="M43.199,46.739c0.368-0.079,0.726-0.13,1.078-0.16c0.349-0.024,0.695-0.038,1.038-0.043l1.011,0.036
			l0.985,0.112c0.655,0.078,1.291,0.215,1.918,0.376c0.626,0.163,1.244,0.352,1.848,0.581l-0.907-0.065
			c1.118-0.173,2.249-0.278,3.411-0.212c0.289,0.006,0.578,0.014,0.873,0.055c0.295,0.038,0.585,0.05,0.883,0.11
			c0.595,0.105,1.192,0.224,1.811,0.458l0.037,0.197c-2.208,0.495-4.434,0.896-6.65,1.344l-0.049,0.01l-0.051-0.017
			c-1.224-0.41-2.438-0.851-3.657-1.275c-1.22-0.422-2.436-0.858-3.644-1.315L43.199,46.739z"/>
	</g>
	<g>
		<path fill="#8DC63F" d="M92.572,79.917L92.299,75.5l-0.006-0.103l0.08-0.118l7.037-10.347l0.033-0.049l0.089-0.085l7.713-7.391
			l0.238-0.228l0.393-0.078l8.833-1.751c1.471-0.301,2.95-0.551,4.424-0.829l4.427-0.814l0.149-0.027l0.198,0.006l5.794,0.174
			l5.792,0.226l5.792,0.226l1.448,0.057l1.37-0.001L149,54.38l5.172,0.021l-4.062,3.167c-4.304,3.355-8.565,6.766-12.905,10.076
			l-0.104,0.08l-0.065,0.038l-7.734,4.556l-7.794,4.458l-0.122,0.07l-0.064,0.024l-7.248,2.715l-3.624,1.358
			c-1.206,0.457-2.431,0.87-3.645,1.307l-0.23,0.083l-0.172-0.029l-6.878-1.151c-2.295-0.369-4.582-0.798-6.87-1.218L92.572,79.917z
			 M92.767,79.745l13.748,1.635l-0.06,0.008l14.324-5.855l-0.02,0.01l15.319-9.356l-0.017,0.012l12.818-10.186L149,56.363
			l-2.898,0.004c-0.965,0.015-1.948-0.025-2.905-0.076l-5.79-0.263l-11.58-0.525l0.035-0.002l-17.754,2.973l0.071-0.035
			l-7.927,7.155l0.016-0.018l-7.515,9.988l0.021-0.064L92.767,79.745z"/>
	</g>
	<g>
		<path fill="#8DC63F" d="M101.745,73.204c0.012-0.504,0.06-0.99,0.127-1.466c0.085-0.467,0.149-0.944,0.27-1.392
			c0.106-0.455,0.211-0.912,0.359-1.346c0.143-0.436,0.255-0.889,0.433-1.308l0.046-0.108l0.271-0.313
			c0.336-0.388,0.661-0.794,1.008-1.173l1.072-1.105c0.347-0.378,0.752-0.695,1.12-1.045c0.369-0.347,0.751-0.689,1.129-0.983
			l0.25-0.207c0.033-0.028,0.002,0.016,0.014,0.025c0.082-0.102,0.099-0.111,0.151-0.171c0.17-0.195,0.361-0.376,0.554-0.556
			c0.388-0.357,0.747-0.735,1.171-1.066c0.403-0.347,0.824-0.68,1.273-0.994c0.213-0.165,0.455-0.31,0.687-0.462
			c0.225-0.156,0.493-0.283,0.738-0.426l0.163,0.116l-1.814,2.507l-0.907,1.253l-0.453,0.627c-0.136,0.203-0.343,0.438-0.51,0.612
			c-0.716,0.752-1.444,1.482-2.189,2.198l-2.264,2.113l0.032-0.043l-2.554,4.805L101.745,73.204z"/>
	</g>
	<g>
		<path fill="#8DC63F" d="M120.736,66.185c-0.129-0.401-0.219-0.793-0.29-1.18c-0.049-0.382-0.125-0.771-0.136-1.144
			c-0.024-0.376-0.059-0.755-0.041-1.121c0.013-0.367-0.005-0.742,0.032-1.104l0.051-0.495l0.793-0.557
			c0.896-0.63,1.84-1.16,2.822-1.612c0.49-0.229,0.991-0.434,1.505-0.612c0.51-0.187,1.036-0.341,1.577-0.463l-0.313,0.207
			c0.27-0.139,0.518-0.304,0.807-0.423c0.284-0.124,0.559-0.258,0.849-0.375c0.302-0.103,0.587-0.225,0.903-0.314
			c0.307-0.097,0.634-0.172,0.972-0.235l0.132,0.151c-0.864,0.806-1.737,1.602-2.623,2.383l-0.016,0.014l-0.021,0.01l-2.903,1.444
			c-0.97,0.477-1.951,0.93-2.926,1.396l0.093-0.116c-0.343,1.4-0.69,2.8-1.071,4.191L120.736,66.185z"/>
	</g>
	<g>
		<path fill="#8DC63F" d="M112.54,69.011c0.245-0.028,0.498-0.074,0.731-0.076c0.239-0.015,0.475-0.023,0.702-0.011
			c0.467-0.004,0.906,0.055,1.351,0.099c0.44,0.057,0.861,0.155,1.293,0.231c0.421,0.1,0.835,0.215,1.242,0.346l-0.901-0.134
			c1.386-0.305,2.792-0.455,4.223-0.397c0.356,0.004,0.719,0.055,1.079,0.092c0.359,0.027,0.723,0.093,1.089,0.169
			c0.363,0.057,0.733,0.172,1.101,0.271c0.37,0.115,0.743,0.255,1.121,0.434l0.024,0.199c-1.397,0.223-2.798,0.407-4.199,0.59
			c-1.401,0.187-2.801,0.378-4.207,0.525l-0.053,0.006l-0.044-0.02c-1.547-0.706-3.103-1.395-4.633-2.14L112.54,69.011z"/>
	</g>
	<g>
		<path fill="#8DC63F" d="M97.967,75.975c0.645-0.164,1.279-0.274,1.902-0.33c0.629-0.085,1.239-0.079,1.857-0.108
			c0.607,0.024,1.223,0.003,1.822,0.065c0.598,0.067,1.206,0.085,1.796,0.192L105,75.76l1.625-0.058l1.625,0.055
			c0.542,0.001,1.083,0.092,1.625,0.141c0.542,0.043,1.083,0.146,1.625,0.244l-0.474,0.085c0.338-0.068,0.682-0.123,1.033-0.155
			c0.351-0.033,0.692-0.095,1.052-0.105c0.359-0.012,0.708-0.052,1.077-0.039c0.361-0.007,0.734,0.019,1.11,0.051l0.07,0.187
			l-3.817,1.47l-0.024,0.009l-0.027,0c-2.167,0.009-4.333,0.084-6.5,0.035l-0.021,0l-0.015-0.003l-7.036-1.507L97.967,75.975z"/>
	</g>
</g>
</svg>
