<?xml version="1.0" encoding="utf-8"?>
<!-- Generator: Adobe Illustrator 17.0.0, SVG Export Plug-In . SVG Version: 6.00 Build 0)  -->
<!DOCTYPE svg PUBLIC "-//W3C//DTD SVG 1.1//EN" "http://www.w3.org/Graphics/SVG/1.1/DTD/svg11.dtd">
<svg version="1.1" xmlns="http://www.w3.org/2000/svg" xmlns:xlink="http://www.w3.org/1999/xlink" x="0px" y="0px" width="155px"
	 height="155px" viewBox="0 0 155 155" enable-background="new 0 0 155 155" xml:space="preserve">
<g id="Layer_4">
	<polygon fill="#FFFFFF" points="0,129.125 155,129.125 155,9.313 153.243,6.381 152.25,4.875 150.325,3.048 148.765,1.567 146,0 
		10.188,0 7.125,1 3.667,4.481 1.938,6.438 0,9.313 	"/>
</g>
<g id="Layer_1" display="none">
	<polygon display="inline" fill="#8DC63F" points="43.084,15.023 116.557,15.023 119.175,21.305 121.269,29.333 122.141,35.092 
		122.542,39.458 122.542,45.583 122.542,52.458 122.542,57.333 120.083,66.667 116.583,74.542 113.958,78.417 109.167,82.875 
		104.125,86.917 98.125,89.125 94.667,88.958 90.583,88 85.042,85.708 85.042,108.417 83.542,109.625 80.042,109.625 
		79.208,108.292 76.5,98.833 74.458,100.333 69.375,102.375 62.333,102.792 55.083,101.625 48.417,97.792 40.083,89.458 
		32.25,73.583 30.292,62.833 31.208,48.667 34.25,36.417 38.833,22.542 	"/>
</g>
<g id="Layer_2">
	<polygon fill="#651C26" points="0,129.125 155,129.125 155,145.688 153.063,148.563 150.688,151.25 147.875,154 144.813,155 9,155 
		6.438,153.625 2.75,150.125 0.938,147.375 0,145.688 	"/>
</g>
<g id="Layer_5">
	<text transform="matrix(1 0 0 1 12.104 146.4059)" fill="#FFFFFF" font-family="'ArialMT'" font-size="18">amplexicaulă</text>
</g>
<g id="Layer_3">
	<path fill="#90C740" d="M49.5,104.25"/>
	<g>
		<path fill="#8DC63F" d="M73.211,46.2l0.957,1.452l-0.041-0.049c0.816,0.612,1.685,1.189,2.594,1.607
			c0.457,0.217,0.903,0.325,1.435,0.48c0.256,0.077,0.513,0.16,0.778,0.272c0.268,0.108,0.536,0.279,0.738,0.4l0.158,0.09
			l0.188,0.118c0.152,0.115,0.267,0.225,0.366,0.322c0.202,0.204,0.38,0.413,0.552,0.627c0.34,0.433,0.65,0.858,0.929,1.378
			c0.035,0.072,0.069,0.138,0.104,0.223c0.029,0.091,0.079,0.154,0.087,0.426c-0.001,0.052-0.011,0.145-0.03,0.254l-0.045,0.224
			c-0.06,0.272-0.128,0.528-0.197,0.784l-0.437,1.519l-0.024,0.082l-0.07,0.097c-0.284,0.393-0.566,0.763-0.884,1.137
			c-0.161,0.187-0.324,0.371-0.535,0.563c-0.087,0.086-0.264,0.218-0.405,0.296l-0.299,0.174l-2.4,1.378l-0.148,0.085l-0.209,0.003
			c-3,0.047-6,0.096-9,0.107l-0.234,0.001l-0.213-0.124c-2.599-1.516-5.183-3.056-7.753-4.62l-0.091-0.055l-0.063-0.061
			c-1.522-1.479-3.041-2.961-4.535-4.469l0.091,0.074c-4.55-3.275-9.044-6.634-13.636-9.848l-0.017-0.012l-0.011-0.009
			c-2.106-1.841-4.231-3.661-6.381-5.452l-3.211-2.702l-3.245-2.661l0.086,0.058l-9.625-4.719l-2.694-1.321l3.032-0.055l9.5-0.171
			l9.5-0.095l0.042,0l0.058,0.005c2.898,0.27,5.799,0.509,8.694,0.806c2.896,0.289,5.793,0.567,8.686,0.894l0.113,0.013l0.085,0.027
			c2.408,0.756,4.826,1.481,7.227,2.265l7.211,2.317l0.071,0.023l0.04,0.019l4.522,2.211l4.501,2.258L79.2,34.88l0.04,0.033
			l2.32,1.944l0.098,0.082l0.04,0.087c0.235,0.516,0.444,1.024,0.635,1.554c0.092,0.266,0.178,0.535,0.251,0.814
			c0.074,0.278,0.136,0.565,0.15,0.901c-0.003,0.091,0.009,0.163-0.018,0.279c-0.015,0.099-0.039,0.212-0.14,0.352
			c-0.036,0.064-0.094,0.119-0.116,0.16c0.003,0.027-0.009,0.009-0.024,0.075c-0.06,0.193-0.079,0.454-0.081,0.708
			c0,0.515,0.061,1.055,0.147,1.575l0.042,0.258l-0.23,0.049L78.9,44.472l-0.05-0.194l3.335-1.028l-0.187,0.306
			c-0.135-0.547-0.242-1.088-0.289-1.662c-0.018-0.289-0.032-0.58,0.04-0.916c0.007-0.07,0.064-0.207,0.114-0.308
			c0.042-0.078,0.085-0.121,0.11-0.18c-0.022,0.055,0.003-0.066-0.015-0.156c-0.058-0.429-0.263-0.948-0.469-1.424
			c-0.207-0.484-0.442-0.973-0.686-1.436l0.137,0.169l-2.429-1.806l0.116,0.072l-4.624-1.992l-4.603-2.039l0.111,0.042l-7.289-2.058
			c-2.433-0.675-4.848-1.408-7.273-2.11l0.197,0.039c-2.899-0.256-5.794-0.562-8.689-0.856c-2.896-0.286-5.787-0.632-8.68-0.944
			l0.1,0.005l-9.5-0.095l-9.5-0.171l0.337-1.375l9.375,5.198l0.055,0.031l0.031,0.028l3.129,2.797l3.164,2.756
			c2.101,1.848,4.226,3.667,6.369,5.465l-0.028-0.021c4.658,3.119,9.414,6.094,14.113,9.152l0.031,0.02l0.061,0.054
			c1.589,1.408,3.153,2.842,4.714,4.28l-0.153-0.116c2.597,1.519,5.179,3.062,7.747,4.63l-0.447-0.123c3,0.012,6,0.06,9,0.107
			l-0.357,0.088l2.456-1.271l0.308-0.157c0.061-0.033,0.072-0.036,0.156-0.104c0.137-0.111,0.291-0.263,0.439-0.418
			c0.297-0.313,0.593-0.661,0.868-1.002l-0.094,0.179l0.504-1.456l0.222-0.719l0.041-0.157c0.007-0.019,0.018-0.053,0.025-0.132
			c-0.008,0.09,0.001,0.071,0.005,0.093l-0.013-0.044l-0.054-0.134c-0.19-0.409-0.469-0.848-0.751-1.246
			c-0.144-0.199-0.294-0.395-0.449-0.569l-0.204-0.21l-0.134-0.102l-0.172-0.118c-0.231-0.166-0.393-0.292-0.6-0.398
			c-0.206-0.108-0.437-0.206-0.673-0.299c-0.453-0.174-1.009-0.365-1.474-0.638c-0.939-0.538-1.772-1.182-2.552-1.9l-0.03-0.027
			l-0.011-0.022L73.039,46.3L73.211,46.2z"/>
	</g>
	<g>
		<path fill="#8DC63F" d="M28.144,25.704c1.484,0.432,2.941,0.93,4.408,1.404c1.472,0.461,2.909,1.009,4.363,1.515
			c1.447,0.523,2.907,1.013,4.344,1.563l4.304,1.662l-0.057-0.021l3.735,1.138c1.246,0.376,2.472,0.814,3.709,1.218l3.703,1.237
			c1.231,0.423,2.476,0.8,3.695,1.262l0.085,0.032l0.014,0.007l5.392,2.908c1.772,1.022,3.565,2,5.31,3.075l-0.044,0.09
			l-11.011-5.351l0.01,0.004l-14.879-4.737l-0.003-0.001l-0.003-0.001l-17.11-6.912L28.144,25.704z"/>
	</g>
	<g>
		<path fill="#8DC63F" d="M70.152,44.542c-0.45,0.494-0.947,0.916-1.424,1.371c-0.483,0.443-0.984,0.861-1.491,1.267l-0.079,0.064
			l-0.228,0.042c-0.733,0.136-1.468,0.255-2.205,0.349c-0.735,0.115-1.475,0.174-2.213,0.253c-0.737,0.087-1.48,0.109-2.22,0.167
			c-0.741,0.046-1.485,0.057-2.228,0.077L58,48.134l-2.5-0.261c-0.417-0.043-0.833-0.135-1.25-0.2
			c-0.417-0.066-0.833-0.143-1.25-0.248v-0.1l5-0.028l-0.006,0c2.956-0.279,5.915-0.516,8.875-0.744l-0.033,0.011l3.262-2.107
			L70.152,44.542z"/>
	</g>
	<g>
		<path fill="#8DC63F" d="M57.521,36.566c-0.171,0.337-0.361,0.656-0.56,0.966c-0.199,0.311-0.382,0.636-0.593,0.936l-0.07,0.1
			l-0.253,0.058c-0.551,0.127-1.105,0.243-1.662,0.335c-0.556,0.11-1.115,0.175-1.675,0.255c-0.559,0.089-1.121,0.121-1.682,0.181
			c-0.281,0.026-0.561,0.059-0.842,0.07c-0.296,0.006-0.526,0.052-0.877,0.026l-0.481-0.054c-0.142-0.021-0.286-0.04-0.426-0.07
			l-0.831-0.172c-0.552-0.104-1.091-0.274-1.632-0.428c-0.538-0.167-1.083-0.29-1.612-0.499c-0.529-0.209-1.064-0.384-1.584-0.642
			l0.018-0.098l3.293,0.542c1.096,0.167,2.203,0.355,3.296,0.453c0.27,0.017,0.552-0.035,0.827-0.049l0.831-0.062l1.662-0.117
			l3.326-0.234l-0.041,0.02l1.495-1.583L57.521,36.566z"/>
	</g>
	<g>
		<path fill="#8DC63F" d="M42.756,32.175c-0.444,0.278-0.896,0.478-1.352,0.645c-0.455,0.175-0.915,0.305-1.378,0.411
			c-0.462,0.115-0.928,0.187-1.396,0.25c-0.233,0.042-0.469,0.049-0.704,0.069c-0.236,0.013-0.469,0.047-0.707,0.042l-0.233-0.004
			l-0.02-0.006c-0.532-0.152-1.06-0.331-1.578-0.557c-0.518-0.228-1.029-0.49-1.521-0.85l0.019-0.098l3.257,0.589l-0.026-0.001
			c1.871-0.24,3.753-0.389,5.629-0.588L42.756,32.175z"/>
	</g>
	<g>
		<path fill="#8DC63F" d="M51.959,34.278c-0.468-0.334-0.867-0.716-1.271-1.094c-0.39-0.388-0.767-0.784-1.121-1.197
			c-0.197-0.219-0.349-0.424-0.52-0.64c-0.165-0.215-0.337-0.425-0.497-0.643c-0.305-0.446-0.632-0.877-0.919-1.335l0.445,0.347
			c-0.462-0.186-0.935-0.341-1.388-0.552c-0.456-0.202-0.914-0.399-1.358-0.635c-0.45-0.218-0.888-0.473-1.325-0.73
			c-0.432-0.27-0.863-0.543-1.272-0.878l0.034-0.094l5.641,1.955l0.031,0.011l0.018,0.027c1.179,1.811,2.368,3.613,3.585,5.401
			L51.959,34.278z"/>
	</g>
	<g>
		<path fill="#8DC63F" d="M68.767,41.64c-0.306-0.371-0.562-0.763-0.828-1.151c-0.274-0.384-0.519-0.782-0.758-1.181
			c-0.477-0.8-0.916-1.616-1.324-2.445l0.109,0.184c-0.549-0.619-1.078-1.265-1.607-1.901l-1.54-1.904l-0.353-0.394
			c0.082-0.001-0.247-0.185-0.472-0.398c-0.343-0.337-0.611-0.666-0.885-1.002c-0.279-0.326-0.513-0.689-0.743-1.052
			c-0.233-0.36-0.462-0.721-0.655-1.112l0.074-0.067c0.568,0.614,1.147,1.219,1.745,1.802c0.3,0.289,0.605,0.577,0.929,0.832
			c0.152,0.13,0.337,0.198,0.527,0.341c0.169,0.136,0.318,0.285,0.467,0.435c1.163,1.218,2.208,2.528,3.237,3.852l0.007,0.009
			l0.004,0.01l2.156,5.103L68.767,41.64z"/>
	</g>
	<g>
		<path fill="#8DC63F" d="M74.375,90.975l-3.25,0.136l-0.04,0.002l-0.054-0.021l-2.345-0.923l-0.317-0.125l0.165-0.323l1.233-2.418
			l0.041-0.081l0.099-0.067c2.816-1.919,5.676-3.768,8.512-5.655l1.066-0.704c0.345-0.225,0.723-0.485,1.083-0.706l2.165-1.356
			l4.348-2.681l0.119-0.073l0.153-0.029l7.964-1.535l3.984-0.757l1.995-0.363l0.997-0.182l0.951-0.215
			c2.637-0.597,5.279-1.17,7.926-1.724l7.944-1.645l0.082-0.017l0.056,0.001l10.5,0.23l1.158,0.025l-0.931,0.668l-4.412,3.168
			l-4.384,3.207l-4.353,3.248l-4.347,3.256l0.029-0.024l-10.93,10.217l-0.017,0.016l-0.043,0.032
			c-3.687,2.755-7.419,5.448-11.126,8.175l-0.102,0.075l-0.138,0.046c-1.682,0.564-3.362,1.092-5.065,1.593
			c-0.853,0.247-1.709,0.486-2.581,0.704c-0.439,0.105-0.881,0.209-1.338,0.296c-0.226,0.047-0.475,0.078-0.711,0.116
			c-0.258,0.024-0.572,0.049-0.765,0.047c-0.851,0.013-1.728,0.058-2.609,0.092c-0.886,0.032-1.768,0.073-2.712,0.043
			c-0.237-0.008-0.483-0.024-0.749-0.055c-0.137-0.02-0.295-0.044-0.43-0.077l-0.344-0.086c-0.475-0.129-0.89-0.262-1.322-0.402
			c-0.853-0.281-1.686-0.568-2.525-0.878l-0.919-0.34l0.27-0.948l0.747-2.626l0.115-0.403l0.369-0.222l2.596-1.567l1.275-0.799
			l0.614-0.404l0.275-0.194l0.104-0.08c0.035-0.027-0.041,0.031-0.05,0.051l-0.031,0.048l-0.006,0.013l-0.003,0.006l0.068-0.091
			l0.016-0.018c0.51-0.541,0.864-0.794,1.269-1.15l1.191-0.983c0.798-0.647,1.601-1.284,2.428-1.91
			c0.418-0.313,0.825-0.62,1.297-0.93c0.106-0.074,0.246-0.159,0.402-0.245l0.114-0.063c0.11-0.051,0.232-0.092,0.355-0.12
			c0.061-0.014,0.123-0.025,0.184-0.032l0.045-0.005l0.023-0.002c-0.251,0.015-0.066,0.004-0.121,0.007l0.023-0.004l0.094-0.017
			l0.556-0.168l2.872-0.939l5.77-1.955l-0.228,0.122l3.074-2.158l1.536-1.077l0.768-0.538c0.272-0.175,0.476-0.368,0.803-0.528
			c2.211-1.116,4.437-2.205,6.664-3.292l0.103-0.05l0.059-0.013l7.29-1.582l-0.124,0.049l2.527-1.349l0.633-0.335
			c0.224-0.12,0.405-0.209,0.611-0.338l1.23-0.733l4.931-2.917l0.108,0.168l-4.714,3.256l-1.181,0.81
			c-0.191,0.137-0.429,0.278-0.618,0.395l-0.61,0.375l-2.445,1.492l-0.047,0.029l-0.077,0.021l-7.209,1.918l0.162-0.063
			c-2.169,1.192-4.338,2.383-6.523,3.546c-0.229,0.114-0.487,0.348-0.729,0.516l-0.737,0.55l-1.473,1.099l-2.944,2.195l-0.1,0.075
			l-0.129,0.048l-5.734,2.126c-0.961,0.351-1.918,0.686-2.912,1.01l-0.402,0.126c-0.165,0.047-0.387,0.106-0.508,0.129l-0.094,0.019
			l-0.023,0.005l-0.133,0.009l0.011,0.002l0.023,0.003c0.031,0.003,0.063,0.003,0.094-0.001c0.063-0.007,0.124-0.028,0.175-0.057
			l-0.051,0.032c-0.066,0.039-0.144,0.085-0.245,0.157c-0.375,0.254-0.779,0.563-1.17,0.865c-0.788,0.613-1.571,1.25-2.345,1.894
			l-1.15,0.974c-0.361,0.313-0.802,0.7-0.994,0.895l-0.016,0.018c0.027-0.037-0.067,0.089,0.06-0.082l-0.011,0.015l-0.023,0.029
			l-0.099,0.115c-0.055,0.063-0.172,0.172-0.189,0.181l-0.198,0.153l-0.348,0.245l-0.662,0.434l-1.312,0.819l-2.633,1.582
			l0.483-0.625l-0.752,2.624l-0.649-1.287c0.808,0.302,1.629,0.609,2.442,0.888c0.402,0.138,0.823,0.278,1.194,0.385l0.294,0.079
			c0.078,0.02,0.138,0.027,0.217,0.042c0.171,0.022,0.363,0.039,0.565,0.049c0.812,0.039,1.689,0.017,2.559-0.002
			c0.875-0.02,1.755-0.051,2.661-0.051c0.247,0.005,0.371-0.015,0.551-0.023c0.197-0.031,0.386-0.049,0.591-0.088
			c0.407-0.071,0.823-0.162,1.239-0.254c0.836-0.195,1.676-0.415,2.515-0.644c1.677-0.463,3.358-0.966,5.019-1.488l-0.24,0.121
			c3.793-2.606,7.561-5.247,11.374-7.825l-0.061,0.048l11.32-9.783l0.019-0.017l0.011-0.008l4.403-3.181l4.397-3.189l4.366-3.23
			l4.338-3.269l0.228,0.693l-10.5,0.23l0.137-0.016l-7.864,1.993c-2.623,0.659-5.25,1.297-7.882,1.913l-1.026,0.236l-0.996,0.187
			l-1.993,0.373l-3.992,0.716l-7.987,1.412l0.271-0.103l-4.412,2.575l-2.216,1.272c-0.375,0.209-0.707,0.419-1.085,0.643
			l-1.095,0.659c-2.924,1.747-5.825,3.532-8.769,5.248l0.14-0.148l-1.39,2.331l-0.153-0.447l2.278,1.077l-0.093-0.019l3.25,0.136
			V90.975z"/>
	</g>
	<g>
		<path fill="#8DC63F" d="M105.287,75.284c0,0-0.292,0.732-0.897,1.676c-0.296,0.478-0.668,1.01-1.095,1.555
			c-0.219,0.267-0.425,0.561-0.672,0.826c-0.248,0.272-0.5,0.548-0.752,0.824c-0.526,0.514-1.048,1.032-1.58,1.475
			c-0.524,0.451-1.038,0.849-1.501,1.167c-0.914,0.649-1.63,0.978-1.63,0.978l-0.072-0.07c0,0,2.033-2.124,4.066-4.247
			c1.032-1.042,2.03-2.125,2.793-2.919c0.759-0.8,1.265-1.333,1.265-1.333L105.287,75.284z"/>
	</g>
	<g>
		<path fill="#8DC63F" d="M88.92,78.773c-0.071,0.659-0.21,1.284-0.389,1.888c-0.174,0.607-0.377,1.199-0.618,1.771
			c-0.219,0.584-0.507,1.133-0.767,1.695c-0.303,0.541-0.577,1.097-0.92,1.617l0.089-0.37c-0.046,0.625-0.134,1.25-0.254,1.875
			c-0.114,0.625-0.274,1.25-0.511,1.875h-0.1l-0.033-3.75l0-0.019l0.009-0.019c1.086-2.228,2.273-4.405,3.405-6.61L88.92,78.773z"/>
	</g>
	<g>
		<path fill="#8DC63F" d="M80.768,92.954c0.677,0.056,1.323,0.19,1.971,0.318c0.642,0.143,1.278,0.303,1.904,0.487
			c0.629,0.176,1.244,0.39,1.862,0.593c0.607,0.233,1.224,0.44,1.822,0.694l-0.508-0.045c0.587-0.1,1.168-0.232,1.761-0.305
			c0.591-0.083,1.181-0.171,1.779-0.219c0.594-0.066,1.196-0.094,1.799-0.121c0.605-0.012,1.211-0.022,1.83,0.032l0.02,0.098
			l-6.99,1.484l-0.029,0.006l-0.027-0.011l-7.232-2.919L80.768,92.954z"/>
	</g>
	<g>
		<path fill="#8DC63F" d="M93.713,86.144c0.466-0.101,0.927-0.14,1.391-0.192c0.465-0.061,0.926-0.078,1.39-0.095
			c0.464-0.018,0.925,0.001,1.394,0.011c0.237,0.006,0.467,0.031,0.71,0.057c0.248,0.029,0.468,0.047,0.804,0.136
			c0.018,0,0.115,0.035,0.211,0.085l0.133,0.076l0.063,0.042l0.031,0.022l0.015,0.011l0.007,0.006
			c0.047,0.033-0.376-0.261-0.196-0.137c0.032,0.005,0.168,0.068,0.083,0.003c-0.035-0.036-0.118-0.049-0.126-0.047l0.132-0.009
			c0.179-0.012,0.394-0.039,0.605-0.07l1.307-0.198c0.443-0.061,0.883-0.153,1.333-0.202c0.448-0.052,0.895-0.133,1.343-0.173
			l-0.288,0.132l1.776-1.021c0.302-0.162,0.622-0.301,0.931-0.453c0.308-0.154,0.626-0.296,0.957-0.419l0.06,0.08l-3.234,2.466
			l-0.013,0.01l-0.017,0.004c-0.891,0.195-1.784,0.38-2.682,0.541c-0.449,0.083-0.9,0.156-1.355,0.207
			c-0.228,0.027-0.456,0.05-0.688,0.058c-0.112,0.005-0.234,0.008-0.376-0.014c-0.124-0.011-0.232-0.093-0.314-0.12
			c-0.419-0.124-0.878-0.185-1.325-0.254l-1.354-0.171c-0.904-0.103-1.811-0.193-2.717-0.273L93.713,86.144z"/>
	</g>
	<polyline fill="#8DC63F" stroke="#8DC63F" stroke-miterlimit="10" points="78.766,50.354 79.083,11.75 78.083,11.75 75.667,14.75 
		74,16 73,17.917 73,47.833 	"/>
	<polygon fill="#8DC63F" stroke="#8DC63F" stroke-miterlimit="10" points="79.083,58.75 78.973,93.218 73,97.891 73,60.375 	"/>
	<polygon fill="#8DC63F" stroke="#8DC63F" stroke-miterlimit="10" points="73,115.611 79.75,121.736 79.083,103.736 73,104.236 	"/>
</g>
</svg>
