<?xml version="1.0" encoding="utf-8"?>
<!-- Generator: Adobe Illustrator 17.0.0, SVG Export Plug-In . SVG Version: 6.00 Build 0)  -->
<!DOCTYPE svg PUBLIC "-//W3C//DTD SVG 1.1//EN" "http://www.w3.org/Graphics/SVG/1.1/DTD/svg11.dtd">
<svg version="1.1" id="Layer_1" xmlns="http://www.w3.org/2000/svg" xmlns:xlink="http://www.w3.org/1999/xlink" x="0px" y="0px"
	 width="155px" height="155px" viewBox="0 0 155 155" enable-background="new 0 0 155 155" xml:space="preserve">
<polygon fill="#651D26" points="0,129.125 0,145.688 0.938,147.375 2.75,150.125 6.438,153.625 9,155 144.813,155 147.875,154 
	150.688,151.25 153.061,148.562 155,145.688 155,129.125 "/>
<text transform="matrix(1 0 0 1 12.104 146.4063)" fill="#FFFFFF" font-family="'ArialMT'" font-size="18">cățărătoare</text>
<g>
	<g>
		<defs>
			<rect id="SVGID_1_" x="58.103" y="19.755" width="44.902" height="103.308"/>
		</defs>
		<clipPath id="SVGID_2_">
			<use xlink:href="#SVGID_1_"  overflow="visible"/>
		</clipPath>
		<path clip-path="url(#SVGID_2_)" fill="#168140" d="M89.151,22.205l-0.205-0.203 M89.151,22.205
			c-0.479,0.067-0.345,0.745-0.409,1.226c-0.863-0.72-1.207-0.92-2.449-0.408c0.065-0.476-0.091-0.727-0.408-0.818
			c0.371-0.355,2.509-0.528,2.449-2.449C90.355,20.4,88.447,21.216,89.151,22.205 M83.842,89.581
			c0.793-0.162,0.598,1.86-0.408,1.225v-0.816C83.781,90.064,83.819,89.83,83.842,89.581 M85.066,89.173
			c0.892-0.074,1.301,0.334,1.227,1.225C85.401,90.473,84.993,90.063,85.066,89.173 M82.617,87.539
			c0.502,0.179,0.84,0.522,0.816,1.226C82.304,88.833,82.033,88.138,82.617,87.539 M95.684,85.498
			C97.4,85.925,95.683,87.644,95.684,85.498 M68.734,81.006C70.605,81.279,68.406,83.478,68.734,81.006 M67.509,69.981
			C69.226,70.408,67.507,72.126,67.509,69.981 M93.235,65.897h-0.818v-0.816C93.111,64.931,93.188,65.399,93.235,65.897
			 M74.859,65.897c0.355-1.188,0.611-0.459,1.633-0.409C76.365,66.043,75.471,65.828,74.859,65.897 M95.275,63.856
			c0.264-0.42-0.901-1.557,0-2.042c0.715-0.385,1.627,1.147,1.226-1.226c2.106,0.178,2.475,3.271,0.816,4.084
			C96.06,64.978,96.819,63.265,95.275,63.856 M92.824,57.322c1.359-0.28,0.658,0.845,0.411,1.226
			C92.756,58.481,92.889,57.803,92.824,57.322 M99.358,50.38C101.076,50.808,99.358,52.526,99.358,50.38 M96.501,49.972
			c0.727,0.3,0.06,0.743,0,1.226C95.773,50.898,96.442,50.456,96.501,49.972 M68.734,38.538h0.816v0.817h-0.816V38.538z
			 M80.167,29.964c-0.006,0.014-0.786,0.028-0.816,0c-0.294-0.294,0.409-0.42,0.409-0.409C79.917,27.572,80.725,28.74,80.167,29.964
			 M81.801,21.389c0.629,1.719-2.113,0.066-2.041,1.226C78.366,21.713,81.246,21.69,81.801,21.389"/>
		<path clip-path="url(#SVGID_2_)" fill="#168140" d="M88.946,25.88c0.202-0.063,0.496-0.167,0.775-0.248
			c0.9-1.115,0.414-2.954-0.775-3.63"/>
		<path clip-path="url(#SVGID_2_)" fill="#168140" d="M80.167,30.373l0.204,0.612 M79.351,31.19
			c0.181-0.364,0.359-0.731,0.816-0.817 M79.76,31.19h-0.409 M78.535,32.414l0.203,0.408 M74.859,34.047
			c0.074-0.347-0.16-0.386-0.41-0.408c1.122-0.197,3.653-1.532,4.086-3.675c2.349,0.619-1.736,1.386,0,2.45 M82.617,23.43
			c-1.153-0.595,2.843-0.425,2.449,0.818C83.543,24.684,83.902,23.233,82.617,23.43 M88.946,22.002l0.205,0.204"/>
		<path clip-path="url(#SVGID_2_)" fill="#168140" d="M77.514,26.085c1.364,0.29,2.721-0.1,4.082,0.204"/>
		<path clip-path="url(#SVGID_2_)" fill="#168140" d="M81.598,26.289c0.105-0.102,0.257-0.354,0.406-0.612"/>
		<path clip-path="url(#SVGID_2_)" fill="#168140" d="M82.004,25.676c-0.273-0.421-0.404-0.724-0.612-1.021"/>
		<path clip-path="url(#SVGID_2_)" fill="#168140" d="M82.004,25.676c0.602,0.026,1.432,0.291,1.429,1.021"/>
		<path clip-path="url(#SVGID_2_)" fill="#168140" d="M85.885,52.83l-0.205,0.409 M88.742,44.256
			c-1.469,0.795-0.715,1.274-1.225,2.858c-1.777-0.31-1.862,1.589-0.817,2.041c-0.11,0.842-1.809,0.098-1.634,1.225
			c0.168,1.396,1.104,0.52,0.409,2.042c-0.075,0.347,0.159,0.385,0.409,0.407 M88.334,44.256h0.408 M91.601,34.865h-0.409
			 M86.7,27.922c0.476-0.067,0.727,0.091,0.817,0.408c0.605-0.177-0.16-0.521,0-1.225c0.776,0.176,1.025,0.88,2.041,0.817
			c-0.236,2.685,0.885,4.015,2.451,4.9c0.168,0.983-0.747,0.888-0.409,2.042 M86.293,28.126l0.407-0.204 M86.7,27.514l-0.407-0.204
			 M85.066,26.698c0.252-0.364,0.494-0.731,0-0.816c0.062-0.912,1.029,0.529,2.042,0c0.173,0.853-0.279,1.08-0.408,1.632
			 M85.272,27.106l-0.206-0.408 M84.25,26.698l-0.203,0.612 M83.842,26.698h0.408 M83.434,26.698h0.408"/>
		<path clip-path="url(#SVGID_2_)" fill="#168140" d="M85.68,53.239c0.506-0.316,0.826-0.473,1.225-0.204"/>
		<path clip-path="url(#SVGID_2_)" fill="#168140" d="M84.658,61.406l-0.203,0.205 M85.885,53.648c-1.339,1.307,0.519,3.596,0,4.084
			c0.156-0.213,1.982-0.605,0.814-0.817c1.033-0.977,1.09,0.91,1.635,1.225c0.117,0.067,0.789-0.192,1.225,0
			c0.504,0.219,0.666,0.661,1.225,0.816c-0.215,0.328-0.426,0.662-0.407,1.225c-0.954,0.844-2.198-0.793-2.45-0.817
			c-0.443-0.04-0.246,0.494,0,0.409c-0.813,0.284-1.139-0.06-1.633,0c-0.072,0.009-1.049,0.294-1.227,0.409
			c-0.366,0.237-0.429,0.613-0.408,1.225 M85.68,53.239l0.205,0.409"/>
		<path clip-path="url(#SVGID_2_)" fill="#168140" d="M94.051,59.364c0.098-1.044,1.195-1.484,0.817-2.654"/>
		<path clip-path="url(#SVGID_2_)" fill="#168140" d="M94.459,54.464l0.204,0.204 M94.459,56.915c-1.392-0.864-0.154-1.186,0-2.451
			 M94.868,56.71l-0.409,0.205"/>
		<path clip-path="url(#SVGID_2_)" fill="#168140" d="M94.663,54.668c0.335-2.081-0.844-3.886-0.815-5.921"/>
		<path clip-path="url(#SVGID_2_)" fill="#168140" d="M93.234,42.622l0.408,0.205 M93.643,49.156
			c-0.348,0.076-0.385-0.159-0.408-0.409c-1.243-0.114-1.588,1.309-2.451,0.409c0-0.729,1.101-2.376,0-2.858
			c0.117-0.714,0.444,0.2,0.817,0c0.558-0.299,0.517-2.495,1.634-1.225c0.105-1.212-1.615-2.014,0-2.451 M93.848,48.747
			l-0.205,0.409"/>
	</g>
	<path fill="#168140" d="M93.643,42.827V42.01V42.827z"/>
	<g>
		<defs>
			<rect id="SVGID_3_" x="58.103" y="19.755" width="44.902" height="103.308"/>
		</defs>
		<clipPath id="SVGID_4_">
			<use xlink:href="#SVGID_3_"  overflow="visible"/>
		</clipPath>
		<path clip-path="url(#SVGID_4_)" fill="#168140" d="M96.5,41.398h-0.407 M93.234,42.214c-0.502-0.179-0.84-0.523-0.816-1.225
			c0.135-0.438,0.915-0.138,1.225-0.409c0.068-0.06,0.428-1.232,0.408-1.226c-0.744,0.227,2.029,0.898,1.225,0.409
			c1,0.608,0.895,1.038,1.225,1.633 M93.643,42.01l-0.408,0.204"/>
		<path clip-path="url(#SVGID_4_)" fill="#168140" d="M95.684,43.44c0.139-0.415,0.577-0.822,0.912-1.111
			c0.08-0.249,0.029-0.432-0.027-0.609c-0.178-0.086-0.328-0.202-0.477-0.322"/>
		<path clip-path="url(#SVGID_4_)" fill="#168140" d="M96.5,46.296l0.205,0.206 M94.051,42.622
			c-0.173,0.854,0.279,1.081,0.408,1.633c0.575,0.081,1.381,0.988,2.041,2.041 M93.643,42.827l0.408-0.205 M94.051,42.213
			l-0.408-0.204 M96.093,41.806c-0.595,0.224-2.11-0.477-2.042,0.408 M96.093,41.398v0.408"/>
		<path clip-path="url(#SVGID_4_)" fill="#168140" d="M96.705,46.502c0.408-0.287,0.815-0.311,1.227-0.409"/>
	</g>
	<path fill="#168140" d="M97.93,46.093V44.46V46.093z"/>
	<path fill="#168140" d="M97.93,46.911v-0.817V46.911z"/>
	<g>
		<defs>
			<rect id="SVGID_5_" x="58.103" y="19.755" width="44.902" height="103.308"/>
		</defs>
		<clipPath id="SVGID_6_">
			<use xlink:href="#SVGID_5_"  overflow="visible"/>
		</clipPath>
		<path clip-path="url(#SVGID_6_)" fill="#168140" d="M95.685,54.055v0.409 M94.868,54.464c0.329-0.079,0.405-0.41,0.816-0.409
			 M94.662,54.669l0.206-0.205 M94.051,49.156l-0.203-0.408 M96.908,46.706c-0.277,0.41-2.266,2.044-2.04,0.408
			c-1.394,0.459,0.13,1.583-0.817,2.042 M96.705,46.502l0.203,0.204"/>
		<path clip-path="url(#SVGID_6_)" fill="#168140" d="M95.684,54.464c1.048-1.397,2.648-2.667,2.246-4.697"/>
		<path clip-path="url(#SVGID_6_)" fill="#168140" d="M95.275,56.915l-0.407-0.204 M96.092,54.464
			c-0.295,1.708,0.148,1.617-0.816,2.45 M95.684,54.464h0.408"/>
		<path clip-path="url(#SVGID_6_)" fill="#168140" d="M94.459,60.589c0.27-0.141,0.49-0.33,0.701-0.526
			c0.23,0.012,0.479,0.165,0.728,0.323"/>
		<path clip-path="url(#SVGID_6_)" fill="#168140" d="M67.1,38.131l-0.202,0.408 M64.65,37.314c0.332-0.077,0.407-0.409,0.816-0.408
			c0.15-0.694-0.318-0.771-0.816-0.816c0.158-0.909,1.236-1.088,2.042-0.408c0.19,0.16,0.136,1.178,0.407,1.225
			c1.009,0.173,0.396-1.236,1.633-0.816c-0.096,1.23-1.135,0.208-1.633,1.633v0.409 M67.509,47.931H67.1 M65.875,50.789
			c-1.218,0.487-1.387,0.113-2.449-0.409c-0.131-0.945,0.064-1.567,0.408-2.041c0.443,0.101,0.277,0.812,0.816,0.816
			c0.998-0.26,0.062-1.908-0.408-2.041c0.697-0.664,1.486-1.237,2.857-1.226c-1.617,0.862-1.016,1.416,0.409,2.042 M70.367,71.206
			l0.409,0.204 M70.776,73.248c-0.886,0.067-0.186-1.449-0.409-2.042 M71.184,73.044l-0.407,0.205 M74.857,99.381l0.479-0.067
			 M83.842,86.314c0.174,0.778,1.168,0.739,0.816,2.042c-0.548-0.269-0.76-0.874-0.816-1.634c-0.732-0.053-0.861,0.5-1.633,0.408
			c-0.883,0.75-0.859,2.408-0.817,4.084c-0.833,0.12-0.799,1.104-1.632,1.225c-0.34,3.938-1.525,5.321-1.635,7.759
			c-0.074,1.635,0.211,3.939,0.816,5.308c0.651,1.471,2.05,2.145,2.859,3.267c0.42,0.583,1.214,2.789,0.816,4.493
			c-0.025,0.11-0.816,0.798-0.816,0.816c-0.043,2.191,0.691,4.17,0.408,6.941h-3.268c-0.481-0.461-0.02-1.106,0-1.633
			c0.078-1.991-0.356-4.392,0-6.125c0.21-1.013,0.972-0.968,0.818-2.042c-0.246-1.713-3.124-3.722-3.676-6.534
			c-0.225-1.147,0.242-2.377,0-3.267c-0.164-0.596-1.046-1.148-1.227-2.042 M83.639,85.906l0.203,0.408"/>
		<path clip-path="url(#SVGID_6_)" fill="#168140" d="M69.142,43.031c0.419,0.678,1.276,0.606,1.838,1.021"/>
		<path clip-path="url(#SVGID_6_)" fill="#168140" d="M66.76,44.324c-0.016,0.051-0.029,0.102-0.045,0.153
			c0.223,1.439,1.931,1.559,2.631,2.432"/>
	</g>
	<path fill="#168140" d="M69.347,46.911h0.407H69.347z"/>
	<g>
		<defs>
			<rect id="SVGID_7_" x="58.103" y="19.755" width="44.902" height="103.308"/>
		</defs>
		<clipPath id="SVGID_8_">
			<use xlink:href="#SVGID_7_"  overflow="visible"/>
		</clipPath>
		<path clip-path="url(#SVGID_8_)" fill="#168140" d="M73.635,46.706l0.203,0.408 M69.551,46.706
			c0.644-0.718,2.188-0.536,2.857-1.225c1.198,0.46-0.674,1.173-0.814,1.632c0.1,0.443,0.81,0.278,0.814,0.817
			c0.979,0.161-0.225-1.86,1.227-1.225 M69.754,46.911l-0.203-0.204"/>
	</g>
	<path fill="#168140" d="M73.839,47.114v-1.021V47.114z"/>
	<g>
		<defs>
			<rect id="SVGID_9_" x="58.103" y="19.755" width="44.902" height="103.308"/>
		</defs>
		<clipPath id="SVGID_10_">
			<use xlink:href="#SVGID_9_"  overflow="visible"/>
		</clipPath>
		<path clip-path="url(#SVGID_10_)" fill="#168140" d="M79.351,48.338v0.409 M76.901,52.014c0.362-0.317,0.921-0.439,1.634-0.409
			c-0.763-1.417,0.207-2.161,0.815-3.267 M77.104,52.218l-0.203-0.204 M76.901,52.014l-0.204-0.205 M74.043,46.706
			c0.396,0.876-0.227,3.641,1.634,4.083c0.693,0.149,0.768-0.319,0.815-0.816c1.28,0.281,0.532,1.088,0.409,2.041 M73.838,47.115
			l0.205-0.409"/>
		<path clip-path="url(#SVGID_10_)" fill="#168140" d="M79.351,48.747c0.568-1.543-0.167-3.361,0.409-4.899"/>
		<path clip-path="url(#SVGID_10_)" fill="#168140" d="M79.351,40.172l0.204,0.205 M79.351,43.848
			c-1.526,1.322-0.364-0.954-0.409-1.226c-0.027-0.168-0.787-0.95-0.816-0.816c0.221-1,1.335-0.975,1.226-1.633 M79.76,43.848
			h-0.409"/>
		<path clip-path="url(#SVGID_10_)" fill="#168140" d="M79.555,40.377c0-0.681,0-1.361,0-2.042"/>
		<path clip-path="url(#SVGID_10_)" fill="#168140" d="M80.576,36.906l0.203,0.204 M79.76,40.172
			c1.894,0.494,1.961-1.624,0.408-1.633c0.316-0.364,0.438-0.922,0.408-1.633 M79.555,40.377l0.205-0.205"/>
		<path clip-path="url(#SVGID_10_)" fill="#168140" d="M80.779,35.885c-0.016-0.691-0.043-1.389,0.205-2.042"/>
		<path clip-path="url(#SVGID_10_)" fill="#168140" d="M79.76,31.597V31.19 M80.576,34.047c0.498-2.501-1.121-0.348-0.816-2.451
			 M80.984,33.843l-0.408,0.204"/>
		<path clip-path="url(#SVGID_10_)" fill="#168140" d="M79.76,31.19c-0.438,0.131-0.834,0.756-1.022,1.632"/>
		<path clip-path="url(#SVGID_10_)" fill="#168140" d="M74.449,35.681l0.205-0.205 M78.941,32.414c1.115,0.376-0.57,1.276,0,2.451
			c-0.441-0.102-0.275-0.812-0.815-0.817c-0.388,1.354-0.485,5.227-4.084,3.675c-0.337-1.154,0.575-1.058,0.407-2.042
			 M78.738,32.823l0.203-0.409"/>
		<path clip-path="url(#SVGID_10_)" fill="#168140" d="M74.654,35.477c-0.309-0.122-0.455-0.512-0.598-0.832
			c0.385-0.32,0.863-0.374,1.21-0.597"/>
		<path clip-path="url(#SVGID_10_)" fill="#168140" d="M67.1,48.34c-0.762,0.271,1.185,1.227,1.227,2.041
			c-0.947-0.129-1.568,0.066-2.043,0.409v0.409 M74.654,35.477l-0.205-0.204 M75.267,34.456v-0.409 M74.449,35.273
			c0.669,0.298,1.777-0.812,0.817-0.816 M75.267,34.047h-0.407"/>
		<path clip-path="url(#SVGID_10_)" fill="#168140" d="M66.08,50.994c-0.74,3.278,1.599,5.674,3.471,7.962"/>
		<path clip-path="url(#SVGID_10_)" fill="#168140" d="M69.551,58.956c0.346-1.008,0.783-1.916,1.326-2.858"/>
		<path clip-path="url(#SVGID_10_)" fill="#168140" d="M70.877,56.098c-0.382-1.661-0.657-3.736,0.512-5.105"/>
		<path clip-path="url(#SVGID_10_)" fill="#168140" d="M71.389,50.994c0.111-0.949-0.318-2.077,0.408-2.858"/>
		<path clip-path="url(#SVGID_10_)" fill="#168140" d="M69.959,47.931l0.407,0.204 M70.776,47.931v1.632
			c-0.733-0.051-0.861,0.5-1.635,0.41c0.226-0.728,0.21-1.696,0.817-2.042 M70.366,48.135l0.41-0.204 M70.776,47.931v-0.816
			 M71.185,47.931h-0.408 M71.797,48.135l-0.612-0.204"/>
		<path clip-path="url(#SVGID_10_)" fill="#168140" d="M70.367,48.135c0.06-0.421,0.253-0.724,0.408-1.021"/>
	</g>
	<path fill="#168140" d="M69.959,47.114h0.816H69.959z M69.959,47.114l-0.205-0.205L69.959,47.114z"/>
	<g>
		<defs>
			<rect id="SVGID_11_" x="58.103" y="19.755" width="44.902" height="103.308"/>
		</defs>
		<clipPath id="SVGID_12_">
			<use xlink:href="#SVGID_11_"  overflow="visible"/>
		</clipPath>
		<path clip-path="url(#SVGID_12_)" fill="#168140" d="M69.347,46.911c0.155,0.698-0.548,1.071-0.909,1.54
			c-0.496-0.124-0.975-0.312-1.338-0.519"/>
		<path clip-path="url(#SVGID_12_)" fill="#168140" d="M67.1,41.806l0.409,0.205 M66.283,42.622
			c-0.148-0.693,0.318-0.771,0.816-0.816 M67.1,38.948c-0.551,0.4-0.816,1.089-1.225,1.633 M67.1,47.931v0.409"/>
		<path clip-path="url(#SVGID_12_)" fill="#168140" d="M67.509,42.01c0.369-1.172,0.583-2.672-0.611-3.471"/>
		<path clip-path="url(#SVGID_12_)" fill="#168140" d="M67.917,42.213c0.521,1.603-1.117,1.371-1.634,0.817 M66.896,38.539
			l0.203,0.409"/>
		<path clip-path="url(#SVGID_12_)" fill="#168140" d="M66.76,44.324c1.152,0.251,1.576-0.776,2.382-1.293"/>
		<path clip-path="url(#SVGID_12_)" fill="#168140" d="M69.142,43.031c0.014-0.281-0.011-0.565-0.06-0.803
			c-0.275-0.195-0.896-0.188-1.573-0.217"/>
		<path clip-path="url(#SVGID_12_)" fill="#168140" d="M83.026,26.698h0.409 M85.476,30.781c-0.999-1.315-2.991-1.637-3.267-3.675
			c1.131,0.051,1.401,0.78,0.817-0.408 M67.509,42.01l0.409,0.204"/>
		<path clip-path="url(#SVGID_12_)" fill="#168140" d="M81.598,26.289c-0.206,1.322,0.34,2.618,0,3.878"/>
		<path clip-path="url(#SVGID_12_)" fill="#168140" d="M81.598,30.168c0.309,0.371,0.395,0.967,0.406,1.635"/>
	</g>
	<path fill="#168140" d="M82.004,31.801l0.205-0.204L82.004,31.801z M82.617,31.598h-0.408H82.617l-0.205,0.612L82.617,31.598z"/>
	<g>
		<defs>
			<rect id="SVGID_13_" x="58.103" y="19.755" width="44.902" height="103.308"/>
		</defs>
		<clipPath id="SVGID_14_">
			<use xlink:href="#SVGID_13_"  overflow="visible"/>
		</clipPath>
		<path clip-path="url(#SVGID_14_)" fill="#168140" d="M83.229,31.394c-0.261,0.123-0.497,0.505-0.817,0.816"/>
	</g>
	<path fill="#168140" d="M82.412,32.21l0.614-0.205L82.412,32.21z M83.026,32.005h0.406H83.026z M83.639,32.21l-0.206-0.205
		L83.639,32.21z"/>
	<g>
		<defs>
			<rect id="SVGID_15_" x="58.103" y="19.755" width="44.902" height="103.308"/>
		</defs>
		<clipPath id="SVGID_16_">
			<use xlink:href="#SVGID_15_"  overflow="visible"/>
		</clipPath>
		<path clip-path="url(#SVGID_16_)" fill="#168140" d="M84.047,31.802c-0.223,0.049-0.318,0.225-0.408,0.408"/>
		<path clip-path="url(#SVGID_16_)" fill="#168140" d="M84.658,36.907l0.612-0.206 M83.026,37.315
			c0.109,0.961,1.808,0.249,1.632-0.408 M82.617,37.519l0.409-0.204 M83.026,36.088l-0.409-0.203 M83.842,32.005
			c0.254,0.977,0.127,1.923,0.408,3.676c-0.941-0.811-0.453,0.103-1.224,0.407 M83.639,32.21l0.203-0.205"/>
		<path clip-path="url(#SVGID_16_)" fill="#168140" d="M85.271,36.701c-0.223-0.272-0.32-0.544-0.408-0.816"/>
		<path clip-path="url(#SVGID_16_)" fill="#168140" d="M85.476,34.455l0.612,0.204 M85.066,36.089
			c0.555-0.126,0.34-1.022,0.409-1.634 M85.271,36.701l-0.205-0.612"/>
		<path clip-path="url(#SVGID_16_)" fill="#168140" d="M86.088,34.659c-0.186-1.334-0.471-2.768-0.203-4.083"/>
		<path clip-path="url(#SVGID_16_)" fill="#168140" d="M85.885,27.922l0.408,0.204 M84.658,27.514
			c-0.076,0.331-0.409,0.408-0.408,0.816c1.022,0.051,1.279,0.78,1.635-0.408 M85.885,30.576l-0.409,0.205"/>
	</g>
	<path fill="#168140" d="M86.293,28.127v-0.816V28.127z"/>
	<g>
		<defs>
			<rect id="SVGID_17_" x="58.103" y="19.755" width="44.902" height="103.308"/>
		</defs>
		<clipPath id="SVGID_18_">
			<use xlink:href="#SVGID_17_"  overflow="visible"/>
		</clipPath>
		<path clip-path="url(#SVGID_18_)" fill="#168140" d="M85.066,27.514l0.206-0.408 M85.885,27.514
			c-0.445,0.101-0.278,0.813-0.818,0.816v-0.816 M86.293,27.31l-0.408,0.204"/>
		<path clip-path="url(#SVGID_18_)" fill="#168140" d="M85.271,27.106c-0.408-0.012-0.816,0.093-1.225,0.204"/>
	</g>
	<path fill="#168140" d="M87.518,33.231l0.408,0.204 M87.518,33.639v-0.408 M84.047,27.31l0.611,0.204"/>
	<g>
		<defs>
			<rect id="SVGID_19_" x="58.103" y="19.755" width="44.902" height="103.308"/>
		</defs>
		<clipPath id="SVGID_20_">
			<use xlink:href="#SVGID_19_"  overflow="visible"/>
		</clipPath>
		<path clip-path="url(#SVGID_20_)" fill="#168140" d="M87.926,33.435c-0.086-0.275-0.214-0.699-0.408-1.021"/>
		<path clip-path="url(#SVGID_20_)" fill="#168140" d="M87.926,34.047l0.611,0.205 M86.293,34.047
			c1.108-0.293-0.293,1.925,0.816,1.634c0.213-0.604,0.604-1.029,0.816-1.634 M86.088,34.661l0.205-0.613 M86.293,30.782
			l-0.408-0.206 M87.518,32.823c-1.809-0.007,0.518-4.315-1.225-2.041 M87.518,32.414v0.409"/>
		<path clip-path="url(#SVGID_20_)" fill="#168140" d="M88.538,34.252c-0.222-0.234-0.425-0.509-0.612-0.816"/>
		<path clip-path="url(#SVGID_20_)" fill="#168140" d="M81.801,31.597l0.203,0.205 M80.984,30.781
			c-0.448,1.697,0.691,2.835,0.816,0.816 M87.926,33.435l-0.408,0.204"/>
		<path clip-path="url(#SVGID_20_)" fill="#168140" d="M81.598,30.168c-0.766-0.053-0.934,0.274-1.227,0.817"/>
		<path clip-path="url(#SVGID_20_)" fill="#168140" d="M89.151,38.948l0.202,0.204 M91.191,35.273
			c-1.371-0.373-0.201-0.759-0.408-2.041c-2.139-0.5-1.066,1.536-1.223,2.041c-0.063,0.192-0.756,0.262-0.818,0.409
			c-0.305,0.73,0.838,1.291,0,1.633c-0.474-0.067-0.727,0.089-0.816,0.407c0.941-0.125,0.454,1.18,1.226,1.226 M87.926,33.435
			l0.408-0.203 M87.926,32.413h-0.408 M88.334,33.639c0.702-0.364,1.281-1.657-0.408-1.226 M88.539,34.252l-0.205-0.613
			 M88.334,33.639l-0.408-0.204 M88.334,33.231v0.407 M80.371,30.985l0.612-0.204"/>
	</g>
	<path fill="#168140" d="M89.354,39.152v-0.816V39.152z"/>
	<path fill="#168140" d="M88.742,40.172l-0.408-0.204 M89.559,38.948v1.225h-0.816 M89.354,39.152l0.205-0.204"/>
	<path fill="#168140" d="M87.518,42.419v-1.021V42.419z"/>
	<g>
		<defs>
			<rect id="SVGID_21_" x="58.103" y="19.755" width="44.902" height="103.308"/>
		</defs>
		<clipPath id="SVGID_22_">
			<use xlink:href="#SVGID_21_"  overflow="visible"/>
		</clipPath>
		<path clip-path="url(#SVGID_22_)" fill="#168140" d="M88.334,43.847v0.409 M87.926,42.214c0.033,0.647-0.195,1.557,0.408,1.633
			 M87.518,42.418l0.408-0.204"/>
		<path clip-path="url(#SVGID_22_)" fill="#168140" d="M88.334,44.255c2.093-0.546,2.543-3.241,3.387-6.004
			c0.275-0.903,0.721-2.618-0.529-3.387"/>
		<path clip-path="url(#SVGID_22_)" fill="#168140" d="M81.392,34.047l-0.407-0.204 M81.392,35.273
			c-0.085-0.698,0.696-1.058,0-1.225 M91.191,34.864v0.409"/>
		<path clip-path="url(#SVGID_22_)" fill="#168140" d="M80.779,35.885c0.539,0.058,0.782-0.378,1.225-0.817"/>
		<path clip-path="url(#SVGID_22_)" fill="#168140" d="M82.209,37.315l0.408,0.204 M80.984,36.907
			c0.658-0.116,0.702,0.386,1.225,0.408 M82.004,35.068l-0.612,0.205"/>
	</g>
	<path fill="#168140" d="M82.617,37.518v-1.632V37.518z"/>
	<g>
		<defs>
			<rect id="SVGID_23_" x="58.103" y="19.755" width="44.902" height="103.308"/>
		</defs>
		<clipPath id="SVGID_24_">
			<use xlink:href="#SVGID_23_"  overflow="visible"/>
		</clipPath>
		<path clip-path="url(#SVGID_24_)" fill="#168140" d="M81.801,35.681l0.205-0.612 M82.209,36.089
			c0.074-0.348-0.16-0.384-0.408-0.408 M82.617,35.885l-0.408,0.204"/>
		<path clip-path="url(#SVGID_24_)" fill="#168140" d="M80.779,35.885c-0.065,0.242,0.004,0.733,0,1.225"/>
		<path clip-path="url(#SVGID_24_)" fill="#168140" d="M87.109,40.989l-0.205,0.204 M87.926,40.172
			c-0.012-0.396-0.501-0.318-0.816-0.408v1.225 M85.066,37.722c0.587,0.503,0.773,1.404,0.818,2.451
			c-0.695-0.15-0.772,0.318-0.818,0.816C84.697,40.394,84.455,38.856,85.066,37.722 M80.779,37.11l0.205-0.204"/>
		<path clip-path="url(#SVGID_24_)" fill="#168140" d="M86.904,41.193c0.248,0.025,0.433,0.113,0.613,0.205"/>
		<path clip-path="url(#SVGID_24_)" fill="#168140" d="M87.518,41.398c0.235-0.511,0.74-0.842,0.816-1.429"/>
		<path clip-path="url(#SVGID_24_)" fill="#168140" d="M83.025,48.34l-0.408,0.408 M82.617,47.523
			c0.076,0.332,0.41,0.406,0.408,0.817 M82.209,47.727l0.408-0.204 M83.025,47.114l-0.613-0.205 M82.617,45.889
			c0.479,0.066,0.346,0.745,0.408,1.225 M82.412,46.502l0.205-0.613 M82.617,44.665l-0.408-0.205 M83.433,45.889
			c-1.553-0.676,1.052-2.685,0-2.858c-0.211,0.604-0.604,1.028-0.815,1.634 M86.904,41.193l0.205,0.205 M87.109,42.214l0.408,0.205
			 M87.109,41.398h-0.816c0.014,3.645,0.049,2.953,0.816,0.817 M80.576,41.806C81.671,38.52,79.695,44.448,80.576,41.806
			 M88.334,39.968l-0.408,0.204"/>
	</g>
	<path fill="#168140" d="M82.617,48.748h1.531H82.617z"/>
	<path fill="#168140" d="M84.148,48.747l-0.716-0.407L84.148,48.747z M83.433,48.34v-0.409V48.34z M83.639,48.135l-0.206-0.204
		L83.639,48.135z"/>
	<g>
		<defs>
			<rect id="SVGID_25_" x="58.103" y="19.755" width="44.902" height="103.308"/>
		</defs>
		<clipPath id="SVGID_26_">
			<use xlink:href="#SVGID_25_"  overflow="visible"/>
		</clipPath>
		<path clip-path="url(#SVGID_26_)" fill="#168140" d="M83.639,48.135c-0.1-0.875,0.221-1.849-0.203-2.655"/>
		<path clip-path="url(#SVGID_26_)" fill="#168140" d="M81.801,47.523l0.408,0.204 M82.209,49.156
			c-1.047,0.122-2.871-1.83-0.408-1.633 M83.434,45.481v0.408"/>
		<path clip-path="url(#SVGID_26_)" fill="#168140" d="M82.209,47.727c0.023-0.272,0.111-0.544,0.204-0.816"/>
	</g>
	<path fill="#168140" d="M82.412,46.911l-0.611-0.204L82.412,46.911z M81.801,46.706l0.611-0.205L81.801,46.706z"/>
	<g>
		<defs>
			<rect id="SVGID_27_" x="58.103" y="19.755" width="44.902" height="103.308"/>
		</defs>
		<clipPath id="SVGID_28_">
			<use xlink:href="#SVGID_27_"  overflow="visible"/>
		</clipPath>
		<path clip-path="url(#SVGID_28_)" fill="#168140" d="M82.412,46.502c-0.221-0.681-0.182-1.361-0.203-2.042"/>
		<path clip-path="url(#SVGID_28_)" fill="#168140" d="M80.167,54.056l-0.407-0.205 M79.76,48.747v2.45
			c0.76,0.392,1.365-1.222,1.633,0c-0.543,0.411-1.52,0.388-1.633,1.226c1.019-0.051,1.277-0.78,1.633,0.408
			c-1.062-0.245-1.471,0.163-1.226,1.225 M79.351,48.747h0.409 M79.76,44.255v-0.407 M81.801,44.255
			c-0.949-0.357-1.093-0.357-2.041,0 M82.209,44.46l-0.408-0.205"/>
		<path clip-path="url(#SVGID_28_)" fill="#168140" d="M79.76,53.852c0.173,0.387,0.582,0.569,1.019,0.816"/>
	</g>
	<path fill="#168140" d="M80.779,54.668l-0.205-0.612L80.779,54.668z M80.779,54.668l-0.205-0.612L80.779,54.668z"/>
	<g>
		<defs>
			<rect id="SVGID_29_" x="58.103" y="19.755" width="44.902" height="103.308"/>
		</defs>
		<clipPath id="SVGID_30_">
			<use xlink:href="#SVGID_29_"  overflow="visible"/>
		</clipPath>
		<path clip-path="url(#SVGID_30_)" fill="#168140" d="M80.779,54.668c0.643-0.343,1.164,0.05,1.633,0.204"/>
		<path clip-path="url(#SVGID_30_)" fill="#168140" d="M71.592,48.747l0.205-0.612 M72.001,50.38
			c-0.035-0.646,0.196-1.558-0.409-1.633 M83.639,48.135l0.205-0.204 M83.844,45.481h-0.411 M83.844,47.931
			c0.668,0.066,0.668-2.518,0-2.45 M82.617,48.747l-0.408,0.409 M82.617,52.014l0.408,0.204 M82.209,54.464
			c0.902-0.05,0.174-1.733,0.408-2.45 M82.412,54.872l-0.203-0.408"/>
		<path clip-path="url(#SVGID_30_)" fill="#168140" d="M71.389,50.994c0.682-0.094,0.881-0.412,1.02-0.816"/>
		<path clip-path="url(#SVGID_30_)" fill="#168140" d="M83.436,49.156l0.713-0.408 M83.436,52.015c1.208-0.594-0.54-1.594,0-2.859
			 M72.408,50.176L72,50.38"/>
		<path clip-path="url(#SVGID_30_)" fill="#168140" d="M82.617,48.747c-0.105,1.205,0.024,2.338,0.409,3.471"/>
		<path clip-path="url(#SVGID_30_)" fill="#168140" d="M73.635,63.448l0.407,0.205 M71.184,63.039
			c1.495-1.075,2.418-0.994,2.451,0.409 M83.026,52.218l0.407-0.204"/>
		<path clip-path="url(#SVGID_30_)" fill="#168140" d="M74.042,63.652c0.071-0.379,0.199-0.893,0.204-1.634"/>
		<path clip-path="url(#SVGID_30_)" fill="#168140" d="M74.042,66.306l-0.407-0.204 M74.451,63.448
			c0.54,1.215,0.419,2.072-0.409,2.858 M74.042,63.652l0.409-0.205"/>
		<path clip-path="url(#SVGID_30_)" fill="#168140" d="M73.838,67.327c0.317-0.293-0.073-0.808-0.203-1.226"/>
	</g>
	<path fill="#168140" d="M72.816,66.306h0.409H72.816z M72.816,66.306l0.206-0.204L72.816,66.306z M73.226,66.306l0.409-0.204
		L73.226,66.306z"/>
	<g>
		<defs>
			<rect id="SVGID_31_" x="58.103" y="19.755" width="44.902" height="103.308"/>
		</defs>
		<clipPath id="SVGID_32_">
			<use xlink:href="#SVGID_31_"  overflow="visible"/>
		</clipPath>
		<path clip-path="url(#SVGID_32_)" fill="#168140" d="M70.57,67.122c1.076,1.636,3.151,2.048,4.764,2.79"/>
		<path clip-path="url(#SVGID_32_)" fill="#168140" d="M75.336,69.913c0.385,0.074,1.117,0.062,1.769,0.069"/>
		<path clip-path="url(#SVGID_32_)" fill="#168140" d="M77.104,69.98c0.272-0.128,0.544-0.234,0.817-0.34"/>
		<path clip-path="url(#SVGID_32_)" fill="#168140" d="M77.922,69.641c1.092-5.409-3.227-10.134-0.817-15.381"/>
		<path clip-path="url(#SVGID_32_)" fill="#168140" d="M74.043,54.056l0.408,0.204 M74.857,54.056
			c-0.223,0.905,0.781,0.582,0.818,1.225c-1.045-0.018-0.498,0.304-0.409,0.817c-1.829,0.805-0.576-0.946-2.041-0.817
			c0.588-0.091,0.142-1.219,0.817-1.225 M74.451,54.26l0.406-0.204 M75.267,53.24l-0.612-0.204 M75.267,52.831v0.409 M74.654,52.627
			l0.612,0.204 M76.084,52.014l-0.205-0.613 M76.492,52.014h-0.408 M76.697,51.81l-0.205,0.205 M77.104,52.218
			c-0.224-0.049-0.317-0.226-0.407-0.409 M76.901,52.421l0.203-0.203 M76.901,54.464c0.241-1.303-0.768-1.262,0-2.042 M77.104,54.26
			l-0.203,0.204"/>
		<path clip-path="url(#SVGID_32_)" fill="#168140" d="M74.451,54.26c0.072-0.409,0.158-0.817,0.203-1.225"/>
		<path clip-path="url(#SVGID_32_)" fill="#168140" d="M74.857,52.015l-0.203,0.612 M74.043,53.239
			c-0.397-0.011-0.318-0.499-0.408-0.816c0.33-0.078,0.406-0.41,0.816-0.408h0.406 M74.654,53.036l-0.611,0.203"/>
		<path clip-path="url(#SVGID_32_)" fill="#168140" d="M74.654,52.627c0.347,0.025,0.7-0.022,1.059-0.123
			c0.111-0.448,0.12-0.75,0.166-1.104"/>
		<path clip-path="url(#SVGID_32_)" fill="#168140" d="M72.816,50.381l-0.408-0.204 M75.676,52.014
			c-0.396-0.011-0.318-0.5-0.409-0.816c-2.073,0.759-0.089-0.311-1.634-0.817c-0.18,0.593-0.357-0.042-0.816,0 M75.879,51.402
			l-0.203,0.612"/>
		<path clip-path="url(#SVGID_32_)" fill="#168140" d="M70.877,56.098c0.264,0.072,0.58,0.158,0.92,0.203"/>
	</g>
	<path fill="#168140" d="M69.551,60.59v-1.635V60.59z"/>
	<g>
		<defs>
			<rect id="SVGID_33_" x="58.103" y="19.755" width="44.902" height="103.308"/>
		</defs>
		<clipPath id="SVGID_34_">
			<use xlink:href="#SVGID_33_"  overflow="visible"/>
		</clipPath>
		<path clip-path="url(#SVGID_34_)" fill="#168140" d="M69.551,60.589c0.183,0.089,0.346,0.198,0.509,0.309
			c0.013,0.907,0.617,1.563,0.921,2.346"/>
		<path clip-path="url(#SVGID_34_)" fill="#168140" d="M79.76,66.715l0.203,0.612 M79.76,68.348c-0.662,0.292-0.662-1.925,0-1.633
			 M70.979,63.244l0.204-0.205"/>
		<path clip-path="url(#SVGID_34_)" fill="#168140" d="M79.963,67.327c0.111-0.272,0.159-0.545,0.204-0.816"/>
		<path clip-path="url(#SVGID_34_)" fill="#168140" d="M77.309,54.464l-0.204-0.204 M79.351,54.056
			c-0.331-0.078-0.406-0.411-0.815-0.409c0.111,0.931-0.1,1.535-0.819,1.633c0.067-0.474-0.089-0.727-0.407-0.816 M79.76,53.852
			l-0.409,0.205 M80.168,54.872l0.611-0.204 M80.576,55.281c-0.348,0.076-0.385-0.16-0.408-0.409 M80.779,54.668l-0.203,0.613
			 M81.393,56.915l0.205,0.204 M79.76,66.715c-0.191-2.593,2.725-5.993,0.408-6.534c0.347-1.15,1.32-1.675,1.225-3.267
			 M80.168,66.51l-0.408,0.204"/>
		<path clip-path="url(#SVGID_34_)" fill="#168140" d="M77.922,69.641c0.271,0.075,0.544,0.106,0.816,0.136"/>
		<path clip-path="url(#SVGID_34_)" fill="#168140" d="M78.738,69.777c0.59-0.271,1.063-0.569,1.429-0.715"/>
		<path clip-path="url(#SVGID_34_)" fill="#168140" d="M80.168,69.063c0.012-0.48-0.094-0.895-0.205-1.327"/>
		<path clip-path="url(#SVGID_34_)" fill="#168140" d="M82.617,55.281l-0.204-0.408 M81.801,56.915h0.408
			c-0.052-0.733,0.5-0.861,0.408-1.634 M79.963,67.735l-0.203,0.612"/>
		<path clip-path="url(#SVGID_34_)" fill="#168140" d="M80.779,54.668c0.128,0.874,0.584,1.628,0.816,2.451"/>
		<path clip-path="url(#SVGID_34_)" fill="#168140" d="M85.066,65.49v0.408 M84.251,63.855c-0.298,1.115,0.812,0.823,0.815,1.634
			 M83.842,64.06l0.409-0.204 M84.251,62.223l-0.409-0.205 M84.658,61.814c-0.347-0.075-0.385,0.159-0.407,0.409 M81.801,58.956
			c0.617-1.442,0.775,0.751,0.408,0.816C81.967,59.815,81.697,59.2,81.801,58.956 M81.598,57.119l0.203-0.204"/>
		<path clip-path="url(#SVGID_34_)" fill="#168140" d="M87.313,66.919c-0.743-0.191-1.212-1.582-2.247-1.021"/>
		<path clip-path="url(#SVGID_34_)" fill="#168140" d="M83.434,70.389l-1.225-0.409 M85.476,65.897
			c-0.534,0.908-0.56,1.492-0.817,2.042c0.629-1.339-2.007,1.418-0.407,2.041c0.007-0.638,1.282-0.148,1.225,0
			c-0.167,0.425-1.141,1.178-2.042,0.409 M85.066,65.897h0.409"/>
		<path clip-path="url(#SVGID_34_)" fill="#168140" d="M82.209,69.98c0.383,0.929,0.431,1.587,0.554,1.925"/>
		<path clip-path="url(#SVGID_34_)" fill="#168140" d="M83.842,85.498l-0.203,0.408 M82.209,83.864
			c-0.145,0.537-0.719,0.642-0.816,1.225c0.962-0.009,1.202,0.704,2.449,0.408 M81.732,83.797l0.477,0.067 M82.617,81.414h-0.408
			 M84.658,74.064c1.621,2.9-1.664,5.121-2.449,6.941c0.082-0.188,0.589,0.247,0.408,0.408 M84.251,74.269l0.407-0.204
			 M84.658,73.656l-0.611-0.204 M84.251,72.84c0.397,0.011,0.315,0.5,0.407,0.816 M84.047,73.452l0.204-0.612 M84.251,72.431
			l-0.476,0.068 M83.434,71.206c0.382,0.3,0.619,0.743,0.817,1.225 M82.763,71.906l0.671-0.7"/>
		<path clip-path="url(#SVGID_34_)" fill="#168140" d="M83.639,85.906c5.656,0.497,5.377-3.739,8.982-4.696"/>
		<path clip-path="url(#SVGID_34_)" fill="#168140" d="M92.621,81.21c-0.222-0.662-0.182-1.545-0.203-2.144"/>
		<path clip-path="url(#SVGID_34_)" fill="#168140" d="M92.418,79.066c-0.479,0.396-1.397,0.271-1.635,0.919"/>
		<path clip-path="url(#SVGID_34_)" fill="#168140" d="M94.868,76.106c-0.925-3.302,0.909-6.956,0-10.412"/>
		<path clip-path="url(#SVGID_34_)" fill="#168140" d="M94.868,65.693c-1.04-0.041-2.222-1.904-1.124-2.552"/>
		<path clip-path="url(#SVGID_34_)" fill="#168140" d="M93.744,63.141c0.734-0.701,0.27-1.757,0.715-2.552"/>
		<path clip-path="url(#SVGID_34_)" fill="#168140" d="M94.459,60.589c-0.151-0.393-0.211-0.877-0.408-1.224"/>
		<path clip-path="url(#SVGID_34_)" fill="#168140" d="M94.051,59.364c-3.092,1.054-6.133,3.209-9.596,2.247"/>
		<path clip-path="url(#SVGID_34_)" fill="#168140" d="M92.621,81.21c1.479-0.695,2.697-2.103,3.05-3.64
			c-0.263-0.516-0.329-0.882-0.803-1.464"/>
		<path clip-path="url(#SVGID_34_)" fill="#168140" d="M94.868,76.106c-1.025,0.841-1.7,1.909-2.451,2.96"/>
		<path clip-path="url(#SVGID_34_)" fill="#168140" d="M94.868,65.693c0.151-0.993-0.153-2.103-1.124-2.552"/>
		<path clip-path="url(#SVGID_34_)" fill="#168140" d="M70.776,63.039l0.203,0.205 M70.776,65.081c-0.768-0.78,0.241-0.74,0-2.042"
			/>
		<path clip-path="url(#SVGID_34_)" fill="#168140" d="M69.551,60.589c-0.234,2.118-0.202,4.547,0.476,6.602"/>
		<path clip-path="url(#SVGID_34_)" fill="#168140" d="M70.026,67.19c0.124-0.036,0.333-0.053,0.545-0.068"/>
		<path clip-path="url(#SVGID_34_)" fill="#168140" d="M70.57,67.122c-0.012-0.563,0.094-0.879,0.206-1.225"/>
		<path clip-path="url(#SVGID_34_)" fill="#168140" d="M70.776,65.897c0.143-0.265,0.155-0.661,0.203-1.021"/>
		<path clip-path="url(#SVGID_34_)" fill="#168140" d="M83.436,63.856l0.406,0.205 M83.436,61.814c-0.871,0.054-1.34,3.362,0,2.042
			 M70.979,64.877l-0.203,0.204"/>
	</g>
	<path fill="#168140" d="M83.842,64.061v-2.042V64.061z"/>
	<g>
		<defs>
			<rect id="SVGID_35_" x="58.103" y="19.755" width="44.902" height="103.308"/>
		</defs>
		<clipPath id="SVGID_36_">
			<use xlink:href="#SVGID_35_"  overflow="visible"/>
		</clipPath>
		<path clip-path="url(#SVGID_36_)" fill="#168140" d="M71.184,65.081l-0.204-0.204 M72.816,65.897v-0.409
			c-0.73,0.052-0.861-0.5-1.633-0.407 M83.842,62.019l-0.406-0.204"/>
		<path clip-path="url(#SVGID_36_)" fill="#168140" d="M70.776,65.897c0.676,0.369,1.507,0.131,2.245,0.205"/>
		<path clip-path="url(#SVGID_36_)" fill="#168140" d="M71.592,73.248l-0.408-0.205 M71.184,71.206
			c0.769,0.679,1.785,1.358,0.408,2.041 M79.963,67.328l0.613,0.202 M80.576,66.714l-0.409-0.205 M80.576,68.756
			c0.666,0.185,0.666-2.226,0-2.042 M80.167,69.063l0.409-0.307 M80.576,67.939l-0.613-0.204 M80.576,67.53v0.41 M73.021,66.102
			l-0.205-0.205"/>
		<path clip-path="url(#SVGID_36_)" fill="#168140" d="M71.184,73.043c-0.918,2.334,1.135,3.91,1.531,6.023"/>
		<path clip-path="url(#SVGID_36_)" fill="#168140" d="M72.715,79.066c0.563,0.669,0.817,1.711,1.939,1.736"/>
		<path clip-path="url(#SVGID_36_)" fill="#168140" d="M74.654,80.802c0.293-0.42,0.445-0.585,0.569-0.823
			c-0.044-0.188-0.124-0.496-0.16-0.811"/>
		<path clip-path="url(#SVGID_36_)" fill="#168140" d="M74.654,80.802c0.303,0.595,0.94,0.68,1.906,0.817"/>
		<path clip-path="url(#SVGID_36_)" fill="#168140" d="M76.561,81.619c0.293-0.872,0.438-1.407,0.545-2.042"/>
		<path clip-path="url(#SVGID_36_)" fill="#168140" d="M76.561,81.619c0.281,0.367,0.591,0.647,0.815,0.952"/>
		<path clip-path="url(#SVGID_36_)" fill="#168140" d="M80.576,79.781l0.203-0.408 M77.716,82.231c1.31-0.19,1.441-1.556,2.86-1.634
			v-0.817 M77.377,82.571l0.339-0.34"/>
		<path clip-path="url(#SVGID_36_)" fill="#168140" d="M80.779,79.372c-1.227-0.703-2.18-2.003-1.838-3.47"/>
		<path clip-path="url(#SVGID_36_)" fill="#168140" d="M78.533,72.84l0.307-0.409 M78.533,76.105
			c-0.045-2.17-0.078-0.328-1.225-0.408c0.574-0.787,1.08-1.643,1.225-2.858 M78.941,75.902l-0.408,0.203"/>
		<path clip-path="url(#SVGID_36_)" fill="#168140" d="M75.336,69.913c-0.24,0.494-0.873,0.867-1.293,1.294"/>
		<path clip-path="url(#SVGID_36_)" fill="#168140" d="M74.042,70.798v0.408 M74.451,71.206c0.588,0.229,0.997,0.637,1.225,1.225
			c-1.519-0.431-0.801,1.377-1.634,1.633c-1.205,0.008-1.205-3.273,0-3.267 M74.042,71.206h0.409"/>
		<path clip-path="url(#SVGID_36_)" fill="#168140" d="M70.026,67.19c-0.233,1.466,0.802,2.742,0.75,4.221"/>
		<path clip-path="url(#SVGID_36_)" fill="#168140" d="M79.351,72.431l-0.204,0.612 M78.84,72.431h0.511 M80.168,69.572v-0.51
			 M80.983,70.39c-0.363-0.183-0.729-0.36-0.815-0.818 M70.776,71.411l0.407-0.204"/>
		<path clip-path="url(#SVGID_36_)" fill="#168140" d="M79.146,73.043c0.512-0.367,1.123-0.352,1.838-0.408"/>
		<path clip-path="url(#SVGID_36_)" fill="#168140" d="M80.984,72.635c-0.293-1.127,0.445-1.956,1.225-2.655"/>
		<path clip-path="url(#SVGID_36_)" fill="#168140" d="M78.84,72.431c0.139-0.863,0.223-1.82-0.102-2.654"/>
		<path clip-path="url(#SVGID_36_)" fill="#168140" d="M77.104,69.98c-0.042,0.831,0.333,1.646,0.629,2.369
			c0.249,0.056,0.694,0.063,1.106,0.082"/>
		<path clip-path="url(#SVGID_36_)" fill="#168140" d="M81.801,72.023l0.962-0.118 M81.392,73.656
			c0.554-0.127,0.339-1.023,0.409-1.633"/>
		<path clip-path="url(#SVGID_36_)" fill="#168140" d="M80.984,72.635c-0.033,0.544,0.035,1.088,0.204,1.634"/>
	</g>
	<path fill="#168140" d="M79.76,74.064l-0.75,0.204 M79.76,73.248v0.816 M81.188,74.269l0.203-0.613"/>
	<path fill="#168140" d="M79.01,74.269h1.361H79.01z"/>
	<g>
		<defs>
			<rect id="SVGID_37_" x="58.103" y="19.755" width="44.902" height="103.308"/>
		</defs>
		<clipPath id="SVGID_38_">
			<use xlink:href="#SVGID_37_"  overflow="visible"/>
		</clipPath>
		<path clip-path="url(#SVGID_38_)" fill="#168140" d="M83.842,74.064l0.408,0.204 M83.436,72.84h-0.409
			c0.089,1.493,0.56,1.566,0,2.858c1.228,0.412,0.724-0.909,0.815-1.633 M79.146,73.043l0.614,0.205 M80.576,74.064l0.612,0.204
			 M80.168,74.064h0.408 M80.371,74.269l-0.203-0.204"/>
		<path clip-path="url(#SVGID_38_)" fill="#168140" d="M84.25,74.269c-0.023-0.273-0.111-0.545-0.203-0.816"/>
		<path clip-path="url(#SVGID_38_)" fill="#168140" d="M83.436,73.248l0.611,0.204 M83.842,74.063
			c-0.396-0.011-0.317-0.499-0.406-0.816 M84.047,73.452l-0.205,0.612"/>
		<path clip-path="url(#SVGID_38_)" fill="#168140" d="M84.047,73.452c-0.14-0.424-0.188-0.691-0.273-0.952"/>
		<path clip-path="url(#SVGID_38_)" fill="#168140" d="M76.9,82.641l0.476-0.069 M75.676,98.974
			c1.182,0.419,0.847-1.819,1.225-3.267c0.212-0.813,0.756-1.726,0.816-2.451c0.205-2.413-0.777-4.678-0.406-6.941
			c0.158-0.978,1.195-1.492,0.815-2.449c-1.099,0.28-0.79-0.845-1.226-1.225 M79.01,74.269l0.748,0.204 M80.576,74.473l-0.205-0.204
			 M80.576,78.964c2.452-0.597,0.439-3.236,0-4.491 M80.779,79.373l-0.203-0.409 M79.351,76.106l-0.409-0.205 M79.758,74.473
			c0.291,0.301,1.018,1.999-0.407,1.633 M83.773,72.499l-0.338,0.34"/>
		<path clip-path="url(#SVGID_38_)" fill="#168140" d="M72.715,79.066c-3.256,5.192-0.576,11.955,2.57,16.676
			c-0.234,0.81-1.156,0.665-1.565,1.31c-0.098,0.267-0.063,0.552-0.067,0.834c0.125,0.184,0.307,0.377,0.452,0.561
			c0.531,0.064,0.95,0.422,1.231,0.867"/>
		<path clip-path="url(#SVGID_38_)" fill="#168140" d="M81.392,83.456l0.341,0.34 M81.801,81.414h-0.409
			c-0.233,0.248-0.954,1.938,0,2.042 M75.336,99.313l0.34-0.34"/>
		<path clip-path="url(#SVGID_38_)" fill="#168140" d="M81.732,83.796c0.255-0.779,0.656-1.475,0.477-2.382"/>
		<path clip-path="url(#SVGID_38_)" fill="#168140" d="M93.233,51.606c0.747,0.253-0.704,1.705-1.633,1.632
			C91.641,52.19,93.195,52.656,93.233,51.606 M78.125,48.34c1.252,0.4-0.469,1.089-0.409,1.632
			C76.752,49.858,78.185,48.882,78.125,48.34 M90.375,26.289c0.813,0.006,0.521,1.114,1.635,0.817
			c-0.132,1.613-1.264-0.303-1.635,0.816C89.322,27.825,90.938,27.22,90.375,26.289 M91.191,25.472
			c0.723,0.368,1.193,0.986,2.042,1.226C93.197,27.226,90.799,26.721,91.191,25.472 M87.518,52.014
			C85.59,51.376,86.974,49.991,87.518,52.014 M79.76,86.724c1.226-0.413,0.723,0.908,0.814,1.632
			C80.027,88.088,79.814,87.483,79.76,86.724 M82.209,81.414h-0.408"/>
		<path clip-path="url(#SVGID_38_)" fill="#168140" d="M86.904,69.777c0.148-0.273,0.398-0.409,0.545-0.622
			c0.08-0.299-0.084-0.828-0.545-1.011"/>
		<path clip-path="url(#SVGID_38_)" fill="#168140" d="M92.621,71.818c-0.741-0.624-1.987-0.754-2.449-1.632"/>
		<path clip-path="url(#SVGID_38_)" fill="#168140" d="M95.685,82.641c-0.111,1.431-1.809-0.739-1.634,0.407
			C92.842,82.556,95.322,81.743,95.685,82.641 M90.375,78.147C91.407,79.247,88.427,79.743,90.375,78.147"/>
		<path clip-path="url(#SVGID_38_)" fill="#168140" d="M94.663,86.519c0.316-0.436,0.282-0.79,0.268-1.095
			c-0.337-0.064-0.521-0.288-0.675-0.538"/>
		<path clip-path="url(#SVGID_38_)" fill="#168140" d="M60.144,121.023h18.37h3.062h19.39c0,0,2.041,0,2.041,2.04H58.104
			C58.104,123.063,59.124,121.023,60.144,121.023"/>
	</g>
</g>
</svg>
