<?xml version="1.0" encoding="utf-8"?>
<!-- Generator: Adobe Illustrator 17.0.0, SVG Export Plug-In . SVG Version: 6.00 Build 0)  -->
<!DOCTYPE svg PUBLIC "-//W3C//DTD SVG 1.1//EN" "http://www.w3.org/Graphics/SVG/1.1/DTD/svg11.dtd">
<svg version="1.1" id="Layer_1" xmlns="http://www.w3.org/2000/svg" xmlns:xlink="http://www.w3.org/1999/xlink" x="0px" y="0px"
	 width="155px" height="155px" viewBox="0 0 155 155" enable-background="new 0 0 155 155" xml:space="preserve">
<polygon fill="#651D26" points="0,129.125 0,145.688 0.938,147.375 2.75,150.125 6.438,153.625 9,155 144.813,155 147.875,154 
	150.688,151.25 153.061,148.562 155,145.688 155,129.125 "/>
<text transform="matrix(1 0 0 1 12.104 146.4063)" fill="#FFFFFF" font-family="'ArialMT'" font-size="18">bambuși</text>
<g>
	<defs>
		<rect id="SVGID_1_" x="47.131" y="16.722" width="72.304" height="106.34"/>
	</defs>
	<clipPath id="SVGID_2_">
		<use xlink:href="#SVGID_1_"  overflow="visible"/>
	</clipPath>
	<path clip-path="url(#SVGID_2_)" fill="#038141" d="M79.632,119.066c-0.068-2.403-1.195-3.662-0.73-6.142
		c-0.835-0.202-1.176-0.908-2.191-0.93C76.999,115.051,78.901,116.462,79.632,119.066 M74.884,111.995
		c-0.019-0.849-0.96-0.758-1.095-1.488c0.23,0.042,0.374,0.29,0.365-0.186c-0.841-1.065-1.035-2.791-2.556-3.165
		C72.073,109.401,73.035,111.152,74.884,111.995 M71.416,109.576c-1.04-0.492-1.492-2.57-2.739-2.233
		C69.686,107.868,70.411,109.668,71.416,109.576 M67.764,106.599c-0.5-0.348-2.589-0.888-2.556-0.557
		C66.11,106.057,66.931,107.132,67.764,106.599 M92.23,107.156c1.292-0.074,2.764-2.555,1.096-3.349
		C93.123,105.091,92.289,105.729,92.23,107.156 M72.876,107.156c0.927,0.138,0.979,2.538,2.008,3.165
		c-0.621-2.658,0.179-6.976-0.364-9.304C74.498,103.601,73.278,104.961,72.876,107.156 M76.71,109.576
		c0.629,0.081,1.023-0.072,1.461-0.186c0.149-3.385-1.189-6.847-2.009-9.862C75.566,102.952,76.724,106.133,76.71,109.576
		 M77.26,98.784c0.59,1.535,0.646,2.626,1.095,4.093c0.006-1.855,0.729-3.969,0.547-5.396C78.459,98.021,77.637,98.179,77.26,98.784
		 M95.152,104.738c0.154-3.085,1.824-6.552,1.46-8.932C96.075,98.925,92.991,101.533,95.152,104.738 M80.545,96.364
		c-0.523,4.018,0.623,6.921,0.365,11.164c0.24-0.926,0.662-4.21,0-5.581c0.66-1.374,0.252-3.838,0.365-5.769
		c-0.242-0.002-0.166-0.326-0.365-0.372C80.821,96.026,80.715,96.228,80.545,96.364 M87.848,102.505
		c-1.742-1.014-1.936-3.608-3.65-4.651c-1.723,0.946-1.537,2.899-1.461,4.467c0.108,2.16-1.312,4.692-0.73,6.884
		c1.422,0.848,4.135,1.367,4.564,2.606c-1.65,0.044-3.203-0.92-4.748-0.373c0.654,1.232,2.056,1.631,3.105,2.419
		c1.076,0.809,2.063,1.816,3.287,2.419c0.528-4.024,3.32-7.995,1.459-11.723c0.426,0.125,0.488,0.618,0.913,0.744
		c0.101-0.271-0.214-0.962,0.183-0.931c0.156,0.938,0.989,0.083,1.096,0.931c1.598-1.811-0.004-6.894-1.096-6.326
		c-0.775-2.001-2.907-2.62-4.93-3.352C86.812,97.607,87.546,99.835,87.848,102.505 M72.876,102.692
		c0.906-1.76,3.051-5.32,1.095-7.63C73.452,97.324,72.356,99.989,72.876,102.692 M76.71,96.736c0.983-0.361,1.752-0.942,2.008-2.046
		C76.844,93.784,75.412,95.243,76.71,96.736 M93.874,99.9c0.349-1.257,0.069-3.154,0.365-4.466c0.442,0.815,0.808-0.34,1.095,0
		c0.242,0.577-0.54,1.032,0,1.302c0.232-0.693,0.902-0.941,0.73-2.046c-1.768-0.494-2.824-1.713-4.564-2.233
		c0.308,1.175,1.379,1.571,1.645,2.791c-1.332-0.317-2.135-1.176-3.289-1.674c0.232,1.139,0.896,2.724,1.645,2.232
		c-0.229,1.291,1.53,1.537,1.277,2.233c-0.547-0.072-1.365-0.827-1.642-0.559C92.184,98.149,92.674,99.388,93.874,99.9
		 M76.528,93.388c0.872-0.351,2.593,0.161,2.373-1.303C77.662,92.062,77.027,92.656,76.528,93.388 M84.379,93.388
		c1.123,0.219,2.041,0.65,3.287,0.744v-1.675C86.608,91.252,84.916,92.418,84.379,93.388 M81.093,93.016
		c-0.316-0.957,0.574-2.413-0.183-2.605C80.705,90.936,79.994,92.887,81.093,93.016 M76.163,89.107c0.095,1.041,2.423,0.966,2.556,0
		C77.936,89.085,76.844,88.645,76.163,89.107 M74.338,90.038c0.548-0.018,0.595-1.708-0.184-1.489
		C73.674,88.637,73.509,90.208,74.338,90.038 M84.014,88.177c-0.533-1.131-1.797-1.517-2.921-2.047
		C80.254,87.881,82.365,88.946,84.014,88.177 M100.082,85.943c0.473-0.515,0.93-2.022,0.547-2.791
		C99.85,83.355,99.647,85.122,100.082,85.943 M82.554,85.943c-0.384-1.47-1.028-2.673-2.009-3.535
		C80.381,84.437,80.817,85.854,82.554,85.943 M69.225,84.083c-0.182-0.743-0.407-1.445-0.73-2.046h-0.548
		C67.79,83.313,68.642,83.561,69.225,84.083 M72.694,87.806c-0.621-2.531-1.049-6.25-3.834-5.955
		C69.837,84.142,71.383,85.854,72.694,87.806 M76.163,87.247h2.556c-0.143-1.387,0.257-2.219,0.183-3.536
		c-0.69-0.972-1.775-1.538-2.738-2.232C76.264,83.7,75.865,85.281,76.163,87.247 M59.73,82.408c0.141,0.042,0.36,0.006,0.364,0.187
		c0.719-0.198,1.113-0.729,1.28-1.488C60.556,81.266,59.632,81.317,59.73,82.408 M103.732,83.711
		c1.361,0.147,2.005-0.439,2.922-0.744c-0.104-1.01-0.658-1.563-1.277-2.047c0.007,0.813,0.066,1.682-0.365,2.047
		c-0.66-0.567-0.769-1.698-1.461-2.232C102.957,81.562,103.377,82.84,103.732,83.711 M67.581,81.293
		c0.268-0.782-0.466-1.494-0.73-1.117C67.26,80.379,67.172,81.09,67.581,81.293 M72.512,80.176
		c-0.321-0.666-0.664-1.308-1.096-1.862c-0.589,3.082,1.318,4.611,2.009,5.769c-0.382-0.106-0.522-0.461-1.096-0.372
		c0.622,1.289,0.4,3.438,1.642,4.095c1.797-1.57-0.141-5.703,0.549-8.003c-0.527-0.704-0.904-1.558-1.644-2.046
		C72.854,78.664,73.009,79.753,72.512,80.176 M79.084,82.408c-0.367-1.704,0.875-3.9-0.547-4.465v2.418
		c-1.223-0.8-1.063-3.011-2.557-3.535C75.686,79.309,77.84,80.877,79.084,82.408 M59.913,78.129
		c1.079,0.154,2.873,0.394,3.287-0.372c-2.664,0.295-4.61-1.133-6.391-1.117C57.32,77.288,58.509,77.928,59.913,78.129
		 M67.033,77.757c0.348,0.079,0.458,0.4,0.913,0.372c0.236-0.633,0.725-1.983,0.366-2.605C67.997,76.381,67.2,76.748,67.033,77.757
		 M72.146,75.524c0.457,0.031,0.444-0.417,0.73-0.559c-0.362-0.003-0.232-0.507-0.73-0.372V75.524z M100.813,76.454
		c0.396,0.714,1.24,0.969,2.373,0.931c0.161-1.218-1.545-0.535-1.461-1.674c0.789-0.122,1.024,0.321,1.461,0.559
		c-0.154-0.773-0.215-1.643-0.912-1.861C101.881,75.186,100.937,75.402,100.813,76.454 M104.464,77.384
		c0.509-1.188,0.124-2.942-0.913-3.163C103.244,75.898,104.305,76.181,104.464,77.384 M61.191,75.152
		c1.103,0.426,1.4,1.675,2.738,1.86c0.96-0.944,2.569-2.218,2.922-3.163C65.191,74.515,62.706,74.338,61.191,75.152 M96.248,75.896
		h3.104c0.123-0.676,1.519-1.849,0.73-2.233C98.65,74.251,97.463,75.087,96.248,75.896 M81.641,68.266
		c0.691-0.496,1.459-2.612,0.549-3.535C81.938,65.719,81.299,67.294,81.641,68.266 M80.728,76.269
		c-0.394,2.141,1.712,2.719,1.826,3.722c-0.587-0.458-1.331-0.752-2.009-1.117c-0.057,3.346,2.568,3.958,3.834,5.954
		c0.482-0.687,0.359-1.99,0.365-3.162c1.239,0.659,1.029,2.797,1.645,4.094c2.035-0.532,3.583-1.559,6.207-1.489
		c-1.252,1.39-3.703,1.56-4.93,2.978c3.584,0.441,6.838,1.218,9.129,2.977c-2.984,0.25-6.064-0.393-8.398-0.186
		c1.857,1.516,6.514-0.006,9.678,0.93c0.119-0.558,0.701-0.648,0.547-1.488c-0.468-0.086-1.035,0.658-1.277,0.187
		c0.732-1.38,2.58-2.347,1.826-4.651c-1.406,0.307-2.201,2.221-3.287,2.232c0.668-2.545,2.238-4.171,3.65-5.954
		c-1.742,0.643-3.211,1.564-4.93,2.232c1.129-1.146,2.316-2.231,3.471-3.35c-3.721,0.487-6.604,1.831-9.859,2.791
		c2.221-2.325,5.345-3.732,8.58-5.024c-1.611-0.715-4.18-0.454-6.025-0.931c1.717-1.086,3.69-0.426,5.113-1.488
		c1.453-1.084,2.304-2.844,3.833-3.722c-3.12-0.479-6.688-0.502-9.493-1.302c2.171-0.517,4.697-0.671,7.303-0.745
		c-1.986-2.006-5.1-2.867-7.67-4.28c0.143-0.042,0.361-0.005,0.367-0.186c-1.733-0.466-2.405-2.016-4.565-2.047
		c-1.439,3.124-4.269,4.83-4.747,8.932c1.085,0.693,3.125,0.412,4.017,1.303c-1.543-0.021-2.956,0.089-4.2,0.373
		c1.739,2.073,5.396,2.19,6.938,4.464C85.254,77.735,83.627,76.352,80.728,76.269 M76.528,66.406c0.077,2.31-0.703,3.748-0.548,6.14
		c0.997-0.099,1.924-0.271,2.921-0.371c0.284-0.869,0.134-1.693,0-2.605c1.487-1.028,1.47-3.589,1.826-5.768
		C77.658,61.294,77.664,65.322,76.528,66.406 M76.346,63.615c0.712-0.294,0.378,0.483,0.73,0.558
		c0.818-0.703,0.101-1.916-0.73-2.047V63.615z M83.102,66.034c1.188-0.185,1.197-1.592,0.912-2.792
		c0.521,0.712,1.109-0.227,1.644-0.557c-1.075-0.33-1.267-1.563-2.739-1.489C82.303,63.229,82.561,64.193,83.102,66.034
		 M78.537,51.892c0.648-0.273,1.848-0.964,2.373-0.744c-4.021,0.678-4.584,4.88-4.564,9.676c0.406,0.514,1.146,0.692,1.46,1.302
		c0.673,0.116,0.909-1.168,1.278-0.745c-0.072,1.005,1.172,0.668,2.009,0.745c1.488-3.401,0.749-7.926,1.825-11.722
		C81.537,48.663,78.283,50.356,78.537,51.892 M75.251,53.752c-0.196-1.414,0.002-3.228-0.549-4.28
		C74.806,50.98,74.872,52.525,75.251,53.752 M78.172,51.148c0.316-0.737,1.377-1.693,0.912-2.606
		C78.762,49.272,77.896,50.426,78.172,51.148 M76.528,49.287c-0.482-0.067-0.165-0.948-0.548-1.117
		c0.121,1.986-0.243,4.465,0.183,6.141c0.419-2.302,1.365-4.067,2.191-5.955c-0.081-0.662-0.663-0.815-0.913-1.302
		C77.196,47.859,77.045,48.758,76.528,49.287 M80.545,46.309c0.447,0.213,1.309,0.62,1.826,0.186
		c0.02,0.477,0.336,0.652,0.547,0.931C83.539,45.741,80.984,45.153,80.545,46.309 M77.623,45.751
		c0.313,0.294,1.865,0.816,1.826-0.186C78.896,45.554,77.826,45.003,77.623,45.751 M81.275,44.075
		c-0.057,0.741,0.352,1.007,1.096,0.932c0.074-0.76-0.188-1.175-0.913-1.117C81.448,44.004,81.431,44.11,81.275,44.075
		 M83.831,46.122c-0.802,0.142-0.212,1.735,0,2.047c0.144-1.703,0.712-3.146,0.366-4.837c-0.59,0.091-1.08-0.868-1.461-0.372
		C83.043,43.791,82.951,45.41,83.831,46.122 M73.241,43.146h0.73c-0.03-0.279,0.067-0.687-0.182-0.745
		C73.735,42.78,73.295,42.767,73.241,43.146 M69.772,44.075c0.715-0.015,1.138-0.327,1.644-0.557
		C71.597,41.261,69.512,42.619,69.772,44.075 M80.363,41.658C80.385,44.05,82.83,41.558,80.363,41.658 M84.563,41.843
		c0.027-0.462,0.033-0.903-0.365-0.93C83.816,41.283,84.19,41.708,84.563,41.843 M79.268,43.146
		c-0.07-1.171-0.563-1.909-1.278-2.419C77.877,42.066,77.939,43.849,79.268,43.146 M71.599,41.658
		c0.124,0.554,0.22,1.138,0.73,1.302c0.345-0.965,0.999-0.985,1.642-1.302c-0.133-0.423,0.329-1.452-0.364-1.303
		C72.989,40.84,72.202,41.156,71.599,41.658 M75.615,43.332c-0.182-1.613,0.402-2.444,0.365-3.908
		C74.366,39.38,74.738,42.766,75.615,43.332 M89.492,38.307c1.371,0.032,2.791,0.997,4.016,0.559
		C92.727,37.973,90.61,37.271,89.492,38.307 M75.615,38.122c0.693,0.059,1.526-0.991,0.731-1.303
		C76.036,37.186,75.425,37.246,75.615,38.122 M83.284,40.727c0.38-0.669,1.178-0.908,1.278-1.861c-0.419-1-1.033-1.801-1.826-2.42
		C82.738,37.94,80.918,40.58,83.284,40.727 M64.295,40.169c0.986-0.421,2.605-0.197,3.651-0.559
		c-1.12-0.471-2.288-0.894-3.104-1.675c1.235,0.049,2.96,0.577,3.835,0.372c-0.973-1.303-2.571-1.969-4.748-2.047
		C63.88,37.04,64.094,39.038,64.295,40.169 M86.752,36.26c0.064,0.781-0.688,1.274,0,1.674c0.73-0.56,2.121-0.444,2.74-1.116
		C88.375,36.743,87.893,35.793,86.752,36.26 M85.657,36.26c0.167-0.79-0.298-0.937-0.73-1.116
		C84.994,35.696,85.244,36.063,85.657,36.26 M74.884,37.75c0.734-0.539,0.827-2.847-0.182-3.165
		C74.821,35.582,74.463,37.064,74.884,37.75 M86.57,34.4c-0.256-0.014-0.697,0.041-0.365,0.185
		C87.864,35.102,88.572,35.293,86.57,34.4 M58.27,36.074c1.477-0.108,3.118-0.046,3.105-1.674
		C60.166,34.074,58.958,35.26,58.27,36.074 M65.938,35.889c-0.451-0.909-2.048-1.632-2.738-1.675
		C63.865,35.024,65.127,35.228,65.938,35.889 M77.623,37.935c1.162,0.243,1.933,0.885,3.104,1.117
		c-0.643-2.352,0.214-5.01,2.19-5.769c-0.294-0.879-1.09-1.246-1.825-1.674C80.303,34.089,78.745,35.791,77.623,37.935
		 M74.338,33.47c0.343,0.384,0.948,0.213,1.095,0.372c0.243,0.681,0.431,1.421,0.547,2.232c2.043-1.096-0.179-4.381-1.278-5.21
		C74.126,31.27,74.394,32.534,74.338,33.47 M84.014,32.911c0.998-0.348,1.999-0.691,2.191-1.86
		c-1.048-0.235-2.219-0.343-3.287-0.559C83.051,31.535,83.689,32.064,84.014,32.911 M77.441,32.911
		c0.813-0.599,1.154-1.677,1.46-2.79C76.683,29.703,77.14,31.528,77.441,32.911 M73.425,33.098c0.143-0.767-0.281-0.955-0.184-1.675
		c-1.73-0.026-3.242,1.16-4.564,0.931c1.521-0.682,2.285-2.138,4.017-2.606c-0.084-0.97-0.167-1.939-0.365-2.791
		c-2.222,1.458-3.867,3.503-5.113,5.954c0.928,0.608,2.543,1.5,2.738,2.234c-2.021-0.423-4.325-1.545-6.39-1.302
		c2.346,0.958,3.983,2.639,5.66,4.279c-0.024-0.657-0.522-0.832-0.547-1.489c0.97,0.184,1.17,1.743,1.826,1.674
		c-0.018,0.795-0.366,1.364,0,2.047c1.306,0.138,2.562-1.179,3.468-2.047c-0.147-1.4-0.169-2.929-0.364-4.28
		c-0.427-0.432-1.218-0.496-1.461-1.117C72.38,33.168,72.938,33.096,73.425,33.098 M74.338,29.004
		c-0.247-1.3-0.157-2.943-1.097-3.536C72.745,26.888,73.799,28.048,74.338,29.004 M90.039,24.352
		c0.307-0.593,1.637-2.36,0.365-2.791c-0.423,0.427,0.086,0.855,0.365,1.116C90.367,22.956,89.68,23.911,90.039,24.352
		 M88.031,27.702c-0.283-0.016-0.127,0.541,0,0.185c0.665-1.795,2.298-5.898,1.278-7.443C88.432,22.717,88.673,25.09,88.031,27.702
		 M86.389,19.513c-2.571,0.979-5.244,1.852-6.939,3.722c1.549,0.532,3.717,0.428,4.748,1.488c-1.924,0.099-4.081-0.554-5.843,0
		c0.899,0.883,2.446,2.095,2.738,2.978c-1.577-0.814-3.177-1.603-4.93-2.233c0.091,1.024,0.563,1.658,0.729,2.605
		c2.838,1.405,6.529,0.758,9.678,1.116c0.306-2.469,1.173-5.75,0.547-8.001c-0.703,0.646-1.347,1.355-2.19,1.86
		C85.336,21.79,85.955,20.748,86.389,19.513 M88.761,16.722h0.913c0.375,0.302-0.008,1.373,0.365,1.674
		c4.124-0.232,7.045,0.76,9.494,2.233c-2.308,0.181-5.329-0.522-7.852-0.744c1.059,1.9,3.619,3.88,4.383,6.699
		c-1.484-1.217-2.729-2.676-4.383-3.722c-1.112,0.602-1.346,2.102-2.008,3.164c0.041,0.237,0.545,0.243,0.549,0
		c-0.331,0.906-1.963,2.092-2.191,3.722c0.035,0.15,0.183,0.186,0.183,0.373c1.663,0.969,4.057-0.253,6.025-0.187
		c-1.658,0.977-3.515,1.752-5.479,2.42c1.03,0.314,2.462,0.22,3.47,0.557c-1.383,0.451-3.404,0.252-4.747,0.745
		c2.132,1.488,4.03,3.211,7.669,3.163c-0.447,0.352-1.189,0.399-2.008,0.372c0.207,0.781,0.824,1.144,1.459,1.488
		c1.5-0.704,2.439-1.979,4.566-2.046c-0.69,0.91-1.811,1.38-2.558,2.233c3.086-0.581,6.942-0.421,9.678,0.373
		c-2.813,0.854-6.788,0.526-9.86,1.116c5.63,0.28,8.564,3.307,12.232,5.582c-3.805-0.499-8.223-3.782-11.137-4.094
		c1.247,1.955,3.504,4.492,3.834,8.001c-2.119-2.864-5.07-4.879-6.391-8.559c-0.804-0.234-1.59-0.488-2.373-0.745
		c0.496,1.419,2.936,2.467,3.469,4.467c-2.371-1.616-5.033-2.935-6.938-5.025c-0.666,0.058-1.188-0.029-1.644-0.187
		c-0.179,0.746,0.718,1.994,0.913,2.978c-0.686-0.543-1.293-1.163-1.826-1.86c-2.018,1.948,1.249,3.089,1.826,4.651
		c-0.888-0.335-1.468-0.986-2.557-1.117c-0.586,1.077-0.706,2.629-0.73,4.28c0.955-0.919,2.445-0.452,3.834-1.117
		c-1.102,0.862-2.7,1.217-3.834,2.047c0.414,1.19,1.363,1.837,2.191,2.604c-0.658,0.354-1.591-0.606-2.373-0.744
		c-0.596,2.867-0.869,6.062-1.826,8.56c1.219,0.619,2.548,1.125,3.469,2.046c0.206-1.65,0.255-3.462,0.547-5.024
		c0.869,1.012,0.708,3.608,0.366,4.839c0.561,0.485,1.099-0.568,1.644,0.185c-0.266,0.288-0.713,0.392-1.279,0.373
		c1.672,0.356,2.299,1.991,3.834,2.977c2.543,1.631,6.648,0.808,8.766,3.164c0.368,0.742,0.678,1.542,1.277,2.047
		c1.581-0.313,2.381-1.421,4.383-1.303c-0.337,0.399-0.979,0.492-1.278,0.931c1.769-0.23,3.925,0.031,5.842,0.186
		c-1.204,0.756-3.233,0.674-4.93,0.93c1.519,1.431,3.67,2.215,4.93,3.908c-1.871,0.169-3.686-1.329-5.477-1.861
		c0.2,0.975,0.812,1.529,1.096,2.419c0.616,0.071,0.78-0.323,1.095-0.558c0.432,0.051-0.209,0.497-0.182,0.745
		c0.166,0.393,0.734-0.351,1.277-0.186c-0.311,0.613-1.377,0.456-1.46,1.303c1.483,0.253,5.556-0.962,6.938,0.371
		c-2.747,0.115-4.795,0.944-7.121,1.488c0.609,1.188,2.119,0.113,3.104-0.185c2.567-0.779,6.473-0.989,9.496-0.187
		c-2.602,0.639-5.787,0.679-8.4,1.304c1.617,0.772,3.789,0.976,5.112,2.047c-2.463,0.151-5.661-0.558-7.852-1.303
		c-0.038,2.209,2.108,2.193,3.47,2.977c-0.418,0.172-1.811-0.26-2.557-0.372c1.37,1.769,4.228,2.019,4.93,4.467
		c-1.539-0.479-2.518-1.527-4.017-2.047c-0.507-0.084,0.144,1.014-0.365,0.93c-0.823-0.339-0.919-1.42-1.643-1.861
		c-0.636,1.712-0.335,4.374-1.462,5.583c-0.517-1.477-0.508-3.996-0.364-5.583c-2.546,0.072-2.417,2.873-2.558,5.396
		c-0.879-0.592-0.816-2.143-1.642-2.79c-1.714,0.423-2.736,1.553-3.104,3.349c1.439-0.456,2.338-1.463,2.921-2.791
		c1.079,0.837-0.649,1.571-0.913,2.232c1.222-0.63,0.271,0.52,1.461,0.372c-0.711,0.393-2.141,0.052-2.739,0.56
		c1.909,0.907,4.649,0.97,6.756,1.674c-2.448,0.697-6.854-1.131-8.581,0.559c1.139,1.632,3.579,1.935,4.383,3.908
		c-1.373-0.648-2.828-1.213-4.199-1.861c0.193,2.011-0.019,4.514-0.549,6.698c1.439-0.581,3.375-2.267,5.295-2.977
		c-0.96,1.131-1.961,2.218-2.922,3.349c0.792-0.158,1.984-0.475,3.104-0.558c2.573-0.191,5.835-0.293,7.487,0.558
		c-4.029,0.174-7.149,1.274-11.504,1.117c1.398,0.436,3.58,0.074,4.199,1.303c-1.541,0.144-2.555-0.251-4.016-0.187
		c1.436,0.522,2.94,0.973,4.198,1.676c-3.305,0.954-8.245-2.57-9.86,0.558c0.518,0.153,0.475-0.262,0.914-0.187
		c-0.08,0.229-0.233,0.382-0.548,0.371c0.203,0.601,1.005,0.59,1.825,0.56c-0.358,0.595-2.765-0.273-3.651,0.186
		c-1.079,2.931-2.152,5.869-2.738,9.305c-0.087,0.396,0.261,0.354,0.546,0.372c-1.596,0.916-0.813,4.258-3.104,4.467
		c-0.357-1.694,1.29-2.889,1.096-5.025c-1.647-1.359-4.074-1.926-6.025-2.978c-0.604,2.032-0.144,5.06,0,7.816
		c-0.441,0.356-1.465,0.117-2.191,0.187c-1.063-1.896-1.826-4.094-2.556-6.328c-1.008,2.206,2.008,5.271-0.548,6.328
		c-0.97-0.563-1.056-2.025-1.644-2.979c0.241,0.238,0.674,0.238,0.913,0c-0.689-1.886,0.166-3.547-0.364-5.396
		c-0.481-1.67-4.418-3.73-7.121-2.419c-3.347,1.624-9.313,2.246-12.234,2.979c0.129-0.85,1.361-1.115,2.191-1.489
		c2.343-1.056,5.781-2.163,8.582-2.977c0.615-0.179,1.636-0.156,2.557-0.187c-1.497-1.214-4.093-2.266-4.565-3.906
		c-0.851,0.123-1.173-0.295-1.826-0.373c1.478-0.687,3.114,0.021,4.93,0c-2.175-1.071-5.994-0.466-8.581-1.116
		c1.885-0.828,5.189-0.926,7.668-0.559c-1.819-1.247-3.725-2.406-5.659-3.536c3.221,0.005,6.262,1.804,8.58,3.35
		c1.097-2.231,1.113-5.565,2.739-7.257c-0.055-0.337-0.768,0.188-0.913,0.373c-0.348-1.674,2.711-2.428,2.373-4.095
		c-2.732-0.054-5.511,1.454-8.399,1.86c1.948-1.736,4.791-2.56,7.304-3.722c-0.335-1.459-2.29-1.394-3.834-1.116
		c0.653-0.595,1.888-0.881,2.738-0.743c-0.477-2.244-2.559-2.851-3.468-4.653c-0.321,0.046-0.417,0.32-0.365,0.744
		c-0.708-0.644-0.964-1.746-2.008-2.047c-0.354,2.186-0.187,4.896-0.913,6.699c-0.646-2.848-1.506-5.494-1.279-8.745
		c-1.347,0.364-2.014,1.42-2.738,2.418c0.693,1.28,1.477,2.466,1.643,4.281c-1.154-1.182-2.394-2.276-3.468-3.536
		c-0.091,0.931,0.216,3.627-0.366,4.651c-0.359-1.556-0.393-3.445-0.547-5.21c-2.698,3.393-5.68,6.494-8.946,9.305
		c1.404-3.655,3.752-6.348,6.572-8.561c-1.797,0.961-3.535,1.98-5.295,2.978c0.928-1.227,2.177-2.123,3.105-3.35
		c-2.123,0.193-4.028,0.609-6.21,0.744c2.526-2.762,7.922-1.754,10.775-3.907c-2.775,0.088-6.139,1.187-9.129,1.676
		c1.609-1.151,3.466-2.05,5.477-2.793c-2.237-0.821-5.309-0.792-7.669-1.488c2.192-0.434,5.173-0.063,7.669-0.186
		c-2.128-1.491-4.458-2.776-6.39-4.467c3.886,0.072,6.365,3.189,11.32,2.792c-0.578-0.851-2.38-0.541-3.469-0.372
		c0.126-0.491,0.831-0.394,0.913-0.931c-0.458-0.959-1.551-1.273-2.556-1.674c2.442,0.208,5.377,1.215,7.852-0.187
		c-1.643-0.56-3.98-0.409-5.843-0.744c-0.433,0.154-0.842-0.263-0.182-0.186c3.952-0.412,8.27-1.028,11.137,0.745
		c-1.089-1.992-2.202-3.959-3.469-5.769c-3.989-0.588-7.184-1.985-10.773-2.978c3.889-0.675,7.193,0.855,9.86,2.047
		c-0.967-1.496-3.379-3.131-4.017-5.583c1.501,1.324,2.613,3.043,4.2,4.28c-0.159-3.82,1.325-5.967,2.921-8.002
		c-0.396,2.512-1.413,6.004-2.375,8.56c0.51,1.218,1.766,1.675,2.192,2.977c0.562-0.828-0.378-1.717-0.366-2.605
		c0.195,0.133,0.841,0.727,1.096,0.186c-0.599,2.18,0.766,4.859,1.644,6.698c0.996-1.591,3.266-1.882,5.66-2.045
		c-0.543,0.499-1.362,0.721-2.008,1.116c0.417,0.628,1.337,0.746,2.192,0.93c1.185-6.088,1.686-16.148-1.279-21.026
		c0.216,0.215,0.646,0.212,1.095,0.186c-0.05-0.632,0.142-1.508-0.183-1.861c-1.358,1.098-1.638,3.293-2.555,4.839
		c-0.518-2.885,0.958-5.349,1.643-7.629c-1.835,0.797-4.124,2.743-5.843,4.279c0.172-2.865,3.203-4.427,4.93-6.326
		c-3.359-1.066-3.765,2.487-4.747,4.464c-0.358-2.05-0.286-4.125,0-6.14c-2.477,1.137-5.588,4.229-7.851,5.582
		c1.291-3.336,4.091-5.133,6.938-6.885c-0.004-0.555-1.354,0.263-1.095-0.559c0.833-0.08,2.01,0.189,2.555-0.185
		c-1.955-0.317-4.752,0.116-6.755,0.373c0.514-0.345,0.934-0.785,1.643-0.931c0.119-1.796-0.572-2.766-0.73-4.281
		c-1.753,1.81-3.146,3.99-5.113,5.582c-0.07-1.623,1.528-3.156,2.192-4.651c-1.951,0.74-3.869,1.514-5.66,2.418
		c0.147-1.834,2.998-2.524,3.833-4.279c-2.284,0.835-4.337,1.906-6.391,2.977c1.217-2.421,4.405-4.443,7.851-5.211
		c-1.052-0.541-3.325,0.164-4.381-0.373c1.546-0.846,4.365-1.514,6.39-0.745c1.752-1.079,3.878-0.076,5.661,0.373
		c1.227-2.905,2.57-5.692,4.747-7.629c-1.682-0.41-3.598,0.549-5.478,0.559c0.949-1.515,3.455-1.441,5.112-2.233
		c-1.123-3.915-4.065,0.251-6.39,0.557c0.553-1.42,2.491-1.428,3.286-2.604c-1.51-0.756-3.884-0.631-4.564-2.233
		c1.672,0.219,3.177,0.607,4.747,0.931c0.305-0.505-1.095-0.861-1.095-1.674c0.945,0.117,0.272-0.386,0.365-0.932
		c0.624,0.481,0.464,1.76,1.278,2.047c1.063-0.218,0.7-1.892,1.826-2.047c1.013-0.042,0.676,1.295,0.73,2.233
		c-0.24-0.065-0.287-0.327-0.548-0.372c0.015,1.66,0.89,2.441,1.096,3.907c0.423,0.25,1.036,0.308,1.46,0.559
		c0.366,0.379-0.081,0.365-0.183,0.745c2.053-0.567,3.876-0.657,5.479-1.304c1.351-0.544,2.15-1.976,3.286-2.976
		C83.586,18.358,85.791,17.344,88.761,16.722"/>
	<path clip-path="url(#SVGID_2_)" fill="#7AC479" d="M61.176,121.057h18.058h3.01h19.061c0,0,2.007,0,2.007,2.006H59.17
		C59.17,123.063,60.173,121.057,61.176,121.057"/>
</g>
</svg>
