<?xml version="1.0" encoding="utf-8"?>
<!-- Generator: Adobe Illustrator 17.0.0, SVG Export Plug-In . SVG Version: 6.00 Build 0)  -->
<!DOCTYPE svg PUBLIC "-//W3C//DTD SVG 1.1//EN" "http://www.w3.org/Graphics/SVG/1.1/DTD/svg11.dtd">
<svg version="1.1" id="Layer_1" xmlns="http://www.w3.org/2000/svg" xmlns:xlink="http://www.w3.org/1999/xlink" x="0px" y="0px"
	 width="155px" height="155px" viewBox="0 0 155 155" enable-background="new 0 0 155 155" xml:space="preserve">
<polygon fill="#651D26" points="0,129.125 0,145.688 0.938,147.375 2.75,150.125 6.438,153.625 9,155 144.813,155 147.875,154 
	150.688,151.25 153.061,148.562 155,145.688 155,129.125 "/>
<text transform="matrix(1 0 0 1 12.104 146.4063)" fill="#FFFFFF" font-family="'ArialMT'" font-size="18">rășinoase</text>
<g>
	<defs>
		<rect id="SVGID_1_" x="45.574" y="18.5" width="67.295" height="104.035"/>
	</defs>
	<clipPath id="SVGID_2_">
		<use xlink:href="#SVGID_1_"  overflow="visible"/>
	</clipPath>
	<path clip-path="url(#SVGID_2_)" fill="#038141" d="M50.665,101.585c0.776,0.946,3.51,0.914,2.681-0.537
		C52.927,102.581,51.006,100.131,50.665,101.585 M59.51,102.926c0.176-0.361,0.574-0.5,1.072-0.536
		c-0.336-0.817-0.205-1.042,0.268-1.609C59.867,100.793,59.006,102.315,59.51,102.926 M99.711,76.124
		c0.771-0.375,1.361,0.729,1.608,0c-0.631-0.082-0.497-0.931-1.34-0.804C99.991,75.689,99.854,75.907,99.711,76.124 M97.032,58.435
		h-1.073C95.748,59.467,97.243,59.467,97.032,58.435 M71.839,54.147c0.706,0.145,0.912-1.555,0.536-1.607
		C72.22,53.1,71.71,53.304,71.839,54.147 M93.278,48.519c1.318,0.323,2.774-0.604,2.146-1.34c-0.43,0.331-1.002,0.242-1.609,0
		C94.203,48.192,93.08,47.693,93.278,48.519 M71.303,46.375c0.059-0.21,0.225-0.312,0.536-0.269
		c-0.247-0.467,0.009-1.438-0.804-1.339C70.594,45.183,70.92,46.018,71.303,46.375 M75.858,31.634
		c0.534,0.559,1.145,0.009,1.34-0.535C76.535,31.059,75.898,31.049,75.858,31.634 M100.516,40.478c0.305,0.053,0.149,0.27,0,0.269
		c-0.1,0.457,0.21,0.506,0.536,0.536c-0.946,1.378-0.26,1.968-0.536,3.485c-0.932-1.243-1.744,2.607-3.483,1.339
		c-0.818,0.328,0.391,1.023-0.269,1.341c0.242,0.472,0.987,0.442,1.071,1.071c0.342-0.732,1.22-0.925,1.073-2.144
		c0.747,0.306,1.39-0.7,2.144,0.268c-0.093,0.711-0.704,0.904-1.341,1.072c-0.038,0.664-0.05,1.301,0.536,1.341
		c1.398-0.568,2.774-1.158,3.753-2.145c0.731,0.864-0.636,1.533,0.268,2.411c-0.531,0.447-0.342-0.024-1.071,0
		c0.27,0.356,0.253,0.998,0.804,1.072c-0.561,0.602-0.881,1.442-2.145,1.34c-0.049,0.585,0.22,0.854,0.805,0.806
		c-0.214,1.573-1.687,1.887-2.413,2.947c0.319,1.282,1.925-0.818,1.341,0.535c0.898-0.173,1.118-1.025,1.876-1.339
		c0.903,0.74-0.758,3.034-1.341,4.019c0.263,0.751,0.716-0.39,1.073,0.269c0.088,1.573-1.486-0.18-1.341,1.34
		c0.77,0.659,2.407,0.452,2.948,1.339c0.416-0.609,0.558-0.504,1.341-0.267c0.424-1.541,3.25-0.681,2.947-2.949
		c0.69,0.659,1.289-0.286,1.609-0.803c0.918,1.552-1.005,2.564-0.538,4.556c-1.027,0.418-3.351-0.637-2.411,1.607
		c-0.854,0.13-1.121,0.845-2.145,0.805c-0.199,0.824,0.736,0.515,0.537,1.339c-0.512,0.116-0.674,0.579-1.341,0.537
		c0.098-0.456-0.209-0.505-0.536-0.537c-0.221-0.757,0.377-0.693,0.268-1.339c-1.033,0.04-1.543,0.602-1.876,1.339
		c-0.312-0.225-0.719-0.354-1.341-0.268c-1.158,0.199,0.393,1.447-1.072,1.341c0.426,1.301,0.799,1.311,0.537,2.948
		c-0.353-0.096-0.422-0.473-0.805-0.537c-0.218,0.052-0.267,0.27-0.536,0.269c0.288,1.428,3.456,1.807,3.753,0.269h1.876
		c0.076,0.731,0.275,1.069,1.072,1.608c0.614-0.368,0.86-1.104,1.34-1.608c1.256,0.812,0.359,2.128,1.071,3.484
		c-0.975-0.172-1.053,0.554-1.071,1.34c-1.149-1.077-1.63,0.47-2.412,0c-0.397,0.226-0.389,0.862-0.536,1.34
		c-1.347-0.202-1.226,0.265-2.681-0.268c-0.281,0.898,0.957,1.786-0.536,1.607c0.458,0.525,1.881,0.085,2.145,0.805
		c0.585,0.048,0.853-0.22,0.804-0.805c1.454,0.206,1.725-0.072,2.682,0.536c0.047,0.585-0.22,0.853-0.805,0.804
		c0.459,0.435,0.666,1.121,0.535,2.144c2.469,0.325,2.836-1.451,5.092-1.34c-0.899,0.86-0.104,1.799-1.608,1.877
		c-0.22,0.757,0.379,0.693,0.269,1.34c-1.333-0.04-1.596,0.402-2.411-0.268c-0.538,0.445-1.247,0.719-1.341,1.608
		c-0.671-0.034-0.838-0.512-1.072,0.267c-0.363-0.082-0.223-0.671-0.268-1.071c-0.359,0.176-0.499,0.573-0.536,1.071
		c-0.33-0.117-0.55-0.343-0.536-0.804c-0.705-0.079-0.21,1.04-1.071,0.804c-0.463-0.162,0.021-1.271-0.536-1.34
		c-0.822,0.582,0.258,1.509,0,2.412c-0.846-0.262-2.215-1.007-3.217-0.268c0.652,0.51,1.127,1.197,2.412,1.071
		c0.082,0.706-0.37,0.881-1.071,0.805c0.287,1.063,1.005,0.125,1.339-0.269c0.646-0.109,0.583,0.49,1.341,0.269
		c-1.26,1.004,0.466,1.015,0.536,2.144c0.855,0.012,2.756-0.892,2.949,0.806c1.219-1.395,2.074-0.342,3.752-1.609
		c0.808,0.977-0.857,1.564,0,2.68c-0.859-0.415-1.181-0.093-1.073,1.072c-1.397-0.147-2.014,0.488-2.412,1.34
		c-0.478-0.147-1.112-0.137-1.34-0.535c-0.754,0.943-1.324,2.071-1.608,3.484c1.012,0.559,2.342,0.772,2.682,0.804
		c1.106,0.332-0.104,0.779-0.27,1.339c0.514,0.754,1.398-0.367,2.146-0.267c0.134,0.456,0.705,1.943-0.537,2.144
		c0.962,1.472,2.045-0.781,3.217-0.804c0.724,1.071-0.601,1.214,0,2.411c-1.938,0.662-1.437,3.422-3.217,3.218
		c-0.025,1.363,1.282,1.397,2.681,1.34c-0.06,0.98-0.368,1.027,0,1.876c0.831,0.09,1.279-0.621,1.875,0
		c0.328,2.737-2.573,2.25-2.143,5.091c-1.166-0.352-1.786,0.239-1.876,1.609c-4.144-1.438-7.771,1.766-11.793-0.537
		c-4.15-0.063-10.757,1.742-13.4-1.607c-0.75,1.207,0.097,3.11,0.267,4.288c4.615,4.051,16.339,0.993,21.174,4.823
		c-18.136,0.626-37.433,0.09-56.015,0.269c8.738-4.318,31.069,1.606,28.945-12.329c-0.063-0.414-0.998-1.285-1.341-0.536
		c-0.386-0.06-0.093-0.8-0.535-0.804c-1.207,0.128-0.609,1.263-0.536,2.144c-1.984,0.16-3.279,1.011-3.752,2.68
		c-1.277-0.242-1.908,1.113-2.949,0.27c-2.812,2.341-8.052-0.183-10.452,0.268c1.15-1.62,3.65-1.888,4.289-4.021
		c-2.021,0.036-2.954,1.924-4.021,1.072c-1.282,2.023-3.45,3.16-6.7,3.216c-0.672-1.005-0.133-2.702,1.072-2.68
		c-0.467-0.963-1.684-1.176-2.143-2.145c2.359-0.49,1.966-2.568,3.751-3.216c-1.395,0.008-2.886-2.597-4.557-1.608
		c-0.875-0.579-0.404-2.603-1.607-2.948c0.381-2.496-2.818-3.136-2.947-5.359c2.679-0.215,4.348,2.78,5.896,0
		c0.481-0.034,0.565,0.328,1.072,0.267c0.472-0.064,0.61-0.46,0.536-1.071c1.358,0.561,1.565-0.235,2.412-0.804
		c0.047-0.941-0.906-0.881-1.072-1.608c-0.643,0.163-1.223,0.386-2.145,0.268c-0.748-0.667-0.076-2.341-1.608-1.608
		c0.114-0.515-0.183-0.966-0.269-0.535c-0.309-0.614-0.348-1.568,0-2.412c-2.28,0.316-2.136-1.794-3.482-2.411
		c-0.05-0.229,0.104-0.255,0.267-0.27v-0.536c2.826,1.677,4.437-0.355,6.969-1.071c-0.564-0.652,0.424-1.379-0.537-1.34
		c-0.045-0.671,0.412-0.839,0.805-1.072c0.756-0.042,0.672,0.758,1.072,1.072c0.799-0.006,0.344-1.265,0.805-1.609
		c-0.758-0.365-1.67-1.129-3.217-1.071c-0.076-0.433,0.252-0.46,0.268-0.804c-0.328,0.3-0.551,0.233-0.535-0.269
		c-0.533,0.004-0.342,0.732-1.072,0.537c-0.628-1.855-1.073-2.286-1.877-4.021c0.357-0.658,0.809,0.482,1.073-0.268
		c0.358,0.177,0.498,0.572,0.535,1.071c0.237-0.119,0.479-0.236,0.536-0.535c1.635,2.043,4.082,0.71,6.432,0.268
		c-0.082-0.365-0.671-0.222-1.072-0.268V75.32c2.457-0.81,3.881,1.351,6.434,0.536c0.51-0.354-0.619-0.881,0-1.609
		c-0.402-0.312-0.656-0.772-1.342-0.803c0.192-1.237,1.841-1.02,1.877-2.413c-0.302-0.596-1.693-0.906-0.805-1.876
		c-0.971-0.579-1.607-0.05-2.947-1.072c-0.361,0.265-0.535,0.715-0.804,1.072c-0.915-1.853-2.196-3.342-4.021-4.287
		c1.133-0.849-0.232-1.488,0.269-2.413c0.944-0.072,1.917,0.729,1.606,1.608c0.631-0.265,1.318-0.471,2.146-0.536
		c0.098,0.457-0.21,0.506-0.536,0.536c1.76,0.341,2.937,0.056,5.092,0c0.136-0.876-1.332-0.568-0.535-1.339
		c1.349,0.118,0.57,0.969,1.34,1.339c0.165-1.442,1.958-1.257,2.412-2.413c0.871,0.39,2.686,0.93,3.752,0.269
		c-0.061-0.341-0.801-0.351-0.805,0c-0.667-0.04-0.078-0.907,0-1.072c-1.253,1.079-3.044-0.476-5.092-0.803
		c0.503-0.511,0.029-0.674,0-1.341c-1.167-0.363-0.971,0.639-1.608,0.804c-0.917-0.109-0.342-0.723-1.342-0.268v-1.607
		c-1.085,0.214-1.232,0.345-1.875,0.534c-1.495-1.129,0.007-2.583-1.072-4.019c0.238-0.118,0.479-0.234,0.536-0.536
		c0.867,0.027,0.573,1.216,1.876,0.805c-0.822,1.593,2.441,2.269,3.484,1.34c-0.035-0.66-0.041-1.292,0.267-1.608
		c-0.4-0.884-0.314,0.897-1.072,0.537c-0.031-0.952-1.061-0.905-1.608-1.341c0.232-1.192-0.036-2.64,1.608-2.948
		c0.193,0.548,0.842,1.061,0.27,1.608c1.092-0.646,0.855,0.922,1.606,1.34c1.297-0.17,1.896,0.354,2.681,0
		c0.138-0.694,0.116-0.997,0.536-1.876c-0.809-0.352-1.055,0.046-1.34-1.072c-0.755-0.039-0.772,0.656-0.804,1.34
		c-0.931-0.332-0.43-0.844-1.341-0.804c-0.012-0.459,0.2-0.694,0.537-0.804c-0.312-0.772-1.726-0.158-1.073-1.608
		c-0.402,0.402-1.129,0.479-1.34,1.072c-1.238-0.946-0.848-1.857-1.607-3.216c1.168-0.364,0.97,0.638,1.607,0.804
		c0.217-0.051,0.268-0.269,0.537-0.268c-0.807-0.507-0.421-1.344-0.27-1.877h1.072c0.221,1.343,0.182,1.607-0.803,2.145
		c0.229,0.499,0.992-0.865,1.339,0.269c0.496-0.04,0.165-0.908,0.537-1.072c0.78,0.357-0.034,1.246,1.339,1.34
		c0.618,0.082,0.298-0.774,0.804-0.804c0.993-0.188,0.669,0.939,1.072,1.339c0.353-0.093,0.422-0.472,0.805-0.535
		c-0.353-1.533-1.344-2.26-0.805-4.021c-0.433-0.046-0.332-0.504-1.34-0.536c-0.235-0.861,0.885-0.367,0.805-1.071
		c-0.84-0.125-1.196,0.232-1.072,1.071c-0.783-0.363-0.87-0.689-1.341,0.269c-0.426-1.353,0.053-2.136-0.804-3.216
		c0.512-0.503,0.485,0.158,1.341,0c-0.845-0.34,0.212-0.906-1.073-0.805c0.188-0.706,1.221-0.566,1.341-1.341
		c-0.084-0.362-0.671-0.221-1.071-0.269c0.135-0.667,0.712-0.894,0.804-1.606c0.167,1.168,1.361,0.511,1.876,0.804
		c-0.174,0.889-0.541,1.167,0.535,0.803c-0.955,0.925,1.551,2.126,1.877,0.806c1.457-0.028,1.256,1.602,2.947,1.341
		c-0.229-0.934-0.769-1.554-1.34-2.146c0.067-0.29,0.533-0.18,0.535-0.534c-0.726-0.249-0.365-0.12,0-1.072
		c-1.005-0.202-0.582,1.023-1.339,1.072c-2.143-1.219-1.904-2.217-2.681-4.557c0.63,0.087,1.007,0.424,1.877,0.267
		c0.191,0.702,0.403,1.384,1.607,1.072c-0.649,2.13,2.415-0.038,3.216,1.073c0.076-1.147-0.817-1.326-0.535-2.68
		c-0.429,0.374-0.685,0.922-0.804,1.606c-2.425-0.491-0.848-3.347-3.216-3.753c0.224-0.31,0.353-0.718,0.268-1.338
		c1.258,0.643,1.615-1.003,2.145-1.877c0.328,0.116,0.549,0.343,0.535,0.803c0.522-0.604,0.837-1.412,1.876-0.803
		c-0.468,0.547,0.2,0.524-0.269,1.071c0.488,1.172,1.566,0.274,2.146,1.072c0.675-0.486,1.278-1.042,1.339-2.144
		c-0.495-0.112-0.4-0.599-1.339-0.268c0.468-1.105,0.099-2.298-0.805-2.145c-0.31-1.76,2.057-1.467,0.805-2.681
		c0.389-0.146,1.385,0.313,1.339-0.268c0.681,0.724-0.693,1.634,1.072,1.071c0.147,0.596-0.513,0.382-0.535,0.805
		c0.231,0.791,0.4-0.622,1.072-0.269c0.132,0.842-0.926,0.709-0.27,1.341c1.079-0.085,0.385-1.937,1.877-1.608
		c-0.041-0.495-0.907-0.164-1.072-0.536c0.226-0.311,0.354-0.719,0.269-1.34h1.072c0.044-1.059-0.413,0.086-0.805-0.536
		c-0.07-0.785,0.606-0.823,0.536-1.608c0.674,0.247,1.838,0.515,1.876-0.536c0.581-0.044,0.121,0.952,0.267,1.34
		c0.825,0.2,0.516-0.735,1.341-0.535c-0.314,0.4-0.334,1.096-0.804,1.34c0.071,0.553,1.186,0.063,1.071,0.805
		c1.04-0.032,0.83-1.315,1.876-1.341c0.048,0.94-0.904,0.882-1.071,1.608c0.065,0.292,0.532,0.181,0.536,0.535
		c0.549-0.074,0.533-0.715,0.803-1.071c1.137,0.341-0.25,0.875,0,1.876c0.445,0.686,0.72-1.046,1.607-0.805
		c-0.169,1.108-1.394,1.573-0.804,2.682c-1.244-0.263-0.362,1.601-1.606,1.34c1.509,1.288,2.62,0.076,3.215-1.34
		c1.004,0.237-1.127,1.496,0.269,1.34c-0.354,0.807-0.669,1.654-1.608,1.875c-0.132,0.848,0.482,0.947,0.27,1.877
		c1.114-1.365,2.507-1.19,3.214-3.216c0.813,0.327-0.188,1.022-0.268,1.339c0.096,0.376,0.472,0.024,0.536-0.268
		c0.264,1.16,0.595,1.399,0,2.412c0.602,0.843,1.57-0.195,1.609-0.803c0.465-0.243-0.219,2.385,0,2.68
		c-0.328,0.388-1.023,0.407-1.342,0.804c0.197,0.251,0.488,0.406,0.805,0.536c0.591-0.303,1.48-0.308,1.608-1.07
		c0.885,0.643-0.343,1.423-0.536,1.875c1.043,0.238,1.59-0.703,2.144-0.805c-0.012,2.563-2.412,4.971-2.412,7.772
		c-1.554,0.233-1.661,1.911-2.947,2.412c0.086,0.571,1.17-0.042,1.339-0.267c0.903,0.242,0.032,0.599,0.536,1.072
		c0.598,0.207,0.957-1.34,1.072,0C97.896,43.577,99.316,42.139,100.516,40.478"/>
</g>
</svg>
