<?xml version="1.0" encoding="utf-8"?>
<!-- Generator: Adobe Illustrator 17.0.0, SVG Export Plug-In . SVG Version: 6.00 Build 0)  -->
<!DOCTYPE svg PUBLIC "-//W3C//DTD SVG 1.1//EN" "http://www.w3.org/Graphics/SVG/1.1/DTD/svg11.dtd">
<svg version="1.1" xmlns="http://www.w3.org/2000/svg" xmlns:xlink="http://www.w3.org/1999/xlink" x="0px" y="0px" width="155px"
	 height="155px" viewBox="0 0 155 155" enable-background="new 0 0 155 155" xml:space="preserve">
<g id="Layer_4">
	<polygon fill="#FFFFFF" points="0,129.125 155,129.125 155,9.313 153.243,6.381 152.25,4.875 150.325,3.048 148.765,1.567 146,0 
		10.188,0 7.125,1 3.667,4.481 1.938,6.438 0,9.313 	"/>
</g>
<g id="Layer_1" display="none">
	<polygon display="inline" fill="#8DC63F" points="43.084,15.023 116.557,15.023 119.175,21.305 121.269,29.333 122.141,35.092 
		122.542,39.458 122.542,45.583 122.542,52.458 122.542,57.333 120.083,66.667 116.583,74.542 113.958,78.417 109.167,82.875 
		104.125,86.917 98.125,89.125 94.667,88.958 90.583,88 85.042,85.708 85.042,108.417 83.542,109.625 80.042,109.625 
		79.208,108.292 76.5,98.833 74.458,100.333 69.375,102.375 62.333,102.792 55.083,101.625 48.417,97.792 40.083,89.458 
		32.25,73.583 30.292,62.833 31.208,48.667 34.25,36.417 38.833,22.542 	"/>
</g>
<g id="Layer_2">
	<polygon fill="#651C26" points="0,129.125 155,129.125 155,145.688 153.063,148.563 150.688,151.25 147.875,154 144.813,155 9,155 
		6.438,153.625 2.75,150.125 0.938,147.375 0,145.688 	"/>
</g>
<g id="Layer_5">
	<text transform="matrix(1 0 0 1 12.104 146.4059)" fill="#FFFFFF" font-family="'ArialMT'" font-size="18">solzoase</text>
</g>
<g id="Layer_3">
	<path fill="none" stroke="#006838" stroke-miterlimit="10" d="M210.75-29.75"/>
	<g>
		<path fill="#8DC63F" d="M88.065,79.399c4.849-5.621,7.691-11.497,9.552-17.84c0.954-3.25,2.587-6.132,4.149-9.046
			c1.447-2.697,4.04-4.584,6.99-3.171c2.887,1.383,3.696,4.181,2.843,7.658c-3.122,12.734-10.268,23.582-16.088,35.044
			c-1.872,3.686-3.562,7.546-6.505,10.603c-0.738,0.767-1.158,1.659-0.765,2.718c1.891,5.098-0.886,8.952-3.304,12.972
			c-1.316,2.188-2.617,2.806-4.671,0.948c-1.624-1.47-3.51-2.09-5.41-0.57c-3.051,2.441-4.905,0.746-6.284-1.842
			c-5.433-10.199-10.79-20.425-13.739-31.725c-1.259-4.823-2.803-9.541-2.886-14.602c-0.045-2.746,0.557-5.324,3.309-6.024
			c2.983-0.759,5.225,1.143,6.053,3.96c1.969,6.703,4.639,13.049,9.58,18.889c0-6.452-0.264-12.918,0.054-19.354
			c0.724-14.658-1.462-29.193-1.528-43.808c-0.013-2.982,0.149-6.011,0.68-8.937c0.582-3.202,1.089-7.143,5.446-7.158
			c4.056-0.014,6.403,3.298,7.006,6.714c1.091,6.181,1.59,12.511,1.787,18.796C84.804,48.586,84.989,63.557,88.065,79.399z"/>
	</g>
	<path fill="none" stroke="#006838" stroke-miterlimit="10" d="M94,70"/>
	<path fill="none" stroke="#006838" stroke-miterlimit="10" d="M82.5,94.875"/>
	<g>
		<path fill="#006838" d="M109.924,59.841l0.979-2.674l-0.008,0.043l-0.014-1.833l0.034,0.09l-2.354-2.648l0.065,0.045l-3.51-1.306
			l0.216-0.056l-1.816,2.181l-0.038-0.313l3.017,2.143l0.039,0.027l0.026,0.042l2.338,3.774l0.567,0.96
			c0.094,0.165,0.183,0.319,0.276,0.511c0.024,0.068,0.047,0.072,0.07,0.194c0.008,0.043,0.018,0.086,0.016,0.172
			c0.001,0.168-0.023,0.245-0.041,0.355c-0.19,0.783-0.501,1.447-0.821,2.136l-0.01,0.021l-0.021,0.029l-2.599,3.522l-0.65,0.88
			c-0.106,0.138-0.214,0.301-0.352,0.465c-0.147,0.171-0.271,0.291-0.409,0.428c-0.542,0.521-1.097,0.999-1.664,1.477l0.028-0.025
			l-2.15,2.183l-0.126,0.128l-0.186-0.011l-5.169-0.293l0.462-0.546l0.689,2.828l-0.037-0.102l1.602,3.143l0.2,0.393
			c0.068,0.129,0.139,0.282,0.201,0.446c0.116,0.304,0.202,0.588,0.289,0.878c0.17,0.578,0.318,1.149,0.459,1.732l0.013,0.053
			l0,0.063l0.016,2.666l0.001,0.136l-0.069,0.124l-2.309,4.18l-0.323,0.584l-0.522-0.425l-2.847-2.317l-0.21-0.171l-0.002-0.278
			l-0.021-3.617l0.103,0.336l-2.522-3.701l0.899,0.152l-1.301,0.965l-0.651,0.483l-0.325,0.241l-0.163,0.121l-0.041,0.03
			l-0.02,0.015l-0.01,0.008l-0.005,0.004c0.038-0.03-0.089,0.071,0.085-0.068l-0.002,0.002l-0.072,0.07
			c0.138-0.127,0.066-0.109,0.07-0.007c-0.01,0.079-0.013,0.189-0.01,0.304c0.006,0.232,0.027,0.485,0.054,0.746
			c0.053,0.52,0.117,1.063,0.154,1.617c0.019,0.28,0.029,0.553,0.031,0.849c0,0.255-0.005,0.562-0.032,0.858
			c-0.033,0.301-0.071,0.628-0.237,0.995c-0.163,0.378-0.47,0.663-0.653,0.833l-0.141,0.133l-0.065,0.063l-0.032,0.031l-0.016,0.016
			l-0.108,0.091l-0.081,0.058l-0.041,0.029c-0.026,0.016-0.083,0.045-0.127,0.064c-0.094,0.042-0.196,0.074-0.295,0.095
			c-0.098,0.02-0.142,0.011-0.216,0.015c-0.531-0.02-0.825-0.211-1.109-0.369c-0.549-0.345-0.952-0.718-1.372-1.154l-0.181-0.188
			l-0.002-0.285L84.74,72.876l0.596,0.756l-4.172-0.975l-0.272-0.064l-0.178-0.229l-4.123-5.303l0.105,0.114l-4.446-3.967
			l-0.245-0.219l-0.043-0.339l-0.531-4.163l0.037,0.171l-1.194-3.658l-0.044-0.135l-0.001-0.156l-0.035-5l-0.003-0.465l0.367-0.303
			l1.716-1.417l1.773-1.39l3.508-2.74l-0.258,0.294l2.832-4.834l0.028-0.048l0.031-0.042l2.343-3.159l-0.18,0.8l-1.148-6.003
			L81.181,30.3l0.001-0.091l0.046-4.833l0.041,0.278l-1.126-3.846l-0.094-0.322l0.124-0.291l1.197-2.821l-0.028,0.591l-1.126-3.846
			l0.037,0.1L78.79,11.87l0.728,0.471l-4.5-0.057l0.524-0.217l-2.716,2.617l0.066-0.076L70.5,17.731l0.107-0.464l0.75,4.515
			l-0.194-0.315l5.893,4.702l0.017,0.014l0.004,0.004l3.743,3.538l-0.071-0.041l2.967,1.098l-0.063,0.19l-3.032-0.902l-0.035-0.01
			l-0.037-0.031l-3.923-3.337l0.021,0.017l-6.106-4.422l-0.152-0.11l-0.042-0.205l-0.917-4.484l-0.05-0.243l0.156-0.221l2.275-3.21
			l0.022-0.031l0.044-0.045l2.617-2.716l0.205-0.213l0.319-0.004l4.5-0.057l0.507-0.006l0.221,0.477l1.535,3.317l0.019,0.04
			l0.019,0.06l1.208,3.821l0.092,0.291l-0.12,0.301l-1.136,2.846l0.029-0.613l1.208,3.821l0.04,0.127l0.001,0.152l0.046,4.833
			l-0.018-0.191l1.185,5.996l0.086,0.436l-0.266,0.364l-2.324,3.174l0.059-0.09l-2.835,4.832l-0.102,0.174l-0.156,0.12l-3.532,2.71
			l-1.742,1.341l-1.729,1.402l0.364-0.768l-0.035,5l-0.045-0.29l1.14,3.675l0.028,0.091l0.009,0.081l0.469,4.17l-0.289-0.558
			l4.387,4.032l0.062,0.057l0.043,0.057l4.044,5.363l-0.451-0.293l4.16,1.025l0.6,0.148l-0.004,0.609l-0.075,12.833l-0.183-0.473
			c0.313,0.337,0.703,0.695,1.059,0.919c0.169,0.114,0.37,0.18,0.376,0.172c0.029,0.006-0.047-0.003-0.12,0.047
			c-0.012,0.009-0.032,0.033-0.032,0.033l0.041-0.029l0.082-0.058l0.005-0.004l0.003-0.002c-0.039,0.033,0.091-0.077-0.087,0.074
			l0.01-0.01l0.02-0.019l0.04-0.038l0.079-0.076l0.152-0.14c0.207-0.189,0.299-0.282,0.35-0.4c0.061-0.118,0.103-0.329,0.128-0.557
			c0.023-0.236,0.031-0.463,0.035-0.742c0.001-0.238-0.005-0.498-0.019-0.752c-0.028-0.513-0.083-1.031-0.132-1.574
			c-0.024-0.271-0.046-0.55-0.05-0.852c-0.001-0.152,0.001-0.309,0.027-0.495c0.031-0.163,0.036-0.41,0.325-0.756l0.072-0.069
			l0.167-0.128l0.16-0.116l0.32-0.232l0.641-0.465l1.283-0.929l0.539-0.39l0.36,0.542l2.478,3.73l0.104,0.156l-0.001,0.18
			l-0.021,3.617l-0.212-0.449l2.82,2.35l-0.845,0.159l2.357-4.153l-0.068,0.26l0.016-2.666l0.013,0.116
			c-0.129-0.562-0.27-1.131-0.425-1.683c-0.078-0.274-0.161-0.554-0.252-0.8c-0.041-0.112-0.089-0.227-0.157-0.359l-0.194-0.396
			l-1.553-3.168l-0.026-0.052l-0.011-0.05l-0.645-2.838l-0.134-0.589l0.596,0.043l5.164,0.373l-0.312,0.118l2.183-2.15l0.015-0.015
			l0.013-0.011c0.56-0.456,1.122-0.927,1.644-1.413c0.125-0.118,0.264-0.254,0.357-0.359c0.101-0.113,0.199-0.253,0.317-0.405
			l0.668-0.877l2.673-3.507l-0.031,0.049c0.314-0.642,0.636-1.327,0.803-1.981l0.033-0.193c0.01-0.007,0.004-0.055-0.005-0.103
			c0.015,0.028-0.021-0.046-0.027-0.064c-0.066-0.141-0.158-0.31-0.244-0.467l-0.546-0.957l-2.274-3.8l0.064,0.069l-2.983-2.19
			l-0.189-0.138l0.15-0.175l1.85-2.152l0.09-0.105l0.126,0.049l3.489,1.36l0.039,0.015l0.026,0.03l2.313,2.685l0.034,0.04l0,0.05
			l-0.014,1.833l0,0.023l-0.008,0.02l-1.021,2.659L109.924,59.841z"/>
	</g>
	<g>
		<path fill="#006838" d="M82.079,21.788l-3.71,3.157l0.041-0.038l-3.339,4.14l-0.084,0.104l-0.161,0.052L70.2,30.679l0.474-0.55
			l-0.63,6.36l-0.247-0.726c1.031,0.969,2.095,1.905,3.107,2.893l-1.252-0.149c0.978-0.647,1.992-1.236,3.008-1.819
			c1.028-0.566,2.05-1.14,3.097-1.675l-0.325,0.375c0.479-0.946,0.984-1.88,1.506-2.807c0.524-0.926,1.07-1.843,1.652-2.744
			l0.184,0.079c-0.251,1.043-0.538,2.071-0.848,3.089c-0.311,1.018-0.639,2.028-0.994,3.026l-0.067,0.19l-0.258,0.186
			c-0.953,0.687-1.931,1.336-2.903,1.992c-0.983,0.639-1.97,1.272-2.991,1.847l-0.714,0.402l-0.538-0.551
			c-0.988-1.012-1.924-2.076-2.893-3.107l-0.312-0.332l0.065-0.395l1.037-6.306l0.074-0.449l0.401-0.101l4.707-1.19l-0.245,0.155
			l3.661-3.859l0.028-0.029L78,24.473l3.956-2.843L82.079,21.788z"/>
	</g>
	<g>
		<path fill="#006838" d="M70.939,40.424l-1.499,3.093l-0.028-0.325l3.008,3.358l-0.03-0.034l5.381,5.126l-0.585-0.248l3.166-0.16
			l1.926-0.097l-1.158,1.674c-0.925,1.336-1.934,2.607-3.02,3.817l-0.347,0.387l-0.401-0.022c-1.555-0.087-3.111-0.239-4.666-0.473
			l-0.249-0.038l-0.068-0.083c-0.428-0.525-0.857-1.05-1.25-1.614l0.133-0.149c0.607,0.324,1.178,0.689,1.75,1.052l-0.316-0.12
			c1.555-0.234,3.111-0.386,4.666-0.473l-0.747,0.364c0.914-1.345,1.904-2.63,2.979-3.849l0.768,1.576l-3.166-0.16l-0.381-0.019
			l-0.204-0.229l-4.952-5.541l-0.029-0.033l-0.001-0.002l-2.658-3.642l-0.125-0.172l0.097-0.154l1.834-2.907L70.939,40.424z"/>
	</g>
	<g>
		<path fill="#006838" d="M74.832,57.299c1.146,0.797,2.272,1.618,3.404,2.431c1.137,0.807,2.247,1.648,3.366,2.477l-0.417-0.151
			l3.5-0.197l0.661-0.037l0.174,0.73c0.21,0.881,0.478,1.751,0.675,2.634c0.198,0.883,0.338,1.777,0.417,2.682l0.017,0.194
			l-0.001,0.012c-0.087,0.804-0.219,1.605-0.377,2.406c-0.166,0.801-0.352,1.601-0.632,2.398l-0.2-0.007
			c-0.225-0.814-0.356-1.625-0.466-2.436c-0.102-0.81-0.18-1.619-0.21-2.427l0.016,0.206c-0.254-0.872-0.447-1.756-0.583-2.651
			c-0.137-0.895-0.202-1.802-0.325-2.699l0.835,0.693l-3.5-0.197l-0.272-0.015l-0.146-0.136c-1.019-0.949-2.049-1.886-3.05-2.857
			c-1.007-0.964-2.02-1.921-3.013-2.902L74.832,57.299z"/>
	</g>
	<g>
		<path fill="#006838" d="M65.44,108.939l-3.032-3.339l-0.038-0.041l-0.03-0.09c-0.467-1.423-0.935-2.846-1.377-4.276l0.174,0.281
			l-2.937-2.382l-0.156-0.127l-0.072-0.254l-0.792-2.804l-0.816-2.798l-0.73-2.503l2.294,1.438c1.405,0.881,2.714,1.901,4.003,2.949
			l-0.25-0.12c1.652,0.643,3.286,1.348,4.865,2.241l-0.057,0.192c-1.81-0.107-3.565-0.402-5.302-0.759l-0.071-0.015l-0.18-0.105
			c-1.433-0.841-2.847-1.709-4.164-2.717l1.564-1.065l0.517,2.868l0.541,2.863l-0.228-0.381l2.729,2.618l0.141,0.135l0.034,0.146
			c0.336,1.459,0.645,2.925,0.956,4.39l-0.067-0.131l2.634,3.661L65.44,108.939z"/>
	</g>
	<g>
		<path fill="#006838" d="M75.651,116.789l1.608,0.872c0.543,0.294,1.059,0.584,1.614,0.842l3.289,1.602l-0.379,0.07l5.004-5.984
			l-0.13,0.295l0.53-6.275l0.153,0.501l-2.223-2.525l-0.371-0.421l0.338-0.491l4.416-6.423l0.244-0.364l0.253-0.417l0.507-0.832
			l1.033-1.652c0.683-1.105,1.399-2.188,2.128-3.264l-0.069,0.125c0.758-1.539,1.525-3.073,2.325-4.593l1.114,1.119
			c-0.732,0.292-1.46,0.593-2.199,0.871l-1.104,0.425l-0.553,0.21l-0.299,0.11l-0.282,0.091c-0.749,0.248-1.503,0.484-2.262,0.708
			c-0.757,0.229-1.512,0.462-2.28,0.666L87.98,91.87c0.688-0.396,1.389-0.761,2.088-1.131c0.697-0.375,1.399-0.738,2.106-1.089
			l0.264-0.133l0.238-0.134l0.52-0.282l1.042-0.559c0.693-0.378,1.396-0.733,2.095-1.097l1.987-1.035l-0.873,2.154
			c-0.645,1.591-1.322,3.168-2.008,4.74l-0.02,0.046l-0.049,0.079c-0.685,1.104-1.382,2.2-2.113,3.274l-1.087,1.617l-0.553,0.802
			l-0.277,0.401c-0.151,0.212-0.213,0.28-0.324,0.428l-4.732,6.194l-0.033-0.912l2.11,2.62l0.188,0.233l-0.034,0.268l-0.803,6.246
			l-0.023,0.181l-0.107,0.114l-5.329,5.696l-0.174,0.186l-0.206-0.116l-3.191-1.79c-0.536-0.288-1.065-0.626-1.577-0.943
			l-1.555-0.964L75.651,116.789z"/>
	</g>
	<g>
		<path fill="#006838" d="M100.116,81.47l2.537-2.638l-0.085,0.149l0.924-5.386l0.011-0.063l0.051-0.095l1.561-2.895l-0.034,0.066
			l1.222-3.049l0.224,0.927c-1.174-0.873-2.353-1.739-3.542-2.594l-0.219-0.157l-0.114-0.353c-0.412-1.274-0.774-2.562-1.064-3.869
			c-0.29-1.307-0.556-2.62-0.771-3.948l-0.054-0.336l0.101-0.166c0.738-1.217,1.516-2.415,2.397-3.563l0.18,0.086
			c-0.341,1.407-0.785,2.765-1.269,4.103l0.046-0.501c0.479,1.256,0.908,2.526,1.312,3.802c0.404,1.276,0.737,2.572,1.019,3.881
			l-0.333-0.51c1.089,0.979,2.187,1.946,3.291,2.906l0.475,0.414l-0.251,0.513l-1.445,2.95L106.26,71.2l-0.007,0.011l-1.772,2.771
			l0.062-0.158l-1.409,5.28l-0.027,0.101l-0.058,0.049l-2.796,2.361L100.116,81.47z"/>
	</g>
	<g>
		<path fill="#006838" d="M100.252,58.949c-0.652,0.742-1.32,1.468-1.986,2.196l0.118-0.269c0.188,2,0.283,4,0.427,6l-0.15-0.465
			c0.774,0.962,1.657,1.847,2.365,2.857l-0.107-0.126c0.626,0.652,1.198,1.358,1.736,2.097c0.529,0.749,1.038,1.518,1.433,2.4
			l-0.141,0.141c-0.882-0.395-1.651-0.905-2.4-1.433c-0.739-0.538-1.445-1.111-2.097-1.736l-0.048-0.046l-0.06-0.081
			c-0.736-0.99-1.298-2.105-1.969-3.143l-0.165-0.256l0.015-0.209c0.144-2,0.239-4,0.427-6l0.018-0.192l0.1-0.078
			c0.778-0.606,1.555-1.213,2.348-1.804L100.252,58.949z"/>
	</g>
	<g>
		<path fill="#006838" d="M95.948,67.569c-0.132,1.041-0.311,2.068-0.466,3.102l-0.024-0.324l0.82,1.432l0.239,0.418l-0.472,0.386
			c-0.779,0.637-1.588,1.229-2.341,1.905l0.259-0.259c-0.22,0.455-0.454,0.901-0.748,1.307c-0.295,0.405-0.622,0.789-0.982,1.151
			l0.142-0.415c-0.205,0.767-0.47,1.53-0.924,2.279l-0.199-0.014c-0.343-0.806-0.496-1.599-0.59-2.387l-0.007-0.057l0.149-0.359
			c0.196-0.471,0.424-0.921,0.685-1.349c0.261-0.428,0.582-0.815,0.918-1.193l0.209-0.236l0.05-0.024
			c0.913-0.436,1.771-0.954,2.658-1.429l-0.233,0.803l-0.513-1.568l-0.07-0.213l0.046-0.111c0.4-0.966,0.777-1.939,1.2-2.898
			L95.948,67.569z"/>
	</g>
	<g>
		<path fill="#006838" d="M87.951,86.876c0.206,1.375,0.383,2.75,0.533,4.125l-0.037-0.212l0.847,1.811l-0.064-0.137
			c0.277,0.383,0.587,0.747,0.867,1.128c0.281,0.381,0.504,0.795,0.687,1.233c0.35,0.885,0.64,1.804,0.652,2.885l-0.173,0.1
			c-0.932-0.547-1.587-1.254-2.181-1.997c-0.289-0.376-0.538-0.776-0.729-1.208C88.162,94.17,88,93.72,87.805,93.29l-0.064-0.138
			l-0.486-1.939l-0.042-0.166l0.005-0.046c0.15-1.375,0.327-2.75,0.533-4.125H87.951z"/>
	</g>
	<g>
		<path fill="#006838" d="M78.267,44.153c0.435,0.546,0.906,1.07,1.402,1.536c0.126,0.114,0.253,0.223,0.384,0.32
			c0.129,0.09,0.267,0.186,0.383,0.221c0.172,0.067,0.333,0.146,0.524,0.261l0.46,0.298c1.191,0.815,2.271,1.716,3.356,2.637
			l0.312,0.264l-0.174,0.44l-1.482,3.75l-0.033,0.065l-1.26,2.589l-0.194-1.23c1.089,0.877,2.066,1.877,3.013,2.91l0.32,0.349
			l-0.03,0.311c-0.151,1.556-0.367,3.111-0.797,4.667h-0.2c-0.43-1.556-0.646-3.111-0.797-4.667l0.29,0.66
			c-1.109-0.856-2.188-1.745-3.154-2.756l-0.592-0.62l0.398-0.611l1.573-2.411l-0.033,0.065l1.851-3.583l0.138,0.705
			c-0.969-0.995-1.957-2.003-2.975-2.927l-0.387-0.328c-0.099-0.083-0.242-0.182-0.389-0.262c-0.208-0.105-0.344-0.237-0.488-0.366
			c-0.137-0.131-0.26-0.268-0.379-0.407c-0.468-0.557-0.846-1.158-1.206-1.77L78.267,44.153z"/>
	</g>
	<g>
		<path fill="#006838" d="M83.451,36.202c0,0,0.701,3.384,1.198,6.782c0.121,0.85,0.353,1.692,0.425,2.491
			c0.057,0.801,0.01,1.556-0.081,2.206c-0.157,1.3-0.542,2.187-0.542,2.187l-0.199,0.015c0,0-0.51-0.821-0.854-2.084
			c-0.184-0.631-0.341-1.37-0.401-2.171c-0.045-0.802,0.062-1.668,0.057-2.527c-0.003-3.435,0.198-6.884,0.198-6.884L83.451,36.202z
			"/>
	</g>
	<g>
		<path fill="#006838" d="M52.951,69.709c0.193,1.306,0.361,2.611,0.502,3.917c0.078,0.653,0.126,1.306,0.188,1.958
			c0.046,0.653,0.178,1.306,0.235,1.958l-0.031-0.249c0.213,0.655,0.303,1.341,0.322,2.044c0.02,0.703-0.011,1.419-0.221,2.18
			l-0.194,0.049c-0.543-0.573-0.907-1.19-1.221-1.82c-0.314-0.63-0.557-1.277-0.678-1.956l-0.035-0.198l0.004-0.051
			c0.057-0.653,0.189-1.306,0.235-1.958c0.062-0.653,0.11-1.306,0.188-1.958c0.142-1.306,0.31-2.611,0.502-3.917H52.951z"/>
	</g>
	<g>
		<path fill="#006838" d="M80.279,113.807c1.155-1.56,2.336-3.095,3.555-4.594l-0.163,0.27c0.167-0.685,0.351-1.365,0.483-2.061
			c0.132-0.697,0.282-1.387,0.563-2.034l0.966,1.341c-0.611-0.04-1.222-0.147-1.833-0.283c-0.611-0.143-1.222-0.329-1.833-0.635
			v-0.2c0.611-0.306,1.222-0.492,1.833-0.635c0.611-0.136,1.222-0.243,1.833-0.283l1.306-0.086l-0.34,1.427
			c-0.163,0.686-0.457,1.329-0.77,1.966c-0.312,0.637-0.572,1.291-0.85,1.939l-0.087,0.203l-0.076,0.067
			c-1.448,1.279-2.934,2.521-4.445,3.74L80.279,113.807z"/>
	</g>
	<g>
		<path fill="#006838" d="M70.942,90.958c0.586,0.954,1.14,1.922,1.706,2.885c0.573,0.959,1.098,1.942,1.647,2.913l0.006,0.01
			l0.036,0.104c0.407,1.186,0.801,2.375,1.251,3.549c0.453,1.173,0.669,2.41,0.798,3.669l0.037,0.359l-0.049,0.098
			c-0.205,0.409-0.431,0.81-0.681,1.205c-0.245,0.396-0.513,0.784-0.829,1.157l-0.19-0.061c-0.038-0.487-0.029-0.959,0.004-1.423
			c0.028-0.466,0.08-0.924,0.152-1.375l-0.012,0.456c-0.51-1.159-0.933-2.34-1.119-3.584c-0.189-1.243-0.433-2.472-0.665-3.704
			l0.041,0.114c-0.395-1.043-0.815-2.074-1.186-3.129c-0.379-1.051-0.769-2.096-1.127-3.156L70.942,90.958z"/>
	</g>
	<g>
		<path fill="#006838" d="M82.092,75.693c-0.507,0.827-1.045,1.627-1.581,2.428c-0.528,0.808-1.13,1.55-1.649,2.366l-0.156,0.137
			c-0.251,0.247-0.499,0.499-0.78,0.701c-0.282,0.203-0.594,0.363-0.917,0.506c-0.657,0.272-1.346,0.497-2.184,0.508l-0.114-0.164
			c0.3-0.783,0.75-1.352,1.232-1.874c0.246-0.253,0.504-0.491,0.792-0.685c0.288-0.194,0.609-0.34,0.928-0.49l-0.155,0.137
			c0.759-0.6,1.435-1.275,2.184-1.883c0.742-0.616,1.482-1.232,2.252-1.822L82.092,75.693z"/>
	</g>
	<g>
		<path fill="#006838" d="M80.418,67.617c-0.474,0.648-0.984,1.257-1.477,1.885c-0.503,0.617-1.022,1.216-1.545,1.81l-0.067,0.076
			l-0.267,0.106c-0.352,0.14-0.693,0.32-1.041,0.474c-0.349,0.153-0.714,0.245-1.092,0.285c-0.379,0.04-0.768,0.043-1.167,0.007
			c-0.399-0.036-0.808-0.106-1.245-0.279l-0.052-0.193c0.29-0.369,0.608-0.635,0.935-0.867c0.327-0.232,0.665-0.425,1.013-0.581
			c0.348-0.155,0.709-0.26,1.088-0.303c0.378-0.042,0.764-0.058,1.139-0.114l-0.334,0.182c0.644-0.461,1.291-0.918,1.955-1.356
			c0.674-0.427,1.331-0.874,2.023-1.281L80.418,67.617z"/>
	</g>
	<g>
		<path fill="#006838" d="M80.421,58.947c-0.627,0.946-1.279,1.865-1.959,2.756c-0.344,0.441-0.699,0.872-1.007,1.35
			c-0.3,0.487-0.715,0.856-1.218,1.136l-0.523,0.291l-0.113-0.031c-0.549-0.15-1.097-0.365-1.646-0.807v-0.2
			c0.549-0.443,1.097-0.657,1.646-0.807l-0.636,0.26c0.289-0.498,0.666-0.906,1.157-1.197c0.484-0.299,0.921-0.647,1.368-0.983
			c0.903-0.664,1.834-1.3,2.791-1.91L80.421,58.947z"/>
	</g>
	<g>
		<path fill="#006838" d="M62.019,78.995c-0.268,0.786-0.558,1.558-0.869,2.316c-0.15,0.383-0.323,0.751-0.487,1.125
			c-0.176,0.366-0.287,0.774-0.448,1.15l-0.011,0.026l-0.199,0.214c-0.298,0.32-0.68,0.54-1.11,0.701
			c-0.43,0.162-0.895,0.282-1.479,0.258l-0.128-0.154c0.082-0.579,0.284-1.015,0.521-1.409c0.236-0.395,0.521-0.731,0.89-0.966
			l-0.21,0.24c0.27-0.307,0.589-0.583,0.844-0.9c0.267-0.309,0.524-0.625,0.805-0.925c0.55-0.608,1.121-1.203,1.714-1.784
			L62.019,78.995z"/>
	</g>
	<g>
		<path fill="#006838" d="M58.053,85.949c0,0,2.577,0.494,5.082,1.179c0.625,0.175,1.289,0.245,1.86,0.447
			c0.566,0.216,1.058,0.513,1.462,0.813c0.817,0.578,1.262,1.227,1.262,1.227l-0.071,0.187c0,0-0.763,0.191-1.759,0.082
			c-0.502-0.043-1.067-0.148-1.634-0.361c-0.562-0.227-1.106-0.616-1.689-0.899c-2.329-1.149-4.585-2.488-4.585-2.488L58.053,85.949
			z"/>
	</g>
	<g>
		<path fill="#006838" d="M60.898,91.089l-3.485,1.902l-0.15,0.082l-0.04-0.169l-2.069-8.817l0.024,0.059l-1.52-2.488l-0.087-0.143
			l0.115-0.126l1.983-2.182l-0.034,0.047l1.479-2.678l0.034,0.314l-2.69-2.979l-0.054-0.059l-0.017-0.083l-0.866-4.16l-0.029-0.141
			l0.086-0.122l2.308-3.268l0.232-0.328l0.31,0.265l4.531,3.881l0.141,0.121l0.002,0.193l0.051,6.5l-0.165-0.356l2.181,1.816
			l0.076,0.063l0.044,0.088l0.896,1.787l0.426,0.912c0.138,0.321,0.272,0.595,0.392,1.012l0.021,0.127l0.007,0.064l0.003,0.032
			l0,0.004c0.001,0.019-0.012-0.15-0.006-0.077l0.001,0.004l0.002,0.008c0.009,0.032,0.016,0.101,0.026,0.101
			c0.017,0.006,0.014,0.017,0.058,0.1c0.06,0.125,0.142,0.265,0.221,0.4c0.16,0.273,0.336,0.547,0.514,0.819
			c0.357,0.544,0.731,1.088,1.108,1.62l0.052,0.074l0.026,0.091l1.191,4.16l-0.42-0.398l1.502,0.324l0.263,0.057l0.125,0.246
			l2.023,3.988l0.077,0.151l-0.016,0.174c-0.156,1.682-0.329,3.355-0.543,5.035c-0.112,0.842-0.224,1.676-0.401,2.54
			c-0.054,0.224-0.095,0.435-0.194,0.705l-0.097,0.281l-0.042,0.207c-0.061,0.345-0.079,0.748-0.094,1.159
			c-0.027,0.828-0.047,1.706-0.172,2.58c-0.055,0.438-0.145,0.874-0.245,1.307c-0.062,0.227-0.102,0.405-0.189,0.67
			c-0.077,0.205-0.119,0.379-0.235,0.618c-0.199,0.469-0.431,0.845-0.693,1.232c-0.266,0.375-0.556,0.731-0.874,1.054
			c-0.314,0.328-0.65,0.629-1.004,0.908c-0.362,0.282-0.705,0.531-1.14,0.779l0.244-1.051c1.395,1.91,2.803,3.821,4.244,5.685
			c0.36,0.465,0.725,0.927,1.092,1.367l0.273,0.318l0.127,0.133l0.063,0.067c0.009,0.006-0.034-0.036-0.058-0.042
			c-0.015-0.006-0.031-0.011-0.047-0.012l-0.025-0.001l-0.003,0c-0.1-0.018,0.219,0.04-0.225-0.039l0.007,0l0.014-0.001
			c0.023-0.004,0.105,0.002,0.08-0.01c-0.048-0.014-0.102-0.014-0.148,0c-0.022,0.006-0.048,0.019-0.06,0.027l0.03-0.02
			c0.073-0.042,0.173-0.118,0.273-0.194c0.827-0.679,1.662-1.56,2.44-2.402l-0.211,0.542l-0.08-10.666l-0.005-0.692l0.685-0.167
			l2.828-0.688l-0.337,0.158l4.392-3.366l-0.292,0.365l2.295-5.184l-0.033,0.73l-2.364-6.697l0.249,0.393l-5.514-5.386l-0.686-0.677
			l-0.32-0.309l-0.355-0.326l-1.42-1.303l-2.839-2.606l1.68-0.894c0.445,3,0.849,6.006,1.262,9.01l-0.107-0.317l2.533,4.694
			l-1.356-0.231l3.449-3.005l-0.093,0.098c2.084-2.519,4.159-5.045,6.271-7.541l0.049,0.932l-2.703-2.806l-0.169-0.175l-0.066-0.069
			l-0.088-0.084l-0.352-0.336l-0.704-0.673l-1.409-1.345l-1.409-1.345c-0.203-0.196-0.476-0.424-0.711-0.634l-0.732-0.643
			l-2.911-2.59l-0.083-0.074l-0.029-0.087l-1.856-5.552l-0.028-0.083l0.027-0.07l1.455-3.791l0.189,0.066l-1.212,3.875l-0.001-0.153
			l2.144,5.447l-0.112-0.161l3.036,2.442l0.755,0.615c0.257,0.214,0.492,0.391,0.767,0.634l1.458,1.292l1.458,1.292l0.729,0.646
			l0.365,0.323l0.198,0.182l0.175,0.169l2.806,2.703l0.441,0.425l-0.392,0.507c-1.999,2.587-4.035,5.144-6.063,7.709l-0.037,0.046
			l-0.057,0.052L75.353,94.7l-0.808,0.735l-0.548-0.966l-2.634-4.639l-0.079-0.139l-0.028-0.178
			c-0.476-2.995-0.961-5.989-1.405-8.989l-0.413-2.793l2.093,1.898l2.855,2.589l1.428,1.294l0.357,0.324l0.376,0.357l0.69,0.672
			l5.494,5.407l0.173,0.17l0.076,0.223l2.303,6.719l0.13,0.378l-0.162,0.352l-2.372,5.149l-0.104,0.226l-0.188,0.14l-4.441,3.3
			l-0.158,0.118l-0.179,0.041l-2.838,0.645l0.68-0.858l-0.08,10.666l-0.002,0.324l-0.209,0.218
			c-0.846,0.886-1.649,1.733-2.665,2.551c-0.137,0.102-0.274,0.205-0.458,0.312l-0.065,0.039c-0.046,0.024-0.106,0.05-0.162,0.071
			c-0.115,0.043-0.237,0.072-0.353,0.087c-0.094,0.01-0.09,0.005-0.14,0.008l-0.014,0l-0.007,0
			c-0.447-0.079-0.129-0.024-0.231-0.043l-0.009-0.004l-0.069-0.035l-0.135-0.08c-0.082-0.052-0.187-0.136-0.232-0.181l-0.089-0.095
			l-0.177-0.192l-0.302-0.36c-0.387-0.476-0.752-0.95-1.113-1.427c-1.439-1.908-2.823-3.834-4.204-5.773l-0.468-0.658l0.712-0.394
			c0.297-0.164,0.643-0.401,0.944-0.634c0.309-0.237,0.603-0.494,0.873-0.77c0.275-0.272,0.52-0.568,0.744-0.874
			c0.213-0.303,0.424-0.647,0.556-0.951c0.078-0.135,0.146-0.37,0.219-0.556c0.046-0.134,0.107-0.363,0.158-0.541
			c0.093-0.384,0.179-0.77,0.233-1.166c0.123-0.789,0.152-1.594,0.189-2.444c0.022-0.427,0.041-0.866,0.131-1.348
			c0.02-0.118,0.065-0.273,0.101-0.406l0.113-0.313c0.049-0.124,0.096-0.324,0.142-0.508c0.17-0.78,0.294-1.61,0.412-2.432
			c0.23-1.65,0.423-3.318,0.596-4.98l0.061,0.325l-1.976-4.012l0.388,0.303l-1.498-0.342l-0.332-0.076l-0.088-0.323l-1.142-4.173
			l0.079,0.165c-0.382-0.552-0.752-1.103-1.113-1.669c-0.18-0.284-0.359-0.568-0.53-0.868c-0.086-0.151-0.17-0.298-0.252-0.471
			c-0.034-0.063-0.097-0.206-0.14-0.354c-0.023-0.076-0.02-0.091-0.031-0.139l-0.001-0.008l-0.001-0.004
			c0.005,0.071-0.008-0.099-0.007-0.081l0,0L64,82.26l-0.002,0.003l0.002,0.005c-0.06-0.221-0.198-0.552-0.322-0.838l-0.404-0.891
			l-0.857-1.774l0.119,0.151l-2.152-1.85l-0.167-0.143l0.002-0.213l0.051-6.5l0.143,0.313l-4.469-3.952l0.541-0.063l-2.359,3.232
			l0.057-0.263l0.801,4.173l-0.071-0.142l2.643,3.021l0.129,0.148l-0.096,0.167l-1.521,2.655l-0.015,0.027l-0.019,0.02l-2.017,2.151
			l0.028-0.268l1.48,2.512l0.017,0.029l0.007,0.03l1.931,8.849l-0.19-0.087l3.515-1.847L60.898,91.089z"/>
	</g>
	<g>
		<path fill="#006838" d="M70.878,113.78c0,0,1.31-0.102,2.564-0.007c0.313,0.027,0.655-0.053,0.937,0.012
			c0.278,0.08,0.51,0.251,0.695,0.446c0.377,0.367,0.553,0.882,0.553,0.882l-0.054,0.193c0,0-0.418,0.349-0.931,0.466
			c-0.26,0.07-0.547,0.096-0.826,0.019c-0.275-0.091-0.526-0.338-0.807-0.478c-1.12-0.572-2.186-1.341-2.186-1.341L70.878,113.78z"
			/>
	</g>
	<g>
		<path fill="#006838" d="M71.788,11.521l1.248-2.989l0.036-0.086l0.109-0.029l2.296-0.606l0.075-0.02l0.098,0.031l4.751,1.527
			l0.186,0.06l0.102,0.204c0.409,0.823,0.759,1.673,1.08,2.538c0.166,0.429,0.302,0.873,0.448,1.311
			c0.15,0.437,0.267,0.889,0.378,1.344l-0.091,0.042c-0.276-0.378-0.546-0.759-0.783-1.156c-0.241-0.394-0.492-0.784-0.713-1.188
			c-0.454-0.802-0.878-1.618-1.243-2.462l0.287,0.264l-4.613-1.904l0.172,0.012l-2.338,0.414l0.145-0.115l-1.538,2.851
			L71.788,11.521z"/>
	</g>
	<g>
		<path fill="#006838" d="M71.811,20.58l2.841-1.682l-0.099,0.091l1.53-2.702l0.176-0.311l0.392,0.196
			c1.086,0.543,2.056,1.251,2.995,2.003L79.4,18.091c0.933,0.118,1.863,0.28,2.787,0.568l-0.005,0.1
			c-0.949,0.191-1.891,0.255-2.831,0.275l-0.102,0.002l-0.143-0.087c-1.03-0.622-2.029-1.29-2.912-2.122l0.567-0.115l-1.776,2.547
			l-0.048,0.069l-0.052,0.023l-3.027,1.318L71.811,20.58z"/>
	</g>
</g>
</svg>
